<svg width="30" height="30" viewBox="0 0 30 30" fill="none" xmlns="http://www.w3.org/2000/svg">
<path d="M27.6126 19.4787L16.9926 17.0015L19.4608 27.6297L21.9423 25.1524L25.7981 29.0015L29.0001 25.8183L25.1443 21.956L27.6126 19.4787Z" stroke="#111827" stroke-width="2" stroke-linecap="round" stroke-linejoin="round"/>
<path d="M2.99548 21.2667V10.604" stroke="#111827" stroke-width="2" stroke-miterlimit="10" stroke-linecap="round" stroke-linejoin="round"/>
<path d="M10.1112 21.2667V10.604" stroke="#111827" stroke-width="2" stroke-miterlimit="10" stroke-linecap="round" stroke-linejoin="round"/>
<path d="M17.2268 12.9909C17.2268 12.1854 17.2268 11.6736 17.2268 10.8682" stroke="#111827" stroke-width="2" stroke-miterlimit="10" stroke-linecap="round" stroke-linejoin="round"/>
<path d="M24.3425 14.1093L24.3425 10.7251" stroke="#111827" stroke-width="2" stroke-miterlimit="10" stroke-linecap="round" stroke-linejoin="round"/>
<path d="M14.1993 26.332H0.999878V22.5464C0.999878 21.8428 1.56999 21.2671 2.26679 21.2671H13.2507" stroke="#111827" stroke-width="2" stroke-miterlimit="10" stroke-linecap="round" stroke-linejoin="round"/>
<path d="M1.00012 7.41517C1.00012 6.92129 1.28692 6.4724 1.73496 6.26498L12.605 1.23291C13.28 0.920411 14.0582 0.920411 14.7333 1.23291L25.6033 6.26498C26.0513 6.4724 26.3381 6.92129 26.3381 7.41517V8.66524C26.3381 9.36519 25.7709 9.93261 25.0712 9.93261H2.26703C1.56734 9.93261 1.00012 9.36519 1.00012 8.66524V7.41517Z" stroke="#111827" stroke-width="2"/>
</svg>
