<svg width="30" height="26" viewBox="0 0 30 26" fill="none" xmlns="http://www.w3.org/2000/svg">
<path d="M29.0026 19.6663C29.0026 20.6663 28.7226 21.613 28.2293 22.413C27.3093 23.9597 25.6159 24.9997 23.6693 24.9997C21.7226 24.9997 20.0293 23.9597 19.1093 22.413C18.6159 21.613 18.3359 20.6663 18.3359 19.6663C18.3359 16.7197 20.7226 14.333 23.6693 14.333C26.6159 14.333 29.0026 16.7197 29.0026 19.6663Z" stroke="#111827" stroke-width="2" stroke-miterlimit="10" stroke-linecap="round" stroke-linejoin="round"/>
<path d="M21.5898 19.6655L22.9098 20.9855L25.7498 18.3589" stroke="#111827" stroke-width="2" stroke-linecap="round" stroke-linejoin="round"/>
<path d="M27.668 16.0662V7.66618C27.668 2.99951 25.0013 0.999512 21.0013 0.999512H7.66797C3.66797 0.999512 1.0013 2.99951 1.0013 7.66618V15.6662C1.0013 20.3328 3.66797 22.3328 7.66797 22.3328H19.0013" stroke="#111827" stroke-width="2" stroke-miterlimit="10" stroke-linecap="round" stroke-linejoin="round"/>
<path d="M17.002 7.9707H23.0972" stroke="#111827" stroke-width="2" stroke-linecap="round" stroke-linejoin="round"/>
<path d="M17.002 12.4292H19.4344" stroke="#111827" stroke-width="2" stroke-linecap="round" stroke-linejoin="round"/>
<path d="M9.16758 10.3713C10.4931 10.3713 11.5676 9.29677 11.5676 7.97129C11.5676 6.64581 10.4931 5.57129 9.16758 5.57129C7.84209 5.57129 6.76758 6.64581 6.76758 7.97129C6.76758 9.29677 7.84209 10.3713 9.16758 10.3713Z" stroke="#111827" stroke-width="2" stroke-linecap="round" stroke-linejoin="round"/>
<path d="M13.5099 16.9999C13.5099 16.9999 13.3576 13.3936 9.15438 13.3936C4.95121 13.3936 4.79883 16.9999 4.79883 16.9999" stroke="#111827" stroke-width="2" stroke-linecap="round" stroke-linejoin="round"/>
</svg>
