<svg width="30" height="28" viewBox="0 0 30 28" fill="none" xmlns="http://www.w3.org/2000/svg">
<path d="M23.8001 6H6.20015C3.54918 6 1.40015 8.14903 1.40015 10.8V22C1.40015 24.651 3.54918 26.8 6.20015 26.8H23.8001C26.4511 26.8 28.6001 24.651 28.6001 22V10.8C28.6001 8.14903 26.4511 6 23.8001 6Z" stroke="#111827" stroke-width="2" stroke-linecap="round" stroke-linejoin="round"/>
<path d="M13.4002 1.2002H16.6002C18.3602 1.2002 19.8002 2.6402 19.8002 4.4002V6.00019H10.2002V4.4002C10.2002 2.6402 11.6402 1.2002 13.4002 1.2002V1.2002Z" stroke="#111827" stroke-width="2" stroke-linecap="round" stroke-linejoin="round"/>
<path d="M1.40015 10.7998C4.50681 13.3865 8.41348 14.7998 12.4401 14.7998H17.5468C21.5868 14.7998 25.4935 13.3865 28.6001 10.7998" stroke="#111827" stroke-width="2" stroke-linecap="round" stroke-linejoin="round"/>
<path d="M15.0002 16.9731V14.7998" stroke="#111827" stroke-width="2" stroke-linecap="round" stroke-linejoin="round"/>
</svg>
