<svg width="20" height="17" viewBox="0 0 20 17" fill="none" xmlns="http://www.w3.org/2000/svg">
<path d="M15.7991 1.61523L16.3908 2.82357C16.4658 2.97357 16.6074 3.07357 16.7658 3.09857L18.0991 3.29023C18.5074 3.34857 18.6741 3.8569 18.3741 4.14023L17.4074 5.0819C17.2908 5.19857 17.2324 5.36523 17.2658 5.52357L17.4908 6.84857C17.5574 7.2569 17.1324 7.56523 16.7658 7.37357L15.5741 6.74857C15.4324 6.67357 15.2574 6.67357 15.1074 6.74857L13.9158 7.37357C13.5491 7.56523 13.1241 7.2569 13.1908 6.84857L13.4158 5.52357C13.4408 5.36523 13.3908 5.19857 13.2741 5.0819L12.3074 4.14023C12.0074 3.84857 12.1741 3.34857 12.5824 3.29023L13.9158 3.09857C14.0824 3.07357 14.2158 2.97357 14.2908 2.82357L14.8824 1.61523C15.0658 1.24023 15.5991 1.24023 15.7824 1.61523H15.7991Z" stroke="black" stroke-width="1.5" stroke-linecap="round" stroke-linejoin="round"/>
<path d="M18.4736 9.39844V12.3984C18.4736 14.0568 17.132 15.3984 15.4736 15.3984H4.47363C2.8153 15.3984 1.47363 14.0568 1.47363 12.3984V4.39844C1.47363 2.7401 2.8153 1.39844 4.47363 1.39844H9.97363" stroke="black" stroke-width="1.5" stroke-linecap="round" stroke-linejoin="round"/>
<path d="M1.47363 5.39844H9.97363" stroke="black" stroke-width="1.5" stroke-linecap="round" stroke-linejoin="round"/>
<path d="M4.97363 12.0654H6.47363" stroke="black" stroke-width="1.5" stroke-linecap="round" stroke-linejoin="round"/>
<path d="M8.97363 12.0654H11.9736" stroke="black" stroke-width="1.5" stroke-linecap="round" stroke-linejoin="round"/>
</svg>
