<svg width="146" height="155" viewBox="0 0 146 155" fill="none" xmlns="http://www.w3.org/2000/svg">
<path d="M122.292 88.9208C122.292 88.9208 123.673 91.011 121.708 93.3637C119.235 96.3473 106.524 99.9201 97.3494 100.422C88.1655 100.923 83.5251 100.672 73.9447 100.298C67.9453 100.058 61.8477 99.9767 56.7178 100.505L28.2851 102.693C28.2851 102.693 37.5307 72.0428 40.009 69.9868C42.5285 67.8945 78.3226 76.0209 77.5804 75.8071L77.4228 75.6993L77.697 75.8049C81.8531 75.6141 89.897 75.0397 98.8284 72.6873C103.779 71.3765 106.378 74.5311 106.127 76.3696C106.127 76.3696 113.978 74.2013 116.068 79.2851L116.271 80.1475C116.271 80.1475 124.062 79.1565 125.124 83.8031C126.073 87.9641 122.292 88.9208 122.292 88.9208Z" fill="#E99E93"/>
<path d="M85.9434 80.3236C85.7405 80.3105 85.5675 80.1428 85.5434 79.9261C85.5206 79.6898 85.7001 79.4765 85.9339 79.4622C90.8839 79.0287 100.01 77.5445 106.4 76.3529C106.635 76.3095 106.858 76.4608 106.9 76.6983C106.942 76.9357 106.791 77.1607 106.555 77.2042C100.146 78.4042 90.981 79.886 86.0111 80.328C85.9917 80.3267 85.9724 80.3255 85.9434 80.3236Z" fill="#D67570"/>
<path d="M87.788 85.0645C87.5851 85.0513 87.4121 84.8836 87.388 84.6667C87.3652 84.4304 87.5446 84.2169 87.7785 84.2027C87.8958 84.1907 99.387 83.191 108.848 81.2089C111.792 80.5868 114.409 80.2176 116.609 80.1151C116.853 80.1015 117.044 80.29 117.057 80.5257C117.07 80.7614 116.882 80.9645 116.648 80.9788C114.486 81.0838 111.919 81.4464 109.014 82.0612C99.5027 84.0597 87.9633 85.0562 87.846 85.0682C87.8267 85.067 87.8074 85.0657 87.7784 85.0638L87.788 85.0645Z" fill="#D67570"/>
<path d="M91.6267 88.4709C88.8913 88.2934 87.2573 88.0494 87.229 88.0377C86.9983 88.003 86.8389 87.7759 86.874 87.5416C86.9092 87.3074 87.1144 87.1434 87.3644 87.1793C87.432 87.1837 94.6011 88.2698 104.283 87.499C106.011 87.3647 107.683 87.1777 109.296 87.0065C115.819 86.2967 120.973 85.7345 122.908 88.8655C123.03 89.0705 122.974 89.3329 122.771 89.4675C122.568 89.5923 122.31 89.5361 122.178 89.3305C120.523 86.661 115.613 87.1997 109.384 87.8694C107.77 88.0505 106.088 88.2271 104.351 88.3705C99.1778 88.7836 94.71 88.671 91.6363 88.4715L91.6267 88.4709Z" fill="#D67570"/>
<path d="M57.347 42.3439L57.0788 41.8984C57.8828 40.6344 58.1739 38.8315 57.7301 36.7581C56.8404 32.504 53.2873 28.7438 49.7972 28.3478C49.5189 28.3205 49.2488 28.3131 48.987 28.3258L48.7703 27.9712L47.2334 28.7993C45.366 29.7915 44.4569 32.2761 45.0922 35.3356C45.9819 39.5896 49.535 43.3498 53.0251 43.7459C53.9646 43.854 54.8064 43.7027 55.5182 43.3386L57.3361 42.3627L57.347 42.3439Z" fill="#FF9D00"/>
<path d="M57.5473 42.2191C60.2023 40.5408 60.356 36.0082 57.8905 32.0952C55.425 28.1823 51.2739 26.3707 48.6189 28.049C45.9639 29.7274 45.8102 34.26 48.2757 38.1729C50.7412 42.0859 54.8922 43.8974 57.5473 42.2191Z" fill="#FFCC4D"/>
<path d="M55.0343 41.6132C54.89 41.6041 54.7456 41.595 54.5938 41.5562C51.9211 41.0852 49.0462 37.8551 48.1708 34.3619C47.657 32.3231 47.9164 30.5573 48.8682 29.5267C49.5378 28.7996 50.4653 28.5272 51.5725 28.7238C54.2355 29.1941 57.1201 32.4248 57.9955 35.9181C58.5086 37.9665 58.2499 39.7227 57.298 40.7533C56.7225 41.3791 55.9386 41.6704 55.0343 41.6132ZM51.1109 29.1036C50.3316 29.0544 49.6666 29.3045 49.1756 29.8286C48.3391 30.7301 48.116 32.3911 48.5837 34.2614C49.4212 37.6061 52.1414 40.6999 54.6616 41.1417C55.6161 41.3092 56.4152 41.0773 56.9797 40.4702C57.8162 39.5686 58.0392 37.9076 57.5716 36.0374C56.734 32.6926 54.0042 29.5982 51.4937 29.1571C51.3604 29.1291 51.2353 29.1212 51.1006 29.1127L51.1109 29.1036Z" fill="#FF9D00"/>
<path d="M127.285 22.9562L71.0149 13.2974C66.206 12.4719 61.6385 15.7011 60.813 20.51L55.0199 54.2589C54.1945 59.0678 57.4237 63.6353 62.2326 64.4608L118.503 74.1196C123.311 74.9451 127.879 71.7159 128.704 66.907L134.498 33.1581C135.323 28.3492 132.094 23.7816 127.285 22.9562Z" fill="#3395FF"/>
<path d="M133.643 38.1324L59.959 25.4844L58.2452 35.4683L131.93 48.1164L133.643 38.1324Z" fill="#1C3FCA"/>
<path d="M120.07 56.0122L110.954 54.4474C109.2 54.1464 107.534 55.3239 107.233 57.0776L106.419 61.824C106.118 63.5776 107.295 65.2432 109.049 65.5442L118.165 67.1091C119.919 67.4101 121.584 66.2325 121.885 64.4789L122.7 59.7325C123.001 57.9789 121.824 56.3132 120.07 56.0122Z" fill="#FFCC4D"/>
<path d="M86.567 88.1331C84.0883 90.1839 61.0797 86.5894 61.0797 86.5894L56.6551 100.356C53.611 100.662 50.9005 101.184 48.7695 102.007C43.0717 104.235 21.3946 118.943 21.3946 118.943L-13.5109 90.4971C-13.5109 90.4971 15.529 70.1305 30.3042 66.2492C41.891 63.2115 50.7414 64.1034 60.861 68.5824C70.9807 73.0614 72.4575 73.8288 75.3212 74.7132L77.3967 75.5087L77.5539 75.6164C78.2939 75.839 79.129 76.0872 80.0882 76.3628C88.0184 78.6324 89.0974 86.0366 86.567 88.1331Z" fill="#E99E93"/>
<g opacity="0.3">
<path d="M77.9714 89.2171C77.75 89.2033 77.5791 89.0265 77.5761 88.8016C77.5667 88.2636 77.5516 85.5365 78.456 84.6648C78.914 84.2146 79.6357 83.9959 80.5529 84.0142C82.0979 84.0424 83.8039 84.7842 84.6981 85.7879C85.9594 87.1957 85.5116 88.4379 85.101 88.9008C84.9432 89.0766 84.6709 89.0986 84.4993 88.9316C84.327 88.7742 84.3178 88.5001 84.466 88.3237C84.5397 88.2403 85.0856 87.5123 84.0658 86.3737C83.3233 85.5456 81.8316 84.9149 80.5191 84.8817C79.8528 84.8694 79.3307 85.0028 79.0393 85.2875C78.5717 85.7371 78.3978 87.6022 78.4288 88.7767C78.4311 89.0114 78.2423 89.2145 78.0099 89.2195C78.0003 89.2189 77.9811 89.2177 77.9714 89.2171Z" fill="white"/>
</g>
<path d="M78.3409 89.2504C71.366 88.8092 62.5362 87.459 61.0414 87.2179C60.8113 87.1838 60.6526 86.9587 60.6883 86.7264C60.724 86.4941 60.9582 86.333 61.1787 86.3665C70.351 87.8067 84.6177 89.4226 86.3263 87.9962C87.2319 87.2422 87.5967 85.6331 87.2523 83.9107C87.0083 82.693 85.7541 78.6065 79.9973 76.962C79.038 76.6863 78.202 76.4477 77.4618 76.2249C77.2336 76.1616 77.1053 75.9189 77.1796 75.6891C77.2442 75.4586 77.4859 75.3273 77.7134 75.4003C78.4536 75.623 79.2799 75.861 80.2393 76.1367C84.4378 77.3406 87.3786 80.1753 88.0977 83.7393C88.5153 85.7987 88.0432 87.6943 86.88 88.6665C85.9331 89.4569 82.4603 89.5109 78.3506 89.251L78.3409 89.2504Z" fill="#D67570"/>
<path d="M-0.660623 145.521L-32.9552 96.6085L-5.55858 77.5069C-1.32818 74.5587 4.032 73.8354 8.85235 75.5629L14.6734 71.4484C15.8029 70.6526 17.3352 70.8664 18.1878 71.9435L42.9283 103.267C43.8072 104.385 43.6252 106.011 42.5267 106.916L36.4916 111.874L36.4093 112.356C35.7391 116.523 33.4547 120.267 30.0678 122.772L-0.659258 145.502L-0.660623 145.521Z" fill="#4F6FDF"/>
<path d="M36.3836 112.901C36.2681 112.894 36.1464 112.837 36.0763 112.736L10.2354 78.211C10.0937 78.0268 10.132 77.7565 10.3161 77.6123C10.5002 77.4681 10.7683 77.5045 10.9099 77.6888L36.7508 112.213C36.8925 112.398 36.8542 112.668 36.6701 112.812C36.5883 112.875 36.4798 112.907 36.3836 112.901Z" fill="#1B1074"/>
<path d="M129.506 39.4958L129.835 39.0783C129.205 37.7237 129.18 35.8813 129.901 33.8718C131.389 29.7486 135.449 26.4406 138.983 26.4888C139.263 26.4967 139.541 26.5241 139.799 26.5696L140.064 26.2357L141.481 27.2506C143.202 28.4795 143.764 31.0668 142.695 34.038C141.207 38.1612 137.147 41.4692 133.613 41.421C132.657 41.4093 131.844 41.1533 131.189 40.7029L129.515 39.4964L129.506 39.4958Z" fill="#FF9D00"/>
<path d="M139.099 36.4988C142.101 32.9144 142.592 28.3825 140.195 26.3765C137.798 24.3706 133.421 25.6501 130.418 29.2345C127.416 32.8189 126.926 37.3508 129.323 39.3568C131.72 41.3627 136.096 40.0832 139.099 36.4988Z" fill="#FFCC4D"/>
<path d="M131.902 39.0556C130.988 38.9978 130.252 38.6104 129.76 37.9073C128.961 36.766 128.952 34.9735 129.747 33.0078C131.105 29.6363 134.427 26.7786 137.152 26.6489C138.277 26.5838 139.167 26.9906 139.738 27.7961C140.537 28.9374 140.547 30.73 139.751 32.6957C138.393 36.0672 135.071 38.9249 132.347 39.0545C132.191 39.0642 132.046 39.0648 131.902 39.0556ZM137.566 27.0841C137.441 27.0762 137.306 27.0677 137.17 27.0786C134.6 27.2083 131.441 29.94 130.141 33.1691C129.415 34.9736 129.404 36.648 130.106 37.6565C130.58 38.339 131.349 38.6701 132.319 38.6243C134.889 38.4946 138.047 35.7629 139.347 32.5338C140.073 30.7293 140.085 29.0549 139.382 28.0463C138.969 27.4651 138.345 27.1334 137.556 27.0835L137.566 27.0841Z" fill="#FF9D00"/>
</svg>
