<svg width="40" height="40" viewBox="0 0 40 40" fill="none" xmlns="http://www.w3.org/2000/svg">
<path d="M17.9158 4.0832C19.0658 3.09987 20.9492 3.09987 22.1158 4.0832L24.7492 6.34987C25.2492 6.7832 26.1825 7.1332 26.8492 7.1332H29.6825C31.4492 7.1332 32.8992 8.5832 32.8992 10.3499V13.1832C32.8992 13.8332 33.2492 14.7832 33.6825 15.2832L35.9492 17.9165C36.9325 19.0665 36.9325 20.9499 35.9492 22.1165L33.6825 24.7499C33.2492 25.2499 32.8992 26.1832 32.8992 26.8499V29.6832C32.8992 31.4499 31.4492 32.8999 29.6825 32.8999H26.8492C26.1992 32.8999 25.2492 33.2499 24.7492 33.6832L22.1158 35.9499C20.9658 36.9332 19.0825 36.9332 17.9158 35.9499L15.2825 33.6832C14.7825 33.2499 13.8492 32.8999 13.1825 32.8999H10.2992C8.53249 32.8999 7.08249 31.4499 7.08249 29.6832V26.8332C7.08249 26.1832 6.73249 25.2499 6.31582 24.7499L4.06582 22.0999C3.09915 20.9499 3.09915 19.0832 4.06582 17.9332L6.31582 15.2832C6.73249 14.7832 7.08249 13.8499 7.08249 13.1999V10.3332C7.08249 8.56654 8.53249 7.11654 10.2992 7.11654H13.1825C13.8325 7.11654 14.7825 6.76654 15.2825 6.3332L17.9158 4.0832Z" fill="#2DB780" stroke="#2DB780" stroke-width="2.5" stroke-linecap="round" stroke-linejoin="round"/>
<path d="M13.9658 20.0001L17.9825 24.0335L26.0325 15.9668" stroke="white" stroke-width="2.5" stroke-linecap="round" stroke-linejoin="round"/>
</svg>
