<svg width="100" height="101" viewBox="0 0 100 101" fill="none" xmlns="http://www.w3.org/2000/svg">
<path d="M99.9846 23.7945L96.9453 88.5813C96.8378 90.8522 96.184 92.957 95.1241 94.752C92.9386 98.4571 89.0305 100.856 84.6506 100.709L71.7409 100.281L16.7702 98.4635C10.7662 98.2622 5.83698 93.3243 5.25479 86.93L0.0568707 29.895C-0.593988 22.7213 4.41882 16.394 11.1394 15.9085L87.2541 10.4085C94.3867 9.89425 100.343 16.1545 99.9846 23.7945Z" fill="#97E5F2"/>
<path d="M81.1063 26.0975C81.6785 26.0975 82.1423 25.6013 82.1423 24.9892C82.1423 24.3771 81.6785 23.8809 81.1063 23.8809C80.5341 23.8809 80.0703 24.3771 80.0703 24.9892C80.0703 25.6013 80.5341 26.0975 81.1063 26.0975Z" fill="#3395FF"/>
<path d="M64.8352 5.19534L60.8613 6.4953L64.2291 9.49764L64.8352 5.19534Z" stroke="#1FC994" stroke-width="0.760137" stroke-linecap="round" stroke-linejoin="round"/>
<path d="M89.5409 44.4882C87.048 48.3785 91.5084 53.013 94.8075 49.9116" stroke="white" stroke-width="0.760137" stroke-linecap="round" stroke-linejoin="round"/>
<path d="M13.6166 22.4036C14.0017 19.8037 16.4977 19.0883 19.5191 19.5482C21.9493 19.9187 27.5832 22.3717 27.5832 22.3717L29.0461 35.6427C29.0461 35.6427 21.8031 32.9981 16.3424 28.1879C12.7806 25.0482 13.6166 22.41 13.6166 22.4068V22.4036Z" fill="#E99E93"/>
<path d="M20.0346 8.06223L45.6838 1.34847C47.8185 0.789527 50.0069 2.02879 50.7742 4.22945L72.5571 66.6399C73.3572 68.93 72.1092 71.4501 69.891 72.0314L43.5819 78.9176C41.4293 79.4797 39.2259 78.2181 38.4736 75.9887L17.3535 13.4153C16.5832 11.1348 17.8312 8.64034 20.0346 8.06542V8.06223Z" fill="#8262F9" stroke="#8262F9" stroke-width="0.760137" stroke-linecap="round" stroke-linejoin="round"/>
<path d="M21.9506 7.56223L47.6028 0.848474C49.7375 0.289527 51.9259 1.52879 52.6932 3.72945L74.4761 66.1399C75.2762 68.43 74.0282 70.9501 71.81 71.5314L45.5009 78.4176C43.3483 78.9797 41.1449 77.7181 40.3926 75.4887L19.2695 12.9122C18.4992 10.6316 19.7472 8.13715 21.9506 7.56223Z" fill="#FDFDFD"/>
<path d="M21.9506 7.56223L47.6028 0.848474C49.7375 0.289527 51.9259 1.52879 52.6932 3.72945L74.4761 66.1399C75.2762 68.43 74.0282 70.9501 71.81 71.5314L45.5009 78.4176C43.3483 78.9797 41.1449 77.7181 40.3926 75.4887L19.2695 12.9122C18.4992 10.6316 19.7472 8.13715 21.9506 7.56223V7.56223Z" stroke="#59D5FD" stroke-width="0.760137" stroke-linecap="round" stroke-linejoin="round"/>
<path d="M63.6203 49.3434L62.217 45.3222C61.9155 44.4566 61.0556 43.9711 60.2167 44.1883L40.3535 49.3881C39.3713 49.6468 38.813 50.7584 39.1563 51.7772L40.5178 55.8112C40.8133 56.6864 41.6791 57.1847 42.5241 56.9611L62.429 51.7517C63.4202 51.493 63.9755 50.3655 63.6203 49.3434Z" fill="#C0DAFF"/>
<path d="M29.85 50.4132C29.85 50.4132 18.0779 46.1844 20.4872 38.6945C21.2874 36.2096 23.0698 34.0057 27.3481 34.4784C30.3158 34.8074 33.7164 36.4651 37.0035 39.2439C38.5859 40.5821 39.0606 42.9329 38.0992 44.8301V44.8365C37.0722 46.8551 34.7763 47.6888 32.8088 46.7721C31.3846 46.1109 29.6709 45.3987 27.9811 44.9068" fill="#E99E93"/>
<path d="M34.6533 63.4637C17.734 63.7512 21.9616 51.8408 21.9616 51.8408C22.7349 49.4453 24.4844 47.5225 28.1865 47.9825C31.5782 48.4041 34.7549 49.4773 37.1851 50.4866C39.1526 51.3042 40.1827 53.7093 39.4333 55.8205C39.4183 55.862 39.4034 55.9067 39.3885 55.9483C38.6869 57.8934 36.7433 58.9698 34.8474 58.4907C33.8592 58.2416 32.8381 58.0116 32.1275 57.9222" fill="#E99E93"/>
<path d="M77.9372 100.488L75.3607 100.405L42.9252 99.3288C42.9252 99.3288 18.6822 71.0429 28.8302 62.3201C31.3112 60.1865 40.7726 57.9986 41.8444 62.9972C42.2206 64.7571 41.2741 66.3669 40.2411 66.9066C38.8857 67.6125 35.8404 68.8709 35.8404 68.8709L38.3124 76.2235C39.0379 78.3539 41.4085 79.7081 43.4686 79.1684L65.971 73.2786L67.1025 72.9816L67.8459 72.5664L77.9402 100.488H77.9372Z" fill="#E99E93"/>
<path d="M26.4316 44.9221C26.9004 44.8391 27.6438 45.0082 28.2051 45.2189" stroke="#D67570" stroke-width="0.760137" stroke-linecap="round" stroke-linejoin="round"/>
<path d="M28.7988 57.6797C31.1037 57.8584 32.1845 58.1743 32.1845 58.1743" stroke="#D67570" stroke-width="0.760137" stroke-linecap="round" stroke-linejoin="round"/>
<path d="M33.7266 70.8391C34.1266 69.8138 35.3836 69.3731 35.921 69.1016" stroke="#D67570" stroke-width="0.760137" stroke-linecap="round" stroke-linejoin="round"/>
<path d="M53.8347 35.5938C56.9289 29.7975 54.554 22.1152 48.5302 18.435C42.5064 14.7548 35.1148 16.4702 32.0205 22.2665C28.9263 28.0629 31.3012 35.7451 37.3251 39.4254C43.3489 43.1056 50.7405 41.3901 53.8347 35.5938Z" fill="#1FC994"/>
<path d="M13.7936 10.7312C13.4284 10.2752 11.5766 10.5674 11.3022 9.86417C10.6197 8.12366 11.8506 6.57889 9.89976 6.61281C7.6347 6.65206 7.42938 6.70135 7.61506 4.22741" stroke="#EA7FE0" stroke-width="0.760137" stroke-linecap="round" stroke-linejoin="round"/>
<path d="M42.5857 34.8603L37.4713 32.3498C37.0951 32.1646 36.9309 31.6919 37.1041 31.2894L37.6027 30.13C37.7759 29.7308 38.2177 29.5551 38.5909 29.7372L42.3707 31.5897L45.7862 23.9369C45.9653 23.5376 46.4102 23.3715 46.7804 23.56L47.8582 24.1094C48.2314 24.301 48.3867 24.7769 48.2105 25.173L44.1591 34.2471C43.8784 34.8763 43.1768 35.1478 42.5827 34.8571L42.5857 34.8603Z" fill="white"/>
<path d="M95.1246 94.7513C92.9392 98.4563 89.031 100.855 84.6512 100.708L71.7415 100.28C70.2696 95.6967 68.2603 89.2257 66.3077 82.2117C62.5638 68.7682 67.9766 59.3428 69.8874 55.6889C67.2691 49.5692 63.9461 38.5436 63.8595 36.0778C63.7998 34.4904 64.0148 33.4428 64.382 32.3185C65.2598 29.6291 69.144 28.2653 71.019 30.3031C76.7035 36.4834 82.2657 46.9437 86.0186 55.5451C90.6015 66.0597 89.3804 78.6281 89.5595 82.25C89.661 84.3453 92.6346 90.1903 95.1246 94.7513Z" fill="#E99E93"/>
<path opacity="0.3" d="M36.5139 41.8143C37.2513 44.3695 35.4182 46.1709 31.0323 44.6027L30.7457 44.4717C30.3038 44.2705 30.1038 43.718 30.3098 43.2516L32.1907 39.0132C32.4027 38.5341 32.9491 38.3521 33.376 38.6204C34.415 39.2687 36.1377 40.5112 36.5139 41.8143V41.8143Z" stroke="white" stroke-width="0.760137" stroke-linecap="round" stroke-linejoin="round"/>
<path opacity="0.3" d="M37.6311 52.8747C38.8253 55.1105 37.2519 57.5348 33.0214 56.7299L32.672 56.6628C32.2541 56.5829 31.9913 56.1326 32.1078 55.695L33.2035 51.5364C33.305 51.1564 33.6513 50.9168 34.0156 50.9839C35.0396 51.1691 36.9892 51.6738 37.6341 52.8779L37.6311 52.8747Z" stroke="white" stroke-width="0.760137" stroke-linecap="round" stroke-linejoin="round"/>
<path opacity="0.3" d="M36.0952 62.9931C35.9877 62.4597 36.3042 61.9359 36.8028 61.8305C37.8567 61.6069 39.5764 61.4089 40.1168 62.3224C40.8632 63.584 40.0809 65.2736 38.1224 65.9348C37.794 66.0465 37.4297 65.9443 37.1939 65.676C36.5968 65.0021 36.2654 63.8235 36.0952 62.9931V62.9931Z" stroke="white" stroke-width="0.760137" stroke-linecap="round" stroke-linejoin="round"/>
<path opacity="0.3" d="M70.7937 30.4199C70.7937 30.4199 68.044 31.0619 69.1247 33.9812C69.7875 35.7667 70.5668 37.0858 71.0833 37.8587C71.3908 38.3155 71.976 38.4304 72.4178 38.1238L75.287 36.1308" stroke="white" stroke-width="0.760137" stroke-linecap="round" stroke-linejoin="round"/>
<path d="M66.5321 62.9902C66.5321 62.9902 62.2149 74.9964 68.419 84.8754" stroke="#D67570" stroke-width="0.760137" stroke-linecap="round" stroke-linejoin="round"/>
<path d="M65.1546 73.4922L59.6641 74.9295L67.4415 83.1252C67.4415 83.1252 65.6143 79.9504 65.1576 73.4922H65.1546Z" fill="#D67570"/>
<path d="M32.2617 6.99412L38.8688 5.35561" stroke="#59D5FD" stroke-width="0.760137" stroke-linecap="round" stroke-linejoin="round"/>
<path d="M8.68396 39.9444L7.05681 40.3628C6.74929 40.4427 6.74929 40.9122 7.05681 40.9889L8.68396 41.4073C9.7528 41.682 10.5858 42.5763 10.8455 43.7197L11.2366 45.4604C11.3113 45.7894 11.7502 45.7894 11.8218 45.4604L12.2129 43.7197C12.4697 42.5763 13.3057 41.6852 14.3745 41.4073L16.0016 40.9889C16.3092 40.909 16.3092 40.4395 16.0016 40.3628L14.3745 39.9444C13.3057 39.6697 12.4727 38.7754 12.2129 37.632L11.8218 35.8913C11.7472 35.5623 11.3083 35.5623 11.2366 35.8913L10.8455 37.632C10.5888 38.7754 9.7528 39.6666 8.68396 39.9444Z" fill="white"/>
<path d="M18.3178 77.8814C19.3368 77.8814 20.1628 76.9977 20.1628 75.9075C20.1628 74.8174 19.3368 73.9337 18.3178 73.9337C17.2987 73.9337 16.4727 74.8174 16.4727 75.9075C16.4727 76.9977 17.2987 77.8814 18.3178 77.8814Z" stroke="#EA7FE0" stroke-width="0.760137" stroke-linecap="round" stroke-linejoin="round"/>
</svg>
