<svg width="768" height="180" viewBox="0 0 768 180" fill="none" xmlns="http://www.w3.org/2000/svg">
<g clip-path="url(#clip0_11142_56282)">
<rect width="834" height="180" fill="#1D4A88"/>
<path d="M30.358 43H28.5114L33.8523 28.4545H35.6705L41.0114 43H39.1648L34.8182 30.7557H34.7045L30.358 43ZM31.0398 37.3182H38.483V38.8807H31.0398V37.3182ZM42.8497 47.0909V32.0909H44.469V33.8239H44.6679C44.791 33.6345 44.9615 33.393 45.1793 33.0994C45.4018 32.8011 45.719 32.536 46.131 32.304C46.5476 32.0672 47.1111 31.9489 47.8213 31.9489C48.7399 31.9489 49.5495 32.1785 50.2503 32.6378C50.951 33.0971 51.4979 33.7481 51.8909 34.5909C52.2839 35.4337 52.4804 36.428 52.4804 37.5739C52.4804 38.7292 52.2839 39.7306 51.8909 40.5781C51.4979 41.4209 50.9534 42.0743 50.2574 42.5384C49.5614 42.9976 48.7588 43.2273 47.8497 43.2273C47.149 43.2273 46.5879 43.1113 46.1665 42.8793C45.7451 42.6425 45.4207 42.375 45.1935 42.0767C44.9662 41.7737 44.791 41.5227 44.6679 41.3239H44.5259V47.0909H42.8497ZM44.4974 37.5455C44.4974 38.3693 44.6182 39.0961 44.8597 39.7259C45.1011 40.3509 45.4539 40.8409 45.9179 41.196C46.3819 41.5464 46.9501 41.7216 47.6224 41.7216C48.3232 41.7216 48.908 41.5369 49.3767 41.1676C49.8502 40.7936 50.2053 40.2917 50.442 39.6619C50.6835 39.0275 50.8043 38.322 50.8043 37.5455C50.8043 36.7784 50.6859 36.0871 50.4491 35.4716C50.2171 34.8513 49.8644 34.3613 49.3909 34.0014C48.9222 33.6368 48.3327 33.4545 47.6224 33.4545C46.9406 33.4545 46.3677 33.6274 45.9037 33.973C45.4397 34.3139 45.0893 34.7921 44.8526 35.4077C44.6158 36.0185 44.4974 36.7311 44.4974 37.5455ZM54.8372 47.0909V32.0909H56.4565V33.8239H56.6554C56.7785 33.6345 56.949 33.393 57.1668 33.0994C57.3893 32.8011 57.7065 32.536 58.1185 32.304C58.5351 32.0672 59.0986 31.9489 59.8088 31.9489C60.7274 31.9489 61.537 32.1785 62.2378 32.6378C62.9385 33.0971 63.4854 33.7481 63.8784 34.5909C64.2714 35.4337 64.4679 36.428 64.4679 37.5739C64.4679 38.7292 64.2714 39.7306 63.8784 40.5781C63.4854 41.4209 62.9409 42.0743 62.2449 42.5384C61.5489 42.9976 60.7463 43.2273 59.8372 43.2273C59.1365 43.2273 58.5754 43.1113 58.154 42.8793C57.7326 42.6425 57.4082 42.375 57.181 42.0767C56.9537 41.7737 56.7785 41.5227 56.6554 41.3239H56.5134V47.0909H54.8372ZM56.4849 37.5455C56.4849 38.3693 56.6057 39.0961 56.8472 39.7259C57.0886 40.3509 57.4414 40.8409 57.9054 41.196C58.3694 41.5464 58.9376 41.7216 59.6099 41.7216C60.3107 41.7216 60.8955 41.5369 61.3642 41.1676C61.8377 40.7936 62.1928 40.2917 62.4295 39.6619C62.671 39.0275 62.7918 38.322 62.7918 37.5455C62.7918 36.7784 62.6734 36.0871 62.4366 35.4716C62.2046 34.8513 61.8519 34.3613 61.3784 34.0014C60.9097 33.6368 60.3202 33.4545 59.6099 33.4545C58.9281 33.4545 58.3552 33.6274 57.8912 33.973C57.4272 34.3139 57.0768 34.7921 56.8401 35.4077C56.6033 36.0185 56.4849 36.7311 56.4849 37.5455ZM68.5009 28.4545V43H66.8247V28.4545H68.5009ZM72.4504 47.0909C72.1663 47.0909 71.913 47.0672 71.6904 47.0199C71.4679 46.9773 71.314 46.9347 71.2288 46.892L71.6549 45.4148C72.0621 45.5189 72.4219 45.5568 72.7344 45.5284C73.0469 45.5 73.3239 45.3603 73.5654 45.1094C73.8116 44.8632 74.0365 44.4631 74.2401 43.9091L74.5526 43.0568L70.5185 32.0909H72.3367L75.3481 40.7841H75.4617L78.4731 32.0909H80.2913L75.6606 44.5909C75.4522 45.1544 75.1942 45.6207 74.8864 45.9901C74.5787 46.3641 74.2212 46.6411 73.814 46.821C73.4115 47.0009 72.957 47.0909 72.4504 47.0909ZM92.5866 32.0909V33.5114H86.7059V32.0909H92.5866ZM88.4673 43V30.5852C88.4673 29.9602 88.614 29.4394 88.9076 29.0227C89.2012 28.6061 89.5823 28.2936 90.0511 28.0852C90.5198 27.8769 91.0146 27.7727 91.5354 27.7727C91.9474 27.7727 92.2835 27.8059 92.544 27.8722C92.8044 27.9384 92.9985 28 93.1263 28.0568L92.6434 29.5057C92.5582 29.4773 92.4398 29.4418 92.2883 29.3991C92.1415 29.3565 91.9474 29.3352 91.7059 29.3352C91.1519 29.3352 90.7518 29.4749 90.5056 29.7543C90.2641 30.0336 90.1434 30.4432 90.1434 30.983V43H88.4673ZM98.7183 43.2273C97.7334 43.2273 96.8693 42.9929 96.1259 42.5241C95.3873 42.0554 94.8096 41.3996 94.393 40.5568C93.981 39.714 93.7751 38.7292 93.7751 37.6023C93.7751 36.4659 93.981 35.474 94.393 34.6264C94.8096 33.7789 95.3873 33.1207 96.1259 32.652C96.8693 32.1832 97.7334 31.9489 98.7183 31.9489C99.7031 31.9489 100.565 32.1832 101.303 32.652C102.047 33.1207 102.625 33.7789 103.036 34.6264C103.453 35.474 103.661 36.4659 103.661 37.6023C103.661 38.7292 103.453 39.714 103.036 40.5568C102.625 41.3996 102.047 42.0554 101.303 42.5241C100.565 42.9929 99.7031 43.2273 98.7183 43.2273ZM98.7183 41.7216C99.4664 41.7216 100.082 41.5298 100.565 41.1463C101.048 40.7628 101.405 40.2585 101.637 39.6335C101.869 39.0085 101.985 38.3314 101.985 37.6023C101.985 36.8731 101.869 36.1937 101.637 35.5639C101.405 34.9342 101.048 34.4252 100.565 34.0369C100.082 33.6487 99.4664 33.4545 98.7183 33.4545C97.9701 33.4545 97.3546 33.6487 96.8717 34.0369C96.3887 34.4252 96.0312 34.9342 95.7992 35.5639C95.5672 36.1937 95.4512 36.8731 95.4512 37.6023C95.4512 38.3314 95.5672 39.0085 95.7992 39.6335C96.0312 40.2585 96.3887 40.7628 96.8717 41.1463C97.3546 41.5298 97.9701 41.7216 98.7183 41.7216ZM106.02 43V32.0909H107.639V33.7386H107.753C107.952 33.1989 108.312 32.7609 108.833 32.4247C109.353 32.0885 109.94 31.9205 110.594 31.9205C110.717 31.9205 110.871 31.9228 111.056 31.9276C111.24 31.9323 111.38 31.9394 111.475 31.9489V33.6534C111.418 33.6392 111.288 33.6179 111.084 33.5895C110.885 33.5563 110.674 33.5398 110.452 33.5398C109.922 33.5398 109.448 33.651 109.031 33.8736C108.619 34.0914 108.293 34.3944 108.051 34.7827C107.815 35.1662 107.696 35.6042 107.696 36.0966V43H106.02ZM121.897 43.2557C121.205 43.2557 120.578 43.1255 120.015 42.8651C119.451 42.5999 119.004 42.2188 118.672 41.7216C118.341 41.2197 118.175 40.6136 118.175 39.9034C118.175 39.2784 118.298 38.7718 118.544 38.3835C118.791 37.9905 119.12 37.6828 119.532 37.4602C119.944 37.2377 120.398 37.072 120.895 36.9631C121.397 36.8494 121.901 36.7595 122.408 36.6932C123.071 36.608 123.608 36.544 124.02 36.5014C124.437 36.4541 124.74 36.3759 124.929 36.267C125.123 36.1581 125.221 35.9687 125.221 35.6989V35.642C125.221 34.9413 125.029 34.3968 124.645 34.0085C124.266 33.6203 123.691 33.4261 122.919 33.4261C122.119 33.4261 121.492 33.6013 121.037 33.9517C120.583 34.3021 120.263 34.6761 120.078 35.0739L118.488 34.5057C118.772 33.8428 119.15 33.3267 119.624 32.9574C120.102 32.5833 120.623 32.3229 121.186 32.1761C121.755 32.0246 122.313 31.9489 122.863 31.9489C123.213 31.9489 123.615 31.9915 124.07 32.0767C124.529 32.1572 124.972 32.3253 125.398 32.581C125.829 32.8366 126.186 33.2225 126.471 33.7386C126.755 34.2547 126.897 34.946 126.897 35.8125V43H125.221V41.5227H125.135C125.022 41.7595 124.832 42.0128 124.567 42.2827C124.302 42.5526 123.949 42.7822 123.509 42.9716C123.069 43.161 122.531 43.2557 121.897 43.2557ZM122.152 41.75C122.815 41.75 123.374 41.6198 123.828 41.3594C124.288 41.099 124.633 40.7628 124.865 40.3509C125.102 39.9389 125.221 39.5057 125.221 39.0511V37.517C125.15 37.6023 124.993 37.6804 124.752 37.7514C124.515 37.8177 124.24 37.8769 123.928 37.929C123.62 37.9763 123.319 38.0189 123.026 38.0568C122.737 38.09 122.503 38.1184 122.323 38.142C121.887 38.1989 121.48 38.2912 121.101 38.419C120.727 38.5421 120.424 38.7292 120.192 38.9801C119.965 39.2263 119.851 39.5625 119.851 39.9886C119.851 40.571 120.067 41.0114 120.498 41.3097C120.933 41.6032 121.485 41.75 122.152 41.75ZM138.05 43L134.073 28.4545H135.863L138.903 40.3011H139.045L142.141 28.4545H144.13L147.226 40.3011H147.368L150.408 28.4545H152.198L148.221 43H146.403L143.192 31.4091H143.079L139.868 43H138.05ZM157.382 43.2273C156.397 43.2273 155.533 42.9929 154.789 42.5241C154.051 42.0554 153.473 41.3996 153.056 40.5568C152.644 39.714 152.438 38.7292 152.438 37.6023C152.438 36.4659 152.644 35.474 153.056 34.6264C153.473 33.7789 154.051 33.1207 154.789 32.652C155.533 32.1832 156.397 31.9489 157.382 31.9489C158.366 31.9489 159.228 32.1832 159.967 32.652C160.71 33.1207 161.288 33.7789 161.7 34.6264C162.116 35.474 162.325 36.4659 162.325 37.6023C162.325 38.7292 162.116 39.714 161.7 40.5568C161.288 41.3996 160.71 42.0554 159.967 42.5241C159.228 42.9929 158.366 43.2273 157.382 43.2273ZM157.382 41.7216C158.13 41.7216 158.745 41.5298 159.228 41.1463C159.711 40.7628 160.069 40.2585 160.301 39.6335C160.533 39.0085 160.649 38.3314 160.649 37.6023C160.649 36.8731 160.533 36.1937 160.301 35.5639C160.069 34.9342 159.711 34.4252 159.228 34.0369C158.745 33.6487 158.13 33.4545 157.382 33.4545C156.633 33.4545 156.018 33.6487 155.535 34.0369C155.052 34.4252 154.695 34.9342 154.463 35.5639C154.23 36.1937 154.114 36.8731 154.114 37.6023C154.114 38.3314 154.23 39.0085 154.463 39.6335C154.695 40.2585 155.052 40.7628 155.535 41.1463C156.018 41.5298 156.633 41.7216 157.382 41.7216ZM164.683 43V32.0909H166.303V33.7386H166.416C166.615 33.1989 166.975 32.7609 167.496 32.4247C168.017 32.0885 168.604 31.9205 169.257 31.9205C169.38 31.9205 169.534 31.9228 169.719 31.9276C169.903 31.9323 170.043 31.9394 170.138 31.9489V33.6534C170.081 33.6392 169.951 33.6179 169.747 33.5895C169.548 33.5563 169.338 33.5398 169.115 33.5398C168.585 33.5398 168.111 33.651 167.695 33.8736C167.283 34.0914 166.956 34.3944 166.715 34.7827C166.478 35.1662 166.359 35.6042 166.359 36.0966V43H164.683ZM173.601 28.4545V43H171.925V28.4545H173.601ZM180.59 43.2273C179.681 43.2273 178.878 42.9976 178.182 42.5384C177.486 42.0743 176.942 41.4209 176.549 40.5781C176.156 39.7306 175.959 38.7292 175.959 37.5739C175.959 36.428 176.156 35.4337 176.549 34.5909C176.942 33.7481 177.489 33.0971 178.19 32.6378C178.89 32.1785 179.7 31.9489 180.619 31.9489C181.329 31.9489 181.89 32.0672 182.302 32.304C182.718 32.536 183.036 32.8011 183.253 33.0994C183.476 33.393 183.649 33.6345 183.772 33.8239H183.914V28.4545H185.59V43H183.971V41.3239H183.772C183.649 41.5227 183.474 41.7737 183.246 42.0767C183.019 42.375 182.695 42.6425 182.273 42.8793C181.852 43.1113 181.291 43.2273 180.59 43.2273ZM180.817 41.7216C181.49 41.7216 182.058 41.5464 182.522 41.196C182.986 40.8409 183.339 40.3509 183.58 39.7259C183.822 39.0961 183.942 38.3693 183.942 37.5455C183.942 36.7311 183.824 36.0185 183.587 35.4077C183.351 34.7921 183 34.3139 182.536 33.973C182.072 33.6274 181.499 33.4545 180.817 33.4545C180.107 33.4545 179.515 33.6368 179.042 34.0014C178.573 34.3613 178.22 34.8513 177.984 35.4716C177.752 36.0871 177.636 36.7784 177.636 37.5455C177.636 38.322 177.754 39.0275 177.991 39.6619C178.232 40.2917 178.587 40.7936 179.056 41.1676C179.53 41.5369 180.117 41.7216 180.817 41.7216ZM206.049 33H204.288C204.184 32.4934 204.002 32.0483 203.741 31.6648C203.486 31.2812 203.173 30.9593 202.804 30.6989C202.439 30.4337 202.034 30.2348 201.589 30.1023C201.144 29.9697 200.68 29.9034 200.197 29.9034C199.317 29.9034 198.519 30.1259 197.804 30.571C197.094 31.0161 196.528 31.6719 196.106 32.5384C195.69 33.4048 195.481 34.4678 195.481 35.7273C195.481 36.9867 195.69 38.0497 196.106 38.9162C196.528 39.7827 197.094 40.4384 197.804 40.8835C198.519 41.3286 199.317 41.5511 200.197 41.5511C200.68 41.5511 201.144 41.4848 201.589 41.3523C202.034 41.2197 202.439 41.0232 202.804 40.7628C203.173 40.4976 203.486 40.1733 203.741 39.7898C204.002 39.4015 204.184 38.9564 204.288 38.4545H206.049C205.917 39.1979 205.675 39.8632 205.325 40.4503C204.975 41.0374 204.539 41.5369 204.018 41.9489C203.497 42.3561 202.913 42.6662 202.264 42.8793C201.62 43.0923 200.931 43.1989 200.197 43.1989C198.957 43.1989 197.853 42.8958 196.888 42.2898C195.922 41.6837 195.162 40.822 194.608 39.7045C194.054 38.5871 193.777 37.2614 193.777 35.7273C193.777 34.1932 194.054 32.8674 194.608 31.75C195.162 30.6326 195.922 29.7708 196.888 29.1648C197.853 28.5587 198.957 28.2557 200.197 28.2557C200.931 28.2557 201.62 28.3622 202.264 28.5753C202.913 28.7884 203.497 29.1009 204.018 29.5128C204.539 29.92 204.975 30.4171 205.325 31.0043C205.675 31.5866 205.917 32.2519 206.049 33ZM210.145 28.4545V43H208.468V28.4545H210.145ZM216.225 43.2557C215.533 43.2557 214.906 43.1255 214.343 42.8651C213.779 42.5999 213.332 42.2188 213 41.7216C212.669 41.2197 212.503 40.6136 212.503 39.9034C212.503 39.2784 212.626 38.7718 212.873 38.3835C213.119 37.9905 213.448 37.6828 213.86 37.4602C214.272 37.2377 214.726 37.072 215.223 36.9631C215.725 36.8494 216.23 36.7595 216.736 36.6932C217.399 36.608 217.936 36.544 218.348 36.5014C218.765 36.4541 219.068 36.3759 219.257 36.267C219.452 36.1581 219.549 35.9687 219.549 35.6989V35.642C219.549 34.9413 219.357 34.3968 218.973 34.0085C218.595 33.6203 218.019 33.4261 217.248 33.4261C216.447 33.4261 215.82 33.6013 215.365 33.9517C214.911 34.3021 214.591 34.6761 214.407 35.0739L212.816 34.5057C213.1 33.8428 213.479 33.3267 213.952 32.9574C214.43 32.5833 214.951 32.3229 215.515 32.1761C216.083 32.0246 216.641 31.9489 217.191 31.9489C217.541 31.9489 217.944 31.9915 218.398 32.0767C218.857 32.1572 219.3 32.3253 219.726 32.581C220.157 32.8366 220.515 33.2225 220.799 33.7386C221.083 34.2547 221.225 34.946 221.225 35.8125V43H219.549V41.5227H219.463C219.35 41.7595 219.16 42.0128 218.895 42.2827C218.63 42.5526 218.277 42.7822 217.837 42.9716C217.397 43.161 216.859 43.2557 216.225 43.2557ZM216.48 41.75C217.143 41.75 217.702 41.6198 218.157 41.3594C218.616 41.099 218.962 40.7628 219.194 40.3509C219.43 39.9389 219.549 39.5057 219.549 39.0511V37.517C219.478 37.6023 219.321 37.6804 219.08 37.7514C218.843 37.8177 218.569 37.8769 218.256 37.929C217.948 37.9763 217.648 38.0189 217.354 38.0568C217.065 38.09 216.831 38.1184 216.651 38.142C216.215 38.1989 215.808 38.2912 215.429 38.419C215.055 38.5421 214.752 38.7292 214.52 38.9801C214.293 39.2263 214.179 39.5625 214.179 39.9886C214.179 40.571 214.395 41.0114 214.826 41.3097C215.261 41.6032 215.813 41.75 216.48 41.75ZM231.811 34.5341L230.306 34.9602C230.211 34.7093 230.071 34.4654 229.887 34.2287C229.707 33.9872 229.461 33.7884 229.148 33.6321C228.836 33.4759 228.435 33.3977 227.948 33.3977C227.28 33.3977 226.724 33.5516 226.279 33.8594C225.838 34.1624 225.618 34.5483 225.618 35.017C225.618 35.4337 225.77 35.7628 226.073 36.0043C226.376 36.2457 226.849 36.447 227.493 36.608L229.113 37.0057C230.088 37.2424 230.815 37.6046 231.293 38.0923C231.771 38.5753 232.01 39.1979 232.01 39.9602C232.01 40.5852 231.83 41.1439 231.47 41.6364C231.115 42.1288 230.618 42.517 229.979 42.8011C229.34 43.0852 228.596 43.2273 227.749 43.2273C226.636 43.2273 225.715 42.9858 224.986 42.5028C224.257 42.0199 223.795 41.3144 223.601 40.3864L225.192 39.9886C225.344 40.5758 225.63 41.0161 226.051 41.3097C226.478 41.6032 227.034 41.75 227.72 41.75C228.502 41.75 229.122 41.5843 229.581 41.2528C230.045 40.9167 230.277 40.5142 230.277 40.0455C230.277 39.6667 230.145 39.3494 229.88 39.0938C229.614 38.8333 229.207 38.6392 228.658 38.5114L226.84 38.0852C225.841 37.8485 225.107 37.4815 224.638 36.9844C224.174 36.4825 223.942 35.8551 223.942 35.1023C223.942 34.4867 224.115 33.9422 224.461 33.4688C224.811 32.9953 225.287 32.6236 225.888 32.3537C226.494 32.0838 227.181 31.9489 227.948 31.9489C229.027 31.9489 229.875 32.1856 230.49 32.6591C231.111 33.1326 231.551 33.7576 231.811 34.5341ZM242.061 34.5341L240.555 34.9602C240.46 34.7093 240.321 34.4654 240.136 34.2287C239.956 33.9872 239.71 33.7884 239.397 33.6321C239.085 33.4759 238.685 33.3977 238.197 33.3977C237.529 33.3977 236.973 33.5516 236.528 33.8594C236.088 34.1624 235.867 34.5483 235.867 35.017C235.867 35.4337 236.019 35.7628 236.322 36.0043C236.625 36.2457 237.098 36.447 237.742 36.608L239.362 37.0057C240.337 37.2424 241.064 37.6046 241.542 38.0923C242.02 38.5753 242.259 39.1979 242.259 39.9602C242.259 40.5852 242.08 41.1439 241.72 41.6364C241.365 42.1288 240.867 42.517 240.228 42.8011C239.589 43.0852 238.846 43.2273 237.998 43.2273C236.885 43.2273 235.964 42.9858 235.235 42.5028C234.506 42.0199 234.044 41.3144 233.85 40.3864L235.441 39.9886C235.593 40.5758 235.879 41.0161 236.301 41.3097C236.727 41.6032 237.283 41.75 237.97 41.75C238.751 41.75 239.371 41.5843 239.83 41.2528C240.294 40.9167 240.526 40.5142 240.526 40.0455C240.526 39.6667 240.394 39.3494 240.129 39.0938C239.864 38.8333 239.456 38.6392 238.907 38.5114L237.089 38.0852C236.09 37.8485 235.356 37.4815 234.887 36.9844C234.423 36.4825 234.191 35.8551 234.191 35.1023C234.191 34.4867 234.364 33.9422 234.71 33.4688C235.06 32.9953 235.536 32.6236 236.137 32.3537C236.743 32.0838 237.43 31.9489 238.197 31.9489C239.276 31.9489 240.124 32.1856 240.74 32.6591C241.36 33.1326 241.8 33.7576 242.061 34.5341Z" fill="white"/>
<path d="M53.3764 72.3843H47.777C47.6747 71.6598 47.4659 71.0164 47.1506 70.4539C46.8352 69.8829 46.4304 69.3971 45.9361 68.9965C45.4418 68.5959 44.8707 68.2891 44.223 68.076C43.5838 67.863 42.8892 67.7564 42.1392 67.7564C40.7841 67.7564 39.6037 68.0931 38.598 68.7664C37.5923 69.4312 36.8125 70.4027 36.2585 71.6812C35.7045 72.951 35.4276 74.4937 35.4276 76.309C35.4276 78.1755 35.7045 79.7437 36.2585 81.0135C36.821 82.2834 37.6051 83.2422 38.6108 83.89C39.6165 84.5377 40.7798 84.8615 42.1009 84.8615C42.8423 84.8615 43.5284 84.7635 44.1591 84.5675C44.7983 84.3715 45.3651 84.086 45.8594 83.711C46.3537 83.3275 46.7628 82.863 47.0866 82.3175C47.419 81.7721 47.6491 81.1499 47.777 80.451L53.3764 80.4766C53.2315 81.6783 52.8693 82.8374 52.2898 83.9539C51.7188 85.0618 50.9474 86.0547 49.9759 86.9326C49.0128 87.8019 47.8622 88.4922 46.5241 89.0036C45.1946 89.5064 43.6903 89.7579 42.0114 89.7579C39.6761 89.7579 37.5881 89.2294 35.7472 88.1726C33.9148 87.1158 32.4659 85.586 31.4006 83.5831C30.3438 81.5803 29.8153 79.1556 29.8153 76.309C29.8153 73.4539 30.3523 71.0249 31.4261 69.0221C32.5 67.0192 33.9574 65.4937 35.7983 64.4454C37.6392 63.3885 39.7102 62.8601 42.0114 62.8601C43.5284 62.8601 44.9347 63.0732 46.2301 63.4993C47.5341 63.9255 48.6889 64.5476 49.6946 65.3658C50.7003 66.1755 51.5185 67.1684 52.1491 68.3445C52.7884 69.5206 53.1974 70.8672 53.3764 72.3843ZM65.7558 89.7834C63.77 89.7834 62.0526 89.3616 60.6038 88.5178C59.1634 87.6655 58.0512 86.4809 57.2671 84.9638C56.483 83.4383 56.091 81.6698 56.091 79.6584C56.091 77.63 56.483 75.8573 57.2671 74.3402C58.0512 72.8147 59.1634 71.63 60.6038 70.7863C62.0526 69.934 63.77 69.5079 65.7558 69.5079C67.7416 69.5079 69.4546 69.934 70.895 70.7863C72.3438 71.63 73.4603 72.8147 74.2444 74.3402C75.0285 75.8573 75.4205 77.63 75.4205 79.6584C75.4205 81.6698 75.0285 83.4383 74.2444 84.9638C73.4603 86.4809 72.3438 87.6655 70.895 88.5178C69.4546 89.3616 67.7416 89.7834 65.7558 89.7834ZM65.7813 85.5647C66.6847 85.5647 67.439 85.309 68.0441 84.7976C68.6492 84.2777 69.1052 83.5704 69.412 82.6755C69.7274 81.7806 69.885 80.7621 69.885 79.6201C69.885 78.478 69.7274 77.4596 69.412 76.5647C69.1052 75.6698 68.6492 74.9624 68.0441 74.4425C67.439 73.9226 66.6847 73.6627 65.7813 73.6627C64.8694 73.6627 64.1024 73.9226 63.4802 74.4425C62.8666 74.9624 62.4021 75.6698 62.0867 76.5647C61.7799 77.4596 61.6265 78.478 61.6265 79.6201C61.6265 80.7621 61.7799 81.7806 62.0867 82.6755C62.4021 83.5704 62.8666 84.2777 63.4802 84.7976C64.1024 85.309 64.8694 85.5647 65.7813 85.5647ZM78.6017 89.3999V69.7635H83.8816V73.1897H84.0861C84.4441 71.9709 85.0449 71.0505 85.8887 70.4283C86.7324 69.7976 87.704 69.4823 88.8034 69.4823C89.0762 69.4823 89.3702 69.4993 89.6855 69.5334C90.0009 69.5675 90.2779 69.6144 90.5165 69.674V74.5064C90.2608 74.4297 89.9071 74.3615 89.4554 74.3019C89.0037 74.2422 88.5904 74.2124 88.2154 74.2124C87.4142 74.2124 86.6983 74.3871 86.0676 74.7365C85.4455 75.0775 84.9512 75.5547 84.5847 76.1684C84.2267 76.782 84.0478 77.4894 84.0478 78.2905V89.3999H78.6017ZM92.9722 96.7635V69.7635H98.3415V73.0618H98.5844C98.8231 72.5334 99.1682 71.9965 99.6199 71.451C100.08 70.8971 100.677 70.4368 101.41 70.0704C102.151 69.6954 103.072 69.5079 104.171 69.5079C105.603 69.5079 106.924 69.8829 108.134 70.6329C109.344 71.3743 110.312 72.4951 111.036 73.9951C111.761 75.4865 112.123 77.3573 112.123 79.6073C112.123 81.7976 111.769 83.6471 111.062 85.1556C110.363 86.6556 109.408 87.7934 108.198 88.5689C106.996 89.336 105.65 89.7195 104.158 89.7195C103.101 89.7195 102.202 89.5448 101.461 89.1954C100.728 88.8459 100.127 88.407 99.6583 87.8786C99.1895 87.3417 98.8316 86.8005 98.5844 86.255H98.4182V96.7635H92.9722ZM98.3032 79.5817C98.3032 80.7493 98.4651 81.7678 98.789 82.6371C99.1128 83.5064 99.5816 84.184 100.195 84.6698C100.809 85.1471 101.555 85.3857 102.432 85.3857C103.319 85.3857 104.069 85.1428 104.682 84.657C105.296 84.1627 105.761 83.4809 106.076 82.6115C106.4 81.7337 106.562 80.7238 106.562 79.5817C106.562 78.4482 106.404 77.451 106.089 76.5902C105.773 75.7294 105.309 75.0562 104.695 74.5704C104.082 74.0846 103.327 73.8417 102.432 73.8417C101.546 73.8417 100.796 74.076 100.182 74.5448C99.5773 75.0135 99.1128 75.6783 98.789 76.5391C98.4651 77.3999 98.3032 78.4141 98.3032 79.5817ZM124.266 89.7834C122.28 89.7834 120.562 89.3616 119.114 88.5178C117.673 87.6655 116.561 86.4809 115.777 84.9638C114.993 83.4383 114.601 81.6698 114.601 79.6584C114.601 77.63 114.993 75.8573 115.777 74.3402C116.561 72.8147 117.673 71.63 119.114 70.7863C120.562 69.934 122.28 69.5079 124.266 69.5079C126.251 69.5079 127.964 69.934 129.405 70.7863C130.854 71.63 131.97 72.8147 132.754 74.3402C133.538 75.8573 133.93 77.63 133.93 79.6584C133.93 81.6698 133.538 83.4383 132.754 84.9638C131.97 86.4809 130.854 87.6655 129.405 88.5178C127.964 89.3616 126.251 89.7834 124.266 89.7834ZM124.291 85.5647C125.195 85.5647 125.949 85.309 126.554 84.7976C127.159 84.2777 127.615 83.5704 127.922 82.6755C128.237 81.7806 128.395 80.7621 128.395 79.6201C128.395 78.478 128.237 77.4596 127.922 76.5647C127.615 75.6698 127.159 74.9624 126.554 74.4425C125.949 73.9226 125.195 73.6627 124.291 73.6627C123.379 73.6627 122.612 73.9226 121.99 74.4425C121.376 74.9624 120.912 75.6698 120.597 76.5647C120.29 77.4596 120.136 78.478 120.136 79.6201C120.136 80.7621 120.29 81.7806 120.597 82.6755C120.912 83.5704 121.376 84.2777 121.99 84.7976C122.612 85.309 123.379 85.5647 124.291 85.5647ZM137.112 89.3999V69.7635H142.391V73.1897H142.596C142.954 71.9709 143.555 71.0505 144.399 70.4283C145.242 69.7976 146.214 69.4823 147.313 69.4823C147.586 69.4823 147.88 69.4993 148.195 69.5334C148.511 69.5675 148.788 69.6144 149.026 69.674V74.5064C148.771 74.4297 148.417 74.3615 147.965 74.3019C147.514 74.2422 147.1 74.2124 146.725 74.2124C145.924 74.2124 145.208 74.3871 144.577 74.7365C143.955 75.0775 143.461 75.5547 143.095 76.1684C142.737 76.782 142.558 77.4894 142.558 78.2905V89.3999H137.112ZM156.519 89.7706C155.266 89.7706 154.15 89.5533 153.17 89.1187C152.189 88.6755 151.414 88.0235 150.843 87.1627C150.28 86.2934 149.999 85.211 149.999 83.9155C149.999 82.8246 150.199 81.9084 150.6 81.1669C151.001 80.4255 151.546 79.8289 152.236 79.3772C152.927 78.9255 153.711 78.5846 154.589 78.3544C155.475 78.1243 156.404 77.9624 157.376 77.8687C158.518 77.7493 159.438 77.6385 160.137 77.5363C160.836 77.4255 161.343 77.2635 161.658 77.0505C161.974 76.8374 162.131 76.5221 162.131 76.1044V76.0277C162.131 75.2181 161.876 74.5917 161.364 74.1485C160.861 73.7053 160.145 73.4837 159.216 73.4837C158.236 73.4837 157.456 73.701 156.877 74.1357C156.297 74.5618 155.914 75.0988 155.726 75.7465L150.689 75.3374C150.945 74.1442 151.448 73.113 152.198 72.2437C152.948 71.3658 153.915 70.6925 155.1 70.2238C156.293 69.7465 157.674 69.5079 159.242 69.5079C160.333 69.5079 161.377 69.6357 162.374 69.8914C163.38 70.1471 164.27 70.5434 165.046 71.0803C165.83 71.6172 166.448 72.3076 166.9 73.1513C167.351 73.9865 167.577 74.988 167.577 76.1556V89.3999H162.412V86.6769H162.259C161.944 87.2905 161.522 87.8317 160.993 88.3005C160.465 88.7607 159.83 89.1229 159.089 89.3871C158.347 89.6428 157.491 89.7706 156.519 89.7706ZM158.079 86.0121C158.88 86.0121 159.587 85.8544 160.201 85.5391C160.814 85.2152 161.296 84.7806 161.645 84.2351C161.995 83.6897 162.17 83.0718 162.17 82.3814V80.2976C161.999 80.4084 161.765 80.5107 161.466 80.6044C161.177 80.6897 160.849 80.7706 160.482 80.8473C160.116 80.9155 159.749 80.9794 159.383 81.0391C159.016 81.0902 158.684 81.1371 158.385 81.1797C157.746 81.2735 157.188 81.4226 156.711 81.6272C156.233 81.8317 155.863 82.1087 155.599 82.4581C155.334 82.799 155.202 83.2252 155.202 83.7365C155.202 84.478 155.471 85.0448 156.008 85.4368C156.553 85.8204 157.243 86.0121 158.079 86.0121ZM181.887 69.7635V73.8544H170.062V69.7635H181.887ZM172.746 65.059H178.192V83.3658C178.192 83.8687 178.269 84.2607 178.422 84.5419C178.576 84.8147 178.789 85.0064 179.062 85.1172C179.343 85.228 179.667 85.2834 180.033 85.2834C180.289 85.2834 180.545 85.2621 180.8 85.2195C181.056 85.1684 181.252 85.13 181.388 85.1044L182.245 89.157C181.972 89.2422 181.589 89.3402 181.094 89.451C180.6 89.5704 179.999 89.6428 179.292 89.6684C177.979 89.7195 176.829 89.5448 175.84 89.1442C174.86 88.7437 174.097 88.1215 173.552 87.2777C173.006 86.434 172.738 85.3687 172.746 84.0817V65.059ZM193.812 89.7834C191.793 89.7834 190.054 89.3743 188.597 88.5562C187.148 87.7294 186.031 86.5618 185.247 85.0533C184.463 83.5363 184.071 81.7422 184.071 79.6712C184.071 77.6513 184.463 75.8786 185.247 74.353C186.031 72.8275 187.135 71.6385 188.558 70.7863C189.99 69.934 191.669 69.5079 193.595 69.5079C194.891 69.5079 196.097 69.7167 197.213 70.1343C198.338 70.5434 199.318 71.1613 200.153 71.988C200.997 72.8147 201.653 73.8544 202.122 75.1073C202.591 76.3516 202.825 77.809 202.825 79.4794V80.9752H186.244V77.6002H197.699C197.699 76.8161 197.528 76.1215 197.187 75.5164C196.847 74.9113 196.374 74.4383 195.768 74.0973C195.172 73.7479 194.477 73.5732 193.685 73.5732C192.858 73.5732 192.125 73.765 191.486 74.1485C190.855 74.5235 190.361 75.0306 190.003 75.6698C189.645 76.3005 189.462 77.0036 189.453 77.7792V80.988C189.453 81.9596 189.632 82.799 189.99 83.5064C190.357 84.2138 190.872 84.7593 191.537 85.1428C192.202 85.5263 192.99 85.7181 193.902 85.7181C194.507 85.7181 195.061 85.6329 195.564 85.4624C196.067 85.2919 196.497 85.0363 196.855 84.6954C197.213 84.3544 197.486 83.9368 197.673 83.4425L202.71 83.7749C202.455 84.9851 201.93 86.0419 201.138 86.9454C200.354 87.8402 199.339 88.5391 198.095 89.0419C196.859 89.5363 195.432 89.7834 193.812 89.7834ZM237.194 72.3843H231.595C231.493 71.6598 231.284 71.0164 230.969 70.4539C230.653 69.8829 230.248 69.3971 229.754 68.9965C229.26 68.5959 228.689 68.2891 228.041 68.076C227.402 67.863 226.707 67.7564 225.957 67.7564C224.602 67.7564 223.422 68.0931 222.416 68.7664C221.41 69.4312 220.63 70.4027 220.076 71.6812C219.523 72.951 219.246 74.4937 219.246 76.309C219.246 78.1755 219.523 79.7437 220.076 81.0135C220.639 82.2834 221.423 83.2422 222.429 83.89C223.434 84.5377 224.598 84.8615 225.919 84.8615C226.66 84.8615 227.346 84.7635 227.977 84.5675C228.616 84.3715 229.183 84.086 229.677 83.711C230.172 83.3275 230.581 82.863 230.905 82.3175C231.237 81.7721 231.467 81.1499 231.595 80.451L237.194 80.4766C237.049 81.6783 236.687 82.8374 236.108 83.9539C235.537 85.0618 234.765 86.0547 233.794 86.9326C232.831 87.8019 231.68 88.4922 230.342 89.0036C229.013 89.5064 227.508 89.7579 225.829 89.7579C223.494 89.7579 221.406 89.2294 219.565 88.1726C217.733 87.1158 216.284 85.586 215.219 83.5831C214.162 81.5803 213.633 79.1556 213.633 76.309C213.633 73.4539 214.17 71.0249 215.244 69.0221C216.318 67.0192 217.775 65.4937 219.616 64.4454C221.457 63.3885 223.528 62.8601 225.829 62.8601C227.346 62.8601 228.753 63.0732 230.048 63.4993C231.352 63.9255 232.507 64.5476 233.513 65.3658C234.518 66.1755 235.336 67.1684 235.967 68.3445C236.606 69.5206 237.015 70.8672 237.194 72.3843ZM240.702 89.3999V69.7635H245.981V73.1897H246.186C246.544 71.9709 247.145 71.0505 247.989 70.4283C248.832 69.7976 249.804 69.4823 250.903 69.4823C251.176 69.4823 251.47 69.4993 251.785 69.5334C252.101 69.5675 252.378 69.6144 252.616 69.674V74.5064C252.361 74.4297 252.007 74.3615 251.555 74.3019C251.104 74.2422 250.69 74.2124 250.315 74.2124C249.514 74.2124 248.798 74.3871 248.167 74.7365C247.545 75.0775 247.051 75.5547 246.685 76.1684C246.327 76.782 246.148 77.4894 246.148 78.2905V89.3999H240.702ZM263.107 89.7834C261.087 89.7834 259.348 89.3743 257.891 88.5562C256.442 87.7294 255.326 86.5618 254.541 85.0533C253.757 83.5363 253.365 81.7422 253.365 79.6712C253.365 77.6513 253.757 75.8786 254.541 74.353C255.326 72.8275 256.429 71.6385 257.853 70.7863C259.284 69.934 260.963 69.5079 262.89 69.5079C264.185 69.5079 265.391 69.7167 266.507 70.1343C267.632 70.5434 268.613 71.1613 269.448 71.988C270.291 72.8147 270.948 73.8544 271.416 75.1073C271.885 76.3516 272.12 77.809 272.12 79.4794V80.9752H255.539V77.6002H266.993C266.993 76.8161 266.823 76.1215 266.482 75.5164C266.141 74.9113 265.668 74.4383 265.063 74.0973C264.466 73.7479 263.772 73.5732 262.979 73.5732C262.152 73.5732 261.419 73.765 260.78 74.1485C260.149 74.5235 259.655 75.0306 259.297 75.6698C258.939 76.3005 258.756 77.0036 258.747 77.7792V80.988C258.747 81.9596 258.926 82.799 259.284 83.5064C259.651 84.2138 260.166 84.7593 260.831 85.1428C261.496 85.5263 262.284 85.7181 263.196 85.7181C263.801 85.7181 264.355 85.6329 264.858 85.4624C265.361 85.2919 265.791 85.0363 266.149 84.6954C266.507 84.3544 266.78 83.9368 266.968 83.4425L272.005 83.7749C271.749 84.9851 271.225 86.0419 270.432 86.9454C269.648 87.8402 268.634 88.5391 267.39 89.0419C266.154 89.5363 264.726 89.7834 263.107 89.7834ZM282.549 89.7195C281.058 89.7195 279.707 89.336 278.497 88.5689C277.295 87.7934 276.341 86.6556 275.633 85.1556C274.934 83.6471 274.585 81.7976 274.585 79.6073C274.585 77.3573 274.947 75.4865 275.672 73.9951C276.396 72.4951 277.359 71.3743 278.561 70.6329C279.771 69.8829 281.096 69.5079 282.537 69.5079C283.636 69.5079 284.552 69.6954 285.285 70.0704C286.027 70.4368 286.623 70.8971 287.075 71.451C287.535 71.9965 287.885 72.5334 288.123 73.0618H288.289V63.2181H293.723V89.3999H288.353V86.255H288.123C287.868 86.8005 287.505 87.3417 287.037 87.8786C286.576 88.407 285.976 88.8459 285.234 89.1954C284.501 89.5448 283.606 89.7195 282.549 89.7195ZM284.275 85.3857C285.153 85.3857 285.895 85.1471 286.5 84.6698C287.113 84.184 287.582 83.5064 287.906 82.6371C288.238 81.7678 288.405 80.7493 288.405 79.5817C288.405 78.4141 288.243 77.3999 287.919 76.5391C287.595 75.6783 287.126 75.0135 286.512 74.5448C285.899 74.076 285.153 73.8417 284.275 73.8417C283.38 73.8417 282.626 74.0846 282.012 74.5704C281.399 75.0562 280.934 75.7294 280.619 76.5902C280.304 77.451 280.146 78.4482 280.146 79.5817C280.146 80.7238 280.304 81.7337 280.619 82.6115C280.943 83.4809 281.407 84.1627 282.012 84.657C282.626 85.1428 283.38 85.3857 284.275 85.3857ZM297.84 89.3999V69.7635H303.286V89.3999H297.84ZM300.576 67.2323C299.766 67.2323 299.072 66.9638 298.492 66.4269C297.921 65.8814 297.636 65.2294 297.636 64.4709C297.636 63.7209 297.921 63.0775 298.492 62.5405C299.072 61.9951 299.766 61.7223 300.576 61.7223C301.386 61.7223 302.076 61.9951 302.647 62.5405C303.227 63.0775 303.516 63.7209 303.516 64.4709C303.516 65.2294 303.227 65.8814 302.647 66.4269C302.076 66.9638 301.386 67.2323 300.576 67.2323ZM317.734 69.7635V73.8544H305.908V69.7635H317.734ZM308.593 65.059H314.039V83.3658C314.039 83.8687 314.116 84.2607 314.269 84.5419C314.422 84.8147 314.636 85.0064 314.908 85.1172C315.189 85.228 315.513 85.2834 315.88 85.2834C316.136 85.2834 316.391 85.2621 316.647 85.2195C316.903 85.1684 317.099 85.13 317.235 85.1044L318.091 89.157C317.819 89.2422 317.435 89.3402 316.941 89.451C316.447 89.5704 315.846 89.6428 315.138 89.6684C313.826 89.7195 312.675 89.5448 311.687 89.1442C310.707 88.7437 309.944 88.1215 309.398 87.2777C308.853 86.434 308.584 85.3687 308.593 84.0817V65.059ZM352.096 72.3843H346.497C346.395 71.6598 346.186 71.0164 345.87 70.4539C345.555 69.8829 345.15 69.3971 344.656 68.9965C344.162 68.5959 343.591 68.2891 342.943 68.076C342.304 67.863 341.609 67.7564 340.859 67.7564C339.504 67.7564 338.324 68.0931 337.318 68.7664C336.312 69.4312 335.532 70.4027 334.978 71.6812C334.424 72.951 334.147 74.4937 334.147 76.309C334.147 78.1755 334.424 79.7437 334.978 81.0135C335.541 82.2834 336.325 83.2422 337.331 83.89C338.336 84.5377 339.5 84.8615 340.821 84.8615C341.562 84.8615 342.248 84.7635 342.879 84.5675C343.518 84.3715 344.085 84.086 344.579 83.711C345.074 83.3275 345.483 82.863 345.806 82.3175C346.139 81.7721 346.369 81.1499 346.497 80.451L352.096 80.4766C351.951 81.6783 351.589 82.8374 351.01 83.9539C350.439 85.0618 349.667 86.0547 348.696 86.9326C347.733 87.8019 346.582 88.4922 345.244 89.0036C343.914 89.5064 342.41 89.7579 340.731 89.7579C338.396 89.7579 336.308 89.2294 334.467 88.1726C332.635 87.1158 331.186 85.586 330.12 83.5831C329.064 81.5803 328.535 79.1556 328.535 76.309C328.535 73.4539 329.072 71.0249 330.146 69.0221C331.22 67.0192 332.677 65.4937 334.518 64.4454C336.359 63.3885 338.43 62.8601 340.731 62.8601C342.248 62.8601 343.655 63.0732 344.95 63.4993C346.254 63.9255 347.409 64.5476 348.414 65.3658C349.42 66.1755 350.238 67.1684 350.869 68.3445C351.508 69.5206 351.917 70.8672 352.096 72.3843ZM361.203 89.7706C359.95 89.7706 358.834 89.5533 357.853 89.1187C356.873 88.6755 356.098 88.0235 355.527 87.1627C354.964 86.2934 354.683 85.211 354.683 83.9155C354.683 82.8246 354.883 81.9084 355.284 81.1669C355.684 80.4255 356.23 79.8289 356.92 79.3772C357.611 78.9255 358.395 78.5846 359.272 78.3544C360.159 78.1243 361.088 77.9624 362.059 77.8687C363.201 77.7493 364.122 77.6385 364.821 77.5363C365.52 77.4255 366.027 77.2635 366.342 77.0505C366.657 76.8374 366.815 76.5221 366.815 76.1044V76.0277C366.815 75.2181 366.559 74.5917 366.048 74.1485C365.545 73.7053 364.829 73.4837 363.9 73.4837C362.92 73.4837 362.14 73.701 361.561 74.1357C360.981 74.5618 360.598 75.0988 360.41 75.7465L355.373 75.3374C355.629 74.1442 356.132 73.113 356.882 72.2437C357.632 71.3658 358.599 70.6925 359.784 70.2238C360.977 69.7465 362.358 69.5079 363.926 69.5079C365.017 69.5079 366.061 69.6357 367.058 69.8914C368.064 70.1471 368.954 70.5434 369.73 71.0803C370.514 71.6172 371.132 72.3076 371.584 73.1513C372.035 73.9865 372.261 74.988 372.261 76.1556V89.3999H367.096V86.6769H366.943C366.628 87.2905 366.206 87.8317 365.677 88.3005C365.149 88.7607 364.514 89.1229 363.772 89.3871C363.031 89.6428 362.174 89.7706 361.203 89.7706ZM362.763 86.0121C363.564 86.0121 364.271 85.8544 364.885 85.5391C365.498 85.2152 365.98 84.7806 366.329 84.2351C366.679 83.6897 366.853 83.0718 366.853 82.3814V80.2976C366.683 80.4084 366.449 80.5107 366.15 80.6044C365.861 80.6897 365.532 80.7706 365.166 80.8473C364.799 80.9155 364.433 80.9794 364.067 81.0391C363.7 81.0902 363.368 81.1371 363.069 81.1797C362.43 81.2735 361.872 81.4226 361.395 81.6272C360.917 81.8317 360.547 82.1087 360.282 82.4581C360.018 82.799 359.886 83.2252 359.886 83.7365C359.886 84.478 360.155 85.0448 360.692 85.4368C361.237 85.8204 361.927 86.0121 362.763 86.0121ZM376.126 89.3999V69.7635H381.406V73.1897H381.611C381.969 71.9709 382.569 71.0505 383.413 70.4283C384.257 69.7976 385.229 69.4823 386.328 69.4823C386.601 69.4823 386.895 69.4993 387.21 69.5334C387.525 69.5675 387.802 69.6144 388.041 69.674V74.5064C387.785 74.4297 387.432 74.3615 386.98 74.3019C386.528 74.2422 386.115 74.2124 385.74 74.2124C384.939 74.2124 384.223 74.3871 383.592 74.7365C382.97 75.0775 382.476 75.5547 382.109 76.1684C381.751 76.782 381.572 77.4894 381.572 78.2905V89.3999H376.126ZM396.818 89.7195C395.327 89.7195 393.976 89.336 392.766 88.5689C391.564 87.7934 390.61 86.6556 389.902 85.1556C389.203 83.6471 388.854 81.7976 388.854 79.6073C388.854 77.3573 389.216 75.4865 389.941 73.9951C390.665 72.4951 391.628 71.3743 392.83 70.6329C394.04 69.8829 395.365 69.5079 396.806 69.5079C397.905 69.5079 398.821 69.6954 399.554 70.0704C400.296 70.4368 400.892 70.8971 401.344 71.451C401.804 71.9965 402.154 72.5334 402.392 73.0618H402.559V63.2181H407.992V89.3999H402.622V86.255H402.392C402.137 86.8005 401.774 87.3417 401.306 87.8786C400.845 88.407 400.245 88.8459 399.503 89.1954C398.77 89.5448 397.875 89.7195 396.818 89.7195ZM398.544 85.3857C399.422 85.3857 400.164 85.1471 400.769 84.6698C401.382 84.184 401.851 83.5064 402.175 82.6371C402.507 81.7678 402.674 80.7493 402.674 79.5817C402.674 78.4141 402.512 77.3999 402.188 76.5391C401.864 75.6783 401.395 75.0135 400.782 74.5448C400.168 74.076 399.422 73.8417 398.544 73.8417C397.649 73.8417 396.895 74.0846 396.282 74.5704C395.668 75.0562 395.203 75.7294 394.888 76.5902C394.573 77.451 394.415 78.4482 394.415 79.5817C394.415 80.7238 394.573 81.7337 394.888 82.6115C395.212 83.4809 395.676 84.1627 396.282 84.657C396.895 85.1428 397.649 85.3857 398.544 85.3857Z" fill="white"/>
<rect x="28" y="116.6" width="405" height="36" rx="12" fill="#B7EFFE"/>
<path d="M48.875 138.327V136.907L53.4318 128.964H55.1477L50.6989 136.748V136.839H57.608V138.327H48.875ZM54.392 140.6V137.907L54.4148 137.248V133.327H56.0568V140.6H54.392ZM59.4281 140.6V139.327L63.3656 135.248C63.786 134.805 64.1326 134.416 64.4053 134.083C64.6819 133.746 64.8883 133.426 65.0247 133.123C65.161 132.82 65.2292 132.498 65.2292 132.157C65.2292 131.771 65.1383 131.437 64.9565 131.157C64.7747 130.873 64.5266 130.655 64.2122 130.504C63.8978 130.348 63.5436 130.271 63.1497 130.271C62.733 130.271 62.3694 130.356 62.0588 130.526C61.7481 130.697 61.5095 130.937 61.3428 131.248C61.1762 131.558 61.0928 131.922 61.0928 132.339H59.4167C59.4167 131.63 59.5796 131.011 59.9053 130.481C60.2311 129.95 60.6781 129.539 61.2463 129.248C61.8144 128.952 62.4603 128.805 63.1838 128.805C63.9148 128.805 64.5588 128.95 65.1156 129.242C65.6762 129.53 66.1137 129.924 66.4281 130.424C66.7425 130.92 66.8997 131.481 66.8997 132.106C66.8997 132.538 66.8182 132.96 66.6553 133.373C66.4963 133.786 66.2178 134.246 65.8201 134.754C65.4224 135.257 64.8694 135.869 64.161 136.589L61.8485 139.009V139.094H67.0872V140.6H59.4281ZM73.314 140.6V128.964H75.0697V139.089H80.3424V140.6H73.314ZM84.5887 140.793C84.0357 140.793 83.5357 140.691 83.0887 140.486C82.6417 140.278 82.2876 139.977 82.0262 139.583C81.7686 139.189 81.6398 138.706 81.6398 138.134C81.6398 137.642 81.7345 137.236 81.9239 136.918C82.1133 136.6 82.369 136.348 82.691 136.163C83.0129 135.977 83.3728 135.837 83.7705 135.742C84.1682 135.647 84.5735 135.575 84.9864 135.526C85.5091 135.466 85.9334 135.416 86.2591 135.379C86.5849 135.337 86.8216 135.271 86.9694 135.18C87.1171 135.089 87.191 134.941 87.191 134.736V134.697C87.191 134.2 87.0508 133.816 86.7705 133.543C86.494 133.271 86.0811 133.134 85.5319 133.134C84.9599 133.134 84.5091 133.261 84.1796 133.515C83.8538 133.765 83.6285 134.043 83.5035 134.35L81.9069 133.986C82.0963 133.456 82.3728 133.028 82.7364 132.702C83.1038 132.373 83.5262 132.134 84.0035 131.986C84.4807 131.835 84.9826 131.759 85.5091 131.759C85.8576 131.759 86.227 131.801 86.6171 131.884C87.011 131.964 87.3785 132.111 87.7194 132.327C88.0641 132.543 88.3463 132.852 88.566 133.254C88.7857 133.651 88.8955 134.168 88.8955 134.805V140.6H87.2364V139.407H87.1682C87.0584 139.627 86.8936 139.843 86.6739 140.055C86.4542 140.267 86.172 140.443 85.8273 140.583C85.4826 140.723 85.0698 140.793 84.5887 140.793ZM84.958 139.43C85.4277 139.43 85.8292 139.337 86.1626 139.151C86.4997 138.966 86.7554 138.723 86.9296 138.424C87.1076 138.121 87.1966 137.797 87.1966 137.452V136.327C87.136 136.388 87.0186 136.445 86.8444 136.498C86.6739 136.547 86.4788 136.591 86.2591 136.629C86.0395 136.663 85.8254 136.695 85.6171 136.725C85.4088 136.752 85.2345 136.774 85.0944 136.793C84.7648 136.835 84.4637 136.905 84.191 137.004C83.922 137.102 83.7061 137.244 83.5432 137.43C83.3841 137.611 83.3046 137.854 83.3046 138.157C83.3046 138.577 83.4599 138.896 83.7705 139.111C84.0811 139.324 84.477 139.43 84.958 139.43ZM92.5608 137.64L92.5494 135.566H92.8449L96.3222 131.873H98.3563L94.3903 136.077H94.1233L92.5608 137.64ZM90.9983 140.6V128.964H92.6972V140.6H90.9983ZM96.5097 140.6L93.3847 136.452L94.5551 135.265L98.5949 140.6H96.5097ZM101.443 135.418V140.6H99.7445V128.964H101.421V133.293H101.529C101.733 132.824 102.046 132.45 102.466 132.174C102.887 131.897 103.436 131.759 104.114 131.759C104.712 131.759 105.235 131.882 105.682 132.129C106.133 132.375 106.481 132.742 106.728 133.231C106.978 133.716 107.103 134.322 107.103 135.049V140.6H105.404V135.254C105.404 134.613 105.239 134.117 104.909 133.765C104.58 133.409 104.121 133.231 103.534 133.231C103.133 133.231 102.773 133.316 102.455 133.486C102.14 133.657 101.892 133.907 101.71 134.236C101.532 134.562 101.443 134.956 101.443 135.418ZM112.63 139.861V132.18H114.158V139.861H112.63ZM109.556 136.782V135.254H117.238V136.782H109.556ZM127.456 140.776C126.612 140.776 125.884 140.585 125.274 140.202C124.668 139.816 124.203 139.284 123.877 138.606C123.551 137.928 123.388 137.151 123.388 136.276C123.388 135.39 123.555 134.608 123.888 133.93C124.221 133.248 124.691 132.716 125.297 132.333C125.903 131.95 126.617 131.759 127.439 131.759C128.102 131.759 128.693 131.882 129.212 132.129C129.731 132.371 130.149 132.712 130.468 133.151C130.79 133.591 130.981 134.104 131.042 134.691H129.388C129.297 134.282 129.089 133.93 128.763 133.634C128.441 133.339 128.009 133.191 127.468 133.191C126.994 133.191 126.579 133.316 126.223 133.566C125.871 133.812 125.596 134.164 125.399 134.623C125.203 135.077 125.104 135.615 125.104 136.236C125.104 136.873 125.201 137.422 125.394 137.884C125.587 138.346 125.86 138.704 126.212 138.958C126.568 139.212 126.987 139.339 127.468 139.339C127.79 139.339 128.081 139.28 128.343 139.163C128.608 139.041 128.829 138.869 129.007 138.646C129.189 138.422 129.316 138.153 129.388 137.839H131.042C130.981 138.403 130.797 138.907 130.49 139.35C130.184 139.793 129.773 140.142 129.257 140.396C128.746 140.649 128.146 140.776 127.456 140.776ZM138.227 136.981V131.873H139.931V140.6H138.261V139.089H138.17C137.969 139.555 137.647 139.943 137.204 140.254C136.765 140.56 136.217 140.714 135.562 140.714C135.001 140.714 134.505 140.591 134.073 140.344C133.645 140.094 133.308 139.725 133.062 139.236C132.82 138.748 132.698 138.144 132.698 137.424V131.873H134.397V137.219C134.397 137.814 134.562 138.288 134.891 138.64C135.221 138.992 135.649 139.168 136.176 139.168C136.494 139.168 136.81 139.089 137.124 138.93C137.443 138.771 137.706 138.53 137.914 138.208C138.126 137.886 138.23 137.477 138.227 136.981ZM148.594 134.004L147.054 134.276C146.99 134.079 146.887 133.892 146.747 133.714C146.611 133.536 146.425 133.39 146.19 133.276C145.955 133.163 145.662 133.106 145.31 133.106C144.829 133.106 144.427 133.214 144.105 133.43C143.783 133.642 143.622 133.916 143.622 134.254C143.622 134.545 143.73 134.78 143.946 134.958C144.162 135.136 144.51 135.282 144.991 135.396L146.378 135.714C147.181 135.899 147.779 136.185 148.173 136.572C148.567 136.958 148.764 137.46 148.764 138.077C148.764 138.6 148.613 139.066 148.31 139.475C148.01 139.88 147.592 140.199 147.054 140.43C146.52 140.661 145.901 140.776 145.196 140.776C144.219 140.776 143.421 140.568 142.804 140.151C142.186 139.731 141.808 139.134 141.668 138.361L143.31 138.111C143.412 138.539 143.622 138.863 143.94 139.083C144.258 139.299 144.673 139.407 145.185 139.407C145.741 139.407 146.186 139.291 146.52 139.06C146.853 138.825 147.02 138.539 147.02 138.202C147.02 137.93 146.918 137.7 146.713 137.515C146.512 137.329 146.204 137.189 145.787 137.094L144.31 136.771C143.495 136.585 142.893 136.289 142.503 135.884C142.116 135.479 141.923 134.966 141.923 134.344C141.923 133.829 142.067 133.379 142.355 132.992C142.643 132.606 143.041 132.305 143.548 132.089C144.056 131.869 144.637 131.759 145.293 131.759C146.236 131.759 146.978 131.964 147.52 132.373C148.061 132.778 148.419 133.322 148.594 134.004ZM154.546 131.873V133.236H149.779V131.873H154.546ZM151.057 129.782H152.756V138.038C152.756 138.367 152.805 138.615 152.904 138.782C153.002 138.945 153.129 139.057 153.285 139.117C153.444 139.174 153.616 139.202 153.802 139.202C153.938 139.202 154.057 139.193 154.16 139.174C154.262 139.155 154.341 139.14 154.398 139.129L154.705 140.532C154.607 140.57 154.466 140.608 154.285 140.646C154.103 140.687 153.875 140.71 153.603 140.714C153.156 140.721 152.739 140.642 152.353 140.475C151.966 140.308 151.654 140.051 151.415 139.702C151.177 139.354 151.057 138.916 151.057 138.39V129.782ZM159.848 140.776C159.029 140.776 158.315 140.589 157.706 140.214C157.096 139.839 156.622 139.314 156.285 138.64C155.948 137.966 155.779 137.178 155.779 136.276C155.779 135.371 155.948 134.579 156.285 133.901C156.622 133.223 157.096 132.697 157.706 132.322C158.315 131.947 159.029 131.759 159.848 131.759C160.666 131.759 161.38 131.947 161.99 132.322C162.599 132.697 163.073 133.223 163.41 133.901C163.747 134.579 163.916 135.371 163.916 136.276C163.916 137.178 163.747 137.966 163.41 138.64C163.073 139.314 162.599 139.839 161.99 140.214C161.38 140.589 160.666 140.776 159.848 140.776ZM159.853 139.35C160.384 139.35 160.823 139.21 161.171 138.93C161.52 138.649 161.777 138.276 161.944 137.81C162.115 137.344 162.2 136.831 162.2 136.271C162.2 135.714 162.115 135.202 161.944 134.736C161.777 134.267 161.52 133.89 161.171 133.606C160.823 133.322 160.384 133.18 159.853 133.18C159.319 133.18 158.876 133.322 158.524 133.606C158.175 133.89 157.916 134.267 157.745 134.736C157.579 135.202 157.495 135.714 157.495 136.271C157.495 136.831 157.579 137.344 157.745 137.81C157.916 138.276 158.175 138.649 158.524 138.93C158.876 139.21 159.319 139.35 159.853 139.35ZM165.652 140.6V131.873H167.283V133.293H167.391C167.573 132.812 167.87 132.437 168.283 132.168C168.696 131.896 169.19 131.759 169.766 131.759C170.349 131.759 170.838 131.896 171.232 132.168C171.629 132.441 171.923 132.816 172.112 133.293H172.203C172.412 132.827 172.743 132.456 173.198 132.18C173.652 131.899 174.194 131.759 174.823 131.759C175.614 131.759 176.26 132.007 176.76 132.504C177.264 133 177.516 133.748 177.516 134.748V140.6H175.817V134.907C175.817 134.316 175.656 133.888 175.334 133.623C175.012 133.358 174.627 133.225 174.18 133.225C173.627 133.225 173.198 133.396 172.891 133.736C172.584 134.074 172.43 134.507 172.43 135.038V140.6H170.737V134.799C170.737 134.325 170.59 133.945 170.294 133.657C169.999 133.369 169.614 133.225 169.141 133.225C168.819 133.225 168.521 133.31 168.249 133.481C167.98 133.647 167.762 133.88 167.595 134.18C167.432 134.479 167.351 134.825 167.351 135.219V140.6H165.652ZM183.394 140.776C182.534 140.776 181.794 140.593 181.172 140.225C180.555 139.854 180.078 139.333 179.741 138.663C179.407 137.988 179.241 137.199 179.241 136.293C179.241 135.399 179.407 134.611 179.741 133.93C180.078 133.248 180.547 132.716 181.15 132.333C181.756 131.95 182.464 131.759 183.275 131.759C183.767 131.759 184.244 131.841 184.707 132.004C185.169 132.166 185.583 132.422 185.951 132.771C186.318 133.119 186.608 133.572 186.82 134.129C187.032 134.682 187.138 135.354 187.138 136.146V136.748H180.201V135.475H185.474C185.474 135.028 185.383 134.632 185.201 134.288C185.019 133.939 184.763 133.664 184.434 133.464C184.108 133.263 183.725 133.163 183.286 133.163C182.809 133.163 182.392 133.28 182.036 133.515C181.684 133.746 181.411 134.049 181.218 134.424C181.029 134.795 180.934 135.199 180.934 135.634V136.629C180.934 137.212 181.036 137.708 181.241 138.117C181.449 138.526 181.739 138.839 182.11 139.055C182.481 139.267 182.915 139.373 183.411 139.373C183.733 139.373 184.027 139.327 184.292 139.236C184.557 139.142 184.786 139.002 184.979 138.816C185.172 138.63 185.32 138.401 185.422 138.129L187.03 138.418C186.902 138.892 186.671 139.307 186.337 139.663C186.008 140.015 185.593 140.289 185.093 140.486C184.597 140.68 184.03 140.776 183.394 140.776ZM188.863 140.6V131.873H190.505V133.259H190.596C190.755 132.789 191.036 132.42 191.437 132.151C191.842 131.879 192.301 131.742 192.812 131.742C192.918 131.742 193.043 131.746 193.187 131.754C193.335 131.761 193.45 131.771 193.534 131.782V133.407C193.466 133.388 193.344 133.367 193.17 133.344C192.996 133.318 192.822 133.305 192.647 133.305C192.246 133.305 191.888 133.39 191.574 133.56C191.263 133.727 191.017 133.96 190.835 134.259C190.653 134.555 190.562 134.892 190.562 135.271V140.6H188.863ZM201.384 134.004L199.844 134.276C199.78 134.079 199.677 133.892 199.537 133.714C199.401 133.536 199.215 133.39 198.98 133.276C198.745 133.163 198.452 133.106 198.1 133.106C197.619 133.106 197.217 133.214 196.895 133.43C196.573 133.642 196.412 133.916 196.412 134.254C196.412 134.545 196.52 134.78 196.736 134.958C196.952 135.136 197.3 135.282 197.781 135.396L199.168 135.714C199.971 135.899 200.569 136.185 200.963 136.572C201.357 136.958 201.554 137.46 201.554 138.077C201.554 138.6 201.403 139.066 201.1 139.475C200.8 139.88 200.382 140.199 199.844 140.43C199.31 140.661 198.691 140.776 197.986 140.776C197.009 140.776 196.211 140.568 195.594 140.151C194.976 139.731 194.598 139.134 194.458 138.361L196.1 138.111C196.202 138.539 196.412 138.863 196.73 139.083C197.048 139.299 197.463 139.407 197.975 139.407C198.531 139.407 198.976 139.291 199.31 139.06C199.643 138.825 199.81 138.539 199.81 138.202C199.81 137.93 199.708 137.7 199.503 137.515C199.302 137.329 198.994 137.189 198.577 137.094L197.1 136.771C196.285 136.585 195.683 136.289 195.293 135.884C194.906 135.479 194.713 134.966 194.713 134.344C194.713 133.829 194.857 133.379 195.145 132.992C195.433 132.606 195.831 132.305 196.338 132.089C196.846 131.869 197.427 131.759 198.083 131.759C199.026 131.759 199.768 131.964 200.31 132.373C200.851 132.778 201.209 133.322 201.384 134.004ZM209.035 135.418V140.6H207.336V128.964H209.013V133.293H209.121C209.325 132.824 209.638 132.45 210.058 132.174C210.478 131.897 211.028 131.759 211.706 131.759C212.304 131.759 212.827 131.882 213.274 132.129C213.725 132.375 214.073 132.742 214.319 133.231C214.569 133.716 214.694 134.322 214.694 135.049V140.6H212.996V135.254C212.996 134.613 212.831 134.117 212.501 133.765C212.172 133.409 211.713 133.231 211.126 133.231C210.725 133.231 210.365 133.316 210.047 133.486C209.732 133.657 209.484 133.907 209.302 134.236C209.124 134.562 209.035 134.956 209.035 135.418ZM219.341 140.793C218.788 140.793 218.288 140.691 217.841 140.486C217.394 140.278 217.04 139.977 216.779 139.583C216.521 139.189 216.392 138.706 216.392 138.134C216.392 137.642 216.487 137.236 216.676 136.918C216.866 136.6 217.121 136.348 217.443 136.163C217.765 135.977 218.125 135.837 218.523 135.742C218.921 135.647 219.326 135.575 219.739 135.526C220.262 135.466 220.686 135.416 221.012 135.379C221.337 135.337 221.574 135.271 221.722 135.18C221.87 135.089 221.943 134.941 221.943 134.736V134.697C221.943 134.2 221.803 133.816 221.523 133.543C221.246 133.271 220.834 133.134 220.284 133.134C219.712 133.134 219.262 133.261 218.932 133.515C218.606 133.765 218.381 134.043 218.256 134.35L216.659 133.986C216.849 133.456 217.125 133.028 217.489 132.702C217.856 132.373 218.279 132.134 218.756 131.986C219.233 131.835 219.735 131.759 220.262 131.759C220.61 131.759 220.979 131.801 221.37 131.884C221.764 131.964 222.131 132.111 222.472 132.327C222.817 132.543 223.099 132.852 223.318 133.254C223.538 133.651 223.648 134.168 223.648 134.805V140.6H221.989V139.407H221.921C221.811 139.627 221.646 139.843 221.426 140.055C221.207 140.267 220.925 140.443 220.58 140.583C220.235 140.723 219.822 140.793 219.341 140.793ZM219.711 139.43C220.18 139.43 220.582 139.337 220.915 139.151C221.252 138.966 221.508 138.723 221.682 138.424C221.86 138.121 221.949 137.797 221.949 137.452V136.327C221.889 136.388 221.771 136.445 221.597 136.498C221.426 136.547 221.231 136.591 221.012 136.629C220.792 136.663 220.578 136.695 220.37 136.725C220.161 136.752 219.987 136.774 219.847 136.793C219.517 136.835 219.216 136.905 218.943 137.004C218.675 137.102 218.459 137.244 218.296 137.43C218.137 137.611 218.057 137.854 218.057 138.157C218.057 138.577 218.212 138.896 218.523 139.111C218.834 139.324 219.229 139.43 219.711 139.43ZM232.904 131.873L229.739 140.6H227.921L224.751 131.873H226.575L228.785 138.589H228.876L231.08 131.873H232.904ZM237.805 140.776C236.945 140.776 236.205 140.593 235.584 140.225C234.966 139.854 234.489 139.333 234.152 138.663C233.819 137.988 233.652 137.199 233.652 136.293C233.652 135.399 233.819 134.611 234.152 133.93C234.489 133.248 234.959 132.716 235.561 132.333C236.167 131.95 236.875 131.759 237.686 131.759C238.178 131.759 238.656 131.841 239.118 132.004C239.58 132.166 239.995 132.422 240.362 132.771C240.73 133.119 241.019 133.572 241.231 134.129C241.444 134.682 241.55 135.354 241.55 136.146V136.748H234.612V135.475H239.885C239.885 135.028 239.794 134.632 239.612 134.288C239.43 133.939 239.175 133.664 238.845 133.464C238.519 133.263 238.137 133.163 237.697 133.163C237.22 133.163 236.803 133.28 236.447 133.515C236.095 133.746 235.822 134.049 235.629 134.424C235.44 134.795 235.345 135.199 235.345 135.634V136.629C235.345 137.212 235.447 137.708 235.652 138.117C235.86 138.526 236.15 138.839 236.521 139.055C236.892 139.267 237.326 139.373 237.822 139.373C238.144 139.373 238.438 139.327 238.703 139.236C238.968 139.142 239.197 139.002 239.391 138.816C239.584 138.63 239.731 138.401 239.834 138.129L241.442 138.418C241.313 138.892 241.082 139.307 240.748 139.663C240.419 140.015 240.004 140.289 239.504 140.486C239.008 140.68 238.442 140.776 237.805 140.776ZM249.889 140.793C249.336 140.793 248.836 140.691 248.389 140.486C247.942 140.278 247.588 139.977 247.326 139.583C247.069 139.189 246.94 138.706 246.94 138.134C246.94 137.642 247.035 137.236 247.224 136.918C247.413 136.6 247.669 136.348 247.991 136.163C248.313 135.977 248.673 135.837 249.071 135.742C249.468 135.647 249.874 135.575 250.286 135.526C250.809 135.466 251.233 135.416 251.559 135.379C251.885 135.337 252.122 135.271 252.269 135.18C252.417 135.089 252.491 134.941 252.491 134.736V134.697C252.491 134.2 252.351 133.816 252.071 133.543C251.794 133.271 251.381 133.134 250.832 133.134C250.26 133.134 249.809 133.261 249.48 133.515C249.154 133.765 248.928 134.043 248.803 134.35L247.207 133.986C247.396 133.456 247.673 133.028 248.036 132.702C248.404 132.373 248.826 132.134 249.303 131.986C249.781 131.835 250.283 131.759 250.809 131.759C251.158 131.759 251.527 131.801 251.917 131.884C252.311 131.964 252.678 132.111 253.019 132.327C253.364 132.543 253.646 132.852 253.866 133.254C254.086 133.651 254.196 134.168 254.196 134.805V140.6H252.536V139.407H252.468C252.358 139.627 252.194 139.843 251.974 140.055C251.754 140.267 251.472 140.443 251.127 140.583C250.783 140.723 250.37 140.793 249.889 140.793ZM250.258 139.43C250.728 139.43 251.129 139.337 251.463 139.151C251.8 138.966 252.055 138.723 252.23 138.424C252.408 138.121 252.497 137.797 252.497 137.452V136.327C252.436 136.388 252.319 136.445 252.144 136.498C251.974 136.547 251.779 136.591 251.559 136.629C251.339 136.663 251.125 136.695 250.917 136.725C250.709 136.752 250.535 136.774 250.394 136.793C250.065 136.835 249.764 136.905 249.491 137.004C249.222 137.102 249.006 137.244 248.843 137.43C248.684 137.611 248.605 137.854 248.605 138.157C248.605 138.577 248.76 138.896 249.071 139.111C249.381 139.324 249.777 139.43 250.258 139.43ZM257.997 128.964V140.6H256.298V128.964H257.997ZM260.123 140.6V131.873H261.765V133.259H261.856C262.015 132.789 262.295 132.42 262.697 132.151C263.102 131.879 263.56 131.742 264.072 131.742C264.178 131.742 264.303 131.746 264.447 131.754C264.594 131.761 264.71 131.771 264.793 131.782V133.407C264.725 133.388 264.604 133.367 264.429 133.344C264.255 133.318 264.081 133.305 263.907 133.305C263.505 133.305 263.147 133.39 262.833 133.56C262.522 133.727 262.276 133.96 262.094 134.259C261.912 134.555 261.822 134.892 261.822 135.271V140.6H260.123ZM269.552 140.776C268.692 140.776 267.952 140.593 267.331 140.225C266.713 139.854 266.236 139.333 265.899 138.663C265.565 137.988 265.399 137.199 265.399 136.293C265.399 135.399 265.565 134.611 265.899 133.93C266.236 133.248 266.706 132.716 267.308 132.333C267.914 131.95 268.622 131.759 269.433 131.759C269.925 131.759 270.403 131.841 270.865 132.004C271.327 132.166 271.742 132.422 272.109 132.771C272.476 133.119 272.766 133.572 272.978 134.129C273.19 134.682 273.296 135.354 273.296 136.146V136.748H266.359V135.475H271.632C271.632 135.028 271.541 134.632 271.359 134.288C271.177 133.939 270.921 133.664 270.592 133.464C270.266 133.263 269.884 133.163 269.444 133.163C268.967 133.163 268.55 133.28 268.194 133.515C267.842 133.746 267.569 134.049 267.376 134.424C267.187 134.795 267.092 135.199 267.092 135.634V136.629C267.092 137.212 267.194 137.708 267.399 138.117C267.607 138.526 267.897 138.839 268.268 139.055C268.639 139.267 269.073 139.373 269.569 139.373C269.891 139.373 270.185 139.327 270.45 139.236C270.715 139.142 270.944 139.002 271.137 138.816C271.331 138.63 271.478 138.401 271.581 138.129L273.189 138.418C273.06 138.892 272.829 139.307 272.495 139.663C272.166 140.015 271.751 140.289 271.251 140.486C270.755 140.68 270.189 140.776 269.552 140.776ZM277.561 140.793C277.008 140.793 276.508 140.691 276.061 140.486C275.614 140.278 275.26 139.977 274.999 139.583C274.741 139.189 274.612 138.706 274.612 138.134C274.612 137.642 274.707 137.236 274.896 136.918C275.086 136.6 275.342 136.348 275.663 136.163C275.985 135.977 276.345 135.837 276.743 135.742C277.141 135.647 277.546 135.575 277.959 135.526C278.482 135.466 278.906 135.416 279.232 135.379C279.557 135.337 279.794 135.271 279.942 135.18C280.09 135.089 280.163 134.941 280.163 134.736V134.697C280.163 134.2 280.023 133.816 279.743 133.543C279.467 133.271 279.054 133.134 278.504 133.134C277.932 133.134 277.482 133.261 277.152 133.515C276.826 133.765 276.601 134.043 276.476 134.35L274.879 133.986C275.069 133.456 275.345 133.028 275.709 132.702C276.076 132.373 276.499 132.134 276.976 131.986C277.453 131.835 277.955 131.759 278.482 131.759C278.83 131.759 279.199 131.801 279.59 131.884C279.984 131.964 280.351 132.111 280.692 132.327C281.037 132.543 281.319 132.852 281.538 133.254C281.758 133.651 281.868 134.168 281.868 134.805V140.6H280.209V139.407H280.141C280.031 139.627 279.866 139.843 279.646 140.055C279.427 140.267 279.145 140.443 278.8 140.583C278.455 140.723 278.042 140.793 277.561 140.793ZM277.931 139.43C278.4 139.43 278.802 139.337 279.135 139.151C279.472 138.966 279.728 138.723 279.902 138.424C280.08 138.121 280.169 137.797 280.169 137.452V136.327C280.109 136.388 279.991 136.445 279.817 136.498C279.646 136.547 279.451 136.591 279.232 136.629C279.012 136.663 278.798 136.695 278.59 136.725C278.381 136.752 278.207 136.774 278.067 136.793C277.737 136.835 277.436 136.905 277.163 137.004C276.895 137.102 276.679 137.244 276.516 137.43C276.357 137.611 276.277 137.854 276.277 138.157C276.277 138.577 276.432 138.896 276.743 139.111C277.054 139.324 277.449 139.43 277.931 139.43ZM287.238 140.771C286.533 140.771 285.905 140.591 285.351 140.231C284.802 139.867 284.37 139.35 284.056 138.68C283.745 138.005 283.59 137.197 283.59 136.254C283.59 135.31 283.747 134.504 284.062 133.833C284.38 133.163 284.815 132.649 285.369 132.293C285.922 131.937 286.548 131.759 287.249 131.759C287.791 131.759 288.226 131.85 288.556 132.032C288.889 132.21 289.147 132.418 289.329 132.657C289.514 132.896 289.658 133.106 289.761 133.288H289.863V128.964H291.562V140.6H289.903V139.242H289.761C289.658 139.428 289.511 139.64 289.317 139.879C289.128 140.117 288.867 140.325 288.533 140.504C288.2 140.682 287.768 140.771 287.238 140.771ZM287.613 139.322C288.101 139.322 288.514 139.193 288.851 138.935C289.192 138.674 289.45 138.312 289.624 137.85C289.802 137.388 289.891 136.85 289.891 136.236C289.891 135.63 289.804 135.1 289.63 134.646C289.456 134.191 289.2 133.837 288.863 133.583C288.526 133.329 288.109 133.202 287.613 133.202C287.101 133.202 286.675 133.335 286.334 133.6C285.994 133.865 285.736 134.227 285.562 134.685C285.391 135.144 285.306 135.661 285.306 136.236C285.306 136.82 285.393 137.344 285.567 137.81C285.742 138.276 285.999 138.646 286.34 138.918C286.685 139.187 287.109 139.322 287.613 139.322ZM294.9 143.873C294.646 143.873 294.415 143.852 294.207 143.81C293.999 143.772 293.843 143.731 293.741 143.685L294.15 142.293C294.461 142.377 294.737 142.413 294.98 142.401C295.222 142.39 295.436 142.299 295.622 142.129C295.811 141.958 295.978 141.68 296.122 141.293L296.332 140.714L293.139 131.873H294.957L297.167 138.646H297.258L299.468 131.873H301.292L297.696 141.765C297.529 142.219 297.317 142.604 297.059 142.918C296.802 143.236 296.495 143.475 296.139 143.634C295.783 143.793 295.37 143.873 294.9 143.873ZM310.565 140.776C309.705 140.776 308.964 140.593 308.343 140.225C307.726 139.854 307.248 139.333 306.911 138.663C306.578 137.988 306.411 137.199 306.411 136.293C306.411 135.399 306.578 134.611 306.911 133.93C307.248 133.248 307.718 132.716 308.32 132.333C308.926 131.95 309.635 131.759 310.445 131.759C310.938 131.759 311.415 131.841 311.877 132.004C312.339 132.166 312.754 132.422 313.121 132.771C313.489 133.119 313.779 133.572 313.991 134.129C314.203 134.682 314.309 135.354 314.309 136.146V136.748H307.371V135.475H312.644C312.644 135.028 312.553 134.632 312.371 134.288C312.19 133.939 311.934 133.664 311.604 133.464C311.279 133.263 310.896 133.163 310.457 133.163C309.979 133.163 309.563 133.28 309.207 133.515C308.854 133.746 308.582 134.049 308.389 134.424C308.199 134.795 308.104 135.199 308.104 135.634V136.629C308.104 137.212 308.207 137.708 308.411 138.117C308.62 138.526 308.909 138.839 309.281 139.055C309.652 139.267 310.085 139.373 310.582 139.373C310.904 139.373 311.197 139.327 311.462 139.236C311.728 139.142 311.957 139.002 312.15 138.816C312.343 138.63 312.491 138.401 312.593 138.129L314.201 138.418C314.072 138.892 313.841 139.307 313.508 139.663C313.178 140.015 312.764 140.289 312.264 140.486C311.767 140.68 311.201 140.776 310.565 140.776ZM317.172 131.873L319.098 135.271L321.041 131.873H322.899L320.177 136.236L322.922 140.6H321.064L319.098 137.339L317.138 140.6H315.274L317.99 136.236L315.308 131.873H317.172ZM324.483 143.873V131.873H326.142V133.288H326.284C326.383 133.106 326.525 132.896 326.711 132.657C326.896 132.418 327.154 132.21 327.483 132.032C327.813 131.85 328.248 131.759 328.79 131.759C329.495 131.759 330.123 131.937 330.676 132.293C331.23 132.649 331.663 133.163 331.978 133.833C332.296 134.504 332.455 135.31 332.455 136.254C332.455 137.197 332.298 138.005 331.983 138.68C331.669 139.35 331.237 139.867 330.688 140.231C330.139 140.591 329.512 140.771 328.807 140.771C328.277 140.771 327.843 140.682 327.506 140.504C327.173 140.325 326.911 140.117 326.722 139.879C326.533 139.64 326.387 139.428 326.284 139.242H326.182V143.873H324.483ZM326.148 136.236C326.148 136.85 326.237 137.388 326.415 137.85C326.593 138.312 326.851 138.674 327.188 138.935C327.525 139.193 327.938 139.322 328.426 139.322C328.934 139.322 329.358 139.187 329.699 138.918C330.04 138.646 330.298 138.276 330.472 137.81C330.65 137.344 330.739 136.82 330.739 136.236C330.739 135.661 330.652 135.144 330.478 134.685C330.307 134.227 330.05 133.865 329.705 133.6C329.364 133.335 328.938 133.202 328.426 133.202C327.934 133.202 327.517 133.329 327.176 133.583C326.839 133.837 326.584 134.191 326.409 134.646C326.235 135.1 326.148 135.63 326.148 136.236ZM337.96 140.776C337.1 140.776 336.359 140.593 335.738 140.225C335.121 139.854 334.643 139.333 334.306 138.663C333.973 137.988 333.806 137.199 333.806 136.293C333.806 135.399 333.973 134.611 334.306 133.93C334.643 133.248 335.113 132.716 335.715 132.333C336.321 131.95 337.03 131.759 337.84 131.759C338.333 131.759 338.81 131.841 339.272 132.004C339.734 132.166 340.149 132.422 340.516 132.771C340.884 133.119 341.174 133.572 341.386 134.129C341.598 134.682 341.704 135.354 341.704 136.146V136.748H334.766V135.475H340.039C340.039 135.028 339.948 134.632 339.766 134.288C339.585 133.939 339.329 133.664 338.999 133.464C338.674 133.263 338.291 133.163 337.852 133.163C337.374 133.163 336.958 133.28 336.602 133.515C336.249 133.746 335.977 134.049 335.784 134.424C335.594 134.795 335.499 135.199 335.499 135.634V136.629C335.499 137.212 335.602 137.708 335.806 138.117C336.015 138.526 336.304 138.839 336.676 139.055C337.047 139.267 337.48 139.373 337.977 139.373C338.299 139.373 338.592 139.327 338.857 139.236C339.123 139.142 339.352 139.002 339.545 138.816C339.738 138.63 339.886 138.401 339.988 138.129L341.596 138.418C341.467 138.892 341.236 139.307 340.903 139.663C340.573 140.015 340.159 140.289 339.659 140.486C339.162 140.68 338.596 140.776 337.96 140.776ZM343.429 140.6V131.873H345.071V133.259H345.162C345.321 132.789 345.601 132.42 346.003 132.151C346.408 131.879 346.866 131.742 347.378 131.742C347.484 131.742 347.609 131.746 347.753 131.754C347.901 131.761 348.016 131.771 348.099 131.782V133.407C348.031 133.388 347.91 133.367 347.736 133.344C347.561 133.318 347.387 133.305 347.213 133.305C346.811 133.305 346.454 133.39 346.139 133.56C345.829 133.727 345.582 133.96 345.401 134.259C345.219 134.555 345.128 134.892 345.128 135.271V140.6H343.429ZM349.41 140.6V131.873H351.108V140.6H349.41ZM350.267 130.526C349.972 130.526 349.718 130.428 349.506 130.231C349.298 130.03 349.194 129.791 349.194 129.515C349.194 129.235 349.298 128.996 349.506 128.799C349.718 128.598 349.972 128.498 350.267 128.498C350.563 128.498 350.815 128.598 351.023 128.799C351.235 128.996 351.341 129.235 351.341 129.515C351.341 129.791 351.235 130.03 351.023 130.231C350.815 130.428 350.563 130.526 350.267 130.526ZM356.995 140.776C356.135 140.776 355.395 140.593 354.774 140.225C354.156 139.854 353.679 139.333 353.342 138.663C353.009 137.988 352.842 137.199 352.842 136.293C352.842 135.399 353.009 134.611 353.342 133.93C353.679 133.248 354.149 132.716 354.751 132.333C355.357 131.95 356.065 131.759 356.876 131.759C357.368 131.759 357.846 131.841 358.308 132.004C358.77 132.166 359.185 132.422 359.552 132.771C359.92 133.119 360.209 133.572 360.421 134.129C360.634 134.682 360.74 135.354 360.74 136.146V136.748H353.802V135.475H359.075C359.075 135.028 358.984 134.632 358.802 134.288C358.62 133.939 358.365 133.664 358.035 133.464C357.709 133.263 357.327 133.163 356.887 133.163C356.41 133.163 355.993 133.28 355.637 133.515C355.285 133.746 355.012 134.049 354.819 134.424C354.63 134.795 354.535 135.199 354.535 135.634V136.629C354.535 137.212 354.637 137.708 354.842 138.117C355.05 138.526 355.34 138.839 355.711 139.055C356.082 139.267 356.516 139.373 357.012 139.373C357.334 139.373 357.628 139.327 357.893 139.236C358.158 139.142 358.387 139.002 358.581 138.816C358.774 138.63 358.921 138.401 359.024 138.129L360.632 138.418C360.503 138.892 360.272 139.307 359.938 139.663C359.609 140.015 359.194 140.289 358.694 140.486C358.198 140.68 357.632 140.776 356.995 140.776ZM364.163 135.418V140.6H362.465V131.873H364.095V133.293H364.203C364.404 132.831 364.718 132.46 365.146 132.18C365.578 131.899 366.122 131.759 366.777 131.759C367.372 131.759 367.893 131.884 368.34 132.134C368.787 132.38 369.133 132.748 369.379 133.236C369.626 133.725 369.749 134.329 369.749 135.049V140.6H368.05V135.254C368.05 134.621 367.885 134.127 367.555 133.771C367.226 133.411 366.773 133.231 366.198 133.231C365.804 133.231 365.453 133.316 365.146 133.486C364.843 133.657 364.603 133.907 364.425 134.236C364.251 134.562 364.163 134.956 364.163 135.418ZM375.543 140.776C374.698 140.776 373.971 140.585 373.361 140.202C372.755 139.816 372.289 139.284 371.964 138.606C371.638 137.928 371.475 137.151 371.475 136.276C371.475 135.39 371.642 134.608 371.975 133.93C372.308 133.248 372.778 132.716 373.384 132.333C373.99 131.95 374.704 131.759 375.526 131.759C376.189 131.759 376.78 131.882 377.299 132.129C377.818 132.371 378.236 132.712 378.555 133.151C378.877 133.591 379.068 134.104 379.128 134.691H377.475C377.384 134.282 377.176 133.93 376.85 133.634C376.528 133.339 376.096 133.191 375.555 133.191C375.081 133.191 374.666 133.316 374.31 133.566C373.958 133.812 373.683 134.164 373.486 134.623C373.289 135.077 373.191 135.615 373.191 136.236C373.191 136.873 373.288 137.422 373.481 137.884C373.674 138.346 373.947 138.704 374.299 138.958C374.655 139.212 375.073 139.339 375.555 139.339C375.877 139.339 376.168 139.28 376.43 139.163C376.695 139.041 376.916 138.869 377.094 138.646C377.276 138.422 377.403 138.153 377.475 137.839H379.128C379.068 138.403 378.884 138.907 378.577 139.35C378.27 139.793 377.859 140.142 377.344 140.396C376.833 140.649 376.233 140.776 375.543 140.776ZM384.547 140.776C383.687 140.776 382.946 140.593 382.325 140.225C381.708 139.854 381.23 139.333 380.893 138.663C380.56 137.988 380.393 137.199 380.393 136.293C380.393 135.399 380.56 134.611 380.893 133.93C381.23 133.248 381.7 132.716 382.302 132.333C382.908 131.95 383.617 131.759 384.427 131.759C384.92 131.759 385.397 131.841 385.859 132.004C386.321 132.166 386.736 132.422 387.103 132.771C387.471 133.119 387.761 133.572 387.973 134.129C388.185 134.682 388.291 135.354 388.291 136.146V136.748H381.353V135.475H386.626C386.626 135.028 386.535 134.632 386.353 134.288C386.172 133.939 385.916 133.664 385.586 133.464C385.261 133.263 384.878 133.163 384.439 133.163C383.961 133.163 383.545 133.28 383.189 133.515C382.836 133.746 382.564 134.049 382.37 134.424C382.181 134.795 382.086 135.199 382.086 135.634V136.629C382.086 137.212 382.189 137.708 382.393 138.117C382.601 138.526 382.891 138.839 383.262 139.055C383.634 139.267 384.067 139.373 384.564 139.373C384.886 139.373 385.179 139.327 385.444 139.236C385.709 139.142 385.939 139.002 386.132 138.816C386.325 138.63 386.473 138.401 386.575 138.129L388.183 138.418C388.054 138.892 387.823 139.307 387.49 139.663C387.16 140.015 386.745 140.289 386.245 140.486C385.749 140.68 385.183 140.776 384.547 140.776ZM393.283 140.771C392.578 140.771 391.95 140.591 391.396 140.231C390.847 139.867 390.415 139.35 390.101 138.68C389.79 138.005 389.635 137.197 389.635 136.254C389.635 135.31 389.792 134.504 390.107 133.833C390.425 133.163 390.86 132.649 391.414 132.293C391.967 131.937 392.593 131.759 393.294 131.759C393.836 131.759 394.271 131.85 394.601 132.032C394.934 132.21 395.192 132.418 395.374 132.657C395.559 132.896 395.703 133.106 395.806 133.288H395.908V128.964H397.607V140.6H395.948V139.242H395.806C395.703 139.428 395.556 139.64 395.362 139.879C395.173 140.117 394.912 140.325 394.578 140.504C394.245 140.682 393.813 140.771 393.283 140.771ZM393.658 139.322C394.146 139.322 394.559 139.193 394.896 138.935C395.237 138.674 395.495 138.312 395.669 137.85C395.847 137.388 395.936 136.85 395.936 136.236C395.936 135.63 395.849 135.1 395.675 134.646C395.501 134.191 395.245 133.837 394.908 133.583C394.571 133.329 394.154 133.202 393.658 133.202C393.146 133.202 392.72 133.335 392.379 133.6C392.039 133.865 391.781 134.227 391.607 134.685C391.436 135.144 391.351 135.661 391.351 136.236C391.351 136.82 391.438 137.344 391.612 137.81C391.787 138.276 392.044 138.646 392.385 138.918C392.73 139.187 393.154 139.322 393.658 139.322ZM403.946 140.6V131.873H405.645V140.6H403.946ZM404.804 130.526C404.508 130.526 404.254 130.428 404.042 130.231C403.834 130.03 403.73 129.791 403.73 129.515C403.73 129.235 403.834 128.996 404.042 128.799C404.254 128.598 404.508 128.498 404.804 128.498C405.099 128.498 405.351 128.598 405.559 128.799C405.772 128.996 405.878 129.235 405.878 129.515C405.878 129.791 405.772 130.03 405.559 130.231C405.351 130.428 405.099 130.526 404.804 130.526ZM411.844 131.873V133.236H407.077V131.873H411.844ZM408.355 129.782H410.054V138.038C410.054 138.367 410.103 138.615 410.202 138.782C410.3 138.945 410.427 139.057 410.583 139.117C410.742 139.174 410.914 139.202 411.1 139.202C411.236 139.202 411.355 139.193 411.458 139.174C411.56 139.155 411.639 139.14 411.696 139.129L412.003 140.532C411.905 140.57 411.764 140.608 411.583 140.646C411.401 140.687 411.174 140.71 410.901 140.714C410.454 140.721 410.037 140.642 409.651 140.475C409.264 140.308 408.952 140.051 408.713 139.702C408.475 139.354 408.355 138.916 408.355 138.39V129.782Z" fill="#004B8D"/>
<path opacity="0.2" d="M772.887 100.343L773.195 204.293C773.252 222.66 757.674 237.212 739.325 235.925L543.888 222.209C525.068 220.889 511.584 203.53 514.971 184.994L536.952 64.8138C540.071 47.7512 556.377 36.3844 573.485 39.344L746.635 69.29C761.772 71.906 772.843 85.0023 772.887 100.343Z" fill="#007AFF"/>
<path d="M703.27 102.582L602.829 74.4502C596.174 72.5862 589.264 76.4652 587.396 83.1141L570.656 142.703C568.788 149.352 572.669 156.253 579.324 158.117L679.765 186.248C686.421 188.112 693.33 184.233 695.198 177.584L711.938 117.996C713.806 111.347 709.925 104.446 703.27 102.582Z" fill="#3394FF"/>
<path d="M710.297 123.844L585.747 88.9546L580.972 105.952L705.523 140.841L710.297 123.844Z" fill="#1C3FCA"/>
<path d="M682.272 151.675L667.377 147.503C664.502 146.698 661.473 148.53 660.612 151.595L658.292 159.853C657.431 162.918 659.063 166.056 661.938 166.861L676.834 171.033C679.709 171.838 682.738 170.006 683.599 166.941L685.919 158.683C686.78 155.618 685.147 152.481 682.272 151.675Z" fill="#FFCC4D"/>
<path d="M644.579 47.9415C644.313 47.9012 644.058 47.7871 643.844 47.6035L636.175 41.1239C635.76 40.7739 635.557 40.2144 635.67 39.6723C635.782 39.1302 636.179 38.7068 636.703 38.5443L645.828 35.8303C646.32 35.6781 646.846 35.803 647.234 36.1338C647.623 36.4645 647.803 36.9753 647.724 37.4923L646.268 46.6859C646.187 47.2177 645.817 47.6604 645.318 47.8569C645.079 47.9415 644.816 47.9773 644.565 47.9392L644.579 47.9415ZM640.213 40.6319L643.739 43.6135L644.412 39.3786L640.213 40.6319Z" fill="#1FC994"/>
<path d="M560.698 103.777L558.822 104.092C558.468 104.151 558.433 104.649 558.775 104.758L560.588 105.331C561.781 105.711 562.664 106.719 562.873 107.958L563.188 109.831C563.247 110.185 563.746 110.22 563.855 109.878L564.429 108.067C564.808 106.876 565.818 105.994 567.058 105.785L568.934 105.471C569.288 105.411 569.323 104.913 568.981 104.805L567.168 104.231C565.975 103.852 565.092 102.843 564.883 101.605L564.568 99.7315C564.509 99.3776 564.01 99.3426 563.901 99.6847L563.327 101.496C562.948 102.687 561.938 103.569 560.698 103.777Z" fill="white"/>
<path d="M607.096 70.5612C606.92 69.5497 605.689 64.5424 598.872 65.6997L598.183 61.6612C601.699 61.0661 604.669 61.6099 607.011 63.2868C610.443 65.7451 611.114 69.7345 611.137 69.9004L607.089 70.5607L607.096 70.5612Z" fill="#FF9C00"/>
<path d="M547.759 156.902C544.548 156.677 542.058 155.537 540.364 153.509C537.734 150.375 538.138 146.296 538.156 146.127L542.238 146.55C542.238 146.55 542.016 149.121 543.528 150.904C544.484 152.032 546.008 152.673 548.047 152.816L547.759 156.902Z" fill="#E97FDF"/>
<path d="M733.642 145.663L732.301 143.86C731.876 143.288 731.066 143.168 730.493 143.593L728.688 144.932C728.115 145.357 727.996 146.166 728.421 146.738L729.762 148.541C730.187 149.113 730.997 149.232 731.569 148.807L733.375 147.468C733.948 147.043 734.067 146.235 733.642 145.663Z" fill="#8162F8"/>
<path d="M743.93 106.125L741.202 103.064C749.678 95.5172 756.752 102.536 756.825 102.61L753.893 105.478C753.457 105.047 749.359 101.295 743.93 106.125Z" fill="#3394FF"/>
<path d="M543.629 98.4704L556.504 93.1494C557.868 92.5865 558.47 90.9756 557.804 89.6579L541.823 57.9334L531.835 62.0605L543.629 98.4704Z" fill="#0CA774"/>
<path opacity="0.15" d="M543.629 98.4738L553.081 94.566L538.101 59.4806L531.834 62.0707L543.629 98.4738Z" fill="black"/>
<path d="M522.684 68.9276C522.461 68.912 522.247 68.7718 522.157 68.5482L520.438 64.3971C519.052 61.0465 520.649 57.1937 524.003 55.8087C525.626 55.1387 527.419 55.1393 529.04 55.8127C530.667 56.4866 531.93 57.7474 532.6 59.375L534.318 63.5327C534.447 63.8447 534.297 64.2095 533.984 64.3391C533.672 64.4687 533.307 64.3179 533.177 64.0059L531.459 59.8483C530.912 58.5323 529.883 57.5052 528.564 56.9582C527.244 56.4113 525.787 56.408 524.47 56.9544C521.747 58.0807 520.445 61.21 521.572 63.9365L523.29 68.0876C523.42 68.3997 523.269 68.7645 522.957 68.8941C522.868 68.934 522.768 68.9467 522.676 68.9403L522.684 68.9276Z" fill="#3394FF"/>
<path d="M550.201 95.7491L526.496 105.547C525.131 106.11 523.565 105.401 523.104 103.992L511.454 70.4827L534.48 60.9668L546.13 94.4824C546.592 95.8846 548.156 96.6003 549.521 96.0373L550.207 95.7561L550.201 95.7491Z" fill="#1FC893"/>
<path d="M517.909 71.9461C518.59 71.9939 519.181 71.481 519.229 70.8005C519.277 70.1201 518.764 69.5297 518.082 69.482C517.401 69.4342 516.81 69.9471 516.762 70.6276C516.714 71.308 517.228 71.8984 517.909 71.9461Z" fill="#1C3FC9"/>
<path d="M528.936 67.3875C529.617 67.4353 530.208 66.9224 530.256 66.2419C530.304 65.5615 529.791 64.9711 529.11 64.9234C528.428 64.8756 527.837 65.3885 527.789 66.069C527.742 66.7494 528.255 67.3398 528.936 67.3875Z" fill="#1C3FC9"/>
<path d="M517.919 71.2477C517.696 71.2321 517.482 71.0919 517.392 70.8683L515.55 66.4122C514.164 63.0616 515.761 59.2088 519.115 57.8238C522.469 56.4388 526.326 58.0329 527.712 61.3836L529.554 65.8397C529.684 66.1517 529.533 66.5165 529.22 66.6461C528.908 66.7757 528.543 66.6249 528.413 66.3129L526.571 61.8568C525.444 59.1368 522.305 57.8367 519.582 58.9629C516.859 60.0892 515.557 63.2251 516.684 65.9451L518.526 70.4012C518.656 70.7132 518.505 71.078 518.192 71.2076C518.104 71.2475 518.004 71.2603 517.912 71.2538L517.919 71.2477Z" fill="#E97FDF"/>
<path d="M806.131 148.593L789.66 136.925C788.597 136.173 787.026 136.562 786.15 137.795L738.951 204.263C738.076 205.496 738.228 207.106 739.29 207.858L755.762 219.526C756.825 220.279 758.396 219.89 759.271 218.657L806.471 152.188C807.346 150.955 807.194 149.346 806.131 148.593Z" fill="#D755D1"/>
<path d="M792.345 138.826L769.948 122.962C768.885 122.209 767.314 122.598 766.439 123.831L719.239 190.301C718.363 191.534 718.515 193.143 719.578 193.896L741.975 209.76C743.038 210.513 744.609 210.124 745.484 208.891L792.684 142.422C793.56 141.189 793.408 139.579 792.345 138.826Z" fill="#E97FDF"/>
<path d="M779.077 161.595L752.825 142.999L752.241 143.822L778.493 162.418L779.077 161.595Z" fill="#D755D1"/>
<path d="M765.658 132.624C765.915 132.263 765.872 131.792 765.562 131.572C765.253 131.353 764.793 131.468 764.537 131.83L759.436 139.013C759.18 139.374 759.223 139.845 759.532 140.064C759.842 140.284 760.301 140.168 760.558 139.807L765.658 132.624Z" fill="white"/>
<path d="M752.639 150.961C752.896 150.6 752.853 150.129 752.543 149.91C752.233 149.69 751.774 149.806 751.518 150.167L746.417 157.35C746.161 157.712 746.203 158.182 746.513 158.402C746.823 158.621 747.282 158.506 747.538 158.144L752.639 150.961Z" fill="white"/>
<path d="M693.779 74.7707C698.236 76.9453 703.647 75.0345 705.864 70.5027C708.082 65.971 706.266 60.5344 701.809 58.3598C697.352 56.1852 691.941 58.0961 689.724 62.6278C687.506 67.1595 689.322 72.5961 693.779 74.7707Z" fill="#727986"/>
<path d="M733.912 53.0558L722.042 47.2643C721.233 46.8694 720.25 47.2164 719.847 48.0393L700.623 87.3289C700.221 88.1518 700.55 89.1391 701.36 89.5339L713.229 95.3254C714.039 95.7203 715.021 95.3733 715.424 94.5504L734.648 55.2608C735.051 54.4379 734.721 53.4507 733.912 53.0558Z" fill="#5D49D3"/>
<path d="M731.462 61.7494L715.933 54.1731L719.115 47.6713C719.516 46.8516 720.494 46.4982 721.31 46.8961L733.916 53.0466C734.722 53.4399 735.058 54.4231 734.652 55.2521L731.471 61.7539L731.462 61.7494Z" fill="#0F2F93"/>
<path d="M674.828 76.5802L703.984 90.8055C704.793 91.2004 705.776 90.8534 706.179 90.0304L725.405 50.7371C725.808 49.9142 725.478 48.9269 724.669 48.5319L695.513 34.3067C694.703 33.9118 693.721 34.2588 693.318 35.0818L674.091 74.375C673.689 75.198 674.018 76.1853 674.828 76.5802Z" fill="#8062F6"/>
<path d="M722.223 57.2416L690.129 41.5817L693.311 35.0791C693.712 34.2593 694.691 33.9059 695.506 34.3038L724.677 48.5376C725.484 48.931 725.82 49.9143 725.414 50.7435L722.232 57.2461L722.223 57.2416Z" fill="#1C3FC7"/>
<path d="M711.019 49.0421L720.245 53.5436C720.594 53.714 721.018 53.5643 721.192 53.2093L722.304 50.9363C722.478 50.5813 722.335 50.1554 721.986 49.9851L712.76 45.4836C712.411 45.3132 711.987 45.4629 711.814 45.8179L710.702 48.0909C710.528 48.4459 710.67 48.8718 711.019 49.0421Z" fill="#0F2F93"/>
<path d="M692.68 77.0162C698.357 79.7857 705.248 77.3521 708.072 71.5807C710.896 65.8093 708.583 58.8856 702.907 56.1161C697.231 53.3467 690.34 55.7802 687.516 61.5516C684.692 67.323 687.004 74.2467 692.68 77.0162Z" fill="#E1E6F3"/>
<path d="M693.779 74.7707C698.236 76.9453 703.647 75.0345 705.864 70.5027C708.082 65.971 706.266 60.5344 701.809 58.3598C697.352 56.1852 691.941 58.0961 689.724 62.6278C687.506 67.1595 689.322 72.5961 693.779 74.7707Z" fill="#727986"/>
<path d="M693.779 74.7707C698.236 76.9453 703.647 75.0345 705.864 70.5027C708.082 65.971 706.266 60.5344 701.809 58.3598C697.352 56.1852 691.941 58.0961 689.724 62.6278C687.506 67.1595 689.322 72.5961 693.779 74.7707Z" fill="#0967D5"/>
<path d="M701.808 58.3596C702.522 58.7081 703.173 59.1409 703.746 59.6396C699.837 58.8861 695.728 60.8382 693.864 64.6472C692 68.4563 692.983 72.8931 695.981 75.5092C695.235 75.3644 694.493 75.1179 693.778 74.7693C689.318 72.5929 687.504 67.1627 689.724 62.6272C691.943 58.0917 697.347 56.1832 701.808 58.3596Z" fill="#122A77"/>
<path d="M697.167 38.2661L696.599 37.989L696.64 38.1131C695.99 38.0498 695.327 38.3841 695.018 39.0174C694.708 39.6507 694.842 40.3738 695.3 40.8513L695.177 40.8949L695.745 41.172C696.533 41.5564 697.493 41.2173 697.885 40.4163C698.277 39.6153 697.954 38.6505 697.167 38.2661Z" fill="#0967D5"/>
<path d="M695.175 40.8946C695.964 41.2797 696.922 40.9413 697.315 40.1389C697.708 39.3364 697.386 38.3738 696.597 37.9887C695.808 37.6037 694.85 37.942 694.457 38.7444C694.064 39.5469 694.386 40.5095 695.175 40.8946Z" fill="#48A4FF"/>
<path d="M702.243 40.7442L701.675 40.4671L701.716 40.5911C701.067 40.5279 700.404 40.8621 700.094 41.4954C699.784 42.1288 699.918 42.8518 700.377 43.3294L700.253 43.373L700.821 43.6501C701.609 44.0344 702.569 43.6953 702.961 42.8943C703.353 42.0933 703.031 41.1285 702.243 40.7442Z" fill="#0967D5"/>
<path d="M700.252 43.3668C701.042 43.7518 702 43.4135 702.392 42.611C702.785 41.8086 702.464 40.8459 701.674 40.4609C700.885 40.0758 699.927 40.4142 699.534 41.2166C699.142 42.0191 699.463 42.9817 700.252 43.3668Z" fill="#48A4FF"/>
<path opacity="0.5" d="M693.779 74.7707C698.236 76.9453 703.647 75.0345 705.864 70.5027C708.082 65.971 706.266 60.5344 701.809 58.3598C697.352 56.1852 691.941 58.0961 689.724 62.6278C687.506 67.1595 689.322 72.5961 693.779 74.7707Z" fill="#12B3F9"/>
<path d="M706.028 70.148C707.732 66.2721 706.556 61.8337 703.371 59.3452C702.743 63.2035 703.735 67.1137 706.028 70.148Z" fill="#E1E6F3"/>
<path d="M705.904 70.1232C705.84 70.0919 705.808 70.0185 705.84 69.9533C707.388 66.3248 706.355 62.0827 703.335 59.6516C703.28 59.6017 703.266 59.5141 703.316 59.4579C703.366 59.4016 703.449 59.3956 703.508 59.4362C706.624 61.9489 707.69 66.3106 706.096 70.0554C706.064 70.1206 705.991 70.1541 705.922 70.1321L705.904 70.1232Z" fill="#30C2D1"/>
</g>
<defs>
<clipPath id="clip0_11142_56282">
<rect width="768" height="180" fill="white"/>
</clipPath>
</defs>
</svg>
