<svg width="1440" height="180" viewBox="0 0 1440 180" fill="none" xmlns="http://www.w3.org/2000/svg">
<g clip-path="url(#clip0_6096_37440)">
<rect width="1440" height="180" fill="#1D4A88"/>
<path d="M242.358 39H240.511L245.852 24.4545H247.67L253.011 39H251.165L246.818 26.7557H246.705L242.358 39ZM243.04 33.3182H250.483V34.8807H243.04V33.3182ZM254.85 43.0909V28.0909H256.469V29.8239H256.668C256.791 29.6345 256.961 29.393 257.179 29.0994C257.402 28.8011 257.719 28.536 258.131 28.304C258.548 28.0672 259.111 27.9489 259.821 27.9489C260.74 27.9489 261.55 28.1785 262.25 28.6378C262.951 29.0971 263.498 29.7481 263.891 30.5909C264.284 31.4337 264.48 32.428 264.48 33.5739C264.48 34.7292 264.284 35.7306 263.891 36.5781C263.498 37.4209 262.953 38.0743 262.257 38.5384C261.561 38.9976 260.759 39.2273 259.85 39.2273C259.149 39.2273 258.588 39.1113 258.166 38.8793C257.745 38.6425 257.421 38.375 257.193 38.0767C256.966 37.7737 256.791 37.5227 256.668 37.3239H256.526V43.0909H254.85ZM256.497 33.5455C256.497 34.3693 256.618 35.0961 256.86 35.7259C257.101 36.3509 257.454 36.8409 257.918 37.196C258.382 37.5464 258.95 37.7216 259.622 37.7216C260.323 37.7216 260.908 37.5369 261.377 37.1676C261.85 36.7936 262.205 36.2917 262.442 35.6619C262.684 35.0275 262.804 34.322 262.804 33.5455C262.804 32.7784 262.686 32.0871 262.449 31.4716C262.217 30.8513 261.864 30.3613 261.391 30.0014C260.922 29.6368 260.333 29.4545 259.622 29.4545C258.941 29.4545 258.368 29.6274 257.904 29.973C257.44 30.3139 257.089 30.7921 256.853 31.4077C256.616 32.0185 256.497 32.7311 256.497 33.5455ZM266.837 43.0909V28.0909H268.457V29.8239H268.655C268.779 29.6345 268.949 29.393 269.167 29.0994C269.389 28.8011 269.707 28.536 270.118 28.304C270.535 28.0672 271.099 27.9489 271.809 27.9489C272.727 27.9489 273.537 28.1785 274.238 28.6378C274.939 29.0971 275.485 29.7481 275.878 30.5909C276.271 31.4337 276.468 32.428 276.468 33.5739C276.468 34.7292 276.271 35.7306 275.878 36.5781C275.485 37.4209 274.941 38.0743 274.245 38.5384C273.549 38.9976 272.746 39.2273 271.837 39.2273C271.136 39.2273 270.575 39.1113 270.154 38.8793C269.733 38.6425 269.408 38.375 269.181 38.0767C268.954 37.7737 268.779 37.5227 268.655 37.3239H268.513V43.0909H266.837ZM268.485 33.5455C268.485 34.3693 268.606 35.0961 268.847 35.7259C269.089 36.3509 269.441 36.8409 269.905 37.196C270.369 37.5464 270.938 37.7216 271.61 37.7216C272.311 37.7216 272.895 37.5369 273.364 37.1676C273.838 36.7936 274.193 36.2917 274.43 35.6619C274.671 35.0275 274.792 34.322 274.792 33.5455C274.792 32.7784 274.673 32.0871 274.437 31.4716C274.205 30.8513 273.852 30.3613 273.378 30.0014C272.91 29.6368 272.32 29.4545 271.61 29.4545C270.928 29.4545 270.355 29.6274 269.891 29.973C269.427 30.3139 269.077 30.7921 268.84 31.4077C268.603 32.0185 268.485 32.7311 268.485 33.5455ZM280.501 24.4545V39H278.825V24.4545H280.501ZM284.45 43.0909C284.166 43.0909 283.913 43.0672 283.69 43.0199C283.468 42.9773 283.314 42.9347 283.229 42.892L283.655 41.4148C284.062 41.5189 284.422 41.5568 284.734 41.5284C285.047 41.5 285.324 41.3603 285.565 41.1094C285.812 40.8632 286.037 40.4631 286.24 39.9091L286.553 39.0568L282.519 28.0909H284.337L287.348 36.7841H287.462L290.473 28.0909H292.291L287.661 40.5909C287.452 41.1544 287.194 41.6207 286.886 41.9901C286.579 42.3641 286.221 42.6411 285.814 42.821C285.412 43.0009 284.957 43.0909 284.45 43.0909ZM304.587 28.0909V29.5114H298.706V28.0909H304.587ZM300.467 39V26.5852C300.467 25.9602 300.614 25.4394 300.908 25.0227C301.201 24.6061 301.582 24.2936 302.051 24.0852C302.52 23.8769 303.015 23.7727 303.535 23.7727C303.947 23.7727 304.284 23.8059 304.544 23.8722C304.804 23.9384 304.999 24 305.126 24.0568L304.643 25.5057C304.558 25.4773 304.44 25.4418 304.288 25.3991C304.142 25.3565 303.947 25.3352 303.706 25.3352C303.152 25.3352 302.752 25.4749 302.506 25.7543C302.264 26.0336 302.143 26.4432 302.143 26.983V39H300.467ZM310.718 39.2273C309.733 39.2273 308.869 38.9929 308.126 38.5241C307.387 38.0554 306.81 37.3996 306.393 36.5568C305.981 35.714 305.775 34.7292 305.775 33.6023C305.775 32.4659 305.981 31.474 306.393 30.6264C306.81 29.7789 307.387 29.1207 308.126 28.652C308.869 28.1832 309.733 27.9489 310.718 27.9489C311.703 27.9489 312.565 28.1832 313.303 28.652C314.047 29.1207 314.625 29.7789 315.036 30.6264C315.453 31.474 315.661 32.4659 315.661 33.6023C315.661 34.7292 315.453 35.714 315.036 36.5568C314.625 37.3996 314.047 38.0554 313.303 38.5241C312.565 38.9929 311.703 39.2273 310.718 39.2273ZM310.718 37.7216C311.466 37.7216 312.082 37.5298 312.565 37.1463C313.048 36.7628 313.405 36.2585 313.637 35.6335C313.869 35.0085 313.985 34.3314 313.985 33.6023C313.985 32.8731 313.869 32.1937 313.637 31.5639C313.405 30.9342 313.048 30.4252 312.565 30.0369C312.082 29.6487 311.466 29.4545 310.718 29.4545C309.97 29.4545 309.355 29.6487 308.872 30.0369C308.389 30.4252 308.031 30.9342 307.799 31.5639C307.567 32.1937 307.451 32.8731 307.451 33.6023C307.451 34.3314 307.567 35.0085 307.799 35.6335C308.031 36.2585 308.389 36.7628 308.872 37.1463C309.355 37.5298 309.97 37.7216 310.718 37.7216ZM318.02 39V28.0909H319.639V29.7386H319.753C319.952 29.1989 320.312 28.7609 320.833 28.4247C321.353 28.0885 321.94 27.9205 322.594 27.9205C322.717 27.9205 322.871 27.9228 323.056 27.9276C323.24 27.9323 323.38 27.9394 323.475 27.9489V29.6534C323.418 29.6392 323.288 29.6179 323.084 29.5895C322.885 29.5563 322.674 29.5398 322.452 29.5398C321.922 29.5398 321.448 29.651 321.031 29.8736C320.619 30.0914 320.293 30.3944 320.051 30.7827C319.815 31.1662 319.696 31.6042 319.696 32.0966V39H318.02ZM333.897 39.2557C333.205 39.2557 332.578 39.1255 332.015 38.8651C331.451 38.5999 331.004 38.2188 330.672 37.7216C330.341 37.2197 330.175 36.6136 330.175 35.9034C330.175 35.2784 330.298 34.7718 330.544 34.3835C330.791 33.9905 331.12 33.6828 331.532 33.4602C331.944 33.2377 332.398 33.072 332.895 32.9631C333.397 32.8494 333.901 32.7595 334.408 32.6932C335.071 32.608 335.608 32.544 336.02 32.5014C336.437 32.4541 336.74 32.3759 336.929 32.267C337.123 32.1581 337.221 31.9687 337.221 31.6989V31.642C337.221 30.9413 337.029 30.3968 336.645 30.0085C336.266 29.6203 335.691 29.4261 334.919 29.4261C334.119 29.4261 333.492 29.6013 333.037 29.9517C332.583 30.3021 332.263 30.6761 332.078 31.0739L330.488 30.5057C330.772 29.8428 331.15 29.3267 331.624 28.9574C332.102 28.5833 332.623 28.3229 333.186 28.1761C333.755 28.0246 334.313 27.9489 334.863 27.9489C335.213 27.9489 335.615 27.9915 336.07 28.0767C336.529 28.1572 336.972 28.3253 337.398 28.581C337.829 28.8366 338.186 29.2225 338.471 29.7386C338.755 30.2547 338.897 30.946 338.897 31.8125V39H337.221V37.5227H337.135C337.022 37.7595 336.832 38.0128 336.567 38.2827C336.302 38.5526 335.949 38.7822 335.509 38.9716C335.069 39.161 334.531 39.2557 333.897 39.2557ZM334.152 37.75C334.815 37.75 335.374 37.6198 335.828 37.3594C336.288 37.099 336.633 36.7628 336.865 36.3509C337.102 35.9389 337.221 35.5057 337.221 35.0511V33.517C337.15 33.6023 336.993 33.6804 336.752 33.7514C336.515 33.8177 336.24 33.8769 335.928 33.929C335.62 33.9763 335.319 34.0189 335.026 34.0568C334.737 34.09 334.503 34.1184 334.323 34.142C333.887 34.1989 333.48 34.2912 333.101 34.419C332.727 34.5421 332.424 34.7292 332.192 34.9801C331.965 35.2263 331.851 35.5625 331.851 35.9886C331.851 36.571 332.067 37.0114 332.498 37.3097C332.933 37.6032 333.485 37.75 334.152 37.75ZM350.05 39L346.073 24.4545H347.863L350.903 36.3011H351.045L354.141 24.4545H356.13L359.226 36.3011H359.368L362.408 24.4545H364.198L360.221 39H358.403L355.192 27.4091H355.079L351.868 39H350.05ZM369.382 39.2273C368.397 39.2273 367.533 38.9929 366.789 38.5241C366.051 38.0554 365.473 37.3996 365.056 36.5568C364.644 35.714 364.438 34.7292 364.438 33.6023C364.438 32.4659 364.644 31.474 365.056 30.6264C365.473 29.7789 366.051 29.1207 366.789 28.652C367.533 28.1832 368.397 27.9489 369.382 27.9489C370.366 27.9489 371.228 28.1832 371.967 28.652C372.71 29.1207 373.288 29.7789 373.7 30.6264C374.116 31.474 374.325 32.4659 374.325 33.6023C374.325 34.7292 374.116 35.714 373.7 36.5568C373.288 37.3996 372.71 38.0554 371.967 38.5241C371.228 38.9929 370.366 39.2273 369.382 39.2273ZM369.382 37.7216C370.13 37.7216 370.745 37.5298 371.228 37.1463C371.711 36.7628 372.069 36.2585 372.301 35.6335C372.533 35.0085 372.649 34.3314 372.649 33.6023C372.649 32.8731 372.533 32.1937 372.301 31.5639C372.069 30.9342 371.711 30.4252 371.228 30.0369C370.745 29.6487 370.13 29.4545 369.382 29.4545C368.633 29.4545 368.018 29.6487 367.535 30.0369C367.052 30.4252 366.695 30.9342 366.463 31.5639C366.23 32.1937 366.114 32.8731 366.114 33.6023C366.114 34.3314 366.23 35.0085 366.463 35.6335C366.695 36.2585 367.052 36.7628 367.535 37.1463C368.018 37.5298 368.633 37.7216 369.382 37.7216ZM376.683 39V28.0909H378.303V29.7386H378.416C378.615 29.1989 378.975 28.7609 379.496 28.4247C380.017 28.0885 380.604 27.9205 381.257 27.9205C381.38 27.9205 381.534 27.9228 381.719 27.9276C381.903 27.9323 382.043 27.9394 382.138 27.9489V29.6534C382.081 29.6392 381.951 29.6179 381.747 29.5895C381.548 29.5563 381.338 29.5398 381.115 29.5398C380.585 29.5398 380.111 29.651 379.695 29.8736C379.283 30.0914 378.956 30.3944 378.715 30.7827C378.478 31.1662 378.359 31.6042 378.359 32.0966V39H376.683ZM385.601 24.4545V39H383.925V24.4545H385.601ZM392.59 39.2273C391.681 39.2273 390.878 38.9976 390.182 38.5384C389.486 38.0743 388.942 37.4209 388.549 36.5781C388.156 35.7306 387.959 34.7292 387.959 33.5739C387.959 32.428 388.156 31.4337 388.549 30.5909C388.942 29.7481 389.489 29.0971 390.19 28.6378C390.89 28.1785 391.7 27.9489 392.619 27.9489C393.329 27.9489 393.89 28.0672 394.302 28.304C394.718 28.536 395.036 28.8011 395.253 29.0994C395.476 29.393 395.649 29.6345 395.772 29.8239H395.914V24.4545H397.59V39H395.971V37.3239H395.772C395.649 37.5227 395.474 37.7737 395.246 38.0767C395.019 38.375 394.695 38.6425 394.273 38.8793C393.852 39.1113 393.291 39.2273 392.59 39.2273ZM392.817 37.7216C393.49 37.7216 394.058 37.5464 394.522 37.196C394.986 36.8409 395.339 36.3509 395.58 35.7259C395.822 35.0961 395.942 34.3693 395.942 33.5455C395.942 32.7311 395.824 32.0185 395.587 31.4077C395.351 30.7921 395 30.3139 394.536 29.973C394.072 29.6274 393.499 29.4545 392.817 29.4545C392.107 29.4545 391.515 29.6368 391.042 30.0014C390.573 30.3613 390.22 30.8513 389.984 31.4716C389.752 32.0871 389.636 32.7784 389.636 33.5455C389.636 34.322 389.754 35.0275 389.991 35.6619C390.232 36.2917 390.587 36.7936 391.056 37.1676C391.53 37.5369 392.117 37.7216 392.817 37.7216ZM418.049 29H416.288C416.184 28.4934 416.002 28.0483 415.741 27.6648C415.486 27.2812 415.173 26.9593 414.804 26.6989C414.439 26.4337 414.034 26.2348 413.589 26.1023C413.144 25.9697 412.68 25.9034 412.197 25.9034C411.317 25.9034 410.519 26.1259 409.804 26.571C409.094 27.0161 408.528 27.6719 408.106 28.5384C407.69 29.4048 407.481 30.4678 407.481 31.7273C407.481 32.9867 407.69 34.0497 408.106 34.9162C408.528 35.7827 409.094 36.4384 409.804 36.8835C410.519 37.3286 411.317 37.5511 412.197 37.5511C412.68 37.5511 413.144 37.4848 413.589 37.3523C414.034 37.2197 414.439 37.0232 414.804 36.7628C415.173 36.4976 415.486 36.1733 415.741 35.7898C416.002 35.4015 416.184 34.9564 416.288 34.4545H418.049C417.917 35.1979 417.675 35.8632 417.325 36.4503C416.975 37.0374 416.539 37.5369 416.018 37.9489C415.497 38.3561 414.913 38.6662 414.264 38.8793C413.62 39.0923 412.931 39.1989 412.197 39.1989C410.957 39.1989 409.853 38.8958 408.888 38.2898C407.922 37.6837 407.162 36.822 406.608 35.7045C406.054 34.5871 405.777 33.2614 405.777 31.7273C405.777 30.1932 406.054 28.8674 406.608 27.75C407.162 26.6326 407.922 25.7708 408.888 25.1648C409.853 24.5587 410.957 24.2557 412.197 24.2557C412.931 24.2557 413.62 24.3622 414.264 24.5753C414.913 24.7884 415.497 25.1009 416.018 25.5128C416.539 25.92 416.975 26.4171 417.325 27.0043C417.675 27.5866 417.917 28.2519 418.049 29ZM422.145 24.4545V39H420.468V24.4545H422.145ZM428.225 39.2557C427.533 39.2557 426.906 39.1255 426.343 38.8651C425.779 38.5999 425.332 38.2188 425 37.7216C424.669 37.2197 424.503 36.6136 424.503 35.9034C424.503 35.2784 424.626 34.7718 424.873 34.3835C425.119 33.9905 425.448 33.6828 425.86 33.4602C426.272 33.2377 426.726 33.072 427.223 32.9631C427.725 32.8494 428.23 32.7595 428.736 32.6932C429.399 32.608 429.936 32.544 430.348 32.5014C430.765 32.4541 431.068 32.3759 431.257 32.267C431.452 32.1581 431.549 31.9687 431.549 31.6989V31.642C431.549 30.9413 431.357 30.3968 430.973 30.0085C430.595 29.6203 430.019 29.4261 429.248 29.4261C428.447 29.4261 427.82 29.6013 427.365 29.9517C426.911 30.3021 426.591 30.6761 426.407 31.0739L424.816 30.5057C425.1 29.8428 425.479 29.3267 425.952 28.9574C426.43 28.5833 426.951 28.3229 427.515 28.1761C428.083 28.0246 428.641 27.9489 429.191 27.9489C429.541 27.9489 429.944 27.9915 430.398 28.0767C430.857 28.1572 431.3 28.3253 431.726 28.581C432.157 28.8366 432.515 29.2225 432.799 29.7386C433.083 30.2547 433.225 30.946 433.225 31.8125V39H431.549V37.5227H431.463C431.35 37.7595 431.16 38.0128 430.895 38.2827C430.63 38.5526 430.277 38.7822 429.837 38.9716C429.397 39.161 428.859 39.2557 428.225 39.2557ZM428.48 37.75C429.143 37.75 429.702 37.6198 430.157 37.3594C430.616 37.099 430.962 36.7628 431.194 36.3509C431.43 35.9389 431.549 35.5057 431.549 35.0511V33.517C431.478 33.6023 431.321 33.6804 431.08 33.7514C430.843 33.8177 430.569 33.8769 430.256 33.929C429.948 33.9763 429.648 34.0189 429.354 34.0568C429.065 34.09 428.831 34.1184 428.651 34.142C428.215 34.1989 427.808 34.2912 427.429 34.419C427.055 34.5421 426.752 34.7292 426.52 34.9801C426.293 35.2263 426.179 35.5625 426.179 35.9886C426.179 36.571 426.395 37.0114 426.826 37.3097C427.261 37.6032 427.813 37.75 428.48 37.75ZM443.811 30.5341L442.306 30.9602C442.211 30.7093 442.071 30.4654 441.887 30.2287C441.707 29.9872 441.461 29.7884 441.148 29.6321C440.836 29.4759 440.435 29.3977 439.948 29.3977C439.28 29.3977 438.724 29.5516 438.279 29.8594C437.838 30.1624 437.618 30.5483 437.618 31.017C437.618 31.4337 437.77 31.7628 438.073 32.0043C438.376 32.2457 438.849 32.447 439.493 32.608L441.113 33.0057C442.088 33.2424 442.815 33.6046 443.293 34.0923C443.771 34.5753 444.01 35.1979 444.01 35.9602C444.01 36.5852 443.83 37.1439 443.47 37.6364C443.115 38.1288 442.618 38.517 441.979 38.8011C441.34 39.0852 440.596 39.2273 439.749 39.2273C438.636 39.2273 437.715 38.9858 436.986 38.5028C436.257 38.0199 435.795 37.3144 435.601 36.3864L437.192 35.9886C437.344 36.5758 437.63 37.0161 438.051 37.3097C438.478 37.6032 439.034 37.75 439.72 37.75C440.502 37.75 441.122 37.5843 441.581 37.2528C442.045 36.9167 442.277 36.5142 442.277 36.0455C442.277 35.6667 442.145 35.3494 441.88 35.0938C441.614 34.8333 441.207 34.6392 440.658 34.5114L438.84 34.0852C437.841 33.8485 437.107 33.4815 436.638 32.9844C436.174 32.4825 435.942 31.8551 435.942 31.1023C435.942 30.4867 436.115 29.9422 436.461 29.4688C436.811 28.9953 437.287 28.6236 437.888 28.3537C438.494 28.0838 439.181 27.9489 439.948 27.9489C441.027 27.9489 441.875 28.1856 442.49 28.6591C443.111 29.1326 443.551 29.7576 443.811 30.5341ZM454.061 30.5341L452.555 30.9602C452.46 30.7093 452.321 30.4654 452.136 30.2287C451.956 29.9872 451.71 29.7884 451.397 29.6321C451.085 29.4759 450.685 29.3977 450.197 29.3977C449.529 29.3977 448.973 29.5516 448.528 29.8594C448.088 30.1624 447.867 30.5483 447.867 31.017C447.867 31.4337 448.019 31.7628 448.322 32.0043C448.625 32.2457 449.098 32.447 449.742 32.608L451.362 33.0057C452.337 33.2424 453.064 33.6046 453.542 34.0923C454.02 34.5753 454.259 35.1979 454.259 35.9602C454.259 36.5852 454.08 37.1439 453.72 37.6364C453.365 38.1288 452.867 38.517 452.228 38.8011C451.589 39.0852 450.846 39.2273 449.998 39.2273C448.885 39.2273 447.964 38.9858 447.235 38.5028C446.506 38.0199 446.044 37.3144 445.85 36.3864L447.441 35.9886C447.593 36.5758 447.879 37.0161 448.301 37.3097C448.727 37.6032 449.283 37.75 449.97 37.75C450.751 37.75 451.371 37.5843 451.83 37.2528C452.294 36.9167 452.526 36.5142 452.526 36.0455C452.526 35.6667 452.394 35.3494 452.129 35.0938C451.864 34.8333 451.456 34.6392 450.907 34.5114L449.089 34.0852C448.09 33.8485 447.356 33.4815 446.887 32.9844C446.423 32.4825 446.191 31.8551 446.191 31.1023C446.191 30.4867 446.364 29.9422 446.71 29.4688C447.06 28.9953 447.536 28.6236 448.137 28.3537C448.743 28.0838 449.43 27.9489 450.197 27.9489C451.276 27.9489 452.124 28.1856 452.74 28.6591C453.36 29.1326 453.8 29.7576 454.061 30.5341Z" fill="white"/>
<path d="M268.196 70.4941H261.974C261.861 69.6892 261.629 68.9743 261.278 68.3493C260.928 67.7148 260.478 67.175 259.929 66.7299C259.38 66.2849 258.745 65.9439 258.026 65.7072C257.315 65.4705 256.544 65.3521 255.71 65.3521C254.205 65.3521 252.893 65.7261 251.776 66.4743C250.658 67.2129 249.792 68.2924 249.176 69.7129C248.561 71.1239 248.253 72.8379 248.253 74.8549C248.253 76.9288 248.561 78.6712 249.176 80.0822C249.801 81.4932 250.672 82.5585 251.79 83.2782C252.907 83.9979 254.2 84.3578 255.668 84.3578C256.491 84.3578 257.254 84.2489 257.955 84.0311C258.665 83.8133 259.295 83.496 259.844 83.0794C260.393 82.6532 260.848 82.1371 261.207 81.5311C261.577 80.925 261.832 80.2337 261.974 79.4572L268.196 79.4856C268.035 80.8208 267.633 82.1087 266.989 83.3493C266.354 84.5803 265.497 85.6835 264.418 86.6589C263.348 87.6248 262.069 88.3919 260.582 88.96C259.105 89.5188 257.434 89.7981 255.568 89.7981C252.973 89.7981 250.653 89.211 248.608 88.0368C246.572 86.8625 244.962 85.1627 243.778 82.9373C242.604 80.7119 242.017 78.0178 242.017 74.8549C242.017 71.6826 242.614 68.9837 243.807 66.7583C245 64.533 246.619 62.8379 248.665 61.6731C250.71 60.4989 253.011 59.9118 255.568 59.9118C257.254 59.9118 258.816 60.1485 260.256 60.622C261.705 61.0955 262.988 61.7868 264.105 62.6958C265.223 63.5955 266.132 64.6987 266.832 66.0055C267.543 67.3123 267.997 68.8085 268.196 70.4941ZM281.951 89.8265C279.744 89.8265 277.836 89.3578 276.226 88.4203C274.626 87.4733 273.39 86.157 272.519 84.4714C271.648 82.7763 271.212 80.8114 271.212 78.5765C271.212 76.3227 271.648 74.353 272.519 72.6674C273.39 70.9724 274.626 69.6561 276.226 68.7186C277.836 67.7716 279.744 67.2981 281.951 67.2981C284.157 67.2981 286.061 67.7716 287.661 68.7186C289.271 69.6561 290.511 70.9724 291.383 72.6674C292.254 74.353 292.689 76.3227 292.689 78.5765C292.689 80.8114 292.254 82.7763 291.383 84.4714C290.511 86.157 289.271 87.4733 287.661 88.4203C286.061 89.3578 284.157 89.8265 281.951 89.8265ZM281.979 85.139C282.983 85.139 283.821 84.8549 284.493 84.2868C285.166 83.7091 285.672 82.9231 286.013 81.9288C286.364 80.9345 286.539 79.8029 286.539 78.5339C286.539 77.265 286.364 76.1333 286.013 75.139C285.672 74.1447 285.166 73.3587 284.493 72.7811C283.821 72.2034 282.983 71.9146 281.979 71.9146C280.966 71.9146 280.114 72.2034 279.422 72.7811C278.741 73.3587 278.225 74.1447 277.874 75.139C277.533 76.1333 277.363 77.265 277.363 78.5339C277.363 79.8029 277.533 80.9345 277.874 81.9288C278.225 82.9231 278.741 83.7091 279.422 84.2868C280.114 84.8549 280.966 85.139 281.979 85.139ZM296.224 89.4004V67.5822H302.091V71.389H302.318C302.716 70.0349 303.383 69.0121 304.321 68.3208C305.258 67.6201 306.338 67.2697 307.559 67.2697C307.862 67.2697 308.189 67.2886 308.539 67.3265C308.89 67.3644 309.198 67.4165 309.463 67.4828V72.8521C309.179 72.7669 308.786 72.6911 308.284 72.6248C307.782 72.5585 307.323 72.5254 306.906 72.5254C306.016 72.5254 305.22 72.7195 304.52 73.1078C303.828 73.4866 303.279 74.0169 302.872 74.6987C302.474 75.3805 302.275 76.1665 302.275 77.0566V89.4004H296.224ZM312.191 97.5822V67.5822H318.157V71.247H318.427C318.692 70.6599 319.076 70.0633 319.578 69.4572C320.089 68.8417 320.752 68.3303 321.566 67.9231C322.39 67.5065 323.413 67.2981 324.635 67.2981C326.225 67.2981 327.693 67.7148 329.038 68.5481C330.383 69.372 331.457 70.6172 332.262 72.2839C333.067 73.9411 333.47 76.0197 333.47 78.5197C333.47 80.9534 333.077 83.0083 332.291 84.6845C331.514 86.3511 330.454 87.6154 329.109 88.4771C327.774 89.3294 326.278 89.7555 324.62 89.7555C323.446 89.7555 322.447 89.5614 321.623 89.1731C320.809 88.7849 320.141 88.2972 319.62 87.71C319.099 87.1135 318.702 86.5121 318.427 85.9061H318.242V97.5822H312.191ZM318.115 78.4913C318.115 79.7886 318.295 80.9203 318.654 81.8862C319.014 82.8521 319.535 83.6049 320.217 84.1447C320.899 84.675 321.727 84.9402 322.703 84.9402C323.688 84.9402 324.521 84.6703 325.203 84.1305C325.885 83.5813 326.401 82.8237 326.751 81.8578C327.111 80.8824 327.291 79.7602 327.291 78.4913C327.291 77.2318 327.116 76.1239 326.765 75.1674C326.415 74.211 325.899 73.4629 325.217 72.9231C324.535 72.3833 323.697 72.1135 322.703 72.1135C321.718 72.1135 320.885 72.3739 320.203 72.8947C319.53 73.4155 319.014 74.1542 318.654 75.1106C318.295 76.0671 318.115 77.194 318.115 78.4913ZM346.962 89.8265C344.755 89.8265 342.847 89.3578 341.237 88.4203C339.637 87.4733 338.401 86.157 337.53 84.4714C336.659 82.7763 336.223 80.8114 336.223 78.5765C336.223 76.3227 336.659 74.353 337.53 72.6674C338.401 70.9724 339.637 69.6561 341.237 68.7186C342.847 67.7716 344.755 67.2981 346.962 67.2981C349.168 67.2981 351.072 67.7716 352.672 68.7186C354.282 69.6561 355.522 70.9724 356.394 72.6674C357.265 74.353 357.7 76.3227 357.7 78.5765C357.7 80.8114 357.265 82.7763 356.394 84.4714C355.522 86.157 354.282 87.4733 352.672 88.4203C351.072 89.3578 349.168 89.8265 346.962 89.8265ZM346.99 85.139C347.994 85.139 348.832 84.8549 349.504 84.2868C350.177 83.7091 350.683 82.9231 351.024 81.9288C351.375 80.9345 351.55 79.8029 351.55 78.5339C351.55 77.265 351.375 76.1333 351.024 75.139C350.683 74.1447 350.177 73.3587 349.504 72.7811C348.832 72.2034 347.994 71.9146 346.99 71.9146C345.977 71.9146 345.125 72.2034 344.433 72.7811C343.752 73.3587 343.235 74.1447 342.885 75.139C342.544 76.1333 342.374 77.265 342.374 78.5339C342.374 79.8029 342.544 80.9345 342.885 81.9288C343.235 82.9231 343.752 83.7091 344.433 84.2868C345.125 84.8549 345.977 85.139 346.99 85.139ZM361.235 89.4004V67.5822H367.102V71.389H367.329C367.727 70.0349 368.394 69.0121 369.332 68.3208C370.269 67.6201 371.349 67.2697 372.57 67.2697C372.873 67.2697 373.2 67.2886 373.55 67.3265C373.901 67.3644 374.209 67.4165 374.474 67.4828V72.8521C374.19 72.7669 373.797 72.6911 373.295 72.6248C372.793 72.5585 372.334 72.5254 371.917 72.5254C371.027 72.5254 370.231 72.7195 369.531 73.1078C368.839 73.4866 368.29 74.0169 367.883 74.6987C367.485 75.3805 367.286 76.1665 367.286 77.0566V89.4004H361.235ZM382.799 89.8123C381.407 89.8123 380.166 89.5708 379.077 89.0879C377.988 88.5955 377.127 87.871 376.492 86.9146C375.867 85.9487 375.555 84.746 375.555 83.3066C375.555 82.0945 375.777 81.0765 376.222 80.2527C376.667 79.4288 377.273 78.7659 378.04 78.264C378.807 77.7621 379.679 77.3833 380.654 77.1277C381.639 76.872 382.671 76.6921 383.751 76.5879C385.02 76.4553 386.042 76.3322 386.819 76.2186C387.595 76.0955 388.159 75.9155 388.509 75.6788C388.859 75.4421 389.035 75.0917 389.035 74.6277V74.5424C389.035 73.6428 388.751 72.9468 388.182 72.4544C387.624 71.9619 386.828 71.7157 385.796 71.7157C384.707 71.7157 383.841 71.9572 383.197 72.4402C382.553 72.9136 382.127 73.5102 381.918 74.2299L376.322 73.7754C376.606 72.4496 377.164 71.3038 377.998 70.3379C378.831 69.3625 379.906 68.6144 381.222 68.0936C382.548 67.5633 384.082 67.2981 385.824 67.2981C387.037 67.2981 388.197 67.4402 389.305 67.7243C390.422 68.0083 391.412 68.4487 392.273 69.0453C393.145 69.6419 393.831 70.4089 394.333 71.3464C394.835 72.2744 395.086 73.3871 395.086 74.6845V89.4004H389.347V86.3748H389.177C388.826 87.0566 388.358 87.658 387.77 88.1788C387.183 88.6902 386.478 89.0926 385.654 89.3862C384.83 89.6703 383.878 89.8123 382.799 89.8123ZM384.532 85.6362C385.422 85.6362 386.208 85.461 386.89 85.1106C387.572 84.7508 388.107 84.2678 388.495 83.6618C388.883 83.0557 389.077 82.3691 389.077 81.6021V79.2868C388.888 79.4099 388.627 79.5235 388.296 79.6277C387.974 79.7224 387.609 79.8123 387.202 79.8975C386.795 79.9733 386.388 80.0443 385.981 80.1106C385.573 80.1674 385.204 80.2195 384.873 80.2669C384.163 80.371 383.542 80.5368 383.012 80.764C382.482 80.9913 382.07 81.2991 381.776 81.6873C381.483 82.0661 381.336 82.5396 381.336 83.1078C381.336 83.9316 381.634 84.5614 382.231 84.997C382.837 85.4231 383.604 85.6362 384.532 85.6362ZM410.986 67.5822V72.1277H397.846V67.5822H410.986ZM400.829 62.3549H406.88V82.6958C406.88 83.2546 406.966 83.6902 407.136 84.0027C407.307 84.3057 407.543 84.5188 407.846 84.6419C408.159 84.765 408.519 84.8265 408.926 84.8265C409.21 84.8265 409.494 84.8029 409.778 84.7555C410.062 84.6987 410.28 84.6561 410.432 84.6277L411.383 89.1305C411.08 89.2252 410.654 89.3341 410.105 89.4572C409.556 89.5898 408.888 89.6703 408.102 89.6987C406.644 89.7555 405.365 89.5614 404.267 89.1163C403.178 88.6712 402.33 87.9799 401.724 87.0424C401.118 86.1049 400.82 84.9212 400.829 83.4913V62.3549ZM424.236 89.8265C421.992 89.8265 420.06 89.372 418.441 88.4629C416.831 87.5443 415.59 86.247 414.719 84.5708C413.848 82.8852 413.412 80.8919 413.412 78.5907C413.412 76.3464 413.848 74.3767 414.719 72.6816C415.59 70.9866 416.817 69.6655 418.398 68.7186C419.989 67.7716 421.854 67.2981 423.995 67.2981C425.434 67.2981 426.774 67.5301 428.014 67.9941C429.264 68.4487 430.354 69.1352 431.282 70.0538C432.219 70.9724 432.948 72.1277 433.469 73.5197C433.99 74.9023 434.25 76.5216 434.25 78.3777V80.0396H415.827V76.2896H428.554C428.554 75.4184 428.365 74.6466 427.986 73.9743C427.607 73.3019 427.082 72.7763 426.409 72.3975C425.746 72.0093 424.975 71.8152 424.094 71.8152C423.175 71.8152 422.361 72.0282 421.651 72.4544C420.95 72.871 420.401 73.4345 420.003 74.1447C419.605 74.8455 419.402 75.6267 419.392 76.4885V80.0538C419.392 81.1333 419.591 82.0661 419.989 82.8521C420.396 83.6381 420.969 84.2441 421.708 84.6703C422.446 85.0964 423.322 85.3095 424.336 85.3095C425.008 85.3095 425.623 85.2148 426.182 85.0254C426.741 84.836 427.219 84.5519 427.617 84.1731C428.014 83.7943 428.318 83.3303 428.526 82.7811L434.122 83.1504C433.838 84.4951 433.256 85.6693 432.375 86.6731C431.504 87.6674 430.377 88.444 428.995 89.0027C427.621 89.5519 426.035 89.8265 424.236 89.8265ZM472.438 70.4941H466.217C466.103 69.6892 465.871 68.9743 465.521 68.3493C465.17 67.7148 464.72 67.175 464.171 66.7299C463.622 66.2849 462.987 65.9439 462.268 65.7072C461.558 65.4705 460.786 65.3521 459.952 65.3521C458.447 65.3521 457.135 65.7261 456.018 66.4743C454.9 67.2129 454.034 68.2924 453.418 69.7129C452.803 71.1239 452.495 72.8379 452.495 74.8549C452.495 76.9288 452.803 78.6712 453.418 80.0822C454.043 81.4932 454.915 82.5585 456.032 83.2782C457.149 83.9979 458.442 84.3578 459.91 84.3578C460.734 84.3578 461.496 84.2489 462.197 84.0311C462.907 83.8133 463.537 83.496 464.086 83.0794C464.635 82.6532 465.09 82.1371 465.45 81.5311C465.819 80.925 466.075 80.2337 466.217 79.4572L472.438 79.4856C472.277 80.8208 471.875 82.1087 471.231 83.3493C470.596 84.5803 469.739 85.6835 468.66 86.6589C467.59 87.6248 466.311 88.3919 464.825 88.96C463.347 89.5188 461.676 89.7981 459.81 89.7981C457.216 89.7981 454.896 89.211 452.85 88.0368C450.814 86.8625 449.204 85.1627 448.021 82.9373C446.846 80.7119 446.259 78.0178 446.259 74.8549C446.259 71.6826 446.856 68.9837 448.049 66.7583C449.242 64.533 450.862 62.8379 452.907 61.6731C454.952 60.4989 457.254 59.9118 459.81 59.9118C461.496 59.9118 463.058 60.1485 464.498 60.622C465.947 61.0955 467.23 61.7868 468.347 62.6958C469.465 63.5955 470.374 64.6987 471.075 66.0055C471.785 67.3123 472.239 68.8085 472.438 70.4941ZM476.335 89.4004V67.5822H482.202V71.389H482.429C482.827 70.0349 483.494 69.0121 484.432 68.3208C485.369 67.6201 486.449 67.2697 487.67 67.2697C487.973 67.2697 488.3 67.2886 488.65 67.3265C489.001 67.3644 489.309 67.4165 489.574 67.4828V72.8521C489.29 72.7669 488.897 72.6911 488.395 72.6248C487.893 72.5585 487.434 72.5254 487.017 72.5254C486.127 72.5254 485.331 72.7195 484.631 73.1078C483.939 73.4866 483.39 74.0169 482.983 74.6987C482.585 75.3805 482.386 76.1665 482.386 77.0566V89.4004H476.335ZM501.23 89.8265C498.986 89.8265 497.054 89.372 495.434 88.4629C493.825 87.5443 492.584 86.247 491.713 84.5708C490.842 82.8852 490.406 80.8919 490.406 78.5907C490.406 76.3464 490.842 74.3767 491.713 72.6816C492.584 70.9866 493.81 69.6655 495.392 68.7186C496.983 67.7716 498.848 67.2981 500.988 67.2981C502.428 67.2981 503.768 67.5301 505.008 67.9941C506.258 68.4487 507.347 69.1352 508.275 70.0538C509.213 70.9724 509.942 72.1277 510.463 73.5197C510.984 74.9023 511.244 76.5216 511.244 78.3777V80.0396H492.821V76.2896H505.548C505.548 75.4184 505.359 74.6466 504.98 73.9743C504.601 73.3019 504.075 72.7763 503.403 72.3975C502.74 72.0093 501.968 71.8152 501.088 71.8152C500.169 71.8152 499.355 72.0282 498.645 72.4544C497.944 72.871 497.395 73.4345 496.997 74.1447C496.599 74.8455 496.396 75.6267 496.386 76.4885V80.0538C496.386 81.1333 496.585 82.0661 496.983 82.8521C497.39 83.6381 497.963 84.2441 498.701 84.6703C499.44 85.0964 500.316 85.3095 501.329 85.3095C502.002 85.3095 502.617 85.2148 503.176 85.0254C503.735 84.836 504.213 84.5519 504.611 84.1731C505.008 83.7943 505.311 83.3303 505.52 82.7811L511.116 83.1504C510.832 84.4951 510.25 85.6693 509.369 86.6731C508.498 87.6674 507.371 88.444 505.988 89.0027C504.615 89.5519 503.029 89.8265 501.23 89.8265ZM522.833 89.7555C521.175 89.7555 519.675 89.3294 518.33 88.4771C516.995 87.6154 515.934 86.3511 515.148 84.6845C514.371 83.0083 513.983 80.9534 513.983 78.5197C513.983 76.0197 514.386 73.9411 515.191 72.2839C515.996 70.6172 517.066 69.372 518.401 68.5481C519.746 67.7148 521.218 67.2981 522.818 67.2981C524.04 67.2981 525.058 67.5065 525.872 67.9231C526.696 68.3303 527.359 68.8417 527.861 69.4572C528.372 70.0633 528.761 70.6599 529.026 71.247H529.211V60.3095H535.247V89.4004H529.282V85.9061H529.026C528.742 86.5121 528.339 87.1135 527.818 87.71C527.307 88.2972 526.639 88.7849 525.816 89.1731C525.001 89.5614 524.007 89.7555 522.833 89.7555ZM524.75 84.9402C525.726 84.9402 526.55 84.675 527.222 84.1447C527.904 83.6049 528.425 82.8521 528.784 81.8862C529.154 80.9203 529.338 79.7886 529.338 78.4913C529.338 77.194 529.158 76.0671 528.799 75.1106C528.439 74.1542 527.918 73.4155 527.236 72.8947C526.554 72.3739 525.726 72.1135 524.75 72.1135C523.756 72.1135 522.918 72.3833 522.236 72.9231C521.554 73.4629 521.038 74.211 520.688 75.1674C520.337 76.1239 520.162 77.2318 520.162 78.4913C520.162 79.7602 520.337 80.8824 520.688 81.8578C521.048 82.8237 521.564 83.5813 522.236 84.1305C522.918 84.6703 523.756 84.9402 524.75 84.9402ZM539.823 89.4004V67.5822H545.874V89.4004H539.823ZM542.862 64.7697C541.963 64.7697 541.191 64.4714 540.547 63.8748C539.913 63.2688 539.595 62.5443 539.595 61.7015C539.595 60.8682 539.913 60.1532 540.547 59.5566C541.191 58.9506 541.963 58.6475 542.862 58.6475C543.762 58.6475 544.529 58.9506 545.163 59.5566C545.807 60.1532 546.129 60.8682 546.129 61.7015C546.129 62.5443 545.807 63.2688 545.163 63.8748C544.529 64.4714 543.762 64.7697 542.862 64.7697ZM561.926 67.5822V72.1277H548.787V67.5822H561.926ZM551.77 62.3549H557.821V82.6958C557.821 83.2546 557.906 83.6902 558.077 84.0027C558.247 84.3057 558.484 84.5188 558.787 84.6419C559.099 84.765 559.459 84.8265 559.866 84.8265C560.151 84.8265 560.435 84.8029 560.719 84.7555C561.003 84.6987 561.221 84.6561 561.372 84.6277L562.324 89.1305C562.021 89.2252 561.595 89.3341 561.045 89.4572C560.496 89.5898 559.829 89.6703 559.043 89.6987C557.584 89.7555 556.306 89.5614 555.207 89.1163C554.118 88.6712 553.271 87.9799 552.665 87.0424C552.059 86.1049 551.76 84.9212 551.77 83.4913V62.3549ZM600.107 70.4941H593.885C593.772 69.6892 593.54 68.9743 593.189 68.3493C592.839 67.7148 592.389 67.175 591.84 66.7299C591.291 66.2849 590.656 65.9439 589.937 65.7072C589.226 65.4705 588.455 65.3521 587.621 65.3521C586.115 65.3521 584.804 65.7261 583.687 66.4743C582.569 67.2129 581.703 68.2924 581.087 69.7129C580.472 71.1239 580.164 72.8379 580.164 74.8549C580.164 76.9288 580.472 78.6712 581.087 80.0822C581.712 81.4932 582.583 82.5585 583.701 83.2782C584.818 83.9979 586.111 84.3578 587.579 84.3578C588.402 84.3578 589.165 84.2489 589.865 84.0311C590.576 83.8133 591.205 83.496 591.755 83.0794C592.304 82.6532 592.758 82.1371 593.118 81.5311C593.488 80.925 593.743 80.2337 593.885 79.4572L600.107 79.4856C599.946 80.8208 599.544 82.1087 598.9 83.3493C598.265 84.5803 597.408 85.6835 596.329 86.6589C595.258 87.6248 593.98 88.3919 592.493 88.96C591.016 89.5188 589.345 89.7981 587.479 89.7981C584.884 89.7981 582.564 89.211 580.519 88.0368C578.483 86.8625 576.873 85.1627 575.689 82.9373C574.515 80.7119 573.928 78.0178 573.928 74.8549C573.928 71.6826 574.525 68.9837 575.718 66.7583C576.911 64.533 578.53 62.8379 580.576 61.6731C582.621 60.4989 584.922 59.9118 587.479 59.9118C589.165 59.9118 590.727 60.1485 592.167 60.622C593.615 61.0955 594.899 61.7868 596.016 62.6958C597.133 63.5955 598.043 64.6987 598.743 66.0055C599.454 67.3123 599.908 68.8085 600.107 70.4941ZM610.225 89.8123C608.833 89.8123 607.593 89.5708 606.504 89.0879C605.415 88.5955 604.553 87.871 603.919 86.9146C603.294 85.9487 602.981 84.746 602.981 83.3066C602.981 82.0945 603.204 81.0765 603.649 80.2527C604.094 79.4288 604.7 78.7659 605.467 78.264C606.234 77.7621 607.105 77.3833 608.081 77.1277C609.065 76.872 610.098 76.6921 611.177 76.5879C612.446 76.4553 613.469 76.3322 614.245 76.2186C615.022 76.0955 615.585 75.9155 615.936 75.6788C616.286 75.4421 616.461 75.0917 616.461 74.6277V74.5424C616.461 73.6428 616.177 72.9468 615.609 72.4544C615.05 71.9619 614.255 71.7157 613.223 71.7157C612.134 71.7157 611.267 71.9572 610.623 72.4402C609.979 72.9136 609.553 73.5102 609.345 74.2299L603.748 73.7754C604.032 72.4496 604.591 71.3038 605.424 70.3379C606.258 69.3625 607.332 68.6144 608.649 68.0936C609.974 67.5633 611.509 67.2981 613.251 67.2981C614.463 67.2981 615.623 67.4402 616.731 67.7243C617.849 68.0083 618.838 68.4487 619.7 69.0453C620.571 69.6419 621.258 70.4089 621.76 71.3464C622.261 72.2744 622.512 73.3871 622.512 74.6845V89.4004H616.774V86.3748H616.603C616.253 87.0566 615.784 87.658 615.197 88.1788C614.61 88.6902 613.904 89.0926 613.081 89.3862C612.257 89.6703 611.305 89.8123 610.225 89.8123ZM611.958 85.6362C612.849 85.6362 613.635 85.461 614.316 85.1106C614.998 84.7508 615.533 84.2678 615.921 83.6618C616.31 83.0557 616.504 82.3691 616.504 81.6021V79.2868C616.314 79.4099 616.054 79.5235 615.723 79.6277C615.401 79.7224 615.036 79.8123 614.629 79.8975C614.222 79.9733 613.814 80.0443 613.407 80.1106C613 80.1674 612.631 80.2195 612.299 80.2669C611.589 80.371 610.969 80.5368 610.438 80.764C609.908 80.9913 609.496 81.2991 609.203 81.6873C608.909 82.0661 608.762 82.5396 608.762 83.1078C608.762 83.9316 609.061 84.5614 609.657 84.997C610.263 85.4231 611.03 85.6362 611.958 85.6362ZM626.807 89.4004V67.5822H632.673V71.389H632.901C633.298 70.0349 633.966 69.0121 634.904 68.3208C635.841 67.6201 636.921 67.2697 638.142 67.2697C638.445 67.2697 638.772 67.2886 639.122 67.3265C639.473 67.3644 639.78 67.4165 640.046 67.4828V72.8521C639.762 72.7669 639.369 72.6911 638.867 72.6248C638.365 72.5585 637.905 72.5254 637.489 72.5254C636.599 72.5254 635.803 72.7195 635.102 73.1078C634.411 73.4866 633.862 74.0169 633.455 74.6987C633.057 75.3805 632.858 76.1665 632.858 77.0566V89.4004H626.807ZM649.798 89.7555C648.141 89.7555 646.64 89.3294 645.295 88.4771C643.96 87.6154 642.9 86.3511 642.114 84.6845C641.337 83.0083 640.949 80.9534 640.949 78.5197C640.949 76.0197 641.351 73.9411 642.156 72.2839C642.961 70.6172 644.031 69.372 645.366 68.5481C646.711 67.7148 648.184 67.2981 649.784 67.2981C651.006 67.2981 652.024 67.5065 652.838 67.9231C653.662 68.3303 654.325 68.8417 654.827 69.4572C655.338 70.0633 655.726 70.6599 655.991 71.247H656.176V60.3095H662.213V89.4004H656.247V85.9061H655.991C655.707 86.5121 655.305 87.1135 654.784 87.71C654.273 88.2972 653.605 88.7849 652.781 89.1731C651.967 89.5614 650.973 89.7555 649.798 89.7555ZM651.716 84.9402C652.691 84.9402 653.515 84.675 654.188 84.1447C654.869 83.6049 655.39 82.8521 655.75 81.8862C656.119 80.9203 656.304 79.7886 656.304 78.4913C656.304 77.194 656.124 76.0671 655.764 75.1106C655.404 74.1542 654.884 73.4155 654.202 72.8947C653.52 72.3739 652.691 72.1135 651.716 72.1135C650.722 72.1135 649.884 72.3833 649.202 72.9231C648.52 73.4629 648.004 74.211 647.653 75.1674C647.303 76.1239 647.128 77.2318 647.128 78.4913C647.128 79.7602 647.303 80.8824 647.653 81.8578C648.013 82.8237 648.529 83.5813 649.202 84.1305C649.884 84.6703 650.722 84.9402 651.716 84.9402Z" fill="white"/>
<rect x="240" y="112.6" width="405" height="36" rx="12" fill="#B7EFFE"/>
<path d="M260.875 134.327V132.906L265.432 124.963H267.148L262.699 132.747V132.838H269.608V134.327H260.875ZM266.392 136.6V133.906L266.415 133.247V129.327H268.057V136.6H266.392ZM271.428 136.6V135.327L275.366 131.247C275.786 130.804 276.133 130.416 276.405 130.083C276.682 129.745 276.888 129.425 277.025 129.122C277.161 128.819 277.229 128.497 277.229 128.156C277.229 127.77 277.138 127.437 276.956 127.156C276.775 126.872 276.527 126.655 276.212 126.503C275.898 126.348 275.544 126.27 275.15 126.27C274.733 126.27 274.369 126.355 274.059 126.526C273.748 126.696 273.51 126.937 273.343 127.247C273.176 127.558 273.093 127.922 273.093 128.338H271.417C271.417 127.63 271.58 127.011 271.905 126.48C272.231 125.95 272.678 125.539 273.246 125.247C273.814 124.952 274.46 124.804 275.184 124.804C275.915 124.804 276.559 124.95 277.116 125.242C277.676 125.53 278.114 125.923 278.428 126.423C278.742 126.92 278.9 127.48 278.9 128.105C278.9 128.537 278.818 128.959 278.655 129.372C278.496 129.785 278.218 130.245 277.82 130.753C277.422 131.257 276.869 131.869 276.161 132.588L273.849 135.009V135.094H279.087V136.6H271.428ZM285.314 136.6V124.963H287.07V135.088H292.342V136.6H285.314ZM296.589 136.793C296.036 136.793 295.536 136.691 295.089 136.486C294.642 136.278 294.288 135.977 294.026 135.583C293.769 135.189 293.64 134.706 293.64 134.134C293.64 133.641 293.735 133.236 293.924 132.918C294.113 132.6 294.369 132.348 294.691 132.162C295.013 131.977 295.373 131.836 295.771 131.742C296.168 131.647 296.574 131.575 296.986 131.526C297.509 131.465 297.933 131.416 298.259 131.378C298.585 131.336 298.822 131.27 298.969 131.179C299.117 131.088 299.191 130.941 299.191 130.736V130.696C299.191 130.2 299.051 129.816 298.771 129.543C298.494 129.27 298.081 129.134 297.532 129.134C296.96 129.134 296.509 129.261 296.18 129.514C295.854 129.764 295.628 130.043 295.503 130.35L293.907 129.986C294.096 129.456 294.373 129.028 294.736 128.702C295.104 128.372 295.526 128.134 296.003 127.986C296.481 127.834 296.983 127.759 297.509 127.759C297.858 127.759 298.227 127.8 298.617 127.884C299.011 127.963 299.378 128.111 299.719 128.327C300.064 128.543 300.346 128.852 300.566 129.253C300.786 129.651 300.896 130.168 300.896 130.804V136.6H299.236V135.406H299.168C299.058 135.626 298.894 135.842 298.674 136.054C298.454 136.266 298.172 136.442 297.827 136.583C297.483 136.723 297.07 136.793 296.589 136.793ZM296.958 135.429C297.428 135.429 297.829 135.336 298.163 135.151C298.5 134.965 298.755 134.723 298.93 134.423C299.108 134.12 299.197 133.797 299.197 133.452V132.327C299.136 132.387 299.019 132.444 298.844 132.497C298.674 132.547 298.479 132.59 298.259 132.628C298.039 132.662 297.825 132.694 297.617 132.725C297.409 132.751 297.235 132.774 297.094 132.793C296.765 132.834 296.464 132.905 296.191 133.003C295.922 133.102 295.706 133.244 295.543 133.429C295.384 133.611 295.305 133.853 295.305 134.156C295.305 134.577 295.46 134.895 295.771 135.111C296.081 135.323 296.477 135.429 296.958 135.429ZM304.561 133.639L304.549 131.566H304.845L308.322 127.872H310.356L306.39 132.077H306.123L304.561 133.639ZM302.998 136.6V124.963H304.697V136.6H302.998ZM308.51 136.6L305.385 132.452L306.555 131.264L310.595 136.6H308.51ZM313.443 131.418V136.6H311.745V124.963H313.421V129.293H313.529C313.733 128.823 314.046 128.45 314.466 128.173C314.887 127.897 315.436 127.759 316.114 127.759C316.712 127.759 317.235 127.882 317.682 128.128C318.133 128.374 318.481 128.742 318.728 129.23C318.978 129.715 319.103 130.321 319.103 131.048V136.6H317.404V131.253C317.404 130.613 317.239 130.117 316.909 129.764C316.58 129.408 316.121 129.23 315.534 129.23C315.133 129.23 314.773 129.316 314.455 129.486C314.14 129.656 313.892 129.906 313.71 130.236C313.532 130.562 313.443 130.956 313.443 131.418ZM324.63 135.861V128.179H326.158V135.861H324.63ZM321.556 132.781V131.253H329.238V132.781H321.556ZM339.456 136.776C338.612 136.776 337.884 136.584 337.274 136.202C336.668 135.816 336.203 135.283 335.877 134.605C335.551 133.927 335.388 133.151 335.388 132.276C335.388 131.389 335.555 130.607 335.888 129.929C336.221 129.247 336.691 128.715 337.297 128.333C337.903 127.95 338.617 127.759 339.439 127.759C340.102 127.759 340.693 127.882 341.212 128.128C341.731 128.37 342.149 128.711 342.468 129.151C342.79 129.59 342.981 130.103 343.042 130.691H341.388C341.297 130.281 341.089 129.929 340.763 129.634C340.441 129.338 340.009 129.191 339.468 129.191C338.994 129.191 338.579 129.316 338.223 129.566C337.871 129.812 337.596 130.164 337.399 130.622C337.203 131.077 337.104 131.615 337.104 132.236C337.104 132.872 337.201 133.422 337.394 133.884C337.587 134.346 337.86 134.704 338.212 134.958C338.568 135.211 338.987 135.338 339.468 135.338C339.79 135.338 340.081 135.28 340.343 135.162C340.608 135.041 340.829 134.869 341.007 134.645C341.189 134.422 341.316 134.153 341.388 133.838H343.042C342.981 134.403 342.797 134.906 342.49 135.35C342.184 135.793 341.773 136.141 341.257 136.395C340.746 136.649 340.146 136.776 339.456 136.776ZM350.227 132.98V127.872H351.931V136.6H350.261V135.088H350.17C349.969 135.554 349.647 135.942 349.204 136.253C348.765 136.56 348.217 136.713 347.562 136.713C347.001 136.713 346.505 136.59 346.073 136.344C345.645 136.094 345.308 135.725 345.062 135.236C344.82 134.747 344.698 134.143 344.698 133.423V127.872H346.397V133.219C346.397 133.814 346.562 134.287 346.891 134.639C347.221 134.992 347.649 135.168 348.176 135.168C348.494 135.168 348.81 135.088 349.124 134.929C349.443 134.77 349.706 134.53 349.914 134.208C350.126 133.886 350.23 133.477 350.227 132.98ZM360.594 130.003L359.054 130.276C358.99 130.079 358.887 129.891 358.747 129.713C358.611 129.535 358.425 129.389 358.19 129.276C357.955 129.162 357.662 129.105 357.31 129.105C356.829 129.105 356.427 129.213 356.105 129.429C355.783 129.641 355.622 129.916 355.622 130.253C355.622 130.545 355.73 130.78 355.946 130.958C356.162 131.136 356.51 131.281 356.991 131.395L358.378 131.713C359.181 131.899 359.779 132.185 360.173 132.571C360.567 132.958 360.764 133.459 360.764 134.077C360.764 134.6 360.613 135.066 360.31 135.475C360.01 135.88 359.592 136.198 359.054 136.429C358.52 136.66 357.901 136.776 357.196 136.776C356.219 136.776 355.421 136.567 354.804 136.151C354.186 135.73 353.808 135.134 353.668 134.361L355.31 134.111C355.412 134.539 355.622 134.863 355.94 135.083C356.258 135.298 356.673 135.406 357.185 135.406C357.741 135.406 358.186 135.291 358.52 135.06C358.853 134.825 359.02 134.539 359.02 134.202C359.02 133.929 358.918 133.7 358.713 133.514C358.512 133.329 358.204 133.189 357.787 133.094L356.31 132.77C355.495 132.584 354.893 132.289 354.503 131.884C354.116 131.478 353.923 130.965 353.923 130.344C353.923 129.829 354.067 129.378 354.355 128.992C354.643 128.605 355.041 128.304 355.548 128.088C356.056 127.869 356.637 127.759 357.293 127.759C358.236 127.759 358.978 127.963 359.52 128.372C360.061 128.778 360.419 129.321 360.594 130.003ZM366.546 127.872V129.236H361.779V127.872H366.546ZM363.057 125.781H364.756V134.037C364.756 134.367 364.805 134.615 364.904 134.781C365.002 134.944 365.129 135.056 365.285 135.117C365.444 135.173 365.616 135.202 365.802 135.202C365.938 135.202 366.057 135.192 366.16 135.173C366.262 135.155 366.341 135.139 366.398 135.128L366.705 136.531C366.607 136.569 366.466 136.607 366.285 136.645C366.103 136.687 365.875 136.709 365.603 136.713C365.156 136.721 364.739 136.641 364.353 136.475C363.966 136.308 363.654 136.05 363.415 135.702C363.177 135.353 363.057 134.916 363.057 134.389V125.781ZM371.848 136.776C371.029 136.776 370.315 136.588 369.706 136.213C369.096 135.838 368.622 135.314 368.285 134.639C367.948 133.965 367.779 133.177 367.779 132.276C367.779 131.37 367.948 130.579 368.285 129.901C368.622 129.223 369.096 128.696 369.706 128.321C370.315 127.946 371.029 127.759 371.848 127.759C372.666 127.759 373.38 127.946 373.99 128.321C374.599 128.696 375.073 129.223 375.41 129.901C375.747 130.579 375.916 131.37 375.916 132.276C375.916 133.177 375.747 133.965 375.41 134.639C375.073 135.314 374.599 135.838 373.99 136.213C373.38 136.588 372.666 136.776 371.848 136.776ZM371.853 135.35C372.384 135.35 372.823 135.209 373.171 134.929C373.52 134.649 373.777 134.276 373.944 133.81C374.115 133.344 374.2 132.831 374.2 132.27C374.2 131.713 374.115 131.202 373.944 130.736C373.777 130.266 373.52 129.889 373.171 129.605C372.823 129.321 372.384 129.179 371.853 129.179C371.319 129.179 370.876 129.321 370.524 129.605C370.175 129.889 369.916 130.266 369.745 130.736C369.579 131.202 369.495 131.713 369.495 132.27C369.495 132.831 369.579 133.344 369.745 133.81C369.916 134.276 370.175 134.649 370.524 134.929C370.876 135.209 371.319 135.35 371.853 135.35ZM377.652 136.6V127.872H379.283V129.293H379.391C379.573 128.812 379.87 128.437 380.283 128.168C380.696 127.895 381.19 127.759 381.766 127.759C382.349 127.759 382.838 127.895 383.232 128.168C383.629 128.441 383.923 128.816 384.112 129.293H384.203C384.412 128.827 384.743 128.456 385.198 128.179C385.652 127.899 386.194 127.759 386.823 127.759C387.614 127.759 388.26 128.007 388.76 128.503C389.264 128.999 389.516 129.747 389.516 130.747V136.6H387.817V130.906C387.817 130.316 387.656 129.887 387.334 129.622C387.012 129.357 386.627 129.225 386.18 129.225C385.627 129.225 385.198 129.395 384.891 129.736C384.584 130.073 384.43 130.507 384.43 131.037V136.6H382.737V130.798C382.737 130.325 382.59 129.944 382.294 129.656C381.999 129.369 381.614 129.225 381.141 129.225C380.819 129.225 380.521 129.31 380.249 129.48C379.98 129.647 379.762 129.88 379.595 130.179C379.432 130.478 379.351 130.825 379.351 131.219V136.6H377.652ZM395.394 136.776C394.534 136.776 393.794 136.592 393.172 136.225C392.555 135.853 392.078 135.333 391.741 134.662C391.407 133.988 391.241 133.198 391.241 132.293C391.241 131.399 391.407 130.611 391.741 129.929C392.078 129.247 392.547 128.715 393.15 128.333C393.756 127.95 394.464 127.759 395.275 127.759C395.767 127.759 396.244 127.84 396.707 128.003C397.169 128.166 397.583 128.422 397.951 128.77C398.318 129.119 398.608 129.571 398.82 130.128C399.032 130.681 399.138 131.353 399.138 132.145V132.747H392.201V131.475H397.474C397.474 131.028 397.383 130.632 397.201 130.287C397.019 129.939 396.763 129.664 396.434 129.463C396.108 129.262 395.725 129.162 395.286 129.162C394.809 129.162 394.392 129.28 394.036 129.514C393.684 129.745 393.411 130.048 393.218 130.423C393.029 130.795 392.934 131.198 392.934 131.634V132.628C392.934 133.211 393.036 133.708 393.241 134.117C393.449 134.526 393.739 134.838 394.11 135.054C394.481 135.266 394.915 135.372 395.411 135.372C395.733 135.372 396.027 135.327 396.292 135.236C396.557 135.141 396.786 135.001 396.979 134.816C397.172 134.63 397.32 134.401 397.422 134.128L399.03 134.418C398.902 134.891 398.671 135.306 398.337 135.662C398.008 136.014 397.593 136.289 397.093 136.486C396.597 136.679 396.03 136.776 395.394 136.776ZM400.863 136.6V127.872H402.505V129.259H402.596C402.755 128.789 403.036 128.42 403.437 128.151C403.842 127.878 404.301 127.742 404.812 127.742C404.918 127.742 405.043 127.745 405.187 127.753C405.335 127.761 405.45 127.77 405.534 127.781V129.406C405.466 129.387 405.344 129.367 405.17 129.344C404.996 129.317 404.822 129.304 404.647 129.304C404.246 129.304 403.888 129.389 403.574 129.56C403.263 129.727 403.017 129.959 402.835 130.259C402.653 130.554 402.562 130.891 402.562 131.27V136.6H400.863ZM413.384 130.003L411.844 130.276C411.78 130.079 411.677 129.891 411.537 129.713C411.401 129.535 411.215 129.389 410.98 129.276C410.745 129.162 410.452 129.105 410.1 129.105C409.619 129.105 409.217 129.213 408.895 129.429C408.573 129.641 408.412 129.916 408.412 130.253C408.412 130.545 408.52 130.78 408.736 130.958C408.952 131.136 409.3 131.281 409.781 131.395L411.168 131.713C411.971 131.899 412.569 132.185 412.963 132.571C413.357 132.958 413.554 133.459 413.554 134.077C413.554 134.6 413.403 135.066 413.1 135.475C412.8 135.88 412.382 136.198 411.844 136.429C411.31 136.66 410.691 136.776 409.986 136.776C409.009 136.776 408.211 136.567 407.594 136.151C406.976 135.73 406.598 135.134 406.458 134.361L408.1 134.111C408.202 134.539 408.412 134.863 408.73 135.083C409.048 135.298 409.463 135.406 409.975 135.406C410.531 135.406 410.976 135.291 411.31 135.06C411.643 134.825 411.81 134.539 411.81 134.202C411.81 133.929 411.708 133.7 411.503 133.514C411.302 133.329 410.994 133.189 410.577 133.094L409.1 132.77C408.285 132.584 407.683 132.289 407.293 131.884C406.906 131.478 406.713 130.965 406.713 130.344C406.713 129.829 406.857 129.378 407.145 128.992C407.433 128.605 407.831 128.304 408.338 128.088C408.846 127.869 409.427 127.759 410.083 127.759C411.026 127.759 411.768 127.963 412.31 128.372C412.851 128.778 413.209 129.321 413.384 130.003ZM421.035 131.418V136.6H419.336V124.963H421.013V129.293H421.121C421.325 128.823 421.638 128.45 422.058 128.173C422.478 127.897 423.028 127.759 423.706 127.759C424.304 127.759 424.827 127.882 425.274 128.128C425.725 128.374 426.073 128.742 426.319 129.23C426.569 129.715 426.694 130.321 426.694 131.048V136.6H424.996V131.253C424.996 130.613 424.831 130.117 424.501 129.764C424.172 129.408 423.713 129.23 423.126 129.23C422.725 129.23 422.365 129.316 422.047 129.486C421.732 129.656 421.484 129.906 421.302 130.236C421.124 130.562 421.035 130.956 421.035 131.418ZM431.341 136.793C430.788 136.793 430.288 136.691 429.841 136.486C429.394 136.278 429.04 135.977 428.779 135.583C428.521 135.189 428.392 134.706 428.392 134.134C428.392 133.641 428.487 133.236 428.676 132.918C428.866 132.6 429.121 132.348 429.443 132.162C429.765 131.977 430.125 131.836 430.523 131.742C430.921 131.647 431.326 131.575 431.739 131.526C432.262 131.465 432.686 131.416 433.012 131.378C433.337 131.336 433.574 131.27 433.722 131.179C433.87 131.088 433.943 130.941 433.943 130.736V130.696C433.943 130.2 433.803 129.816 433.523 129.543C433.246 129.27 432.834 129.134 432.284 129.134C431.712 129.134 431.262 129.261 430.932 129.514C430.606 129.764 430.381 130.043 430.256 130.35L428.659 129.986C428.849 129.456 429.125 129.028 429.489 128.702C429.856 128.372 430.279 128.134 430.756 127.986C431.233 127.834 431.735 127.759 432.262 127.759C432.61 127.759 432.979 127.8 433.37 127.884C433.764 127.963 434.131 128.111 434.472 128.327C434.817 128.543 435.099 128.852 435.318 129.253C435.538 129.651 435.648 130.168 435.648 130.804V136.6H433.989V135.406H433.921C433.811 135.626 433.646 135.842 433.426 136.054C433.207 136.266 432.925 136.442 432.58 136.583C432.235 136.723 431.822 136.793 431.341 136.793ZM431.711 135.429C432.18 135.429 432.582 135.336 432.915 135.151C433.252 134.965 433.508 134.723 433.682 134.423C433.86 134.12 433.949 133.797 433.949 133.452V132.327C433.889 132.387 433.771 132.444 433.597 132.497C433.426 132.547 433.231 132.59 433.012 132.628C432.792 132.662 432.578 132.694 432.37 132.725C432.161 132.751 431.987 132.774 431.847 132.793C431.517 132.834 431.216 132.905 430.943 133.003C430.675 133.102 430.459 133.244 430.296 133.429C430.137 133.611 430.057 133.853 430.057 134.156C430.057 134.577 430.212 134.895 430.523 135.111C430.834 135.323 431.229 135.429 431.711 135.429ZM444.904 127.872L441.739 136.6H439.921L436.751 127.872H438.575L440.785 134.588H440.876L443.08 127.872H444.904ZM449.805 136.776C448.945 136.776 448.205 136.592 447.584 136.225C446.966 135.853 446.489 135.333 446.152 134.662C445.819 133.988 445.652 133.198 445.652 132.293C445.652 131.399 445.819 130.611 446.152 129.929C446.489 129.247 446.959 128.715 447.561 128.333C448.167 127.95 448.875 127.759 449.686 127.759C450.178 127.759 450.656 127.84 451.118 128.003C451.58 128.166 451.995 128.422 452.362 128.77C452.73 129.119 453.019 129.571 453.231 130.128C453.444 130.681 453.55 131.353 453.55 132.145V132.747H446.612V131.475H451.885C451.885 131.028 451.794 130.632 451.612 130.287C451.43 129.939 451.175 129.664 450.845 129.463C450.519 129.262 450.137 129.162 449.697 129.162C449.22 129.162 448.803 129.28 448.447 129.514C448.095 129.745 447.822 130.048 447.629 130.423C447.44 130.795 447.345 131.198 447.345 131.634V132.628C447.345 133.211 447.447 133.708 447.652 134.117C447.86 134.526 448.15 134.838 448.521 135.054C448.892 135.266 449.326 135.372 449.822 135.372C450.144 135.372 450.438 135.327 450.703 135.236C450.968 135.141 451.197 135.001 451.391 134.816C451.584 134.63 451.731 134.401 451.834 134.128L453.442 134.418C453.313 134.891 453.082 135.306 452.748 135.662C452.419 136.014 452.004 136.289 451.504 136.486C451.008 136.679 450.442 136.776 449.805 136.776ZM461.889 136.793C461.336 136.793 460.836 136.691 460.389 136.486C459.942 136.278 459.588 135.977 459.326 135.583C459.069 135.189 458.94 134.706 458.94 134.134C458.94 133.641 459.035 133.236 459.224 132.918C459.413 132.6 459.669 132.348 459.991 132.162C460.313 131.977 460.673 131.836 461.071 131.742C461.468 131.647 461.874 131.575 462.286 131.526C462.809 131.465 463.233 131.416 463.559 131.378C463.885 131.336 464.122 131.27 464.269 131.179C464.417 131.088 464.491 130.941 464.491 130.736V130.696C464.491 130.2 464.351 129.816 464.071 129.543C463.794 129.27 463.381 129.134 462.832 129.134C462.26 129.134 461.809 129.261 461.48 129.514C461.154 129.764 460.928 130.043 460.803 130.35L459.207 129.986C459.396 129.456 459.673 129.028 460.036 128.702C460.404 128.372 460.826 128.134 461.303 127.986C461.781 127.834 462.283 127.759 462.809 127.759C463.158 127.759 463.527 127.8 463.917 127.884C464.311 127.963 464.678 128.111 465.019 128.327C465.364 128.543 465.646 128.852 465.866 129.253C466.086 129.651 466.196 130.168 466.196 130.804V136.6H464.536V135.406H464.468C464.358 135.626 464.194 135.842 463.974 136.054C463.754 136.266 463.472 136.442 463.127 136.583C462.783 136.723 462.37 136.793 461.889 136.793ZM462.258 135.429C462.728 135.429 463.129 135.336 463.463 135.151C463.8 134.965 464.055 134.723 464.23 134.423C464.408 134.12 464.497 133.797 464.497 133.452V132.327C464.436 132.387 464.319 132.444 464.144 132.497C463.974 132.547 463.779 132.59 463.559 132.628C463.339 132.662 463.125 132.694 462.917 132.725C462.709 132.751 462.535 132.774 462.394 132.793C462.065 132.834 461.764 132.905 461.491 133.003C461.222 133.102 461.006 133.244 460.843 133.429C460.684 133.611 460.605 133.853 460.605 134.156C460.605 134.577 460.76 134.895 461.071 135.111C461.381 135.323 461.777 135.429 462.258 135.429ZM469.997 124.963V136.6H468.298V124.963H469.997ZM472.123 136.6V127.872H473.765V129.259H473.856C474.015 128.789 474.295 128.42 474.697 128.151C475.102 127.878 475.56 127.742 476.072 127.742C476.178 127.742 476.303 127.745 476.447 127.753C476.594 127.761 476.71 127.77 476.793 127.781V129.406C476.725 129.387 476.604 129.367 476.429 129.344C476.255 129.317 476.081 129.304 475.907 129.304C475.505 129.304 475.147 129.389 474.833 129.56C474.522 129.727 474.276 129.959 474.094 130.259C473.912 130.554 473.822 130.891 473.822 131.27V136.6H472.123ZM481.552 136.776C480.692 136.776 479.952 136.592 479.331 136.225C478.713 135.853 478.236 135.333 477.899 134.662C477.565 133.988 477.399 133.198 477.399 132.293C477.399 131.399 477.565 130.611 477.899 129.929C478.236 129.247 478.706 128.715 479.308 128.333C479.914 127.95 480.622 127.759 481.433 127.759C481.925 127.759 482.403 127.84 482.865 128.003C483.327 128.166 483.742 128.422 484.109 128.77C484.476 129.119 484.766 129.571 484.978 130.128C485.19 130.681 485.296 131.353 485.296 132.145V132.747H478.359V131.475H483.632C483.632 131.028 483.541 130.632 483.359 130.287C483.177 129.939 482.921 129.664 482.592 129.463C482.266 129.262 481.884 129.162 481.444 129.162C480.967 129.162 480.55 129.28 480.194 129.514C479.842 129.745 479.569 130.048 479.376 130.423C479.187 130.795 479.092 131.198 479.092 131.634V132.628C479.092 133.211 479.194 133.708 479.399 134.117C479.607 134.526 479.897 134.838 480.268 135.054C480.639 135.266 481.073 135.372 481.569 135.372C481.891 135.372 482.185 135.327 482.45 135.236C482.715 135.141 482.944 135.001 483.137 134.816C483.331 134.63 483.478 134.401 483.581 134.128L485.189 134.418C485.06 134.891 484.829 135.306 484.495 135.662C484.166 136.014 483.751 136.289 483.251 136.486C482.755 136.679 482.189 136.776 481.552 136.776ZM489.561 136.793C489.008 136.793 488.508 136.691 488.061 136.486C487.614 136.278 487.26 135.977 486.999 135.583C486.741 135.189 486.612 134.706 486.612 134.134C486.612 133.641 486.707 133.236 486.896 132.918C487.086 132.6 487.342 132.348 487.663 132.162C487.985 131.977 488.345 131.836 488.743 131.742C489.141 131.647 489.546 131.575 489.959 131.526C490.482 131.465 490.906 131.416 491.232 131.378C491.557 131.336 491.794 131.27 491.942 131.179C492.09 131.088 492.163 130.941 492.163 130.736V130.696C492.163 130.2 492.023 129.816 491.743 129.543C491.467 129.27 491.054 129.134 490.504 129.134C489.932 129.134 489.482 129.261 489.152 129.514C488.826 129.764 488.601 130.043 488.476 130.35L486.879 129.986C487.069 129.456 487.345 129.028 487.709 128.702C488.076 128.372 488.499 128.134 488.976 127.986C489.453 127.834 489.955 127.759 490.482 127.759C490.83 127.759 491.199 127.8 491.59 127.884C491.984 127.963 492.351 128.111 492.692 128.327C493.037 128.543 493.319 128.852 493.538 129.253C493.758 129.651 493.868 130.168 493.868 130.804V136.6H492.209V135.406H492.141C492.031 135.626 491.866 135.842 491.646 136.054C491.427 136.266 491.145 136.442 490.8 136.583C490.455 136.723 490.042 136.793 489.561 136.793ZM489.931 135.429C490.4 135.429 490.802 135.336 491.135 135.151C491.472 134.965 491.728 134.723 491.902 134.423C492.08 134.12 492.169 133.797 492.169 133.452V132.327C492.109 132.387 491.991 132.444 491.817 132.497C491.646 132.547 491.451 132.59 491.232 132.628C491.012 132.662 490.798 132.694 490.59 132.725C490.381 132.751 490.207 132.774 490.067 132.793C489.737 132.834 489.436 132.905 489.163 133.003C488.895 133.102 488.679 133.244 488.516 133.429C488.357 133.611 488.277 133.853 488.277 134.156C488.277 134.577 488.432 134.895 488.743 135.111C489.054 135.323 489.449 135.429 489.931 135.429ZM499.238 136.77C498.533 136.77 497.905 136.59 497.351 136.23C496.802 135.867 496.37 135.35 496.056 134.679C495.745 134.005 495.59 133.196 495.59 132.253C495.59 131.31 495.747 130.503 496.062 129.833C496.38 129.162 496.815 128.649 497.369 128.293C497.922 127.937 498.548 127.759 499.249 127.759C499.791 127.759 500.226 127.85 500.556 128.031C500.889 128.209 501.147 128.418 501.329 128.656C501.514 128.895 501.658 129.105 501.761 129.287H501.863V124.963H503.562V136.6H501.903V135.242H501.761C501.658 135.427 501.511 135.639 501.317 135.878C501.128 136.117 500.867 136.325 500.533 136.503C500.2 136.681 499.768 136.77 499.238 136.77ZM499.613 135.321C500.101 135.321 500.514 135.192 500.851 134.935C501.192 134.673 501.45 134.312 501.624 133.85C501.802 133.387 501.891 132.85 501.891 132.236C501.891 131.63 501.804 131.1 501.63 130.645C501.456 130.191 501.2 129.836 500.863 129.583C500.526 129.329 500.109 129.202 499.613 129.202C499.101 129.202 498.675 129.334 498.334 129.6C497.994 129.865 497.736 130.227 497.562 130.685C497.391 131.143 497.306 131.66 497.306 132.236C497.306 132.819 497.393 133.344 497.567 133.81C497.742 134.276 497.999 134.645 498.34 134.918C498.685 135.187 499.109 135.321 499.613 135.321ZM506.9 139.872C506.646 139.872 506.415 139.852 506.207 139.81C505.999 139.772 505.843 139.73 505.741 139.685L506.15 138.293C506.461 138.376 506.737 138.412 506.98 138.401C507.222 138.389 507.436 138.298 507.622 138.128C507.811 137.958 507.978 137.679 508.122 137.293L508.332 136.713L505.139 127.872H506.957L509.167 134.645H509.258L511.468 127.872H513.292L509.696 137.764C509.529 138.219 509.317 138.603 509.059 138.918C508.802 139.236 508.495 139.475 508.139 139.634C507.783 139.793 507.37 139.872 506.9 139.872ZM522.565 136.776C521.705 136.776 520.964 136.592 520.343 136.225C519.726 135.853 519.248 135.333 518.911 134.662C518.578 133.988 518.411 133.198 518.411 132.293C518.411 131.399 518.578 130.611 518.911 129.929C519.248 129.247 519.718 128.715 520.32 128.333C520.926 127.95 521.635 127.759 522.445 127.759C522.938 127.759 523.415 127.84 523.877 128.003C524.339 128.166 524.754 128.422 525.121 128.77C525.489 129.119 525.779 129.571 525.991 130.128C526.203 130.681 526.309 131.353 526.309 132.145V132.747H519.371V131.475H524.644C524.644 131.028 524.553 130.632 524.371 130.287C524.19 129.939 523.934 129.664 523.604 129.463C523.279 129.262 522.896 129.162 522.457 129.162C521.979 129.162 521.563 129.28 521.207 129.514C520.854 129.745 520.582 130.048 520.389 130.423C520.199 130.795 520.104 131.198 520.104 131.634V132.628C520.104 133.211 520.207 133.708 520.411 134.117C520.62 134.526 520.909 134.838 521.281 135.054C521.652 135.266 522.085 135.372 522.582 135.372C522.904 135.372 523.197 135.327 523.462 135.236C523.728 135.141 523.957 135.001 524.15 134.816C524.343 134.63 524.491 134.401 524.593 134.128L526.201 134.418C526.072 134.891 525.841 135.306 525.508 135.662C525.178 136.014 524.764 136.289 524.264 136.486C523.767 136.679 523.201 136.776 522.565 136.776ZM529.172 127.872L531.098 131.27L533.041 127.872H534.899L532.177 132.236L534.922 136.6H533.064L531.098 133.338L529.138 136.6H527.274L529.99 132.236L527.308 127.872H529.172ZM536.483 139.872V127.872H538.142V129.287H538.284C538.383 129.105 538.525 128.895 538.711 128.656C538.896 128.418 539.154 128.209 539.483 128.031C539.813 127.85 540.248 127.759 540.79 127.759C541.495 127.759 542.123 127.937 542.676 128.293C543.23 128.649 543.663 129.162 543.978 129.833C544.296 130.503 544.455 131.31 544.455 132.253C544.455 133.196 544.298 134.005 543.983 134.679C543.669 135.35 543.237 135.867 542.688 136.23C542.139 136.59 541.512 136.77 540.807 136.77C540.277 136.77 539.843 136.681 539.506 136.503C539.173 136.325 538.911 136.117 538.722 135.878C538.533 135.639 538.387 135.427 538.284 135.242H538.182V139.872H536.483ZM538.148 132.236C538.148 132.85 538.237 133.387 538.415 133.85C538.593 134.312 538.851 134.673 539.188 134.935C539.525 135.192 539.938 135.321 540.426 135.321C540.934 135.321 541.358 135.187 541.699 134.918C542.04 134.645 542.298 134.276 542.472 133.81C542.65 133.344 542.739 132.819 542.739 132.236C542.739 131.66 542.652 131.143 542.478 130.685C542.307 130.227 542.05 129.865 541.705 129.6C541.364 129.334 540.938 129.202 540.426 129.202C539.934 129.202 539.517 129.329 539.176 129.583C538.839 129.836 538.584 130.191 538.409 130.645C538.235 131.1 538.148 131.63 538.148 132.236ZM549.96 136.776C549.1 136.776 548.359 136.592 547.738 136.225C547.121 135.853 546.643 135.333 546.306 134.662C545.973 133.988 545.806 133.198 545.806 132.293C545.806 131.399 545.973 130.611 546.306 129.929C546.643 129.247 547.113 128.715 547.715 128.333C548.321 127.95 549.03 127.759 549.84 127.759C550.333 127.759 550.81 127.84 551.272 128.003C551.734 128.166 552.149 128.422 552.516 128.77C552.884 129.119 553.174 129.571 553.386 130.128C553.598 130.681 553.704 131.353 553.704 132.145V132.747H546.766V131.475H552.039C552.039 131.028 551.948 130.632 551.766 130.287C551.585 129.939 551.329 129.664 550.999 129.463C550.674 129.262 550.291 129.162 549.852 129.162C549.374 129.162 548.958 129.28 548.602 129.514C548.249 129.745 547.977 130.048 547.784 130.423C547.594 130.795 547.499 131.198 547.499 131.634V132.628C547.499 133.211 547.602 133.708 547.806 134.117C548.015 134.526 548.304 134.838 548.676 135.054C549.047 135.266 549.48 135.372 549.977 135.372C550.299 135.372 550.592 135.327 550.857 135.236C551.123 135.141 551.352 135.001 551.545 134.816C551.738 134.63 551.886 134.401 551.988 134.128L553.596 134.418C553.467 134.891 553.236 135.306 552.903 135.662C552.573 136.014 552.159 136.289 551.659 136.486C551.162 136.679 550.596 136.776 549.96 136.776ZM555.429 136.6V127.872H557.071V129.259H557.162C557.321 128.789 557.601 128.42 558.003 128.151C558.408 127.878 558.866 127.742 559.378 127.742C559.484 127.742 559.609 127.745 559.753 127.753C559.901 127.761 560.016 127.77 560.099 127.781V129.406C560.031 129.387 559.91 129.367 559.736 129.344C559.561 129.317 559.387 129.304 559.213 129.304C558.811 129.304 558.454 129.389 558.139 129.56C557.829 129.727 557.582 129.959 557.401 130.259C557.219 130.554 557.128 130.891 557.128 131.27V136.6H555.429ZM561.41 136.6V127.872H563.108V136.6H561.41ZM562.267 126.526C561.972 126.526 561.718 126.427 561.506 126.23C561.298 126.03 561.194 125.791 561.194 125.514C561.194 125.234 561.298 124.995 561.506 124.798C561.718 124.598 561.972 124.497 562.267 124.497C562.563 124.497 562.815 124.598 563.023 124.798C563.235 124.995 563.341 125.234 563.341 125.514C563.341 125.791 563.235 126.03 563.023 126.23C562.815 126.427 562.563 126.526 562.267 126.526ZM568.995 136.776C568.135 136.776 567.395 136.592 566.774 136.225C566.156 135.853 565.679 135.333 565.342 134.662C565.009 133.988 564.842 133.198 564.842 132.293C564.842 131.399 565.009 130.611 565.342 129.929C565.679 129.247 566.149 128.715 566.751 128.333C567.357 127.95 568.065 127.759 568.876 127.759C569.368 127.759 569.846 127.84 570.308 128.003C570.77 128.166 571.185 128.422 571.552 128.77C571.92 129.119 572.209 129.571 572.421 130.128C572.634 130.681 572.74 131.353 572.74 132.145V132.747H565.802V131.475H571.075C571.075 131.028 570.984 130.632 570.802 130.287C570.62 129.939 570.365 129.664 570.035 129.463C569.709 129.262 569.327 129.162 568.887 129.162C568.41 129.162 567.993 129.28 567.637 129.514C567.285 129.745 567.012 130.048 566.819 130.423C566.63 130.795 566.535 131.198 566.535 131.634V132.628C566.535 133.211 566.637 133.708 566.842 134.117C567.05 134.526 567.34 134.838 567.711 135.054C568.082 135.266 568.516 135.372 569.012 135.372C569.334 135.372 569.628 135.327 569.893 135.236C570.158 135.141 570.387 135.001 570.581 134.816C570.774 134.63 570.921 134.401 571.024 134.128L572.632 134.418C572.503 134.891 572.272 135.306 571.938 135.662C571.609 136.014 571.194 136.289 570.694 136.486C570.198 136.679 569.632 136.776 568.995 136.776ZM576.163 131.418V136.6H574.465V127.872H576.095V129.293H576.203C576.404 128.831 576.718 128.459 577.146 128.179C577.578 127.899 578.122 127.759 578.777 127.759C579.372 127.759 579.893 127.884 580.34 128.134C580.787 128.38 581.133 128.747 581.379 129.236C581.626 129.725 581.749 130.329 581.749 131.048V136.6H580.05V131.253C580.05 130.62 579.885 130.126 579.555 129.77C579.226 129.41 578.773 129.23 578.198 129.23C577.804 129.23 577.453 129.316 577.146 129.486C576.843 129.656 576.603 129.906 576.425 130.236C576.251 130.562 576.163 130.956 576.163 131.418ZM587.543 136.776C586.698 136.776 585.971 136.584 585.361 136.202C584.755 135.816 584.289 135.283 583.964 134.605C583.638 133.927 583.475 133.151 583.475 132.276C583.475 131.389 583.642 130.607 583.975 129.929C584.308 129.247 584.778 128.715 585.384 128.333C585.99 127.95 586.704 127.759 587.526 127.759C588.189 127.759 588.78 127.882 589.299 128.128C589.818 128.37 590.236 128.711 590.555 129.151C590.877 129.59 591.068 130.103 591.128 130.691H589.475C589.384 130.281 589.176 129.929 588.85 129.634C588.528 129.338 588.096 129.191 587.555 129.191C587.081 129.191 586.666 129.316 586.31 129.566C585.958 129.812 585.683 130.164 585.486 130.622C585.289 131.077 585.191 131.615 585.191 132.236C585.191 132.872 585.288 133.422 585.481 133.884C585.674 134.346 585.947 134.704 586.299 134.958C586.655 135.211 587.073 135.338 587.555 135.338C587.877 135.338 588.168 135.28 588.43 135.162C588.695 135.041 588.916 134.869 589.094 134.645C589.276 134.422 589.403 134.153 589.475 133.838H591.128C591.068 134.403 590.884 134.906 590.577 135.35C590.27 135.793 589.859 136.141 589.344 136.395C588.833 136.649 588.233 136.776 587.543 136.776ZM596.547 136.776C595.687 136.776 594.946 136.592 594.325 136.225C593.708 135.853 593.23 135.333 592.893 134.662C592.56 133.988 592.393 133.198 592.393 132.293C592.393 131.399 592.56 130.611 592.893 129.929C593.23 129.247 593.7 128.715 594.302 128.333C594.908 127.95 595.617 127.759 596.427 127.759C596.92 127.759 597.397 127.84 597.859 128.003C598.321 128.166 598.736 128.422 599.103 128.77C599.471 129.119 599.761 129.571 599.973 130.128C600.185 130.681 600.291 131.353 600.291 132.145V132.747H593.353V131.475H598.626C598.626 131.028 598.535 130.632 598.353 130.287C598.172 129.939 597.916 129.664 597.586 129.463C597.261 129.262 596.878 129.162 596.439 129.162C595.961 129.162 595.545 129.28 595.189 129.514C594.836 129.745 594.564 130.048 594.37 130.423C594.181 130.795 594.086 131.198 594.086 131.634V132.628C594.086 133.211 594.189 133.708 594.393 134.117C594.601 134.526 594.891 134.838 595.262 135.054C595.634 135.266 596.067 135.372 596.564 135.372C596.886 135.372 597.179 135.327 597.444 135.236C597.709 135.141 597.939 135.001 598.132 134.816C598.325 134.63 598.473 134.401 598.575 134.128L600.183 134.418C600.054 134.891 599.823 135.306 599.49 135.662C599.16 136.014 598.745 136.289 598.245 136.486C597.749 136.679 597.183 136.776 596.547 136.776ZM605.283 136.77C604.578 136.77 603.95 136.59 603.396 136.23C602.847 135.867 602.415 135.35 602.101 134.679C601.79 134.005 601.635 133.196 601.635 132.253C601.635 131.31 601.792 130.503 602.107 129.833C602.425 129.162 602.86 128.649 603.414 128.293C603.967 127.937 604.593 127.759 605.294 127.759C605.836 127.759 606.271 127.85 606.601 128.031C606.934 128.209 607.192 128.418 607.374 128.656C607.559 128.895 607.703 129.105 607.806 129.287H607.908V124.963H609.607V136.6H607.948V135.242H607.806C607.703 135.427 607.556 135.639 607.362 135.878C607.173 136.117 606.912 136.325 606.578 136.503C606.245 136.681 605.813 136.77 605.283 136.77ZM605.658 135.321C606.146 135.321 606.559 135.192 606.896 134.935C607.237 134.673 607.495 134.312 607.669 133.85C607.847 133.387 607.936 132.85 607.936 132.236C607.936 131.63 607.849 131.1 607.675 130.645C607.501 130.191 607.245 129.836 606.908 129.583C606.571 129.329 606.154 129.202 605.658 129.202C605.146 129.202 604.72 129.334 604.379 129.6C604.039 129.865 603.781 130.227 603.607 130.685C603.436 131.143 603.351 131.66 603.351 132.236C603.351 132.819 603.438 133.344 603.612 133.81C603.787 134.276 604.044 134.645 604.385 134.918C604.73 135.187 605.154 135.321 605.658 135.321ZM615.946 136.6V127.872H617.645V136.6H615.946ZM616.804 126.526C616.508 126.526 616.254 126.427 616.042 126.23C615.834 126.03 615.73 125.791 615.73 125.514C615.73 125.234 615.834 124.995 616.042 124.798C616.254 124.598 616.508 124.497 616.804 124.497C617.099 124.497 617.351 124.598 617.559 124.798C617.772 124.995 617.878 125.234 617.878 125.514C617.878 125.791 617.772 126.03 617.559 126.23C617.351 126.427 617.099 126.526 616.804 126.526ZM623.844 127.872V129.236H619.077V127.872H623.844ZM620.355 125.781H622.054V134.037C622.054 134.367 622.103 134.615 622.202 134.781C622.3 134.944 622.427 135.056 622.583 135.117C622.742 135.173 622.914 135.202 623.1 135.202C623.236 135.202 623.355 135.192 623.458 135.173C623.56 135.155 623.639 135.139 623.696 135.128L624.003 136.531C623.905 136.569 623.764 136.607 623.583 136.645C623.401 136.687 623.174 136.709 622.901 136.713C622.454 136.721 622.037 136.641 621.651 136.475C621.264 136.308 620.952 136.05 620.713 135.702C620.475 135.353 620.355 134.916 620.355 134.389V125.781Z" fill="#004B8D"/>
<path opacity="0.2" d="M1156.6 92.641L1157.01 231.051C1157.08 255.506 1136.37 274.883 1111.96 273.168L852.049 254.906C827.021 253.148 809.088 230.035 813.593 205.354L842.825 45.3334C846.973 22.6145 868.659 7.47961 891.411 11.4202L1121.68 51.2935C1141.82 54.7767 1156.54 72.2146 1156.6 92.641Z" fill="#007AFF"/>
<path d="M1064.01 95.6405L930.421 58.1676C921.57 55.6847 912.381 60.8474 909.898 69.6989L887.646 149.028C885.163 157.879 890.326 167.067 899.178 169.55L1032.77 207.023C1041.62 209.506 1050.81 204.343 1053.29 195.492L1075.54 116.163C1078.03 107.312 1072.86 98.1234 1064.01 95.6405Z" fill="#3394FF"/>
<path d="M1073.36 123.943L907.714 77.4785L901.368 100.102L1067.01 146.566L1073.36 123.943Z" fill="#1C3FCA"/>
<path d="M1036.09 160.996L1016.28 155.438C1012.45 154.366 1008.42 156.804 1007.28 160.885L1004.2 171.878C1003.05 175.959 1005.22 180.137 1009.05 181.209L1028.86 186.767C1032.68 187.839 1036.71 185.401 1037.85 181.32L1040.94 170.326C1042.08 166.246 1039.91 162.068 1036.09 160.996Z" fill="#FFCC4D"/>
<path d="M985.961 22.8714C985.607 22.8178 985.268 22.6658 984.983 22.4214L974.783 13.7934C974.23 13.3273 973.961 12.5823 974.111 11.8606C974.26 11.1389 974.788 10.5752 975.485 10.3589L987.621 6.74638C988.275 6.5438 988.975 6.71012 989.491 7.15058C990.008 7.59104 990.247 8.27106 990.142 8.9594L988.206 21.1999C988.099 21.9079 987.607 22.4973 986.944 22.7589C986.625 22.8715 986.276 22.9191 985.942 22.8685L985.961 22.8714ZM980.154 13.1388L984.843 17.1089L985.738 11.4705L980.154 13.1388Z" fill="#1FC994"/>
<path d="M874.405 97.2159L871.911 97.6348C871.44 97.7141 871.393 98.3772 871.849 98.5216L874.26 99.2852C875.846 99.79 877.02 101.133 877.298 102.782L877.717 105.277C877.796 105.748 878.459 105.795 878.604 105.339L879.367 102.928C879.872 101.341 881.215 100.167 882.864 99.8897L885.359 99.4709C885.83 99.3916 885.877 98.7284 885.421 98.584L883.01 97.8205C881.423 97.3156 880.249 95.9726 879.972 94.3232L879.553 91.8289C879.474 91.3577 878.81 91.3111 878.666 91.7666L877.902 94.1778C877.398 95.7642 876.055 96.9384 874.405 97.2159Z" fill="white"/>
<path d="M936.11 52.9877C935.877 51.6408 934.24 44.9736 925.174 46.5146L924.257 41.1373C928.933 40.3449 932.883 41.069 935.998 43.3018C940.561 46.5751 941.455 51.8869 941.485 52.1078L936.101 52.9871L936.11 52.9877Z" fill="#FF9C00"/>
<path d="M857.198 167.952C852.927 167.652 849.616 166.134 847.364 163.433C843.866 159.26 844.402 153.83 844.427 153.604L849.856 154.167C849.856 154.167 849.56 157.591 851.571 159.965C852.842 161.467 854.869 162.32 857.58 162.511L857.198 167.952Z" fill="#E97FDF"/>
<path d="M1104.41 152.987L1102.62 150.586C1102.06 149.825 1100.98 149.666 1100.22 150.231L1097.82 152.015C1097.06 152.58 1096.9 153.657 1097.46 154.418L1099.25 156.819C1099.81 157.581 1100.89 157.74 1101.65 157.174L1104.05 155.391C1104.81 154.825 1104.97 153.749 1104.41 152.987Z" fill="#8162F8"/>
<path d="M1118.09 100.34L1114.46 96.2643C1125.73 86.2162 1135.14 95.5612 1135.24 95.6602L1131.34 99.479C1130.76 98.9053 1125.31 93.9095 1118.09 100.34Z" fill="#3394FF"/>
<path d="M851.709 90.148L868.831 83.0649C870.646 82.3156 871.446 80.1708 870.561 78.4163L849.301 36.1753L836.017 41.6692L851.709 90.148Z" fill="#0CA774"/>
<path opacity="0.15" d="M851.708 90.1518L864.279 84.9497L844.351 38.2338L836.016 41.6817L851.708 90.1518Z" fill="black"/>
<path d="M823.851 50.8115C823.555 50.7907 823.27 50.604 823.15 50.3063L820.864 44.7793C819.021 40.3182 821.144 35.1887 825.605 33.3451C827.763 32.4533 830.148 32.4542 832.303 33.351C834.468 34.2484 836.147 35.9272 837.038 38.0943L839.324 43.6299C839.496 44.0454 839.296 44.5311 838.88 44.7036C838.465 44.8761 837.979 44.6753 837.806 44.2599L835.521 38.7242C834.794 36.972 833.425 35.6044 831.67 34.8761C829.915 34.1477 827.978 34.1431 826.225 34.8705C822.604 36.3698 820.873 40.536 822.372 44.1662L824.658 49.6932C824.83 50.1087 824.629 50.5944 824.214 50.7669C824.096 50.82 823.964 50.8369 823.841 50.8284L823.851 50.8115Z" fill="#3394FF"/>
<path d="M860.449 86.5272L828.922 99.5692C827.107 100.319 825.025 99.3743 824.411 97.4986L808.913 52.8827L839.537 40.2156L855.035 84.8403C855.649 86.7073 857.73 87.6602 859.545 86.9109L860.457 86.5365L860.449 86.5272Z" fill="#1FC893"/>
<path d="M817.501 54.8316C818.407 54.8952 819.193 54.2124 819.256 53.3064C819.32 52.4005 818.637 51.6145 817.731 51.5508C816.825 51.4871 816.039 52.17 815.976 53.0759C815.912 53.9819 816.595 54.7679 817.501 54.8316Z" fill="#1C3FC9"/>
<path d="M832.166 48.7632C833.072 48.8269 833.858 48.144 833.921 47.2381C833.985 46.3321 833.302 45.5461 832.396 45.4824C831.49 45.4188 830.704 46.1016 830.641 47.0076C830.577 47.9135 831.26 48.6996 832.166 48.7632Z" fill="#1C3FC9"/>
<path d="M817.514 53.8999C817.217 53.879 816.932 53.6924 816.813 53.3947L814.363 47.4616C812.519 43.0004 814.642 37.8709 819.103 36.0273C823.564 34.1837 828.694 36.3066 830.537 40.7677L832.988 46.7008C833.16 47.1163 832.959 47.602 832.544 47.7745C832.129 47.947 831.643 47.7462 831.47 47.3308L829.02 41.3977C827.521 37.7762 823.346 36.0448 819.724 37.544C816.103 39.0433 814.371 43.2182 815.871 46.8397L818.321 52.7728C818.493 53.1883 818.293 53.674 817.877 53.8465C817.76 53.8996 817.627 53.9166 817.505 53.908L817.514 53.8999Z" fill="#E97FDF"/>
<path d="M1200.81 156.895L1178.9 141.354C1177.48 140.352 1175.39 140.87 1174.23 142.511L1111.47 231.008C1110.3 232.65 1110.5 234.793 1111.92 235.796L1133.83 251.336C1135.24 252.339 1137.33 251.821 1138.5 250.18L1201.26 161.682C1202.43 160.041 1202.22 157.898 1200.81 156.895Z" fill="#D755D1"/>
<path d="M1182.47 143.891L1152.68 122.761C1151.27 121.758 1149.18 122.276 1148.01 123.917L1085.25 212.415C1084.09 214.056 1084.29 216.199 1085.7 217.202L1115.5 238.332C1116.91 239.335 1119 238.817 1120.16 237.176L1182.93 148.678C1184.09 147.037 1183.89 144.893 1182.47 143.891Z" fill="#E97FDF"/>
<path d="M1164.83 174.198L1129.92 149.438L1129.14 150.532L1164.05 175.293L1164.83 174.198Z" fill="#D755D1"/>
<path d="M1146.98 135.625C1147.33 135.143 1147.27 134.516 1146.86 134.224C1146.44 133.932 1145.83 134.085 1145.49 134.567L1138.71 144.13C1138.37 144.612 1138.43 145.239 1138.84 145.531C1139.25 145.823 1139.86 145.67 1140.2 145.188L1146.98 135.625Z" fill="white"/>
<path d="M1129.67 160.041C1130.01 159.559 1129.95 158.932 1129.54 158.64C1129.13 158.348 1128.52 158.501 1128.18 158.983L1121.4 168.546C1121.05 169.028 1121.11 169.655 1121.52 169.947C1121.93 170.239 1122.55 170.086 1122.89 169.604L1129.67 160.041Z" fill="white"/>
<path d="M1051.4 58.5874C1057.32 61.4843 1064.52 58.9424 1067.47 52.9098C1070.42 46.8772 1068 39.6384 1062.07 36.7415C1056.14 33.8445 1048.94 36.3865 1046 42.4191C1043.05 48.4516 1045.47 55.6904 1051.4 58.5874Z" fill="#727986"/>
<path d="M1104.76 29.6845L1088.97 21.9682C1087.9 21.4421 1086.59 21.9038 1086.05 22.9994L1060.5 75.308C1059.96 76.4036 1060.4 77.7183 1061.48 78.2444L1077.27 85.9606C1078.34 86.4867 1079.65 86.0251 1080.19 84.9295L1105.75 32.6208C1106.28 31.5252 1105.84 30.2106 1104.76 29.6845Z" fill="#5D49D3"/>
<path d="M1101.51 41.2519L1080.86 31.16L1085.08 22.506C1085.62 21.4149 1086.92 20.945 1088 21.4749L1104.77 29.6674C1105.84 30.1913 1106.29 31.5003 1105.75 32.6038L1101.52 41.2578L1101.51 41.2519Z" fill="#0F2F93"/>
<path d="M1026.19 60.9888L1064.98 79.94C1066.05 80.4661 1067.36 80.0044 1067.89 78.9089L1093.45 26.6002C1093.99 25.5046 1093.55 24.1899 1092.47 23.6638L1053.69 4.71263C1052.61 4.18651 1051.3 4.64816 1050.77 5.74375L1025.21 58.0524C1024.67 59.148 1025.11 60.4627 1026.19 60.9888Z" fill="#8062F6"/>
<path d="M1089.22 35.2519L1046.54 14.3954L1050.77 5.74139C1051.3 4.65033 1052.6 4.18037 1053.69 4.71027L1092.48 23.6674C1093.56 24.1913 1094 25.5003 1093.47 26.6038L1089.24 35.2578L1089.22 35.2519Z" fill="#1C3FC7"/>
<path d="M1074.32 24.3319L1086.59 30.3275C1087.06 30.5544 1087.62 30.3553 1087.85 29.8828L1089.33 26.8576C1089.56 26.3851 1089.37 25.8182 1088.91 25.5913L1076.63 19.5957C1076.17 19.3688 1075.61 19.5679 1075.38 20.0404L1073.9 23.0656C1073.67 23.5381 1073.86 24.105 1074.32 24.3319Z" fill="#0F2F93"/>
<path d="M1049.93 61.5783C1057.49 65.2677 1066.65 62.0304 1070.4 54.3476C1074.16 46.6648 1071.08 37.4458 1063.53 33.7564C1055.98 30.067 1046.81 33.3043 1043.06 40.9871C1039.31 48.6699 1042.38 57.8889 1049.93 61.5783Z" fill="#E1E6F3"/>
<path d="M1051.4 58.5874C1057.32 61.4843 1064.52 58.9424 1067.47 52.9098C1070.42 46.8772 1068 39.6384 1062.07 36.7415C1056.14 33.8445 1048.94 36.3865 1046 42.4191C1043.05 48.4516 1045.47 55.6904 1051.4 58.5874Z" fill="#727986"/>
<path d="M1051.4 58.5874C1057.32 61.4843 1064.52 58.9424 1067.47 52.9098C1070.42 46.8772 1068 39.6384 1062.07 36.7415C1056.14 33.8445 1048.94 36.3865 1046 42.4191C1043.05 48.4516 1045.47 55.6904 1051.4 58.5874Z" fill="#0967D5"/>
<path d="M1062.07 36.7415C1063.02 37.2059 1063.89 37.7823 1064.65 38.4466C1059.45 37.4418 1053.98 40.0393 1051.51 45.1102C1049.03 50.1811 1050.34 56.0889 1054.33 59.5734C1053.33 59.3803 1052.35 59.0518 1051.4 58.5874C1045.46 55.6878 1043.05 48.4571 1046 42.4191C1048.95 36.3811 1056.14 33.8419 1062.07 36.7415Z" fill="#122A77"/>
<path d="M1055.9 9.98553L1055.14 9.6164L1055.2 9.78156C1054.33 9.69709 1053.45 10.1418 1053.04 10.9849C1052.63 11.828 1052.81 12.7907 1053.42 13.4267L1053.25 13.4847L1054.01 13.8538C1055.06 14.3659 1056.33 13.9147 1056.85 12.8485C1057.37 11.7822 1056.95 10.4976 1055.9 9.98553Z" fill="#0967D5"/>
<path d="M1053.25 13.4826C1054.3 13.9956 1055.57 13.5455 1056.1 12.4773C1056.62 11.4091 1056.19 10.1273 1055.14 9.61435C1054.09 9.10139 1052.82 9.55149 1052.29 10.6197C1051.77 11.6879 1052.2 12.9697 1053.25 13.4826Z" fill="#48A4FF"/>
<path d="M1062.65 13.2863L1061.89 12.9172L1061.95 13.0823C1061.08 12.9979 1060.2 13.4426 1059.79 14.2857C1059.38 15.1288 1059.56 16.0915 1060.17 16.7275L1060 16.7855L1060.76 17.1546C1061.81 17.6666 1063.08 17.2155 1063.6 16.1493C1064.13 15.083 1063.7 13.7984 1062.65 13.2863Z" fill="#0967D5"/>
<path d="M1060 16.7756C1061.05 17.2886 1062.33 16.8385 1062.85 15.7703C1063.37 14.7021 1062.94 13.4203 1061.89 12.9073C1060.84 12.3944 1059.57 12.8445 1059.05 13.9127C1058.52 14.9809 1058.95 16.2626 1060 16.7756Z" fill="#48A4FF"/>
<path opacity="0.5" d="M1051.4 58.5874C1057.32 61.4843 1064.52 58.9424 1067.47 52.9098C1070.42 46.8772 1068 39.6384 1062.07 36.7415C1056.14 33.8445 1048.94 36.3865 1046 42.4191C1043.05 48.4516 1045.47 55.6904 1051.4 58.5874Z" fill="#12B3F9"/>
<path d="M1067.69 52.4367C1069.95 47.277 1068.38 41.3671 1064.15 38.0527C1063.31 43.1894 1064.63 48.3959 1067.69 52.4367Z" fill="#E1E6F3"/>
<path d="M1067.52 52.4037C1067.43 52.362 1067.39 52.2643 1067.43 52.1775C1069.49 47.347 1068.12 41.6986 1064.1 38.4606C1064.03 38.3942 1064.01 38.2776 1064.07 38.2027C1064.14 38.1279 1064.25 38.1199 1064.33 38.174C1068.48 41.5206 1069.89 47.3283 1067.78 52.3134C1067.73 52.4002 1067.64 52.4448 1067.54 52.4156L1067.52 52.4037Z" fill="#30C2D1"/>
</g>
<defs>
<clipPath id="clip0_6096_37440">
<rect width="1440" height="180" fill="white"/>
</clipPath>
</defs>
</svg>
