<svg width="480" height="125" viewBox="0 0 480 125" fill="none" xmlns="http://www.w3.org/2000/svg">
<rect width="480" height="125" fill="#123B75"/>
<path opacity="0.15" d="M380.979 112.438H466.02C474.32 112.438 480.795 104.348 479.921 95.0692L474.25 34.411C473.464 26.0165 466.928 19.8141 459.44 20.3645L383.871 25.8691C376.925 26.3802 371.376 32.5434 370.835 40.348L367.043 95.5017C366.413 104.643 372.835 112.438 380.979 112.438Z" fill="#007AFF"/>
<path d="M380.743 91.2159C381.505 91.2159 382.123 90.5206 382.123 89.6628C382.123 88.8051 381.505 88.1097 380.743 88.1097C379.98 88.1097 379.362 88.8051 379.362 89.6628C379.362 90.5206 379.98 91.2159 380.743 91.2159Z" fill="#EA7FE0"/>
<path d="M400.725 34.2444L399.118 34.6769C398.812 34.7555 398.812 35.247 399.118 35.3256L400.725 35.7581C401.783 36.0432 402.604 36.9672 402.857 38.1565L403.242 39.9652C403.312 40.3092 403.749 40.3092 403.818 39.9652L404.203 38.1565C404.456 36.9672 405.278 36.0432 406.335 35.7581L407.942 35.3256C408.248 35.247 408.248 34.7555 407.942 34.6769L406.335 34.2444C405.278 33.9593 404.456 33.0353 404.203 31.846L403.818 30.0373C403.749 29.6933 403.312 29.6933 403.242 30.0373L402.857 31.846C402.604 33.0353 401.783 33.9593 400.725 34.2444Z" fill="white"/>
<path d="M444.753 83.1947C433.36 73.0605 420.42 73.0998 417.466 73.0703C413.954 73.0408 410.529 79.9018 425.4 84.5414C425.4 84.5414 414.207 90.734 410.441 91.5793C405.243 92.7491 398.139 80.5702 393.744 81.8776C387.593 83.696 400.079 97.1232 407.663 101.202C411.866 102.805 416.287 102.923 419.712 104.505C424.535 106.157 425.741 106.245 425.741 106.245L426.125 112.428H459.982C459.982 112.428 456.147 93.3192 444.753 83.1849V83.1947Z" fill="#E99E93"/>
<path d="M425.741 99.8562C425.741 99.8562 418.908 93.0837 414.461 85.0922C410.013 77.091 405.173 78.8898 406.265 82.7823C407.357 86.665 410.197 97.4087 414.391 100.181C419.266 103.395 425.741 99.8464 425.741 99.8464V99.8562Z" fill="#E99E93"/>
<path d="M420.979 103.955C420.979 103.955 410.24 94.2823 406.107 85.1015C402.604 77.3066 398.104 78.8499 398.244 82.0052C398.401 85.6225 401.94 93.5746 405.059 97.4867C408.388 101.664 413.552 105.085 420.979 103.955Z" fill="#E99E93"/>
<path d="M409.166 93.9472C406.964 94.0062 398.672 90.5461 393.019 86.3588C388.179 82.771 385.269 86.6536 389 91.3227C393.613 97.1025 402.316 100.543 415.212 102.381C426.431 101.437 409.174 93.9373 409.174 93.9373L409.166 93.9472Z" fill="#E99E93"/>
<path d="M424.718 96.3668C424.718 96.3668 424.648 96.3668 424.613 96.3472C421.153 94.9219 418.017 91.6978 414.749 86.2129C414.661 86.0556 414.696 85.8492 414.827 85.7509C414.967 85.6526 415.151 85.6919 415.238 85.8394C418.436 91.2063 421.477 94.342 424.814 95.7181C424.963 95.7771 425.041 95.9737 424.989 96.1408C424.945 96.2784 424.832 96.357 424.709 96.357L424.718 96.3668Z" fill="#D67570"/>
<path d="M419.441 104.585C419.441 104.585 419.388 104.585 419.362 104.575C411.263 101.999 407.532 88.1692 407.383 87.5794C407.34 87.4025 407.427 87.2157 407.584 87.1666C407.742 87.1174 407.908 87.2157 407.951 87.3926C407.986 87.5302 411.743 101.459 419.528 103.936C419.686 103.985 419.773 104.172 419.729 104.349C419.694 104.496 419.572 104.594 419.441 104.594V104.585Z" fill="#D67570"/>
<path d="M413.665 103.866C413.665 103.866 413.604 103.866 413.578 103.856C401.162 99.6292 398.226 83.4203 398.2 83.2532C398.165 83.0762 398.27 82.8993 398.436 82.86C398.593 82.8207 398.751 82.9386 398.786 83.1254C398.812 83.2826 401.686 99.1082 413.753 103.217C413.91 103.266 413.997 103.453 413.954 103.63C413.919 103.777 413.796 103.866 413.674 103.866H413.665Z" fill="#D67570"/>
<path d="M410.101 102.194C410.101 102.194 410.074 102.194 410.057 102.194C404.544 101.231 400.131 97.0236 397.405 93.6521C394.452 90.0151 392.774 86.5551 392.757 86.5158C392.678 86.3585 392.731 86.1521 392.879 86.0636C393.028 85.9752 393.202 86.0342 393.281 86.2013C393.351 86.3389 399.921 99.7562 410.153 101.535C410.31 101.565 410.424 101.732 410.398 101.919C410.371 102.086 410.249 102.204 410.109 102.204L410.101 102.194Z" fill="#D67570"/>
<path d="M424.718 96.3674C424.622 96.3674 424.517 96.3084 424.465 96.2003C424.377 96.043 424.43 95.8366 424.57 95.7481C424.814 95.581 430.581 91.7671 436.479 93.0352C436.636 93.0745 436.741 93.2416 436.715 93.4283C436.688 93.6151 436.531 93.7331 436.365 93.6937C430.695 92.465 424.928 96.2887 424.867 96.3281C424.823 96.3575 424.771 96.3772 424.718 96.3772V96.3674Z" fill="#D67570"/>
<path d="M429.367 89.6637C429.367 89.6637 429.323 89.6637 429.297 89.6637C425.819 88.6807 425.138 84.7882 425.112 84.6211C425.085 84.4442 425.19 84.2672 425.348 84.2377C425.505 84.2082 425.662 84.3262 425.688 84.5031C425.715 84.6506 426.335 88.1499 429.437 89.0247C429.594 89.0739 429.69 89.2508 429.655 89.4277C429.62 89.5752 429.498 89.6833 429.367 89.6833V89.6637Z" fill="#D67570"/>
<path d="M430.564 107.415C430.564 107.415 430.538 107.415 430.52 107.415L425.697 106.599C425.54 106.569 425.426 106.402 425.452 106.225C425.479 106.048 425.618 105.92 425.784 105.95L430.607 106.766C430.765 106.795 430.878 106.962 430.852 107.139C430.826 107.306 430.704 107.424 430.564 107.424V107.415Z" fill="#D67570"/>
<path d="M421.406 49.7557L391.799 44.0386C389.269 43.55 386.866 45.4614 386.432 48.3078L383.384 68.2842C382.949 71.1307 384.648 73.8342 387.179 74.3228L416.785 80.04C419.315 80.5286 421.718 78.6172 422.152 75.7708L425.2 55.7944C425.635 52.9479 423.936 50.2443 421.406 49.7557Z" fill="#3395FF"/>
<path d="M424.751 58.7389L385.982 51.2523L385.08 57.1619L423.849 64.6485L424.751 58.7389Z" fill="#1C3FCA"/>
<path d="M417.61 69.3225L412.813 68.3963C411.891 68.2181 411.014 68.9151 410.856 69.9531L410.427 72.7626C410.269 73.8006 410.889 74.7865 411.811 74.9647L416.608 75.8909C417.53 76.0691 418.407 75.3721 418.565 74.3341L418.994 71.5246C419.152 70.4866 418.533 69.5007 417.61 69.3225Z" fill="#FFCC4D"/>
<path d="M419.694 42.7075L418.619 20.6107L431.359 43.7003L422.315 45.1354C420.979 45.3517 419.764 44.2311 419.694 42.7075Z" fill="#1C3FCA"/>
<path d="M418.812 21.5436L423.819 42.3921C424.151 43.778 425.348 44.6725 426.615 44.4661L430.948 43.778L418.812 21.5338V21.5436Z" fill="#A897FC"/>
<path d="M420.533 18.2612L441.94 14.8799C443.128 14.6931 444.281 15.391 444.806 16.6001L453.552 37.0062C454.19 38.4905 453.36 40.2303 451.909 40.4662L429.699 44.0343C428.755 44.1818 427.829 43.6215 427.436 42.6484L418.873 21.6819C418.27 20.2075 419.1 18.4873 420.533 18.2612Z" fill="white"/>
<path d="M446.204 19.8726L444.841 16.6976C444.299 15.4296 443.084 14.6924 441.835 14.889L420.393 18.2802C419.03 18.4965 418.235 20.1282 418.812 21.5436L419.843 24.06L446.212 19.8824L446.204 19.8726Z" fill="#8262F9"/>
<path d="M427.226 19.7943L426.649 19.4306C426.955 18.8015 427.042 17.8972 426.876 17.0125C426.728 16.236 426.422 15.5577 425.994 15.0859C425.609 14.6633 425.181 14.4667 424.779 14.5748C424.386 14.6633 424.054 15.0269 423.853 15.5971C423.635 16.2163 423.591 16.983 423.731 17.7596L423.084 17.9168C422.909 17.0027 422.971 16.0787 423.241 15.3317C423.53 14.5256 424.028 14.0047 424.639 13.8671C425.26 13.7294 425.898 13.9752 426.448 14.5748C426.964 15.1449 427.339 15.9608 427.514 16.8749C427.715 17.9463 427.601 19.0177 427.217 19.8139L427.226 19.7943Z" fill="#1C3FCA"/>
<path d="M440.472 17.9856L439.895 17.6219C440.201 16.9928 440.288 16.0885 440.122 15.2038C439.843 13.6803 438.881 12.5597 438.034 12.7661C437.186 12.9627 436.75 14.1324 436.95 15.6658L436.295 15.774C436.042 13.8277 436.688 12.3238 437.903 12.0387C439.144 11.7537 440.402 13.0708 440.777 15.0564C440.978 16.1278 440.865 17.1992 440.48 17.9954L440.472 17.9856Z" fill="#1C3FCA"/>
<path d="M434.312 18.9686L433.735 18.6049C434.041 17.9758 434.128 17.0715 433.962 16.1868C433.683 14.6632 432.722 13.5427 431.874 13.7491C431.026 13.9457 430.59 15.1154 430.791 16.6488L430.135 16.7569C429.882 14.8107 430.528 13.3067 431.743 13.0217C432.975 12.7465 434.242 14.0538 434.618 16.0394C434.819 17.1108 434.705 18.1822 434.32 18.9784L434.312 18.9686Z" fill="#1C3FCA"/>
<path d="M425.338 26.1255L429.244 25.5063C429.541 25.4571 429.829 25.634 429.951 25.9388L430.738 27.7867C430.851 28.0619 430.703 28.3765 430.432 28.4256L426.526 29.0449C426.229 29.094 425.941 28.9171 425.819 28.6124L425.032 26.7644C424.919 26.4892 425.067 26.1747 425.338 26.1255Z" fill="#C0DFFF"/>
<path d="M432.66 24.9648L436.566 24.3455C436.863 24.2964 437.151 24.4733 437.274 24.778L438.06 26.626C438.174 26.9012 438.025 27.2158 437.754 27.2649L433.849 27.8842C433.552 27.9333 433.263 27.7564 433.141 27.4517L432.355 25.6037C432.241 25.3285 432.389 25.014 432.66 24.9648Z" fill="#C0DFFF"/>
<path d="M439.982 23.8053L443.888 23.186C444.185 23.1369 444.473 23.3138 444.596 23.6185L445.382 25.4665C445.496 25.7417 445.347 26.0562 445.076 26.1054L441.171 26.7246C440.873 26.7738 440.585 26.5969 440.463 26.2921L439.676 24.4442C439.563 24.169 439.711 23.8544 439.982 23.8053Z" fill="#C0DFFF"/>
<path d="M427.488 31.1583L431.393 30.539C431.69 30.4899 431.979 30.6668 432.101 30.9715L432.887 32.8195C433.001 33.0947 432.853 33.4093 432.582 33.4584L428.676 34.0777C428.379 34.1268 428.091 33.9499 427.968 33.6452L427.182 31.7972C427.068 31.522 427.217 31.2074 427.488 31.1583Z" fill="#C0DFFF"/>
<path d="M434.81 29.9878L438.715 29.3686C439.012 29.3194 439.301 29.4963 439.423 29.8011L440.209 31.649C440.323 31.9242 440.174 32.2388 439.904 32.2879L435.998 32.9072C435.701 32.9563 435.413 32.7794 435.29 32.4747L434.504 30.6267C434.39 30.3515 434.539 30.037 434.81 29.9878Z" fill="#C0DFFF"/>
<path d="M442.131 28.8283L446.037 28.209C446.334 28.1599 446.622 28.3368 446.745 28.6415L447.531 30.4895C447.645 30.7647 447.496 31.0792 447.225 31.1284L443.32 31.7477C443.023 31.7968 442.734 31.6199 442.612 31.3152L441.826 29.4672C441.712 29.192 441.861 28.8774 442.131 28.8283Z" fill="#C0DFFF"/>
<path d="M429.637 36.1812L433.543 35.562C433.84 35.5128 434.128 35.6898 434.25 35.9945L435.037 37.8424C435.15 38.1177 435.002 38.4322 434.731 38.4814L430.825 39.1006C430.528 39.1498 430.24 38.9728 430.118 38.6681L429.331 36.8202C429.218 36.5449 429.366 36.2304 429.637 36.1812Z" fill="#C0DFFF"/>
<path d="M436.959 35.0206L440.865 34.4013C441.162 34.3522 441.45 34.5291 441.572 34.8338L442.359 36.6818C442.472 36.957 442.324 37.2716 442.053 37.3207L438.147 37.94C437.85 37.9891 437.562 37.8122 437.44 37.5075L436.653 35.6595C436.54 35.3843 436.688 35.0697 436.959 35.0206Z" fill="#C0DFFF"/>
<path d="M444.281 33.861L448.187 33.2418C448.484 33.1926 448.772 33.3696 448.894 33.6743L449.681 35.5222C449.794 35.7975 449.646 36.112 449.375 36.1612L445.469 36.7804C445.172 36.8296 444.884 36.6526 444.761 36.3479L443.975 34.5C443.862 34.2247 444.01 33.9102 444.281 33.861Z" fill="#C0DFFF"/>
<path d="M438.549 64.7656C438.549 60.4504 441.241 56.8528 444.832 55.9583V55.7421H446.876C451.166 55.9288 454.6 59.9 454.6 64.7656C454.6 69.6411 451.166 73.6024 446.876 73.7891H444.832V73.5827C441.241 72.6882 438.549 69.0808 438.549 64.7754V64.7656Z" fill="#FF9D00"/>
<path d="M444.753 73.7892C449.183 73.7892 452.774 69.7492 452.774 64.7657C452.774 59.7821 449.183 55.7421 444.753 55.7421C440.323 55.7421 436.732 59.7821 436.732 64.7657C436.732 69.7492 440.323 73.7892 444.753 73.7892Z" fill="#FFCC4D"/>
<path d="M444.753 72.4133C441.005 72.4133 437.946 68.9828 437.946 64.7561C437.946 60.5294 440.996 57.0989 444.753 57.0989C448.51 57.0989 451.559 60.5294 451.559 64.7561C451.559 68.9828 448.51 72.4133 444.753 72.4133ZM444.753 57.6886C441.284 57.6886 438.462 60.8636 438.462 64.7659C438.462 68.6683 441.284 71.8432 444.753 71.8432C448.222 71.8432 451.044 68.6683 451.044 64.7659C451.044 60.8636 448.222 57.6886 444.753 57.6886Z" fill="#FF9D00"/>
<path d="M431.629 65.5408C431.533 65.5408 431.437 65.5211 431.341 65.4818C430.948 65.3049 430.756 64.8036 430.904 64.3613C430.904 64.3318 431.158 63.5749 430.869 62.9556C430.677 62.5428 430.249 62.2381 429.594 62.0611C429.183 61.953 428.93 61.4812 429.026 61.0192C429.122 60.5572 429.541 60.2623 429.952 60.3803C431.061 60.6752 431.83 61.2846 432.232 62.1693C432.835 63.4766 432.381 64.8429 432.328 64.9904C432.206 65.3344 431.918 65.5408 431.612 65.5408H431.629Z" fill="#1FC994"/>
<path d="M462.227 89.1412C462.07 89.1412 461.913 89.0921 461.773 88.9938L456.775 85.5337C456.505 85.347 456.338 85.003 456.365 84.6393C456.382 84.2756 456.574 83.961 456.863 83.8038L461.895 81.1399C462.166 80.9925 462.481 81.022 462.734 81.1989C462.988 81.3758 463.136 81.6904 463.136 82.0344L463.101 88.1582C463.101 88.5121 462.926 88.8365 462.656 89.0134C462.525 89.092 462.376 89.1412 462.227 89.1412ZM459.065 84.8162L461.362 86.4086L461.38 83.5875L459.065 84.8162Z" fill="#8262F9"/>
<path d="M377.921 55.6123C377.265 55.6123 376.61 55.3567 376.051 54.8358C374.985 53.843 374.434 51.9262 375.422 50.1766C375.684 49.7146 376.226 49.5868 376.628 49.8719C377.038 50.1667 377.152 50.7762 376.898 51.2283C376.427 52.0638 376.689 52.8797 377.169 53.322C377.361 53.499 378.043 54.0199 378.777 53.2336C379.126 52.86 379.677 52.8797 380.009 53.2729C380.341 53.6661 380.323 54.2952 379.974 54.6588C379.38 55.2879 378.655 55.6025 377.921 55.6025V55.6123Z" fill="#7A66F2"/>
<path d="M467.051 49.9129C466.85 49.9129 466.649 49.8343 466.492 49.6868C466.343 49.6377 465.976 49.6082 465.731 49.5787C464.866 49.5001 463.792 49.3919 463.381 48.409C462.979 47.4359 462.979 46.5119 462.97 45.8336C462.97 45.6076 462.97 45.3127 462.944 45.1652C462.874 45.1456 462.743 45.1259 462.499 45.1456H462.359C460.908 45.234 460.035 45.2832 459.432 44.5951C458.829 43.9267 458.829 42.9241 458.89 41.3514C458.916 40.8107 459.318 40.3684 459.808 40.4176C460.288 40.447 460.664 40.8992 460.638 41.4497C460.62 41.8723 460.576 43.0027 460.69 43.2386C460.812 43.278 461.555 43.2386 462.28 43.1895H462.42C462.918 43.16 463.661 43.1895 464.176 43.7301C464.718 44.3101 464.727 45.1161 464.727 45.8238C464.727 46.3644 464.727 46.9247 464.928 47.4752C465.129 47.5538 465.609 47.603 465.88 47.6226C466.596 47.6914 467.278 47.7504 467.697 48.2714C468.021 48.6744 468.003 49.2936 467.645 49.6573C467.479 49.8343 467.269 49.9129 467.06 49.9129H467.051Z" fill="#EA7FE0"/>
<path d="M22.9837 39H21.6911L25.4297 28.8182H26.7024L30.4411 39H29.1485L26.1059 30.429H26.0263L22.9837 39ZM23.461 35.0227H28.6712V36.1165H23.461V35.0227ZM31.8679 41.8636V31.3636H33.0015V32.5767H33.1407C33.2268 32.4441 33.3462 32.2751 33.4986 32.0696C33.6544 31.8608 33.8765 31.6752 34.1648 31.5128C34.4565 31.3471 34.8509 31.2642 35.348 31.2642C35.991 31.2642 36.5578 31.425 37.0483 31.7464C37.5389 32.0679 37.9217 32.5237 38.1968 33.1136C38.4719 33.7036 38.6094 34.3996 38.6094 35.2017C38.6094 36.0104 38.4719 36.7114 38.1968 37.3047C37.9217 37.8946 37.5405 38.352 37.0533 38.6768C36.5661 38.9983 36.0043 39.1591 35.3679 39.1591C34.8774 39.1591 34.4846 39.0779 34.1897 38.9155C33.8947 38.7498 33.6676 38.5625 33.5086 38.3537C33.3495 38.1416 33.2268 37.9659 33.1407 37.8267H33.0412V41.8636H31.8679ZM33.0213 35.1818C33.0213 35.7585 33.1059 36.2673 33.2749 36.7081C33.4439 37.1456 33.6908 37.4886 34.0157 37.7372C34.3405 37.9825 34.7382 38.1051 35.2088 38.1051C35.6994 38.1051 36.1087 37.9759 36.4368 37.7173C36.7683 37.4555 37.0168 37.1042 37.1826 36.6634C37.3516 36.2192 37.4361 35.7254 37.4361 35.1818C37.4361 34.6449 37.3533 34.161 37.1875 33.7301C37.0251 33.2959 36.7782 32.9529 36.4468 32.701C36.1186 32.4458 35.706 32.3182 35.2088 32.3182C34.7316 32.3182 34.3305 32.4392 34.0057 32.6811C33.6809 32.9197 33.4356 33.2545 33.2699 33.6854C33.1042 34.1129 33.0213 34.6117 33.0213 35.1818ZM40.3992 41.8636V31.3636H41.5327V32.5767H41.6719C41.7581 32.4441 41.8774 32.2751 42.0299 32.0696C42.1856 31.8608 42.4077 31.6752 42.6961 31.5128C42.9877 31.3471 43.3821 31.2642 43.8793 31.2642C44.5223 31.2642 45.089 31.425 45.5796 31.7464C46.0701 32.0679 46.4529 32.5237 46.728 33.1136C47.0031 33.7036 47.1407 34.3996 47.1407 35.2017C47.1407 36.0104 47.0031 36.7114 46.728 37.3047C46.4529 37.8946 46.0718 38.352 45.5846 38.6768C45.0973 38.9983 44.5355 39.1591 43.8992 39.1591C43.4087 39.1591 43.0159 39.0779 42.7209 38.9155C42.4259 38.7498 42.1989 38.5625 42.0398 38.3537C41.8807 38.1416 41.7581 37.9659 41.6719 37.8267H41.5725V41.8636H40.3992ZM41.5526 35.1818C41.5526 35.7585 41.6371 36.2673 41.8061 36.7081C41.9752 37.1456 42.2221 37.4886 42.5469 37.7372C42.8717 37.9825 43.2694 38.1051 43.7401 38.1051C44.2306 38.1051 44.6399 37.9759 44.9681 37.7173C45.2995 37.4555 45.5481 37.1042 45.7138 36.6634C45.8828 36.2192 45.9674 35.7254 45.9674 35.1818C45.9674 34.6449 45.8845 34.161 45.7188 33.7301C45.5564 33.2959 45.3095 32.9529 44.978 32.701C44.6499 32.4458 44.2372 32.3182 43.7401 32.3182C43.2628 32.3182 42.8618 32.4392 42.537 32.6811C42.2122 32.9197 41.9669 33.2545 41.8012 33.6854C41.6354 34.1129 41.5526 34.6117 41.5526 35.1818ZM50.1037 28.8182V39H48.9304V28.8182H50.1037ZM53.0084 41.8636C52.8095 41.8636 52.6322 41.8471 52.4764 41.8139C52.3206 41.7841 52.2129 41.7543 52.1533 41.7244L52.4516 40.6903C52.7366 40.7633 52.9885 40.7898 53.2072 40.7699C53.426 40.75 53.6199 40.6522 53.7889 40.4766C53.9613 40.3042 54.1187 40.0241 54.2612 39.6364L54.48 39.0398L51.6561 31.3636H52.9288L55.0368 37.4489H55.1163L57.2243 31.3636H58.497L55.2555 40.1136C55.1097 40.508 54.9291 40.8345 54.7136 41.093C54.4982 41.3549 54.248 41.5488 53.9629 41.6747C53.6812 41.8007 53.363 41.8636 53.0084 41.8636ZM67.3837 31.3636V32.358H63.2673V31.3636H67.3837ZM64.5002 39V30.3097C64.5002 29.8722 64.603 29.5076 64.8084 29.2159C65.0139 28.9242 65.2808 28.7055 65.6089 28.5597C65.937 28.4138 66.2834 28.3409 66.6479 28.3409C66.9363 28.3409 67.1716 28.3641 67.3539 28.4105C67.5362 28.4569 67.6721 28.5 67.7616 28.5398L67.4235 29.554C67.3638 29.5341 67.281 29.5092 67.1749 29.4794C67.0722 29.4496 66.9363 29.4347 66.7673 29.4347C66.3795 29.4347 66.0994 29.5324 65.9271 29.728C65.758 29.9235 65.6735 30.2102 65.6735 30.5881V39H64.5002ZM71.8159 39.1591C71.1265 39.1591 70.5216 38.995 70.0013 38.6669C69.4842 38.3388 69.0799 37.8797 68.7882 37.2898C68.4999 36.6998 68.3557 36.0104 68.3557 35.2216C68.3557 34.4261 68.4999 33.7318 68.7882 33.1385C69.0799 32.5452 69.4842 32.0845 70.0013 31.7564C70.5216 31.4283 71.1265 31.2642 71.8159 31.2642C72.5053 31.2642 73.1085 31.4283 73.6256 31.7564C74.1459 32.0845 74.5503 32.5452 74.8386 33.1385C75.1303 33.7318 75.2761 34.4261 75.2761 35.2216C75.2761 36.0104 75.1303 36.6998 74.8386 37.2898C74.5503 37.8797 74.1459 38.3388 73.6256 38.6669C73.1085 38.995 72.5053 39.1591 71.8159 39.1591ZM71.8159 38.1051C72.3396 38.1051 72.7705 37.9709 73.1085 37.7024C73.4466 37.4339 73.6968 37.081 73.8592 36.6435C74.0216 36.206 74.1028 35.732 74.1028 35.2216C74.1028 34.7112 74.0216 34.2356 73.8592 33.7947C73.6968 33.3539 73.4466 32.9976 73.1085 32.7259C72.7705 32.4541 72.3396 32.3182 71.8159 32.3182C71.2922 32.3182 70.8614 32.4541 70.5233 32.7259C70.1852 32.9976 69.935 33.3539 69.7726 33.7947C69.6102 34.2356 69.529 34.7112 69.529 35.2216C69.529 35.732 69.6102 36.206 69.7726 36.6435C69.935 37.081 70.1852 37.4339 70.5233 37.7024C70.8614 37.9709 71.2922 38.1051 71.8159 38.1051ZM77.0671 39V31.3636H78.2007V32.517H78.2802C78.4194 32.1392 78.6713 31.8326 79.0359 31.5973C79.4005 31.362 79.8115 31.2443 80.2689 31.2443C80.355 31.2443 80.4627 31.246 80.592 31.2493C80.7213 31.2526 80.819 31.2576 80.8853 31.2642V32.4574C80.8456 32.4474 80.7544 32.4325 80.6119 32.4126C80.4727 32.3894 80.3252 32.3778 80.1694 32.3778C79.7982 32.3778 79.4668 32.4557 79.1751 32.6115C78.8868 32.764 78.6581 32.9761 78.489 33.2479C78.3233 33.5163 78.2404 33.8229 78.2404 34.1676V39H77.0671ZM88.4608 39.179C87.9769 39.179 87.5377 39.0878 87.1433 38.9055C86.7489 38.7199 86.4357 38.4531 86.2037 38.1051C85.9717 37.7538 85.8557 37.3295 85.8557 36.8324C85.8557 36.3949 85.9419 36.0402 86.1142 35.7685C86.2866 35.4934 86.5169 35.2779 86.8053 35.1222C87.0936 34.9664 87.4118 34.8504 87.7598 34.7741C88.1111 34.6946 88.4641 34.6316 88.8187 34.5852C89.2828 34.5256 89.6589 34.4808 89.9473 34.451C90.239 34.4179 90.4511 34.3632 90.5837 34.2869C90.7196 34.2107 90.7875 34.0781 90.7875 33.8892V33.8494C90.7875 33.3589 90.6533 32.9777 90.3848 32.706C90.1196 32.4342 89.7169 32.2983 89.1767 32.2983C88.6166 32.2983 88.1774 32.4209 87.8592 32.6662C87.541 32.9115 87.3173 33.1733 87.1881 33.4517L86.0744 33.054C86.2733 32.59 86.5384 32.2287 86.8699 31.9702C87.2046 31.7083 87.5692 31.526 87.9636 31.4233C88.3614 31.3172 88.7525 31.2642 89.1369 31.2642C89.3822 31.2642 89.6639 31.294 89.9821 31.3537C90.3036 31.41 90.6135 31.5277 90.9118 31.7067C91.2134 31.8857 91.4636 32.1558 91.6625 32.517C91.8614 32.8783 91.9608 33.3622 91.9608 33.9688V39H90.7875V37.9659H90.7278C90.6483 38.1316 90.5157 38.3089 90.3301 38.4979C90.1445 38.6868 89.8976 38.8475 89.5893 38.9801C89.2811 39.1127 88.9049 39.179 88.4608 39.179ZM88.6398 38.125C89.1038 38.125 89.4949 38.0339 89.8131 37.8516C90.1346 37.6693 90.3765 37.4339 90.5389 37.1456C90.7046 36.8572 90.7875 36.554 90.7875 36.2358V35.1619C90.7378 35.2216 90.6284 35.2763 90.4594 35.326C90.2937 35.3724 90.1014 35.4138 89.8827 35.4503C89.6672 35.4834 89.4568 35.5133 89.2513 35.5398C89.0491 35.563 88.885 35.5829 88.7591 35.5994C88.4542 35.6392 88.1691 35.7038 87.904 35.7933C87.6421 35.8795 87.43 36.0104 87.2676 36.1861C87.1085 36.3584 87.029 36.5937 87.029 36.892C87.029 37.2997 87.1798 37.608 87.4814 37.8168C87.7863 38.0223 88.1724 38.125 88.6398 38.125ZM100.048 39L97.2642 28.8182H98.5171L100.645 37.1108H100.744L102.912 28.8182H104.304L106.472 37.1108H106.571L108.699 28.8182H109.952L107.168 39H105.895L103.648 30.8864H103.568L101.321 39H100.048ZM113.72 39.1591C113.031 39.1591 112.426 38.995 111.906 38.6669C111.389 38.3388 110.984 37.8797 110.693 37.2898C110.404 36.6998 110.26 36.0104 110.26 35.2216C110.26 34.4261 110.404 33.7318 110.693 33.1385C110.984 32.5452 111.389 32.0845 111.906 31.7564C112.426 31.4283 113.031 31.2642 113.72 31.2642C114.41 31.2642 115.013 31.4283 115.53 31.7564C116.05 32.0845 116.455 32.5452 116.743 33.1385C117.035 33.7318 117.18 34.4261 117.18 35.2216C117.18 36.0104 117.035 36.6998 116.743 37.2898C116.455 37.8797 116.05 38.3388 115.53 38.6669C115.013 38.995 114.41 39.1591 113.72 39.1591ZM113.72 38.1051C114.244 38.1051 114.675 37.9709 115.013 37.7024C115.351 37.4339 115.601 37.081 115.764 36.6435C115.926 36.206 116.007 35.732 116.007 35.2216C116.007 34.7112 115.926 34.2356 115.764 33.7947C115.601 33.3539 115.351 32.9976 115.013 32.7259C114.675 32.4541 114.244 32.3182 113.72 32.3182C113.197 32.3182 112.766 32.4541 112.428 32.7259C112.09 32.9976 111.839 33.3539 111.677 33.7947C111.514 34.2356 111.433 34.7112 111.433 35.2216C111.433 35.732 111.514 36.206 111.677 36.6435C111.839 37.081 112.09 37.4339 112.428 37.7024C112.766 37.9709 113.197 38.1051 113.72 38.1051ZM118.971 39V31.3636H120.105V32.517H120.185C120.324 32.1392 120.576 31.8326 120.94 31.5973C121.305 31.362 121.716 31.2443 122.173 31.2443C122.259 31.2443 122.367 31.246 122.496 31.2493C122.626 31.2526 122.723 31.2576 122.79 31.2642V32.4574C122.75 32.4474 122.659 32.4325 122.516 32.4126C122.377 32.3894 122.229 32.3778 122.074 32.3778C121.703 32.3778 121.371 32.4557 121.079 32.6115C120.791 32.764 120.562 32.9761 120.393 33.2479C120.228 33.5163 120.145 33.8229 120.145 34.1676V39H118.971ZM125.354 28.8182V39H124.18V28.8182H125.354ZM130.386 39.1591C129.75 39.1591 129.188 38.9983 128.701 38.6768C128.214 38.352 127.832 37.8946 127.557 37.3047C127.282 36.7114 127.145 36.0104 127.145 35.2017C127.145 34.3996 127.282 33.7036 127.557 33.1136C127.832 32.5237 128.215 32.0679 128.706 31.7464C129.196 31.425 129.763 31.2642 130.406 31.2642C130.903 31.2642 131.296 31.3471 131.584 31.5128C131.876 31.6752 132.098 31.8608 132.251 32.0696C132.406 32.2751 132.527 32.4441 132.613 32.5767H132.713V28.8182H133.886V39H132.753V37.8267H132.613C132.527 37.9659 132.405 38.1416 132.246 38.3537C132.087 38.5625 131.859 38.7498 131.564 38.9155C131.27 39.0779 130.877 39.1591 130.386 39.1591ZM130.545 38.1051C131.016 38.1051 131.414 37.9825 131.738 37.7372C132.063 37.4886 132.31 37.1456 132.479 36.7081C132.648 36.2673 132.733 35.7585 132.733 35.1818C132.733 34.6117 132.65 34.1129 132.484 33.6854C132.319 33.2545 132.073 32.9197 131.748 32.6811C131.424 32.4392 131.023 32.3182 130.545 32.3182C130.048 32.3182 129.634 32.4458 129.302 32.701C128.974 32.9529 128.727 33.2959 128.562 33.7301C128.399 34.161 128.318 34.6449 128.318 35.1818C128.318 35.7254 128.401 36.2192 128.567 36.6634C128.736 37.1042 128.984 37.4555 129.312 37.7173C129.644 37.9759 130.055 38.1051 130.545 38.1051ZM148.488 32H147.255C147.182 31.6454 147.054 31.3338 146.872 31.0653C146.693 30.7969 146.474 30.5715 146.216 30.3892C145.961 30.2036 145.677 30.0644 145.366 29.9716C145.054 29.8788 144.729 29.8324 144.391 29.8324C143.775 29.8324 143.216 29.9882 142.716 30.2997C142.219 30.6113 141.823 31.0703 141.528 31.6768C141.236 32.2834 141.09 33.0275 141.09 33.9091C141.09 34.7907 141.236 35.5348 141.528 36.1413C141.823 36.7479 142.219 37.2069 142.716 37.5185C143.216 37.83 143.775 37.9858 144.391 37.9858C144.729 37.9858 145.054 37.9394 145.366 37.8466C145.677 37.7538 145.961 37.6162 146.216 37.4339C146.474 37.2483 146.693 37.0213 146.872 36.7528C147.054 36.4811 147.182 36.1695 147.255 35.8182H148.488C148.395 36.3385 148.226 36.8042 147.981 37.2152C147.735 37.6262 147.43 37.9759 147.066 38.2642C146.701 38.5492 146.292 38.7663 145.838 38.9155C145.387 39.0646 144.905 39.1392 144.391 39.1392C143.523 39.1392 142.751 38.9271 142.074 38.5028C141.398 38.0786 140.866 37.4754 140.479 36.6932C140.091 35.911 139.897 34.983 139.897 33.9091C139.897 32.8352 140.091 31.9072 140.479 31.125C140.866 30.3428 141.398 29.7396 142.074 29.3153C142.751 28.8911 143.523 28.679 144.391 28.679C144.905 28.679 145.387 28.7536 145.838 28.9027C146.292 29.0518 146.701 29.2706 147.066 29.5589C147.43 29.844 147.735 30.192 147.981 30.603C148.226 31.0107 148.395 31.4763 148.488 32ZM151.494 28.8182V39H150.321V28.8182H151.494ZM155.89 39.179C155.407 39.179 154.967 39.0878 154.573 38.9055C154.179 38.7199 153.865 38.4531 153.633 38.1051C153.401 37.7538 153.285 37.3295 153.285 36.8324C153.285 36.3949 153.372 36.0402 153.544 35.7685C153.716 35.4934 153.947 35.2779 154.235 35.1222C154.523 34.9664 154.841 34.8504 155.189 34.7741C155.541 34.6946 155.894 34.6316 156.248 34.5852C156.712 34.5256 157.089 34.4808 157.377 34.451C157.669 34.4179 157.881 34.3632 158.013 34.2869C158.149 34.2107 158.217 34.0781 158.217 33.8892V33.8494C158.217 33.3589 158.083 32.9777 157.814 32.706C157.549 32.4342 157.147 32.2983 156.606 32.2983C156.046 32.2983 155.607 32.4209 155.289 32.6662C154.971 32.9115 154.747 33.1733 154.618 33.4517L153.504 33.054C153.703 32.59 153.968 32.2287 154.3 31.9702C154.634 31.7083 154.999 31.526 155.393 31.4233C155.791 31.3172 156.182 31.2642 156.567 31.2642C156.812 31.2642 157.094 31.294 157.412 31.3537C157.733 31.41 158.043 31.5277 158.341 31.7067C158.643 31.8857 158.893 32.1558 159.092 32.517C159.291 32.8783 159.39 33.3622 159.39 33.9688V39H158.217V37.9659H158.158C158.078 38.1316 157.945 38.3089 157.76 38.4979C157.574 38.6868 157.327 38.8475 157.019 38.9801C156.711 39.1127 156.335 39.179 155.89 39.179ZM156.069 38.125C156.533 38.125 156.925 38.0339 157.243 37.8516C157.564 37.6693 157.806 37.4339 157.969 37.1456C158.134 36.8572 158.217 36.554 158.217 36.2358V35.1619C158.167 35.2216 158.058 35.2763 157.889 35.326C157.723 35.3724 157.531 35.4138 157.312 35.4503C157.097 35.4834 156.886 35.5133 156.681 35.5398C156.479 35.563 156.315 35.5829 156.189 35.5994C155.884 35.6392 155.599 35.7038 155.334 35.7933C155.072 35.8795 154.86 36.0104 154.697 36.1861C154.538 36.3584 154.459 36.5937 154.459 36.892C154.459 37.2997 154.609 37.608 154.911 37.8168C155.216 38.0223 155.602 38.125 156.069 38.125ZM166.941 33.0739L165.887 33.3722C165.821 33.1965 165.723 33.0258 165.594 32.8601C165.468 32.6911 165.295 32.5518 165.077 32.4425C164.858 32.3331 164.578 32.2784 164.237 32.2784C163.769 32.2784 163.38 32.3861 163.068 32.6016C162.76 32.8137 162.606 33.0838 162.606 33.4119C162.606 33.7036 162.712 33.9339 162.924 34.103C163.136 34.272 163.468 34.4129 163.918 34.5256L165.052 34.804C165.735 34.9697 166.243 35.2232 166.578 35.5646C166.913 35.9027 167.08 36.3385 167.08 36.8722C167.08 37.3097 166.954 37.7008 166.702 38.0455C166.454 38.3902 166.106 38.6619 165.658 38.8608C165.211 39.0597 164.691 39.1591 164.097 39.1591C163.318 39.1591 162.674 38.9901 162.163 38.652C161.653 38.3139 161.33 37.8201 161.194 37.1705L162.308 36.892C162.414 37.303 162.614 37.6113 162.909 37.8168C163.207 38.0223 163.597 38.125 164.077 38.125C164.624 38.125 165.059 38.009 165.38 37.777C165.705 37.5417 165.867 37.2599 165.867 36.9318C165.867 36.6667 165.774 36.4446 165.589 36.2656C165.403 36.0833 165.118 35.9474 164.734 35.858L163.461 35.5597C162.762 35.3939 162.248 35.1371 161.92 34.7891C161.595 34.4377 161.433 33.9986 161.433 33.4716C161.433 33.0407 161.554 32.6596 161.795 32.3281C162.041 31.9967 162.374 31.7365 162.795 31.5476C163.219 31.3587 163.7 31.2642 164.237 31.2642C164.992 31.2642 165.585 31.4299 166.016 31.7614C166.451 32.0928 166.759 32.5303 166.941 33.0739ZM174.256 33.0739L173.202 33.3722C173.135 33.1965 173.037 33.0258 172.908 32.8601C172.782 32.6911 172.61 32.5518 172.391 32.4425C172.172 32.3331 171.892 32.2784 171.551 32.2784C171.084 32.2784 170.694 32.3861 170.383 32.6016C170.074 32.8137 169.92 33.0838 169.92 33.4119C169.92 33.7036 170.026 33.9339 170.238 34.103C170.451 34.272 170.782 34.4129 171.233 34.5256L172.366 34.804C173.049 34.9697 173.558 35.2232 173.893 35.5646C174.227 35.9027 174.395 36.3385 174.395 36.8722C174.395 37.3097 174.269 37.7008 174.017 38.0455C173.768 38.3902 173.42 38.6619 172.973 38.8608C172.525 39.0597 172.005 39.1591 171.412 39.1591C170.633 39.1591 169.988 38.9901 169.478 38.652C168.967 38.3139 168.644 37.8201 168.508 37.1705L169.622 36.892C169.728 37.303 169.929 37.6113 170.224 37.8168C170.522 38.0223 170.911 38.125 171.392 38.125C171.939 38.125 172.373 38.009 172.694 37.777C173.019 37.5417 173.182 37.2599 173.182 36.9318C173.182 36.6667 173.089 36.4446 172.903 36.2656C172.718 36.0833 172.433 35.9474 172.048 35.858L170.775 35.5597C170.076 35.3939 169.562 35.1371 169.234 34.7891C168.909 34.4377 168.747 33.9986 168.747 33.4716C168.747 33.0407 168.868 32.6596 169.11 32.3281C169.355 31.9967 169.688 31.7365 170.109 31.5476C170.533 31.3587 171.014 31.2642 171.551 31.2642C172.307 31.2642 172.9 31.4299 173.331 31.7614C173.765 32.0928 174.073 32.5303 174.256 33.0739Z" fill="white"/>
<path d="M37.9951 57.4347H34.8076C34.7167 56.9119 34.549 56.4489 34.3047 56.0455C34.0604 55.6364 33.7564 55.2898 33.3928 55.0057C33.0292 54.7216 32.6144 54.5085 32.1485 54.3665C31.6882 54.2188 31.1911 54.1449 30.657 54.1449C29.7081 54.1449 28.8672 54.3835 28.1343 54.8608C27.4013 55.3324 26.8274 56.0256 26.4127 56.9403C25.9979 57.8494 25.7905 58.9602 25.7905 60.2727C25.7905 61.608 25.9979 62.733 26.4127 63.6477C26.8331 64.5568 27.407 65.2443 28.1343 65.7102C28.8672 66.1705 29.7053 66.4006 30.6485 66.4006C31.1712 66.4006 31.6598 66.3324 32.1144 66.196C32.5746 66.054 32.9865 65.8466 33.3502 65.5739C33.7195 65.3011 34.0292 64.9659 34.2792 64.5682C34.5348 64.1705 34.711 63.7159 34.8076 63.2045L37.9951 63.2216C37.8757 64.0511 37.6172 64.8295 37.2195 65.5568C36.8274 66.2841 36.3132 66.9261 35.6769 67.483C35.0405 68.0341 34.2962 68.4659 33.4439 68.7784C32.5917 69.0852 31.6456 69.2386 30.6059 69.2386C29.0718 69.2386 27.7024 68.8835 26.4979 68.1733C25.2934 67.4631 24.3445 66.4375 23.6513 65.0966C22.9581 63.7557 22.6115 62.1477 22.6115 60.2727C22.6115 58.392 22.961 56.7841 23.6598 55.4489C24.3587 54.108 25.3104 53.0824 26.5149 52.3722C27.7195 51.6619 29.0831 51.3068 30.6059 51.3068C31.5774 51.3068 32.4809 51.4432 33.3161 51.7159C34.1513 51.9886 34.8956 52.3892 35.549 52.9176C36.2024 53.4403 36.7394 54.0824 37.1598 54.8438C37.586 55.5994 37.8644 56.4631 37.9951 57.4347ZM46.2245 69.2557C44.9461 69.2557 43.8382 68.9744 42.9007 68.4119C41.9632 67.8494 41.2359 67.0625 40.7188 66.0511C40.2075 65.0398 39.9518 63.858 39.9518 62.5057C39.9518 61.1534 40.2075 59.9687 40.7188 58.9517C41.2359 57.9347 41.9632 57.1449 42.9007 56.5824C43.8382 56.0199 44.9461 55.7386 46.2245 55.7386C47.5029 55.7386 48.6109 56.0199 49.5484 56.5824C50.4859 57.1449 51.2103 57.9347 51.7217 58.9517C52.2387 59.9687 52.4973 61.1534 52.4973 62.5057C52.4973 63.858 52.2387 65.0398 51.7217 66.0511C51.2103 67.0625 50.4859 67.8494 49.5484 68.4119C48.6109 68.9744 47.5029 69.2557 46.2245 69.2557ZM46.2416 66.7841C46.9347 66.7841 47.5143 66.5937 47.9802 66.2131C48.4461 65.8267 48.7927 65.3097 49.02 64.6619C49.2529 64.0142 49.3694 63.2926 49.3694 62.4972C49.3694 61.696 49.2529 60.9716 49.02 60.3239C48.7927 59.6705 48.4461 59.1506 47.9802 58.7642C47.5143 58.3778 46.9347 58.1847 46.2416 58.1847C45.5313 58.1847 44.9404 58.3778 44.4688 58.7642C44.0029 59.1506 43.6535 59.6705 43.4205 60.3239C43.1933 60.9716 43.0796 61.696 43.0796 62.4972C43.0796 63.2926 43.1933 64.0142 43.4205 64.6619C43.6535 65.3097 44.0029 65.8267 44.4688 66.2131C44.9404 66.5937 45.5313 66.7841 46.2416 66.7841ZM54.8759 69V55.9091H57.8673V58.0909H58.0037C58.2423 57.3352 58.6514 56.7528 59.231 56.3438C59.8162 55.929 60.4838 55.7216 61.2338 55.7216C61.4043 55.7216 61.5946 55.7301 61.8048 55.7472C62.0207 55.7585 62.1997 55.7784 62.3418 55.8068V58.6449C62.2111 58.5994 62.0037 58.5597 61.7196 58.5256C61.4412 58.4858 61.1713 58.4659 60.9099 58.4659C60.3474 58.4659 59.8418 58.5881 59.3929 58.8324C58.9497 59.071 58.6003 59.4034 58.3446 59.8295C58.0889 60.2557 57.9611 60.7472 57.9611 61.304V69H54.8759ZM64.1515 73.9091V55.9091H67.1856V58.0739H67.3645C67.5236 57.7557 67.7481 57.4176 68.0378 57.0597C68.3276 56.696 68.7197 56.3864 69.214 56.1307C69.7083 55.8693 70.339 55.7386 71.106 55.7386C72.1174 55.7386 73.0293 55.9972 73.8418 56.5142C74.66 57.0256 75.3077 57.7841 75.785 58.7898C76.268 59.7898 76.5094 61.017 76.5094 62.4716C76.5094 63.9091 76.2736 65.1307 75.802 66.1364C75.3305 67.142 74.6884 67.9091 73.8759 68.4375C73.0634 68.9659 72.143 69.2301 71.1145 69.2301C70.3645 69.2301 69.7424 69.1051 69.2481 68.8551C68.7538 68.6051 68.356 68.304 68.0549 67.9517C67.7594 67.5937 67.5293 67.2557 67.3645 66.9375H67.2367V73.9091H64.1515ZM67.177 62.4545C67.177 63.3011 67.2964 64.0426 67.535 64.679C67.7793 65.3153 68.1288 65.8125 68.5833 66.1705C69.0435 66.5227 69.6003 66.6989 70.2538 66.6989C70.9356 66.6989 71.5066 66.517 71.9668 66.1534C72.427 65.7841 72.7736 65.2812 73.0066 64.6449C73.2452 64.0028 73.3645 63.2727 73.3645 62.4545C73.3645 61.642 73.2481 60.9205 73.0151 60.2898C72.7822 59.6591 72.4356 59.1648 71.9753 58.8068C71.5151 58.4489 70.9413 58.2699 70.2538 58.2699C69.5947 58.2699 69.035 58.4432 68.5748 58.7898C68.1145 59.1364 67.7651 59.6222 67.5265 60.2472C67.2935 60.8722 67.177 61.608 67.177 62.4545ZM84.6217 69.2557C83.3433 69.2557 82.2353 68.9744 81.2978 68.4119C80.3603 67.8494 79.6331 67.0625 79.116 66.0511C78.6047 65.0398 78.349 63.858 78.349 62.5057C78.349 61.1534 78.6047 59.9687 79.116 58.9517C79.6331 57.9347 80.3603 57.1449 81.2978 56.5824C82.2353 56.0199 83.3433 55.7386 84.6217 55.7386C85.9001 55.7386 87.0081 56.0199 87.9456 56.5824C88.8831 57.1449 89.6075 57.9347 90.1189 58.9517C90.6359 59.9687 90.8944 61.1534 90.8944 62.5057C90.8944 63.858 90.6359 65.0398 90.1189 66.0511C89.6075 67.0625 88.8831 67.8494 87.9456 68.4119C87.0081 68.9744 85.9001 69.2557 84.6217 69.2557ZM84.6388 66.7841C85.3319 66.7841 85.9115 66.5937 86.3774 66.2131C86.8433 65.8267 87.1899 65.3097 87.4172 64.6619C87.6501 64.0142 87.7666 63.2926 87.7666 62.4972C87.7666 61.696 87.6501 60.9716 87.4172 60.3239C87.1899 59.6705 86.8433 59.1506 86.3774 58.7642C85.9115 58.3778 85.3319 58.1847 84.6388 58.1847C83.9285 58.1847 83.3376 58.3778 82.866 58.7642C82.4001 59.1506 82.0507 59.6705 81.8177 60.3239C81.5905 60.9716 81.4768 61.696 81.4768 62.4972C81.4768 63.2926 81.5905 64.0142 81.8177 64.6619C82.0507 65.3097 82.4001 65.8267 82.866 66.2131C83.3376 66.5937 83.9285 66.7841 84.6388 66.7841ZM93.273 69V55.9091H96.2645V58.0909H96.4009C96.6395 57.3352 97.0486 56.7528 97.6282 56.3438C98.2134 55.929 98.881 55.7216 99.631 55.7216C99.8015 55.7216 99.9918 55.7301 100.202 55.7472C100.418 55.7585 100.597 55.7784 100.739 55.8068V58.6449C100.608 58.5994 100.401 58.5597 100.117 58.5256C99.8384 58.4858 99.5685 58.4659 99.3071 58.4659C98.7446 58.4659 98.239 58.5881 97.7901 58.8324C97.3469 59.071 96.9975 59.4034 96.7418 59.8295C96.4861 60.2557 96.3583 60.7472 96.3583 61.304V69H93.273ZM106.081 69.2642C105.252 69.2642 104.505 69.1165 103.84 68.821C103.181 68.5199 102.658 68.0767 102.272 67.4915C101.891 66.9062 101.701 66.1847 101.701 65.3267C101.701 64.5881 101.837 63.9773 102.11 63.4943C102.382 63.0114 102.755 62.625 103.226 62.3352C103.698 62.0455 104.229 61.8267 104.82 61.679C105.417 61.5256 106.033 61.4148 106.669 61.3466C107.436 61.267 108.059 61.196 108.536 61.1335C109.013 61.0653 109.36 60.9631 109.576 60.8267C109.797 60.6847 109.908 60.4659 109.908 60.1705V60.1193C109.908 59.4773 109.718 58.9801 109.337 58.6278C108.956 58.2756 108.408 58.0994 107.692 58.0994C106.936 58.0994 106.337 58.2642 105.894 58.5938C105.456 58.9233 105.161 59.3125 105.007 59.7614L102.127 59.3523C102.354 58.5568 102.729 57.892 103.252 57.358C103.775 56.8182 104.414 56.4148 105.169 56.1477C105.925 55.875 106.76 55.7386 107.675 55.7386C108.306 55.7386 108.934 55.8125 109.559 55.9602C110.184 56.108 110.755 56.3523 111.272 56.6932C111.789 57.0284 112.203 57.4858 112.516 58.0653C112.834 58.6449 112.993 59.3693 112.993 60.2386V69H110.027V67.2017H109.925C109.738 67.5653 109.473 67.9062 109.132 68.2244C108.797 68.5369 108.374 68.7898 107.863 68.983C107.357 69.1705 106.763 69.2642 106.081 69.2642ZM106.882 66.9972C107.502 66.9972 108.039 66.875 108.493 66.6307C108.948 66.3807 109.297 66.0511 109.542 65.642C109.792 65.233 109.917 64.7869 109.917 64.304V62.7614C109.82 62.8409 109.655 62.9148 109.422 62.983C109.195 63.0511 108.939 63.1108 108.655 63.1619C108.371 63.2131 108.09 63.2585 107.811 63.2983C107.533 63.3381 107.292 63.3722 107.087 63.4006C106.627 63.4631 106.215 63.5653 105.851 63.7074C105.488 63.8494 105.201 64.0483 104.99 64.304C104.78 64.554 104.675 64.8778 104.675 65.2756C104.675 65.8438 104.882 66.2727 105.297 66.5625C105.712 66.8523 106.24 66.9972 106.882 66.9972ZM122.392 55.9091V58.2955H114.867V55.9091H122.392ZM116.725 52.7727H119.81V65.0625C119.81 65.4773 119.873 65.7955 119.998 66.017C120.128 66.233 120.299 66.3807 120.509 66.4602C120.719 66.5398 120.952 66.5795 121.208 66.5795C121.401 66.5795 121.577 66.5653 121.736 66.5369C121.901 66.5085 122.026 66.483 122.111 66.4602L122.631 68.8722C122.466 68.929 122.231 68.9915 121.924 69.0597C121.623 69.1278 121.253 69.1676 120.816 69.179C120.043 69.2017 119.347 69.0852 118.728 68.8295C118.108 68.5682 117.617 68.1648 117.253 67.6193C116.895 67.0739 116.719 66.392 116.725 65.5739V52.7727ZM130.388 69.2557C129.075 69.2557 127.942 68.983 126.987 68.4375C126.038 67.8864 125.308 67.108 124.797 66.1023C124.285 65.0909 124.03 63.9006 124.03 62.5312C124.03 61.1847 124.285 60.0028 124.797 58.9858C125.314 57.9631 126.035 57.1676 126.961 56.5994C127.888 56.0256 128.976 55.7386 130.226 55.7386C131.032 55.7386 131.794 55.8693 132.51 56.1307C133.231 56.3864 133.868 56.7841 134.419 57.3239C134.976 57.8636 135.413 58.5511 135.731 59.3864C136.049 60.2159 136.209 61.2045 136.209 62.3523V63.2983H125.478V61.2188H133.251C133.246 60.6278 133.118 60.1023 132.868 59.642C132.618 59.1761 132.268 58.8097 131.819 58.5426C131.376 58.2756 130.859 58.142 130.268 58.142C129.638 58.142 129.084 58.2955 128.606 58.6023C128.129 58.9034 127.757 59.3011 127.49 59.7955C127.228 60.2841 127.095 60.821 127.089 61.4062V63.2216C127.089 63.983 127.228 64.6364 127.507 65.1818C127.785 65.7216 128.174 66.1364 128.674 66.4261C129.174 66.7102 129.76 66.8523 130.43 66.8523C130.879 66.8523 131.285 66.7898 131.649 66.6648C132.013 66.5341 132.328 66.3438 132.595 66.0938C132.862 65.8438 133.064 65.5341 133.2 65.1648L136.081 65.4886C135.899 66.25 135.552 66.9148 135.041 67.483C134.535 68.0455 133.888 68.483 133.098 68.7955C132.308 69.1023 131.405 69.2557 130.388 69.2557ZM159.368 57.4347H156.181C156.09 56.9119 155.922 56.4489 155.678 56.0455C155.434 55.6364 155.13 55.2898 154.766 55.0057C154.403 54.7216 153.988 54.5085 153.522 54.3665C153.062 54.2188 152.565 54.1449 152.03 54.1449C151.082 54.1449 150.241 54.3835 149.508 54.8608C148.775 55.3324 148.201 56.0256 147.786 56.9403C147.371 57.8494 147.164 58.9602 147.164 60.2727C147.164 61.608 147.371 62.733 147.786 63.6477C148.207 64.5568 148.78 65.2443 149.508 65.7102C150.241 66.1705 151.079 66.4006 152.022 66.4006C152.545 66.4006 153.033 66.3324 153.488 66.196C153.948 66.054 154.36 65.8466 154.724 65.5739C155.093 65.3011 155.403 64.9659 155.653 64.5682C155.908 64.1705 156.084 63.7159 156.181 63.2045L159.368 63.2216C159.249 64.0511 158.991 64.8295 158.593 65.5568C158.201 66.2841 157.687 66.9261 157.05 67.483C156.414 68.0341 155.67 68.4659 154.817 68.7784C153.965 69.0852 153.019 69.2386 151.979 69.2386C150.445 69.2386 149.076 68.8835 147.871 68.1733C146.667 67.4631 145.718 66.4375 145.025 65.0966C144.332 63.7557 143.985 62.1477 143.985 60.2727C143.985 58.392 144.334 56.7841 145.033 55.4489C145.732 54.108 146.684 53.0824 147.888 52.3722C149.093 51.6619 150.457 51.3068 151.979 51.3068C152.951 51.3068 153.854 51.4432 154.69 51.7159C155.525 51.9886 156.269 52.3892 156.922 52.9176C157.576 53.4403 158.113 54.0824 158.533 54.8438C158.959 55.5994 159.238 56.4631 159.368 57.4347ZM161.888 69V55.9091H164.879V58.0909H165.016C165.254 57.3352 165.663 56.7528 166.243 56.3438C166.828 55.929 167.496 55.7216 168.246 55.7216C168.416 55.7216 168.606 55.7301 168.817 55.7472C169.033 55.7585 169.212 55.7784 169.354 55.8068V58.6449C169.223 58.5994 169.016 58.5597 168.731 58.5256C168.453 58.4858 168.183 58.4659 167.922 58.4659C167.359 58.4659 166.854 58.5881 166.405 58.8324C165.962 59.071 165.612 59.4034 165.356 59.8295C165.101 60.2557 164.973 60.7472 164.973 61.304V69H161.888ZM176.42 69.2557C175.107 69.2557 173.974 68.983 173.019 68.4375C172.07 67.8864 171.34 67.108 170.829 66.1023C170.317 65.0909 170.062 63.9006 170.062 62.5312C170.062 61.1847 170.317 60.0028 170.829 58.9858C171.346 57.9631 172.067 57.1676 172.994 56.5994C173.92 56.0256 175.008 55.7386 176.258 55.7386C177.065 55.7386 177.826 55.8693 178.542 56.1307C179.263 56.3864 179.9 56.7841 180.451 57.3239C181.008 57.8636 181.445 58.5511 181.763 59.3864C182.082 60.2159 182.241 61.2045 182.241 62.3523V63.2983H171.511V61.2188H179.283C179.278 60.6278 179.15 60.1023 178.9 59.642C178.65 59.1761 178.3 58.8097 177.852 58.5426C177.408 58.2756 176.891 58.142 176.3 58.142C175.67 58.142 175.116 58.2955 174.638 58.6023C174.161 58.9034 173.789 59.3011 173.522 59.7955C173.261 60.2841 173.127 60.821 173.121 61.4062V63.2216C173.121 63.983 173.261 64.6364 173.539 65.1818C173.817 65.7216 174.207 66.1364 174.707 66.4261C175.207 66.7102 175.792 66.8523 176.462 66.8523C176.911 66.8523 177.317 66.7898 177.681 66.6648C178.045 66.5341 178.36 66.3438 178.627 66.0938C178.894 65.8438 179.096 65.5341 179.232 65.1648L182.113 65.4886C181.931 66.25 181.585 66.9148 181.073 67.483C180.567 68.0455 179.92 68.483 179.13 68.7955C178.34 69.1023 177.437 69.2557 176.42 69.2557ZM189.469 69.2301C188.44 69.2301 187.52 68.9659 186.707 68.4375C185.895 67.9091 185.253 67.142 184.781 66.1364C184.31 65.1307 184.074 63.9091 184.074 62.4716C184.074 61.017 184.313 59.7898 184.79 58.7898C185.273 57.7841 185.923 57.0256 186.742 56.5142C187.56 55.9972 188.472 55.7386 189.477 55.7386C190.244 55.7386 190.875 55.8693 191.369 56.1307C191.864 56.3864 192.256 56.696 192.546 57.0597C192.835 57.4176 193.06 57.7557 193.219 58.0739H193.347V51.5455H196.44V69H193.406V66.9375H193.219C193.06 67.2557 192.83 67.5937 192.528 67.9517C192.227 68.304 191.83 68.6051 191.335 68.8551C190.841 69.1051 190.219 69.2301 189.469 69.2301ZM190.33 66.6989C190.983 66.6989 191.54 66.5227 192 66.1705C192.46 65.8125 192.81 65.3153 193.048 64.679C193.287 64.0426 193.406 63.3011 193.406 62.4545C193.406 61.608 193.287 60.8722 193.048 60.2472C192.815 59.6222 192.469 59.1364 192.009 58.7898C191.554 58.4432 190.994 58.2699 190.33 58.2699C189.642 58.2699 189.068 58.4489 188.608 58.8068C188.148 59.1648 187.801 59.6591 187.568 60.2898C187.335 60.9205 187.219 61.642 187.219 62.4545C187.219 63.2727 187.335 64.0028 187.568 64.6449C187.807 65.2812 188.156 65.7841 188.617 66.1534C189.082 66.517 189.653 66.6989 190.33 66.6989ZM199.488 69V55.9091H202.573V69H199.488ZM201.039 54.0511C200.551 54.0511 200.13 53.8892 199.778 53.5653C199.426 53.2358 199.249 52.8409 199.249 52.3807C199.249 51.9148 199.426 51.5199 199.778 51.196C200.13 50.8665 200.551 50.7017 201.039 50.7017C201.533 50.7017 201.954 50.8665 202.301 51.196C202.653 51.5199 202.829 51.9148 202.829 52.3807C202.829 52.8409 202.653 53.2358 202.301 53.5653C201.954 53.8892 201.533 54.0511 201.039 54.0511ZM212.043 55.9091V58.2955H204.517V55.9091H212.043ZM206.375 52.7727H209.46V65.0625C209.46 65.4773 209.523 65.7955 209.648 66.017C209.779 66.233 209.949 66.3807 210.159 66.4602C210.369 66.5398 210.602 66.5795 210.858 66.5795C211.051 66.5795 211.227 66.5653 211.387 66.5369C211.551 66.5085 211.676 66.483 211.762 66.4602L212.281 68.8722C212.117 68.929 211.881 68.9915 211.574 69.0597C211.273 69.1278 210.904 69.1676 210.466 69.179C209.693 69.2017 208.997 69.0852 208.378 68.8295C207.759 68.5682 207.267 68.1648 206.904 67.6193C206.546 67.0739 206.369 66.392 206.375 65.5739V52.7727ZM235.173 57.4347H231.985C231.894 56.9119 231.727 56.4489 231.483 56.0455C231.238 55.6364 230.934 55.2898 230.571 55.0057C230.207 54.7216 229.792 54.5085 229.326 54.3665C228.866 54.2188 228.369 54.1449 227.835 54.1449C226.886 54.1449 226.045 54.3835 225.312 54.8608C224.579 55.3324 224.005 56.0256 223.59 56.9403C223.176 57.8494 222.968 58.9602 222.968 60.2727C222.968 61.608 223.176 62.733 223.59 63.6477C224.011 64.5568 224.585 65.2443 225.312 65.7102C226.045 66.1705 226.883 66.4006 227.826 66.4006C228.349 66.4006 228.838 66.3324 229.292 66.196C229.752 66.054 230.164 65.8466 230.528 65.5739C230.897 65.3011 231.207 64.9659 231.457 64.5682C231.713 64.1705 231.889 63.7159 231.985 63.2045L235.173 63.2216C235.054 64.0511 234.795 64.8295 234.397 65.5568C234.005 66.2841 233.491 66.9261 232.855 67.483C232.218 68.0341 231.474 68.4659 230.622 68.7784C229.769 69.0852 228.823 69.2386 227.784 69.2386C226.25 69.2386 224.88 68.8835 223.676 68.1733C222.471 67.4631 221.522 66.4375 220.829 65.0966C220.136 63.7557 219.789 62.1477 219.789 60.2727C219.789 58.392 220.139 56.7841 220.838 55.4489C221.537 54.108 222.488 53.0824 223.693 52.3722C224.897 51.6619 226.261 51.3068 227.784 51.3068C228.755 51.3068 229.659 51.4432 230.494 51.7159C231.329 51.9886 232.073 52.3892 232.727 52.9176C233.38 53.4403 233.917 54.0824 234.338 54.8438C234.764 55.5994 235.042 56.4631 235.173 57.4347ZM241.459 69.2642C240.63 69.2642 239.882 69.1165 239.218 68.821C238.559 68.5199 238.036 68.0767 237.649 67.4915C237.269 66.9062 237.078 66.1847 237.078 65.3267C237.078 64.5881 237.215 63.9773 237.488 63.4943C237.76 63.0114 238.132 62.625 238.604 62.3352C239.076 62.0455 239.607 61.8267 240.198 61.679C240.794 61.5256 241.411 61.4148 242.047 61.3466C242.814 61.267 243.436 61.196 243.914 61.1335C244.391 61.0653 244.738 60.9631 244.953 60.8267C245.175 60.6847 245.286 60.4659 245.286 60.1705V60.1193C245.286 59.4773 245.096 58.9801 244.715 58.6278C244.334 58.2756 243.786 58.0994 243.07 58.0994C242.314 58.0994 241.715 58.2642 241.272 58.5938C240.834 58.9233 240.539 59.3125 240.385 59.7614L237.505 59.3523C237.732 58.5568 238.107 57.892 238.63 57.358C239.152 56.8182 239.792 56.4148 240.547 56.1477C241.303 55.875 242.138 55.7386 243.053 55.7386C243.684 55.7386 244.311 55.8125 244.936 55.9602C245.561 56.108 246.132 56.3523 246.649 56.6932C247.167 57.0284 247.581 57.4858 247.894 58.0653C248.212 58.6449 248.371 59.3693 248.371 60.2386V69H245.405V67.2017H245.303C245.115 67.5653 244.851 67.9062 244.51 68.2244C244.175 68.5369 243.752 68.7898 243.24 68.983C242.735 69.1705 242.141 69.2642 241.459 69.2642ZM242.26 66.9972C242.88 66.9972 243.417 66.875 243.871 66.6307C244.326 66.3807 244.675 66.0511 244.919 65.642C245.169 65.233 245.294 64.7869 245.294 64.304V62.7614C245.198 62.8409 245.033 62.9148 244.8 62.983C244.573 63.0511 244.317 63.1108 244.033 63.1619C243.749 63.2131 243.468 63.2585 243.189 63.2983C242.911 63.3381 242.669 63.3722 242.465 63.4006C242.005 63.4631 241.593 63.5653 241.229 63.7074C240.865 63.8494 240.578 64.0483 240.368 64.304C240.158 64.554 240.053 64.8778 240.053 65.2756C240.053 65.8438 240.26 66.2727 240.675 66.5625C241.09 66.8523 241.618 66.9972 242.26 66.9972ZM251.233 69V55.9091H254.225V58.0909H254.361C254.6 57.3352 255.009 56.7528 255.588 56.3438C256.174 55.929 256.841 55.7216 257.591 55.7216C257.762 55.7216 257.952 55.7301 258.162 55.7472C258.378 55.7585 258.557 55.7784 258.699 55.8068V58.6449C258.569 58.5994 258.361 58.5597 258.077 58.5256C257.799 58.4858 257.529 58.4659 257.267 58.4659C256.705 58.4659 256.199 58.5881 255.75 58.8324C255.307 59.071 254.958 59.4034 254.702 59.8295C254.446 60.2557 254.319 60.7472 254.319 61.304V69H251.233ZM264.828 69.2301C263.799 69.2301 262.879 68.9659 262.067 68.4375C261.254 67.9091 260.612 67.142 260.14 66.1364C259.669 65.1307 259.433 63.9091 259.433 62.4716C259.433 61.017 259.672 59.7898 260.149 58.7898C260.632 57.7841 261.282 57.0256 262.101 56.5142C262.919 55.9972 263.831 55.7386 264.836 55.7386C265.603 55.7386 266.234 55.8693 266.728 56.1307C267.223 56.3864 267.615 56.696 267.905 57.0597C268.194 57.4176 268.419 57.7557 268.578 58.0739H268.706V51.5455H271.799V69H268.765V66.9375H268.578C268.419 67.2557 268.189 67.5937 267.888 67.9517C267.586 68.304 267.189 68.6051 266.694 68.8551C266.2 69.1051 265.578 69.2301 264.828 69.2301ZM265.689 66.6989C266.342 66.6989 266.899 66.5227 267.359 66.1705C267.819 65.8125 268.169 65.3153 268.407 64.679C268.646 64.0426 268.765 63.3011 268.765 62.4545C268.765 61.608 268.646 60.8722 268.407 60.2472C268.174 59.6222 267.828 59.1364 267.368 58.7898C266.913 58.4432 266.353 58.2699 265.689 58.2699C265.001 58.2699 264.427 58.4489 263.967 58.8068C263.507 59.1648 263.16 59.6591 262.927 60.2898C262.694 60.9205 262.578 61.642 262.578 62.4545C262.578 63.2727 262.694 64.0028 262.927 64.6449C263.166 65.2812 263.515 65.7841 263.976 66.1534C264.442 66.517 265.013 66.6989 265.689 66.6989Z" fill="white"/>
<rect x="21.3331" y="84" width="222" height="18" rx="4" fill="#B7EFFE"/>
<path d="M27.7966 94.7855V93.8427L30.299 89.4545H31.4464L29.0015 93.7596V93.8107H32.8878V94.7855H27.7966ZM30.9191 96V94.5075L30.9446 94.076V91.9091H32.0345V96H30.9191ZM33.9089 96V95.1435L36.1813 92.9158C36.3986 92.6964 36.5798 92.5014 36.7246 92.331C36.8695 92.1605 36.9782 91.9954 37.0506 91.8356C37.1231 91.6758 37.1593 91.5053 37.1593 91.3242C37.1593 91.1175 37.1124 90.9407 37.0187 90.7937C36.9249 90.6445 36.796 90.5295 36.632 90.4485C36.4679 90.3675 36.2815 90.3271 36.0727 90.3271C35.8575 90.3271 35.6689 90.3718 35.507 90.4613C35.345 90.5487 35.2193 90.6733 35.1298 90.8352C35.0425 90.9972 34.9988 91.19 34.9988 91.4137H33.8706C33.8706 90.9982 33.9654 90.6371 34.155 90.3303C34.3447 90.0234 34.6057 89.7859 34.9381 89.6175C35.2726 89.4492 35.6561 89.3651 36.0886 89.3651C36.5276 89.3651 36.9132 89.4471 37.2456 89.6112C37.578 89.7752 37.8358 90 38.019 90.2855C38.2044 90.571 38.2971 90.897 38.2971 91.2635C38.2971 91.5085 38.2502 91.7493 38.1565 91.9858C38.0627 92.2223 37.8976 92.4844 37.6611 92.772C37.4267 93.0597 37.0975 93.408 36.6735 93.8171L35.5453 94.9645V95.0092H38.3962V96H33.9089ZM41.7951 96V89.4545H42.9809V95.006H45.8637V96H41.7951ZM48.2543 96.0991C47.9432 96.0991 47.663 96.0437 47.4137 95.9329C47.1666 95.82 46.9706 95.6538 46.8257 95.4343C46.6829 95.2148 46.6115 94.9442 46.6115 94.6225C46.6115 94.3455 46.6627 94.1165 46.7649 93.9354C46.8672 93.7543 47.0068 93.6094 47.1836 93.5007C47.3605 93.392 47.5597 93.31 47.7813 93.2546C48.005 93.1971 48.2362 93.1555 48.4748 93.13C48.7625 93.1001 48.9958 93.0735 49.1747 93.0501C49.3537 93.0245 49.4837 92.9862 49.5647 92.935C49.6478 92.8817 49.6893 92.7997 49.6893 92.6889V92.6697C49.6893 92.429 49.6179 92.2425 49.4752 92.1104C49.3324 91.9783 49.1268 91.9123 48.8583 91.9123C48.575 91.9123 48.3502 91.9741 48.184 92.0977C48.0199 92.2212 47.9091 92.3672 47.8516 92.5355L46.7713 92.3821C46.8566 92.0838 46.9972 91.8345 47.1932 91.6342C47.3892 91.4318 47.6289 91.2805 47.9123 91.1804C48.1957 91.0781 48.5089 91.027 48.852 91.027C49.0885 91.027 49.3239 91.0547 49.5583 91.1101C49.7926 91.1655 50.0068 91.2571 50.2007 91.3849C50.3946 91.5107 50.5501 91.6822 50.6673 91.8995C50.7866 92.1168 50.8463 92.3885 50.8463 92.7145V96H49.7341V95.3256H49.6957C49.6254 95.462 49.5263 95.5898 49.3985 95.7092C49.2728 95.8263 49.114 95.9212 48.9223 95.9936C48.7326 96.0639 48.51 96.0991 48.2543 96.0991ZM48.5547 95.2489C48.787 95.2489 48.9883 95.2031 49.1588 95.1115C49.3292 95.0178 49.4603 94.8942 49.5519 94.7408C49.6456 94.5874 49.6925 94.4201 49.6925 94.239V93.6605C49.6563 93.6903 49.5945 93.718 49.5071 93.7436C49.4219 93.7692 49.326 93.7915 49.2195 93.8107C49.113 93.8299 49.0075 93.8469 48.9031 93.8619C48.7987 93.8768 48.7081 93.8896 48.6314 93.9002C48.4588 93.9237 48.3044 93.962 48.168 94.0153C48.0316 94.0685 47.924 94.1431 47.8452 94.239C47.7664 94.3327 47.727 94.4542 47.727 94.6033C47.727 94.8164 47.8047 94.9773 47.9603 95.0859C48.1158 95.1946 48.314 95.2489 48.5547 95.2489ZM53.0643 94.4595L53.0611 93.0629H53.2465L55.0107 91.0909H56.3626L54.1925 93.5071H53.9528L53.0643 94.4595ZM52.0096 96V89.4545H53.1666V96H52.0096ZM55.0906 96L53.4926 93.766L54.2724 92.951L56.4745 96H55.0906ZM58.2906 93.1236V96H57.1336V89.4545H58.265V91.9251H58.3226C58.4376 91.6481 58.6155 91.4297 58.8563 91.2699C59.0992 91.108 59.4081 91.027 59.7831 91.027C60.1241 91.027 60.4213 91.0984 60.6748 91.2411C60.9284 91.3839 61.1244 91.5927 61.2629 91.8675C61.4035 92.1424 61.4738 92.478 61.4738 92.8743V96H60.3169V93.0533C60.3169 92.723 60.2317 92.4663 60.0612 92.283C59.8929 92.0977 59.6564 92.005 59.3517 92.005C59.1471 92.005 58.9639 92.0497 58.802 92.1392C58.6422 92.2266 58.5165 92.3533 58.4248 92.5195C58.3353 92.6857 58.2906 92.8871 58.2906 93.1236ZM64.5836 95.6133V91.19H65.5871V95.6133H64.5836ZM62.8737 93.9034V92.8999H67.297V93.9034H62.8737ZM73.0826 96.0959C72.5925 96.0959 72.1717 95.9883 71.8202 95.7731C71.4707 95.5579 71.2012 95.2607 71.0116 94.8814C70.8241 94.5 70.7303 94.0611 70.7303 93.5646C70.7303 93.0661 70.8262 92.6261 71.018 92.2447C71.2097 91.8612 71.4803 91.5629 71.8298 91.3498C72.1813 91.1346 72.5968 91.027 73.0762 91.027C73.4746 91.027 73.8273 91.1005 74.1341 91.2475C74.443 91.3924 74.6891 91.598 74.8724 91.8643C75.0556 92.1286 75.16 92.4375 75.1856 92.7912H74.0798C74.035 92.5547 73.9285 92.3576 73.7602 92.1999C73.594 92.0401 73.3713 91.9602 73.0922 91.9602C72.8557 91.9602 72.6479 92.0241 72.469 92.152C72.29 92.2777 72.1504 92.4588 72.0503 92.6953C71.9523 92.9318 71.9033 93.2152 71.9033 93.5455C71.9033 93.88 71.9523 94.1676 72.0503 94.4084C72.1483 94.647 72.2857 94.8313 72.4626 94.9613C72.6415 95.0891 72.8514 95.1531 73.0922 95.1531C73.2626 95.1531 73.415 95.1211 73.5492 95.0572C73.6856 94.9911 73.7996 94.8963 73.8912 94.7727C73.9828 94.6491 74.0457 94.4989 74.0798 94.3221H75.1856C75.1579 94.6694 75.0556 94.9773 74.8788 95.2457C74.7019 95.5121 74.4611 95.7209 74.1565 95.8722C73.8518 96.0213 73.4938 96.0959 73.0826 96.0959ZM79.2645 93.9354V91.0909H80.4215V96H79.2997V95.1275H79.2485C79.1377 95.4023 78.9556 95.6271 78.702 95.8018C78.4506 95.9766 78.1406 96.0639 77.772 96.0639C77.4502 96.0639 77.1658 95.9925 76.9186 95.8498C76.6736 95.7049 76.4818 95.495 76.3433 95.2202C76.2048 94.9432 76.1356 94.6087 76.1356 94.2166V91.0909H77.2926V94.0376C77.2926 94.3487 77.3778 94.5959 77.5482 94.7791C77.7187 94.9624 77.9424 95.054 78.2194 95.054C78.3899 95.054 78.555 95.0124 78.7148 94.9293C78.8746 94.8462 79.0056 94.7227 79.1079 94.5586C79.2123 94.3924 79.2645 94.1847 79.2645 93.9354ZM85.4912 92.3885L84.4365 92.5036C84.4066 92.397 84.3544 92.2969 84.2799 92.2031C84.2074 92.1094 84.1094 92.0337 83.9858 91.9762C83.8622 91.9187 83.711 91.8899 83.532 91.8899C83.2912 91.8899 83.0888 91.9421 82.9247 92.0465C82.7628 92.1509 82.6829 92.2862 82.685 92.4524C82.6829 92.5952 82.7351 92.7113 82.8417 92.8008C82.9503 92.8903 83.1293 92.9638 83.3786 93.0213L84.2159 93.2003C84.6804 93.3004 85.0256 93.4592 85.2515 93.6765C85.4794 93.8938 85.5945 94.1783 85.5966 94.5298C85.5945 94.8388 85.5039 95.1115 85.325 95.348C85.1481 95.5824 84.902 95.7656 84.5867 95.8977C84.2713 96.0298 83.9091 96.0959 83.5 96.0959C82.8992 96.0959 82.4155 95.9702 82.049 95.7188C81.6826 95.4652 81.4642 95.1126 81.3939 94.6609L82.5221 94.5522C82.5732 94.7738 82.6819 94.9411 82.848 95.054C83.0142 95.1669 83.2305 95.2234 83.4968 95.2234C83.7717 95.2234 83.9922 95.1669 84.1584 95.054C84.3267 94.9411 84.4109 94.8015 84.4109 94.6353C84.4109 94.4947 84.3566 94.3786 84.2479 94.2869C84.1414 94.1953 83.9752 94.125 83.7493 94.076L82.912 93.9002C82.4411 93.8022 82.0927 93.6371 81.8669 93.4048C81.641 93.1705 81.5292 92.8743 81.5313 92.5163C81.5292 92.2138 81.6112 91.9517 81.7774 91.7301C81.9457 91.5064 82.179 91.3338 82.4773 91.2124C82.7777 91.0888 83.124 91.027 83.516 91.027C84.0913 91.027 84.5441 91.1495 84.8743 91.3945C85.2067 91.6396 85.4123 91.9709 85.4912 92.3885ZM89.002 91.0909V91.9858H86.1799V91.0909H89.002ZM86.8766 89.9148H88.0336V94.5234C88.0336 94.679 88.057 94.7983 88.1039 94.8814C88.1529 94.9624 88.2168 95.0178 88.2957 95.0476C88.3745 95.0774 88.4619 95.0923 88.5577 95.0923C88.6302 95.0923 88.6962 95.087 88.7559 95.0763C88.8177 95.0657 88.8646 95.0561 88.8965 95.0476L89.0915 95.9521C89.0297 95.9734 88.9413 95.9968 88.8262 96.0224C88.7133 96.0479 88.5748 96.0629 88.4107 96.0671C88.1209 96.0756 87.8599 96.032 87.6277 95.9361C87.3955 95.8381 87.2111 95.6868 87.0748 95.4822C86.9406 95.2777 86.8745 95.022 86.8766 94.7152V89.9148ZM92.0582 96.0959C91.5788 96.0959 91.1633 95.9904 90.8117 95.7795C90.4602 95.5685 90.1874 95.2734 89.9936 94.8942C89.8018 94.5149 89.7059 94.0717 89.7059 93.5646C89.7059 93.0575 89.8018 92.6133 89.9936 92.2319C90.1874 91.8505 90.4602 91.5543 90.8117 91.3434C91.1633 91.1325 91.5788 91.027 92.0582 91.027C92.5376 91.027 92.9531 91.1325 93.3046 91.3434C93.6562 91.5543 93.9279 91.8505 94.1196 92.2319C94.3135 92.6133 94.4105 93.0575 94.4105 93.5646C94.4105 94.0717 94.3135 94.5149 94.1196 94.8942C93.9279 95.2734 93.6562 95.5685 93.3046 95.7795C92.9531 95.9904 92.5376 96.0959 92.0582 96.0959ZM92.0646 95.169C92.3245 95.169 92.5418 95.0977 92.7166 94.9549C92.8913 94.81 93.0213 94.6161 93.1065 94.3732C93.1938 94.1303 93.2375 93.8597 93.2375 93.5614C93.2375 93.261 93.1938 92.9893 93.1065 92.7464C93.0213 92.5014 92.8913 92.3065 92.7166 92.1616C92.5418 92.0167 92.3245 91.9442 92.0646 91.9442C91.7982 91.9442 91.5766 92.0167 91.3998 92.1616C91.2251 92.3065 91.094 92.5014 91.0067 92.7464C90.9215 92.9893 90.8789 93.261 90.8789 93.5614C90.8789 93.8597 90.9215 94.1303 91.0067 94.3732C91.094 94.6161 91.2251 94.81 91.3998 94.9549C91.5766 95.0977 91.7982 95.169 92.0646 95.169ZM95.3924 96V91.0909H96.4983V91.9251H96.5558C96.6581 91.6438 96.8274 91.4244 97.064 91.2667C97.3005 91.1069 97.5828 91.027 97.9109 91.027C98.2433 91.027 98.5235 91.108 98.7515 91.2699C98.9816 91.4297 99.1435 91.6481 99.2372 91.9251H99.2884C99.3971 91.6523 99.5803 91.435 99.8381 91.2731C100.098 91.109 100.406 91.027 100.762 91.027C101.213 91.027 101.582 91.1697 101.868 91.4553C102.153 91.7408 102.296 92.1573 102.296 92.7049V96H101.136V92.8839C101.136 92.5792 101.055 92.3565 100.893 92.2159C100.731 92.0732 100.533 92.0018 100.298 92.0018C100.019 92.0018 99.8008 92.0891 99.6431 92.2638C99.4876 92.4364 99.4098 92.6612 99.4098 92.9382V96H98.2752V92.8359C98.2752 92.5824 98.1985 92.38 98.0451 92.2287C97.8939 92.0774 97.6957 92.0018 97.4507 92.0018C97.2845 92.0018 97.1332 92.0444 96.9968 92.1296C96.8605 92.2127 96.7518 92.331 96.6708 92.4844C96.5899 92.6357 96.5494 92.8125 96.5494 93.0149V96H95.3924ZM105.643 96.0959C105.151 96.0959 104.726 95.9936 104.368 95.7891C104.012 95.5824 103.738 95.2905 103.546 94.9134C103.355 94.5341 103.259 94.0877 103.259 93.5742C103.259 93.0692 103.355 92.6261 103.546 92.2447C103.74 91.8612 104.011 91.5629 104.358 91.3498C104.705 91.1346 105.113 91.027 105.582 91.027C105.885 91.027 106.17 91.076 106.439 91.174C106.709 91.2699 106.948 91.419 107.155 91.6214C107.363 91.8239 107.527 92.0817 107.647 92.3949C107.766 92.706 107.826 93.0767 107.826 93.5071V93.8619H103.802V93.082H106.717C106.715 92.8604 106.667 92.6634 106.573 92.4908C106.479 92.3161 106.348 92.1786 106.18 92.0785C106.014 91.9783 105.82 91.9283 105.598 91.9283C105.362 91.9283 105.154 91.9858 104.975 92.1009C104.796 92.2138 104.656 92.3629 104.556 92.5483C104.458 92.7315 104.408 92.9329 104.406 93.1523V93.8331C104.406 94.1186 104.458 94.3636 104.563 94.5682C104.667 94.7706 104.813 94.9261 105 95.0348C105.188 95.1413 105.407 95.1946 105.659 95.1946C105.827 95.1946 105.98 95.1712 106.116 95.1243C106.252 95.0753 106.371 95.0039 106.471 94.9102C106.571 94.8164 106.646 94.7003 106.698 94.5618L107.778 94.6832C107.71 94.9687 107.58 95.218 107.388 95.4311C107.198 95.642 106.955 95.8061 106.659 95.9233C106.363 96.0384 106.024 96.0959 105.643 96.0959ZM108.805 96V91.0909H109.926V91.9091H109.977C110.067 91.6257 110.22 91.4073 110.438 91.2539C110.657 91.0984 110.908 91.0206 111.189 91.0206C111.253 91.0206 111.324 91.0238 111.403 91.0302C111.484 91.0344 111.551 91.0419 111.604 91.0526V92.1168C111.555 92.0998 111.477 92.0849 111.371 92.0721C111.267 92.0572 111.165 92.0497 111.067 92.0497C110.856 92.0497 110.667 92.0955 110.498 92.1871C110.332 92.2766 110.201 92.4013 110.105 92.5611C110.009 92.7209 109.962 92.9052 109.962 93.114V96H108.805ZM116.253 92.3885L115.198 92.5036C115.168 92.397 115.116 92.2969 115.042 92.2031C114.969 92.1094 114.871 92.0337 114.748 91.9762C114.624 91.9187 114.473 91.8899 114.294 91.8899C114.053 91.8899 113.851 91.9421 113.686 92.0465C113.525 92.1509 113.445 92.2862 113.447 92.4524C113.445 92.5952 113.497 92.7113 113.603 92.8008C113.712 92.8903 113.891 92.9638 114.14 93.0213L114.978 93.2003C115.442 93.3004 115.787 93.4592 116.013 93.6765C116.241 93.8938 116.356 94.1783 116.358 94.5298C116.356 94.8388 116.266 95.1115 116.087 95.348C115.91 95.5824 115.664 95.7656 115.348 95.8977C115.033 96.0298 114.671 96.0959 114.262 96.0959C113.661 96.0959 113.177 95.9702 112.811 95.7188C112.444 95.4652 112.226 95.1126 112.156 94.6609L113.284 94.5522C113.335 94.7738 113.444 94.9411 113.61 95.054C113.776 95.1669 113.992 95.2234 114.259 95.2234C114.533 95.2234 114.754 95.1669 114.92 95.054C115.088 94.9411 115.173 94.8015 115.173 94.6353C115.173 94.4947 115.118 94.3786 115.01 94.2869C114.903 94.1953 114.737 94.125 114.511 94.076L113.674 93.9002C113.203 93.8022 112.854 93.6371 112.629 93.4048C112.403 93.1705 112.291 92.8743 112.293 92.5163C112.291 92.2138 112.373 91.9517 112.539 91.7301C112.707 91.5064 112.941 91.3338 113.239 91.2124C113.539 91.0888 113.886 91.027 114.278 91.027C114.853 91.027 115.306 91.1495 115.636 91.3945C115.968 91.6396 116.174 91.9709 116.253 92.3885Z" fill="#004B8D"/>
<path d="M120.778 93.0469V96H120.023V89.4545H120.778V91.858H120.842C120.957 91.6044 121.129 91.4031 121.359 91.2539C121.592 91.1026 121.901 91.027 122.286 91.027C122.621 91.027 122.914 91.0941 123.165 91.2283C123.417 91.3604 123.612 91.5639 123.75 91.8388C123.891 92.1115 123.961 92.4588 123.961 92.8807V96H123.207V92.9318C123.207 92.5419 123.106 92.2404 122.903 92.0273C122.703 91.8121 122.425 91.7045 122.069 91.7045C121.822 91.7045 121.6 91.7567 121.404 91.8612C121.21 91.9656 121.057 92.1179 120.944 92.3182C120.833 92.5185 120.778 92.7614 120.778 93.0469ZM126.785 96.1151C126.474 96.1151 126.192 96.0565 125.939 95.9393C125.685 95.82 125.484 95.6484 125.334 95.4247C125.185 95.1989 125.111 94.9261 125.111 94.6065C125.111 94.3253 125.166 94.0973 125.277 93.9226C125.388 93.7457 125.536 93.6072 125.721 93.5071C125.907 93.407 126.111 93.3324 126.335 93.2834C126.561 93.2322 126.788 93.1918 127.016 93.1619C127.314 93.1236 127.556 93.0948 127.741 93.0756C127.929 93.0543 128.065 93.0192 128.15 92.9702C128.238 92.9212 128.281 92.8359 128.281 92.7145V92.6889C128.281 92.3736 128.195 92.1286 128.022 91.9538C127.852 91.7791 127.593 91.6918 127.246 91.6918C126.886 91.6918 126.603 91.7706 126.399 91.9283C126.194 92.0859 126.05 92.2543 125.967 92.4332L125.251 92.1776C125.379 91.8793 125.55 91.647 125.763 91.4808C125.978 91.3125 126.212 91.1953 126.466 91.1293C126.722 91.0611 126.973 91.027 127.22 91.027C127.378 91.027 127.559 91.0462 127.763 91.0845C127.97 91.1207 128.169 91.1964 128.361 91.3114C128.555 91.4265 128.716 91.6001 128.844 91.8324C128.972 92.0646 129.035 92.3757 129.035 92.7656V96H128.281V95.3352H128.243C128.192 95.4418 128.106 95.5558 127.987 95.6772C127.868 95.7987 127.709 95.902 127.511 95.9872C127.313 96.0724 127.071 96.1151 126.785 96.1151ZM126.901 95.4375C127.199 95.4375 127.45 95.3789 127.655 95.2617C127.861 95.1445 128.017 94.9933 128.121 94.8079C128.228 94.6225 128.281 94.4276 128.281 94.223V93.5327C128.249 93.571 128.179 93.6062 128.07 93.6381C127.964 93.668 127.84 93.6946 127.7 93.718C127.561 93.7393 127.426 93.7585 127.294 93.7756C127.164 93.7905 127.058 93.8033 126.977 93.8139C126.781 93.8395 126.598 93.881 126.428 93.9386C126.259 93.994 126.123 94.0781 126.018 94.1911C125.916 94.3018 125.865 94.4531 125.865 94.6449C125.865 94.907 125.962 95.1051 126.156 95.2393C126.352 95.3714 126.6 95.4375 126.901 95.4375ZM134.251 91.0909L132.435 96H131.668L129.853 91.0909H130.671L132.026 95.0028H132.077L133.432 91.0909H134.251ZM137.129 96.1023C136.656 96.1023 136.248 95.9979 135.905 95.7891C135.564 95.5781 135.3 95.2841 135.115 94.907C134.932 94.5277 134.84 94.0866 134.84 93.5838C134.84 93.081 134.932 92.6378 135.115 92.2543C135.3 91.8686 135.558 91.5682 135.889 91.353C136.221 91.1357 136.609 91.027 137.052 91.027C137.308 91.027 137.56 91.0696 137.809 91.1548C138.059 91.2401 138.286 91.3786 138.49 91.5703C138.695 91.7599 138.858 92.0114 138.979 92.3246C139.101 92.6378 139.161 93.0234 139.161 93.4815V93.8011H135.377V93.1491H138.394C138.394 92.8722 138.339 92.625 138.228 92.4077C138.119 92.1903 137.964 92.0188 137.761 91.8931C137.561 91.7674 137.325 91.7045 137.052 91.7045C136.751 91.7045 136.492 91.7791 136.272 91.9283C136.055 92.0753 135.887 92.267 135.77 92.5036C135.653 92.7401 135.594 92.9936 135.594 93.2642V93.6989C135.594 94.0696 135.658 94.3839 135.786 94.6417C135.916 94.8974 136.096 95.0923 136.326 95.2266C136.556 95.3587 136.824 95.4247 137.129 95.4247C137.327 95.4247 137.506 95.397 137.666 95.3416C137.827 95.2841 137.967 95.1989 138.084 95.0859C138.201 94.9709 138.292 94.8281 138.356 94.6577L139.085 94.8622C139.008 95.1094 138.879 95.3267 138.698 95.5142C138.517 95.6996 138.293 95.8445 138.027 95.9489C137.76 96.0511 137.461 96.1023 137.129 96.1023ZM144.284 96.1151C143.973 96.1151 143.691 96.0565 143.438 95.9393C143.184 95.82 142.983 95.6484 142.833 95.4247C142.684 95.1989 142.61 94.9261 142.61 94.6065C142.61 94.3253 142.665 94.0973 142.776 93.9226C142.887 93.7457 143.035 93.6072 143.22 93.5071C143.406 93.407 143.61 93.3324 143.834 93.2834C144.06 93.2322 144.287 93.1918 144.515 93.1619C144.813 93.1236 145.055 93.0948 145.24 93.0756C145.428 93.0543 145.564 93.0192 145.649 92.9702C145.737 92.9212 145.78 92.8359 145.78 92.7145V92.6889C145.78 92.3736 145.694 92.1286 145.521 91.9538C145.351 91.7791 145.092 91.6918 144.745 91.6918C144.385 91.6918 144.102 91.7706 143.898 91.9283C143.693 92.0859 143.549 92.2543 143.466 92.4332L142.75 92.1776C142.878 91.8793 143.049 91.647 143.262 91.4808C143.477 91.3125 143.711 91.1953 143.965 91.1293C144.221 91.0611 144.472 91.027 144.719 91.027C144.877 91.027 145.058 91.0462 145.262 91.0845C145.469 91.1207 145.668 91.1964 145.86 91.3114C146.054 91.4265 146.215 91.6001 146.343 91.8324C146.471 92.0646 146.534 92.3757 146.534 92.7656V96H145.78V95.3352H145.742C145.691 95.4418 145.606 95.5558 145.486 95.6772C145.367 95.7987 145.208 95.902 145.01 95.9872C144.812 96.0724 144.57 96.1151 144.284 96.1151ZM144.4 95.4375C144.698 95.4375 144.949 95.3789 145.154 95.2617C145.36 95.1445 145.516 94.9933 145.62 94.8079C145.727 94.6225 145.78 94.4276 145.78 94.223V93.5327C145.748 93.571 145.678 93.6062 145.569 93.6381C145.463 93.668 145.339 93.6946 145.199 93.718C145.06 93.7393 144.925 93.7585 144.793 93.7756C144.663 93.7905 144.557 93.8033 144.476 93.8139C144.28 93.8395 144.097 93.881 143.927 93.9386C143.758 93.994 143.622 94.0781 143.517 94.1911C143.415 94.3018 143.364 94.4531 143.364 94.6449C143.364 94.907 143.461 95.1051 143.655 95.2393C143.851 95.3714 144.099 95.4375 144.4 95.4375ZM148.665 89.4545V96H147.911V89.4545H148.665ZM150.047 96V91.0909H150.776V91.8324H150.827C150.916 91.5895 151.078 91.3924 151.313 91.2411C151.547 91.0898 151.811 91.0142 152.105 91.0142C152.161 91.0142 152.23 91.0153 152.313 91.0174C152.396 91.0195 152.459 91.0227 152.501 91.027V91.794C152.476 91.7876 152.417 91.7781 152.326 91.7653C152.236 91.7504 152.141 91.7429 152.041 91.7429C151.803 91.7429 151.59 91.793 151.402 91.8931C151.217 91.9911 151.07 92.1275 150.961 92.3022C150.854 92.4748 150.801 92.6719 150.801 92.8935V96H150.047ZM155.304 96.1023C154.831 96.1023 154.423 95.9979 154.08 95.7891C153.739 95.5781 153.476 95.2841 153.291 94.907C153.108 94.5277 153.016 94.0866 153.016 93.5838C153.016 93.081 153.108 92.6378 153.291 92.2543C153.476 91.8686 153.734 91.5682 154.064 91.353C154.397 91.1357 154.784 91.027 155.228 91.027C155.483 91.027 155.736 91.0696 155.985 91.1548C156.234 91.2401 156.461 91.3786 156.666 91.5703C156.87 91.7599 157.033 92.0114 157.155 92.3246C157.276 92.6378 157.337 93.0234 157.337 93.4815V93.8011H153.553V93.1491H156.57C156.57 92.8722 156.515 92.625 156.404 92.4077C156.295 92.1903 156.14 92.0188 155.937 91.8931C155.737 91.7674 155.5 91.7045 155.228 91.7045C154.927 91.7045 154.667 91.7791 154.448 91.9283C154.231 92.0753 154.063 92.267 153.946 92.5036C153.829 92.7401 153.77 92.9936 153.77 93.2642V93.6989C153.77 94.0696 153.834 94.3839 153.962 94.6417C154.092 94.8974 154.272 95.0923 154.502 95.2266C154.732 95.3587 155 95.4247 155.304 95.4247C155.503 95.4247 155.681 95.397 155.841 95.3416C156.003 95.2841 156.143 95.1989 156.26 95.0859C156.377 94.9709 156.468 94.8281 156.532 94.6577L157.26 94.8622C157.184 95.1094 157.055 95.3267 156.874 95.5142C156.693 95.6996 156.469 95.8445 156.202 95.9489C155.936 96.0511 155.637 96.1023 155.304 96.1023ZM159.929 96.1151C159.618 96.1151 159.336 96.0565 159.082 95.9393C158.829 95.82 158.627 95.6484 158.478 95.4247C158.329 95.1989 158.254 94.9261 158.254 94.6065C158.254 94.3253 158.31 94.0973 158.42 93.9226C158.531 93.7457 158.679 93.6072 158.865 93.5071C159.05 93.407 159.255 93.3324 159.478 93.2834C159.704 93.2322 159.931 93.1918 160.159 93.1619C160.457 93.1236 160.699 93.0948 160.885 93.0756C161.072 93.0543 161.208 93.0192 161.294 92.9702C161.381 92.9212 161.425 92.8359 161.425 92.7145V92.6889C161.425 92.3736 161.338 92.1286 161.166 91.9538C160.995 91.7791 160.737 91.6918 160.389 91.6918C160.029 91.6918 159.747 91.7706 159.542 91.9283C159.338 92.0859 159.194 92.2543 159.111 92.4332L158.395 92.1776C158.523 91.8793 158.693 91.647 158.906 91.4808C159.121 91.3125 159.356 91.1953 159.609 91.1293C159.865 91.0611 160.117 91.027 160.364 91.027C160.521 91.027 160.702 91.0462 160.907 91.0845C161.114 91.1207 161.313 91.1964 161.505 91.3114C161.699 91.4265 161.859 91.6001 161.987 91.8324C162.115 92.0646 162.179 92.3757 162.179 92.7656V96H161.425V95.3352H161.386C161.335 95.4418 161.25 95.5558 161.131 95.6772C161.011 95.7987 160.853 95.902 160.655 95.9872C160.456 96.0724 160.215 96.1151 159.929 96.1151ZM160.044 95.4375C160.342 95.4375 160.594 95.3789 160.798 95.2617C161.005 95.1445 161.161 94.9933 161.265 94.8079C161.371 94.6225 161.425 94.4276 161.425 94.223V93.5327C161.393 93.571 161.322 93.6062 161.214 93.6381C161.107 93.668 160.984 93.6946 160.843 93.718C160.705 93.7393 160.569 93.7585 160.437 93.7756C160.307 93.7905 160.202 93.8033 160.121 93.8139C159.925 93.8395 159.742 93.881 159.571 93.9386C159.403 93.994 159.266 94.0781 159.162 94.1911C159.06 94.3018 159.009 94.4531 159.009 94.6449C159.009 94.907 159.106 95.1051 159.299 95.2393C159.495 95.3714 159.744 95.4375 160.044 95.4375ZM165.409 96.1023C165 96.1023 164.639 95.9989 164.326 95.7923C164.013 95.5835 163.768 95.2894 163.591 94.9102C163.414 94.5288 163.326 94.0781 163.326 93.5582C163.326 93.0426 163.414 92.5952 163.591 92.2159C163.768 91.8366 164.014 91.5437 164.329 91.337C164.644 91.1303 165.009 91.027 165.422 91.027C165.742 91.027 165.994 91.0803 166.18 91.1868C166.367 91.2912 166.51 91.4105 166.608 91.5447C166.708 91.6768 166.786 91.7855 166.841 91.8707H166.905V89.4545H167.659V96H166.931V95.2457H166.841C166.786 95.3352 166.707 95.4482 166.605 95.5845C166.502 95.7187 166.356 95.8391 166.167 95.9457C165.977 96.0501 165.725 96.1023 165.409 96.1023ZM165.512 95.4247C165.814 95.4247 166.07 95.3459 166.279 95.1882C166.488 95.0284 166.646 94.8079 166.755 94.5266C166.864 94.2433 166.918 93.9162 166.918 93.5455C166.918 93.179 166.865 92.8583 166.758 92.5835C166.652 92.3065 166.494 92.0913 166.285 91.9379C166.076 91.7823 165.818 91.7045 165.512 91.7045C165.192 91.7045 164.926 91.7866 164.713 91.9506C164.502 92.1126 164.343 92.3331 164.236 92.6122C164.132 92.8892 164.08 93.2003 164.08 93.5455C164.08 93.8949 164.133 94.2124 164.24 94.4979C164.348 94.7812 164.508 95.0071 164.719 95.1754C164.932 95.3416 165.196 95.4247 165.512 95.4247ZM169.631 97.8409C169.503 97.8409 169.39 97.8303 169.289 97.8089C169.189 97.7898 169.12 97.7706 169.082 97.7514L169.273 97.0866C169.457 97.1335 169.619 97.1506 169.759 97.1378C169.9 97.125 170.024 97.0621 170.133 96.9492C170.244 96.8384 170.345 96.6584 170.437 96.4091L170.577 96.0256L168.762 91.0909H169.58L170.935 95.0028H170.986L172.342 91.0909H173.16L171.076 96.7159C170.982 96.9695 170.866 97.1793 170.728 97.3455C170.589 97.5138 170.428 97.6385 170.245 97.7195C170.064 97.8004 169.859 97.8409 169.631 97.8409ZM178.745 96.1023C178.272 96.1023 177.864 95.9979 177.521 95.7891C177.18 95.5781 176.917 95.2841 176.731 94.907C176.548 94.5277 176.456 94.0866 176.456 93.5838C176.456 93.081 176.548 92.6378 176.731 92.2543C176.917 91.8686 177.174 91.5682 177.505 91.353C177.837 91.1357 178.225 91.027 178.668 91.027C178.924 91.027 179.176 91.0696 179.426 91.1548C179.675 91.2401 179.902 91.3786 180.106 91.5703C180.311 91.7599 180.474 92.0114 180.595 92.3246C180.717 92.6378 180.777 93.0234 180.777 93.4815V93.8011H176.993V93.1491H180.01C180.01 92.8722 179.955 92.625 179.844 92.4077C179.736 92.1903 179.58 92.0188 179.378 91.8931C179.177 91.7674 178.941 91.7045 178.668 91.7045C178.368 91.7045 178.108 91.7791 177.888 91.9283C177.671 92.0753 177.504 92.267 177.386 92.5036C177.269 92.7401 177.211 92.9936 177.211 93.2642V93.6989C177.211 94.0696 177.275 94.3839 177.402 94.6417C177.532 94.8974 177.712 95.0923 177.943 95.2266C178.173 95.3587 178.44 95.4247 178.745 95.4247C178.943 95.4247 179.122 95.397 179.282 95.3416C179.444 95.2841 179.583 95.1989 179.7 95.0859C179.818 94.9709 179.908 94.8281 179.972 94.6577L180.701 94.8622C180.624 95.1094 180.495 95.3267 180.314 95.5142C180.133 95.6996 179.909 95.8445 179.643 95.9489C179.377 96.0511 179.077 96.1023 178.745 96.1023ZM182.356 91.0909L183.532 93.098L184.708 91.0909H185.577L183.992 93.5455L185.577 96H184.708L183.532 94.0952L182.356 96H181.486L183.046 93.5455L181.486 91.0909H182.356ZM186.653 97.8409V91.0909H187.382V91.8707H187.472C187.527 91.7855 187.604 91.6768 187.702 91.5447C187.802 91.4105 187.945 91.2912 188.13 91.1868C188.317 91.0803 188.571 91.027 188.891 91.027C189.304 91.027 189.668 91.1303 189.984 91.337C190.299 91.5437 190.545 91.8366 190.722 92.2159C190.899 92.5952 190.987 93.0426 190.987 93.5582C190.987 94.0781 190.899 94.5288 190.722 94.9102C190.545 95.2894 190.3 95.5835 189.987 95.7923C189.674 95.9989 189.312 96.1023 188.903 96.1023C188.588 96.1023 188.336 96.0501 188.146 95.9457C187.956 95.8391 187.81 95.7187 187.708 95.5845C187.606 95.4482 187.527 95.3352 187.472 95.2457H187.408V97.8409H186.653ZM187.395 93.5455C187.395 93.9162 187.449 94.2433 187.558 94.5266C187.666 94.8079 187.825 95.0284 188.034 95.1882C188.243 95.3459 188.499 95.4247 188.801 95.4247C189.116 95.4247 189.38 95.3416 189.59 95.1754C189.804 95.0071 189.963 94.7812 190.07 94.4979C190.179 94.2124 190.233 93.8949 190.233 93.5455C190.233 93.2003 190.18 92.8892 190.073 92.6122C189.969 92.3331 189.81 92.1126 189.597 91.9506C189.386 91.7866 189.121 91.7045 188.801 91.7045C188.494 91.7045 188.236 91.7823 188.028 91.9379C187.819 92.0913 187.661 92.3065 187.555 92.5835C187.448 92.8583 187.395 93.179 187.395 93.5455ZM194.196 96.1023C193.723 96.1023 193.315 95.9979 192.972 95.7891C192.631 95.5781 192.368 95.2841 192.182 94.907C191.999 94.5277 191.908 94.0866 191.908 93.5838C191.908 93.081 191.999 92.6378 192.182 92.2543C192.368 91.8686 192.626 91.5682 192.956 91.353C193.288 91.1357 193.676 91.027 194.119 91.027C194.375 91.027 194.627 91.0696 194.877 91.1548C195.126 91.2401 195.353 91.3786 195.557 91.5703C195.762 91.7599 195.925 92.0114 196.046 92.3246C196.168 92.6378 196.229 93.0234 196.229 93.4815V93.8011H192.445V93.1491H195.462C195.462 92.8722 195.406 92.625 195.295 92.4077C195.187 92.1903 195.031 92.0188 194.829 91.8931C194.628 91.7674 194.392 91.7045 194.119 91.7045C193.819 91.7045 193.559 91.7791 193.339 91.9283C193.122 92.0753 192.955 92.267 192.838 92.5036C192.72 92.7401 192.662 92.9936 192.662 93.2642V93.6989C192.662 94.0696 192.726 94.3839 192.854 94.6417C192.984 94.8974 193.164 95.0923 193.394 95.2266C193.624 95.3587 193.891 95.4247 194.196 95.4247C194.394 95.4247 194.573 95.397 194.733 95.3416C194.895 95.2841 195.034 95.1989 195.152 95.0859C195.269 94.9709 195.359 94.8281 195.423 94.6577L196.152 94.8622C196.075 95.1094 195.946 95.3267 195.765 95.5142C195.584 95.6996 195.36 95.8445 195.094 95.9489C194.828 96.0511 194.528 96.1023 194.196 96.1023ZM197.376 96V91.0909H198.105V91.8324H198.156C198.245 91.5895 198.407 91.3924 198.642 91.2411C198.876 91.0898 199.14 91.0142 199.434 91.0142C199.49 91.0142 199.559 91.0153 199.642 91.0174C199.725 91.0195 199.788 91.0227 199.831 91.027V91.794C199.805 91.7876 199.746 91.7781 199.655 91.7653C199.565 91.7504 199.47 91.7429 199.37 91.7429C199.132 91.7429 198.919 91.793 198.731 91.8931C198.546 91.9911 198.399 92.1275 198.29 92.3022C198.184 92.4748 198.13 92.6719 198.13 92.8935V96H197.376ZM200.725 96V91.0909H201.479V96H200.725ZM201.108 90.2727C200.961 90.2727 200.834 90.2227 200.728 90.1225C200.623 90.0224 200.571 89.902 200.571 89.7614C200.571 89.6207 200.623 89.5004 200.728 89.4002C200.834 89.3001 200.961 89.25 201.108 89.25C201.255 89.25 201.381 89.3001 201.485 89.4002C201.592 89.5004 201.645 89.6207 201.645 89.7614C201.645 89.902 201.592 90.0224 201.485 90.1225C201.381 90.2227 201.255 90.2727 201.108 90.2727ZM204.919 96.1023C204.446 96.1023 204.038 95.9979 203.695 95.7891C203.354 95.5781 203.09 95.2841 202.905 94.907C202.722 94.5277 202.63 94.0866 202.63 93.5838C202.63 93.081 202.722 92.6378 202.905 92.2543C203.09 91.8686 203.348 91.5682 203.679 91.353C204.011 91.1357 204.399 91.027 204.842 91.027C205.098 91.027 205.35 91.0696 205.599 91.1548C205.849 91.2401 206.076 91.3786 206.28 91.5703C206.485 91.7599 206.648 92.0114 206.769 92.3246C206.891 92.6378 206.951 93.0234 206.951 93.4815V93.8011H203.167V93.1491H206.184C206.184 92.8722 206.129 92.625 206.018 92.4077C205.909 92.1903 205.754 92.0188 205.551 91.8931C205.351 91.7674 205.115 91.7045 204.842 91.7045C204.541 91.7045 204.282 91.7791 204.062 91.9283C203.845 92.0753 203.678 92.267 203.56 92.5036C203.443 92.7401 203.385 92.9936 203.385 93.2642V93.6989C203.385 94.0696 203.448 94.3839 203.576 94.6417C203.706 94.8974 203.886 95.0923 204.116 95.2266C204.347 95.3587 204.614 95.4247 204.919 95.4247C205.117 95.4247 205.296 95.397 205.456 95.3416C205.617 95.2841 205.757 95.1989 205.874 95.0859C205.991 94.9709 206.082 94.8281 206.146 94.6577L206.875 94.8622C206.798 95.1094 206.669 95.3267 206.488 95.5142C206.307 95.6996 206.083 95.8445 205.817 95.9489C205.55 96.0511 205.251 96.1023 204.919 96.1023ZM208.853 93.0469V96H208.099V91.0909H208.827V91.858H208.891C209.006 91.6087 209.181 91.4084 209.415 91.2571C209.65 91.1037 209.952 91.027 210.323 91.027C210.655 91.027 210.946 91.0952 211.196 91.2315C211.445 91.3658 211.639 91.5703 211.777 91.8452C211.916 92.1179 211.985 92.4631 211.985 92.8807V96H211.231V92.9318C211.231 92.5462 211.131 92.2457 210.93 92.0305C210.73 91.8132 210.455 91.7045 210.106 91.7045C209.865 91.7045 209.65 91.7567 209.46 91.8612C209.273 91.9656 209.125 92.1179 209.016 92.3182C208.907 92.5185 208.853 92.7614 208.853 93.0469ZM215.358 96.1023C214.897 96.1023 214.501 95.9936 214.169 95.7763C213.836 95.5589 213.581 95.2596 213.402 94.8782C213.223 94.4968 213.133 94.0611 213.133 93.571C213.133 93.0724 213.225 92.6325 213.408 92.2511C213.593 91.8675 213.851 91.5682 214.181 91.353C214.514 91.1357 214.902 91.027 215.345 91.027C215.69 91.027 216.001 91.0909 216.278 91.2188C216.555 91.3466 216.782 91.5256 216.959 91.7557C217.136 91.9858 217.245 92.2543 217.288 92.5611H216.534C216.476 92.3374 216.348 92.1392 216.15 91.9666C215.954 91.7919 215.69 91.7045 215.358 91.7045C215.064 91.7045 214.806 91.7812 214.584 91.9347C214.365 92.0859 214.193 92.3001 214.07 92.5771C213.948 92.8519 213.887 93.1747 213.887 93.5455C213.887 93.9247 213.947 94.255 214.066 94.5362C214.188 94.8175 214.358 95.0359 214.578 95.1914C214.799 95.3469 215.059 95.4247 215.358 95.4247C215.554 95.4247 215.732 95.3906 215.891 95.3224C216.051 95.2543 216.186 95.1562 216.297 95.0284C216.408 94.9006 216.487 94.7472 216.534 94.5682H217.288C217.245 94.858 217.14 95.119 216.972 95.3512C216.805 95.5813 216.585 95.7646 216.31 95.9009C216.037 96.0352 215.72 96.1023 215.358 96.1023ZM220.449 96.1023C219.976 96.1023 219.568 95.9979 219.225 95.7891C218.884 95.5781 218.621 95.2841 218.435 94.907C218.252 94.5277 218.161 94.0866 218.161 93.5838C218.161 93.081 218.252 92.6378 218.435 92.2543C218.621 91.8686 218.879 91.5682 219.209 91.353C219.541 91.1357 219.929 91.027 220.372 91.027C220.628 91.027 220.88 91.0696 221.13 91.1548C221.379 91.2401 221.606 91.3786 221.81 91.5703C222.015 91.7599 222.178 92.0114 222.299 92.3246C222.421 92.6378 222.482 93.0234 222.482 93.4815V93.8011H218.697V93.1491H221.715C221.715 92.8722 221.659 92.625 221.548 92.4077C221.44 92.1903 221.284 92.0188 221.082 91.8931C220.881 91.7674 220.645 91.7045 220.372 91.7045C220.072 91.7045 219.812 91.7791 219.592 91.9283C219.375 92.0753 219.208 92.267 219.091 92.5036C218.973 92.7401 218.915 92.9936 218.915 93.2642V93.6989C218.915 94.0696 218.979 94.3839 219.107 94.6417C219.237 94.8974 219.417 95.0923 219.647 95.2266C219.877 95.3587 220.144 95.4247 220.449 95.4247C220.647 95.4247 220.826 95.397 220.986 95.3416C221.148 95.2841 221.287 95.1989 221.405 95.0859C221.522 94.9709 221.612 94.8281 221.676 94.6577L222.405 94.8622C222.328 95.1094 222.199 95.3267 222.018 95.5142C221.837 95.6996 221.613 95.8445 221.347 95.9489C221.081 96.0511 220.781 96.1023 220.449 96.1023ZM225.483 96.1023C225.074 96.1023 224.712 95.9989 224.399 95.7923C224.086 95.5835 223.841 95.2894 223.664 94.9102C223.487 94.5288 223.399 94.0781 223.399 93.5582C223.399 93.0426 223.487 92.5952 223.664 92.2159C223.841 91.8366 224.087 91.5437 224.402 91.337C224.718 91.1303 225.082 91.027 225.495 91.027C225.815 91.027 226.068 91.0803 226.253 91.1868C226.44 91.2912 226.583 91.4105 226.681 91.5447C226.781 91.6768 226.859 91.7855 226.914 91.8707H226.978V89.4545H227.733V96H227.004V95.2457H226.914C226.859 95.3352 226.78 95.4482 226.678 95.5845C226.576 95.7187 226.43 95.8391 226.24 95.9457C226.05 96.0501 225.798 96.1023 225.483 96.1023ZM225.585 95.4247C225.887 95.4247 226.143 95.3459 226.352 95.1882C226.561 95.0284 226.719 94.8079 226.828 94.5266C226.937 94.2433 226.991 93.9162 226.991 93.5455C226.991 93.179 226.938 92.8583 226.831 92.5835C226.725 92.3065 226.567 92.0913 226.358 91.9379C226.15 91.7823 225.892 91.7045 225.585 91.7045C225.265 91.7045 224.999 91.7866 224.786 91.9506C224.575 92.1126 224.416 92.3331 224.31 92.6122C224.205 92.8892 224.153 93.2003 224.153 93.5455C224.153 93.8949 224.206 94.2124 224.313 94.4979C224.422 94.7812 224.581 95.0071 224.792 95.1754C225.005 95.3416 225.27 95.4247 225.585 95.4247ZM231.75 96V91.0909H232.504V96H231.75ZM232.134 90.2727C231.987 90.2727 231.86 90.2227 231.753 90.1225C231.649 90.0224 231.597 89.902 231.597 89.7614C231.597 89.6207 231.649 89.5004 231.753 89.4002C231.86 89.3001 231.987 89.25 232.134 89.25C232.281 89.25 232.406 89.3001 232.511 89.4002C232.617 89.5004 232.67 89.6207 232.67 89.7614C232.67 89.902 232.617 90.0224 232.511 90.1225C232.406 90.2227 232.281 90.2727 232.134 90.2727ZM236.021 91.0909V91.7301H233.477V91.0909H236.021ZM234.218 89.9148H234.972V94.5938C234.972 94.8068 235.003 94.9666 235.065 95.0732C235.129 95.1776 235.21 95.2479 235.308 95.2841C235.408 95.3182 235.514 95.3352 235.624 95.3352C235.708 95.3352 235.776 95.331 235.829 95.3224C235.882 95.3118 235.925 95.3033 235.957 95.2969L236.11 95.9744C236.059 95.9936 235.988 96.0128 235.896 96.032C235.804 96.0533 235.688 96.0639 235.548 96.0639C235.335 96.0639 235.126 96.0181 234.921 95.9265C234.719 95.8349 234.551 95.6953 234.416 95.5078C234.284 95.3203 234.218 95.0838 234.218 94.7983V89.9148Z" fill="#004B8D"/>
</svg>
