<svg width="320" height="125" viewBox="0 0 320 125" fill="none" xmlns="http://www.w3.org/2000/svg">
<rect width="320" height="125" fill="#123B75"/>
<path opacity="0.15" d="M269.401 68.971H311.711C315.841 68.971 319.062 64.9461 318.627 60.3295L315.806 30.1501C315.415 25.9736 312.163 22.8877 308.438 23.1616L270.84 25.9002C267.384 26.1545 264.623 29.2209 264.354 33.104L262.467 60.5446C262.154 65.0928 265.349 68.971 269.401 68.971Z" fill="#007AFF"/>
<path d="M269.283 58.4122C269.663 58.4122 269.97 58.0663 269.97 57.6395C269.97 57.2128 269.663 56.8668 269.283 56.8668C268.904 56.8668 268.596 57.2128 268.596 57.6395C268.596 58.0663 268.904 58.4122 269.283 58.4122Z" fill="#EA7FE0"/>
<path d="M279.225 30.0671L278.425 30.2823C278.273 30.3214 278.273 30.5659 278.425 30.6051L279.225 30.8202C279.751 30.9621 280.16 31.4218 280.286 32.0135L280.477 32.9134C280.512 33.0845 280.729 33.0845 280.764 32.9134L280.955 32.0135C281.081 31.4218 281.49 30.9621 282.016 30.8202L282.816 30.6051C282.968 30.5659 282.968 30.3214 282.816 30.2823L282.016 30.0671C281.49 29.9253 281.081 29.4656 280.955 28.8738L280.764 27.974C280.729 27.8028 280.512 27.8028 280.477 27.974L280.286 28.8738C280.16 29.4656 279.751 29.9253 279.225 30.0671Z" fill="white"/>
<path d="M301.13 54.4216C295.462 49.3794 289.024 49.399 287.554 49.3843C285.807 49.3697 284.103 52.7832 291.501 55.0916C291.501 55.0916 285.933 58.1726 284.059 58.5932C281.473 59.1751 277.938 53.1158 275.752 53.7662C272.691 54.671 278.904 61.3514 282.677 63.381C284.768 64.1781 286.967 64.2368 288.672 65.0242C291.071 65.8458 291.671 65.8898 291.671 65.8898L291.862 68.9659H308.707C308.707 68.9659 306.799 59.4588 301.13 54.4167V54.4216Z" fill="#E99E93"/>
<path d="M291.671 62.711C291.671 62.711 288.272 59.3414 286.059 55.3654C283.846 51.3845 281.438 52.2795 281.981 54.2161C282.525 56.1479 283.937 61.4932 286.024 62.8724C288.45 64.4715 291.671 62.7061 291.671 62.7061V62.711Z" fill="#E99E93"/>
<path d="M289.302 64.7504C289.302 64.7504 283.959 59.9381 281.903 55.3704C280.16 51.4922 277.921 52.26 277.991 53.8298C278.069 55.6295 279.829 59.586 281.381 61.5324C283.038 63.6109 285.607 65.3128 289.302 64.7504Z" fill="#E99E93"/>
<path d="M283.424 59.7717C282.329 59.801 278.204 58.0796 275.391 55.9962C272.983 54.2112 271.535 56.1429 273.391 58.4659C275.687 61.3415 280.016 63.0532 286.433 63.9677C292.014 63.4982 283.429 59.7668 283.429 59.7668L283.424 59.7717Z" fill="#E99E93"/>
<path d="M291.162 60.975C291.162 60.975 291.127 60.975 291.11 60.9653C289.389 60.2561 287.828 58.6521 286.202 55.9231C286.159 55.8449 286.176 55.7422 286.241 55.6933C286.311 55.6444 286.402 55.6639 286.446 55.7373C288.037 58.4075 289.549 59.9676 291.21 60.6523C291.284 60.6816 291.323 60.7794 291.297 60.8626C291.275 60.931 291.219 60.9702 291.158 60.9702L291.162 60.975Z" fill="#D67570"/>
<path d="M288.537 65.0631C288.537 65.0631 288.511 65.0631 288.497 65.0582C284.468 63.7769 282.611 56.896 282.538 56.6026C282.516 56.5145 282.559 56.4216 282.638 56.3972C282.716 56.3727 282.798 56.4216 282.82 56.5096C282.838 56.5781 284.707 63.508 288.58 64.7404C288.658 64.7648 288.702 64.8577 288.68 64.9458C288.663 65.0191 288.602 65.068 288.537 65.068V65.0631Z" fill="#D67570"/>
<path d="M285.663 64.7065C285.663 64.7065 285.633 64.7065 285.62 64.7016C279.443 62.5987 277.982 54.5342 277.969 54.4511C277.952 54.3631 278.004 54.275 278.086 54.2555C278.165 54.2359 278.243 54.2946 278.26 54.3875C278.273 54.4658 279.703 62.3395 285.707 64.3837C285.785 64.4082 285.829 64.5011 285.807 64.5891C285.789 64.6625 285.729 64.7065 285.668 64.7065H285.663Z" fill="#D67570"/>
<path d="M283.89 63.8748C283.89 63.8748 283.877 63.8748 283.868 63.8748C281.125 63.3955 278.93 61.3024 277.573 59.6249C276.104 57.8155 275.269 56.094 275.261 56.0744C275.221 55.9962 275.247 55.8935 275.321 55.8495C275.395 55.8055 275.482 55.8348 275.521 55.9179C275.556 55.9864 278.825 62.662 283.916 63.5471C283.994 63.5618 284.05 63.645 284.037 63.7379C284.024 63.821 283.963 63.8797 283.894 63.8797L283.89 63.8748Z" fill="#D67570"/>
<path d="M291.162 60.975C291.114 60.975 291.062 60.9456 291.036 60.8918C290.993 60.8136 291.019 60.7109 291.088 60.6669C291.21 60.5837 294.079 58.6862 297.013 59.3171C297.092 59.3366 297.144 59.4198 297.131 59.5127C297.118 59.6056 297.04 59.6643 296.957 59.6447C294.136 59.0334 291.267 60.9358 291.236 60.9554C291.214 60.9701 291.188 60.9799 291.162 60.9799V60.975Z" fill="#D67570"/>
<path d="M293.475 57.6396C293.475 57.6396 293.453 57.6396 293.44 57.6396C291.71 57.1505 291.371 55.2139 291.358 55.1307C291.345 55.0427 291.397 54.9547 291.475 54.94C291.554 54.9253 291.632 54.984 291.645 55.072C291.658 55.1454 291.967 56.8864 293.51 57.3217C293.588 57.3461 293.636 57.4342 293.618 57.5222C293.601 57.5955 293.54 57.6493 293.475 57.6493V57.6396Z" fill="#D67570"/>
<path d="M294.071 66.4718C294.071 66.4718 294.058 66.4718 294.049 66.4718L291.649 66.0658C291.571 66.0512 291.514 65.968 291.528 65.88C291.541 65.792 291.61 65.7284 291.693 65.7431L294.092 66.149C294.171 66.1637 294.227 66.2468 294.214 66.3348C294.201 66.418 294.14 66.4767 294.071 66.4767V66.4718Z" fill="#D67570"/>
<path d="M289.514 37.7844L274.784 34.9399C273.525 34.6968 272.33 35.6478 272.114 37.064L270.597 47.0029C270.381 48.4191 271.226 49.7642 272.485 50.0073L287.215 52.8518C288.474 53.0949 289.67 52.1439 289.886 50.7277L291.402 40.7888C291.618 39.3726 290.773 38.0275 289.514 37.7844Z" fill="#3395FF"/>
<path d="M291.179 42.2538L271.89 38.5291L271.442 41.4693L290.73 45.1941L291.179 42.2538Z" fill="#1C3FCA"/>
<path d="M287.626 47.5195L285.239 47.0587C284.78 46.9701 284.344 47.3168 284.266 47.8333L284.052 49.2311C283.973 49.7475 284.282 50.238 284.741 50.3267L287.127 50.7875C287.586 50.8762 288.022 50.5294 288.101 50.0129L288.314 48.6151C288.393 48.0987 288.085 47.6082 287.626 47.5195Z" fill="#FFCC4D"/>
<path d="M288.663 34.2776L288.128 23.2837L294.466 34.7715L289.967 35.4855C289.302 35.5931 288.698 35.0356 288.663 34.2776Z" fill="#1C3FCA"/>
<path d="M288.224 23.7483L290.715 34.1211C290.88 34.8106 291.476 35.2557 292.106 35.153L294.262 34.8106L288.224 23.7434V23.7483Z" fill="#A897FC"/>
<path d="M289.08 22.115L299.731 20.4327C300.322 20.3397 300.896 20.687 301.156 21.2885L305.508 31.4412C305.825 32.1797 305.412 33.0453 304.691 33.1627L293.64 34.9379C293.171 35.0113 292.71 34.7325 292.514 34.2484L288.254 23.8169C287.954 23.0833 288.367 22.2275 289.08 22.115Z" fill="white"/>
<path d="M301.852 22.9169L301.174 21.3373C300.905 20.7064 300.3 20.3396 299.679 20.4374L289.011 22.1247C288.333 22.2323 287.937 23.0441 288.224 23.7483L288.737 25.0003L301.857 22.9218L301.852 22.9169Z" fill="#8262F9"/>
<path d="M292.41 22.8778L292.123 22.6968C292.275 22.3838 292.319 21.9339 292.236 21.4938C292.162 21.1074 292.01 20.77 291.797 20.5352C291.606 20.3249 291.393 20.2271 291.193 20.2809C290.997 20.3249 290.832 20.5059 290.732 20.7895C290.623 21.0976 290.602 21.4791 290.671 21.8654L290.35 21.9437C290.263 21.4889 290.293 21.0292 290.428 20.6575C290.571 20.2565 290.819 19.9973 291.123 19.9288C291.432 19.8603 291.749 19.9826 292.023 20.2809C292.28 20.5646 292.467 20.9705 292.554 21.4253C292.653 21.9584 292.597 22.4914 292.406 22.8876L292.41 22.8778Z" fill="#1C3FCA"/>
<path d="M299 21.978L298.713 21.7971C298.866 21.4841 298.909 21.0342 298.826 20.594C298.687 19.836 298.209 19.2785 297.787 19.3812C297.366 19.479 297.148 20.0609 297.248 20.8239L296.922 20.8777C296.796 19.9093 297.118 19.1611 297.722 19.0193C298.34 18.8774 298.966 19.5328 299.152 20.5207C299.252 21.0537 299.196 21.5868 299.005 21.9829L299 21.978Z" fill="#1C3FCA"/>
<path d="M295.936 22.467L295.649 22.2861C295.801 21.9731 295.844 21.5232 295.762 21.083C295.623 20.325 295.144 19.7675 294.723 19.8702C294.301 19.968 294.084 20.55 294.184 21.3129L293.858 21.3667C293.732 20.3984 294.053 19.6501 294.658 19.5083C295.27 19.3713 295.901 20.0218 296.088 21.0097C296.188 21.5427 296.131 22.0758 295.94 22.4719L295.936 22.467Z" fill="#1C3FCA"/>
<path d="M291.471 26.0277L293.414 25.7196C293.562 25.6952 293.706 25.7832 293.766 25.9348L294.158 26.8542C294.214 26.9912 294.14 27.1477 294.005 27.1721L292.062 27.4802C291.915 27.5047 291.771 27.4166 291.71 27.265L291.319 26.3456C291.262 26.2087 291.336 26.0522 291.471 26.0277Z" fill="#C0DFFF"/>
<path d="M295.114 25.4505L297.057 25.1424C297.205 25.1179 297.348 25.2059 297.409 25.3575L297.8 26.277C297.857 26.4139 297.783 26.5704 297.648 26.5948L295.705 26.9029C295.557 26.9274 295.414 26.8394 295.353 26.6878L294.962 25.7683C294.905 25.6314 294.979 25.4749 295.114 25.4505Z" fill="#C0DFFF"/>
<path d="M298.757 24.8734L300.7 24.5653C300.848 24.5409 300.991 24.6289 301.052 24.7805L301.444 25.6999C301.5 25.8369 301.426 25.9934 301.291 26.0178L299.348 26.3259C299.2 26.3504 299.057 26.2623 298.996 26.1107L298.605 25.1913C298.548 25.0544 298.622 24.8979 298.757 24.8734Z" fill="#C0DFFF"/>
<path d="M292.541 28.5318L294.484 28.2237C294.632 28.1992 294.775 28.2872 294.836 28.4388L295.227 29.3583C295.284 29.4952 295.21 29.6517 295.075 29.6761L293.132 29.9842C292.984 30.0087 292.841 29.9207 292.78 29.7691L292.389 28.8496C292.332 28.7127 292.406 28.5562 292.541 28.5318Z" fill="#C0DFFF"/>
<path d="M296.183 27.9496L298.127 27.6415C298.274 27.6171 298.418 27.7051 298.479 27.8567L298.87 28.7761C298.927 28.913 298.853 29.0695 298.718 29.094L296.775 29.4021C296.627 29.4265 296.483 29.3385 296.423 29.1869L296.031 28.2675C295.975 28.1306 296.049 27.9741 296.183 27.9496Z" fill="#C0DFFF"/>
<path d="M299.826 27.3726L301.769 27.0645C301.917 27.04 302.061 27.1281 302.122 27.2797L302.513 28.1991C302.569 28.336 302.495 28.4925 302.361 28.517L300.418 28.8251C300.27 28.8495 300.126 28.7615 300.065 28.6099L299.674 27.6905C299.618 27.5535 299.692 27.397 299.826 27.3726Z" fill="#C0DFFF"/>
<path d="M293.61 31.0305L295.553 30.7224C295.701 30.698 295.844 30.786 295.905 30.9376L296.297 31.857C296.353 31.994 296.279 32.1505 296.144 32.1749L294.201 32.483C294.053 32.5075 293.91 32.4194 293.849 32.2678L293.458 31.3484C293.401 31.2115 293.475 31.055 293.61 31.0305Z" fill="#C0DFFF"/>
<path d="M297.253 30.4535L299.196 30.1454C299.344 30.121 299.487 30.209 299.548 30.3606L299.939 31.28C299.996 31.4169 299.922 31.5734 299.787 31.5979L297.844 31.906C297.696 31.9304 297.553 31.8424 297.492 31.6908L297.101 30.7714C297.044 30.6345 297.118 30.478 297.253 30.4535Z" fill="#C0DFFF"/>
<path d="M300.896 29.8765L302.839 29.5684C302.987 29.5439 303.13 29.632 303.191 29.7836L303.582 30.703C303.639 30.8399 303.565 30.9964 303.43 31.0209L301.487 31.329C301.339 31.3534 301.196 31.2654 301.135 31.1138L300.744 30.1944C300.687 30.0574 300.761 29.9009 300.896 29.8765Z" fill="#C0DFFF"/>
<path d="M298.044 45.2522C298.044 43.1053 299.383 41.3153 301.17 40.8703V40.7627H302.187C304.321 40.8556 306.03 42.8314 306.03 45.2522C306.03 47.6779 304.321 49.6488 302.187 49.7417H301.17V49.639C299.383 49.1939 298.044 47.3991 298.044 45.2571V45.2522Z" fill="#FF9D00"/>
<path d="M301.13 49.7414C303.334 49.7414 305.121 47.7314 305.121 45.2519C305.121 42.7725 303.334 40.7625 301.13 40.7625C298.926 40.7625 297.14 42.7725 297.14 45.2519C297.14 47.7314 298.926 49.7414 301.13 49.7414Z" fill="#FFCC4D"/>
<path d="M301.13 49.057C299.265 49.057 297.744 47.3503 297.744 45.2473C297.744 43.1444 299.261 41.4376 301.13 41.4376C303 41.4376 304.517 43.1444 304.517 45.2473C304.517 47.3503 303 49.057 301.13 49.057ZM301.13 41.7311C299.404 41.7311 298 43.3107 298 45.2522C298 47.1938 299.404 48.7734 301.13 48.7734C302.856 48.7734 304.26 47.1938 304.26 45.2522C304.26 43.3107 302.856 41.7311 301.13 41.7311Z" fill="#FF9D00"/>
<path d="M294.601 45.6382C294.553 45.6382 294.505 45.6284 294.458 45.6089C294.262 45.5208 294.166 45.2714 294.24 45.0514C294.24 45.0367 294.366 44.6601 294.223 44.352C294.127 44.1466 293.914 43.995 293.588 43.907C293.384 43.8532 293.258 43.6184 293.306 43.3886C293.353 43.1587 293.562 43.012 293.766 43.0707C294.318 43.2174 294.701 43.5206 294.901 43.9608C295.201 44.6112 294.975 45.291 294.949 45.3643C294.888 45.5355 294.744 45.6382 294.592 45.6382H294.601Z" fill="#1FC994"/>
<path d="M309.825 57.3806C309.746 57.3806 309.668 57.3562 309.598 57.3073L307.112 55.5858C306.977 55.4929 306.895 55.3217 306.908 55.1408C306.916 54.9598 307.012 54.8033 307.155 54.7251L309.659 53.3998C309.794 53.3264 309.951 53.3411 310.077 53.4291C310.203 53.5171 310.277 53.6736 310.277 53.8448L310.259 56.8916C310.259 57.0676 310.172 57.229 310.038 57.3171C309.972 57.3562 309.898 57.3806 309.825 57.3806ZM308.251 55.2288L309.394 56.0211L309.403 54.6175L308.251 55.2288Z" fill="#8262F9"/>
<path d="M267.879 40.6989C267.553 40.6989 267.227 40.5717 266.949 40.3126C266.419 39.8186 266.145 38.865 266.636 37.9944C266.766 37.7646 267.036 37.701 267.236 37.8428C267.44 37.9896 267.497 38.2928 267.371 38.5177C267.136 38.9334 267.266 39.3393 267.505 39.5594C267.601 39.6474 267.94 39.9066 268.305 39.5154C268.479 39.3296 268.753 39.3393 268.918 39.535C269.083 39.7306 269.075 40.0436 268.901 40.2245C268.605 40.5375 268.244 40.694 267.879 40.694V40.6989Z" fill="#7A66F2"/>
<path d="M312.224 37.8624C312.124 37.8624 312.024 37.8233 311.946 37.75C311.872 37.7255 311.69 37.7108 311.568 37.6962C311.137 37.657 310.603 37.6033 310.398 37.1142C310.199 36.63 310.199 36.1703 310.194 35.8329C310.194 35.7204 310.194 35.5737 310.181 35.5003C310.146 35.4905 310.081 35.4808 309.959 35.4905H309.89C309.168 35.5346 308.734 35.559 308.434 35.2167C308.134 34.8841 308.134 34.3853 308.164 33.6028C308.177 33.3338 308.377 33.1138 308.62 33.1382C308.86 33.1529 309.047 33.3778 309.033 33.6517C309.025 33.862 309.003 34.4244 309.06 34.5418C309.12 34.5614 309.49 34.5418 309.851 34.5173H309.92C310.168 34.5027 310.538 34.5173 310.794 34.7863C311.064 35.0749 311.068 35.4759 311.068 35.828C311.068 36.097 311.068 36.3757 311.168 36.6496C311.268 36.6887 311.507 36.7132 311.642 36.723C311.998 36.7572 312.337 36.7865 312.546 37.0457C312.707 37.2462 312.698 37.5543 312.52 37.7353C312.437 37.8233 312.333 37.8624 312.229 37.8624H312.224Z" fill="#EA7FE0"/>
<path d="M15.8727 39H14.5801L18.3188 28.8182H19.5915L23.3301 39H22.0375L18.9949 30.429H18.9153L15.8727 39ZM16.35 35.0227H21.5602V36.1165H16.35V35.0227ZM24.757 41.8636V31.3636H25.8905V32.5767H26.0297C26.1159 32.4441 26.2352 32.2751 26.3877 32.0696C26.5434 31.8608 26.7655 31.6752 27.0538 31.5128C27.3455 31.3471 27.7399 31.2642 28.2371 31.2642C28.8801 31.2642 29.4468 31.425 29.9374 31.7464C30.4279 32.0679 30.8107 32.5237 31.0858 33.1136C31.3609 33.7036 31.4984 34.3996 31.4984 35.2017C31.4984 36.0104 31.3609 36.7114 31.0858 37.3047C30.8107 37.8946 30.4296 38.352 29.9423 38.6768C29.4551 38.9983 28.8933 39.1591 28.257 39.1591C27.7664 39.1591 27.3737 39.0779 27.0787 38.9155C26.7837 38.7498 26.5567 38.5625 26.3976 38.3537C26.2385 38.1416 26.1159 37.9659 26.0297 37.8267H25.9303V41.8636H24.757ZM25.9104 35.1818C25.9104 35.7585 25.9949 36.2673 26.1639 36.7081C26.333 37.1456 26.5799 37.4886 26.9047 37.7372C27.2295 37.9825 27.6272 38.1051 28.0979 38.1051C28.5884 38.1051 28.9977 37.9759 29.3259 37.7173C29.6573 37.4555 29.9059 37.1042 30.0716 36.6634C30.2406 36.2192 30.3252 35.7254 30.3252 35.1818C30.3252 34.6449 30.2423 34.161 30.0766 33.7301C29.9142 33.2959 29.6672 32.9529 29.3358 32.701C29.0077 32.4458 28.595 32.3182 28.0979 32.3182C27.6206 32.3182 27.2196 32.4392 26.8948 32.6811C26.5699 32.9197 26.3247 33.2545 26.159 33.6854C25.9932 34.1129 25.9104 34.6117 25.9104 35.1818ZM33.2882 41.8636V31.3636H34.4217V32.5767H34.5609C34.6471 32.4441 34.7664 32.2751 34.9189 32.0696C35.0747 31.8608 35.2967 31.6752 35.5851 31.5128C35.8768 31.3471 36.2712 31.2642 36.7683 31.2642C37.4113 31.2642 37.9781 31.425 38.4686 31.7464C38.9591 32.0679 39.342 32.5237 39.6171 33.1136C39.8921 33.7036 40.0297 34.3996 40.0297 35.2017C40.0297 36.0104 39.8921 36.7114 39.6171 37.3047C39.342 37.8946 38.9608 38.352 38.4736 38.6768C37.9864 38.9983 37.4246 39.1591 36.7882 39.1591C36.2977 39.1591 35.9049 39.0779 35.61 38.9155C35.315 38.7498 35.0879 38.5625 34.9288 38.3537C34.7698 38.1416 34.6471 37.9659 34.5609 37.8267H34.4615V41.8636H33.2882ZM34.4416 35.1818C34.4416 35.7585 34.5261 36.2673 34.6952 36.7081C34.8642 37.1456 35.1111 37.4886 35.4359 37.7372C35.7608 37.9825 36.1585 38.1051 36.6291 38.1051C37.1197 38.1051 37.529 37.9759 37.8571 37.7173C38.1886 37.4555 38.4371 37.1042 38.6028 36.6634C38.7719 36.2192 38.8564 35.7254 38.8564 35.1818C38.8564 34.6449 38.7735 34.161 38.6078 33.7301C38.4454 33.2959 38.1985 32.9529 37.8671 32.701C37.5389 32.4458 37.1263 32.3182 36.6291 32.3182C36.1519 32.3182 35.7508 32.4392 35.426 32.6811C35.1012 32.9197 34.8559 33.2545 34.6902 33.6854C34.5245 34.1129 34.4416 34.6117 34.4416 35.1818ZM42.9928 28.8182V39H41.8195V28.8182H42.9928ZM45.8974 41.8636C45.6986 41.8636 45.5212 41.8471 45.3655 41.8139C45.2097 41.7841 45.102 41.7543 45.0423 41.7244L45.3406 40.6903C45.6256 40.7633 45.8775 40.7898 46.0963 40.7699C46.315 40.75 46.5089 40.6522 46.678 40.4766C46.8503 40.3042 47.0077 40.0241 47.1503 39.6364L47.369 39.0398L44.5451 31.3636H45.8179L47.9258 37.4489H48.0054L50.1133 31.3636H51.3861L48.1446 40.1136C47.9987 40.508 47.8181 40.8345 47.6027 41.093C47.3872 41.3549 47.137 41.5488 46.852 41.6747C46.5702 41.8007 46.2521 41.8636 45.8974 41.8636ZM60.2728 31.3636V32.358H56.1563V31.3636H60.2728ZM57.3892 39V30.3097C57.3892 29.8722 57.492 29.5076 57.6975 29.2159C57.903 28.9242 58.1698 28.7055 58.4979 28.5597C58.826 28.4138 59.1724 28.3409 59.537 28.3409C59.8253 28.3409 60.0607 28.3641 60.2429 28.4105C60.4252 28.4569 60.5611 28.5 60.6506 28.5398L60.3125 29.554C60.2529 29.5341 60.17 29.5092 60.064 29.4794C59.9612 29.4496 59.8253 29.4347 59.6563 29.4347C59.2685 29.4347 58.9884 29.5324 58.8161 29.728C58.6471 29.9235 58.5625 30.2102 58.5625 30.5881V39H57.3892ZM64.7049 39.1591C64.0156 39.1591 63.4107 38.995 62.8903 38.6669C62.3733 38.3388 61.9689 37.8797 61.6772 37.2898C61.3889 36.6998 61.2447 36.0104 61.2447 35.2216C61.2447 34.4261 61.3889 33.7318 61.6772 33.1385C61.9689 32.5452 62.3733 32.0845 62.8903 31.7564C63.4107 31.4283 64.0156 31.2642 64.7049 31.2642C65.3943 31.2642 65.9976 31.4283 66.5146 31.7564C67.035 32.0845 67.4393 32.5452 67.7277 33.1385C68.0193 33.7318 68.1652 34.4261 68.1652 35.2216C68.1652 36.0104 68.0193 36.6998 67.7277 37.2898C67.4393 37.8797 67.035 38.3388 66.5146 38.6669C65.9976 38.995 65.3943 39.1591 64.7049 39.1591ZM64.7049 38.1051C65.2286 38.1051 65.6595 37.9709 65.9976 37.7024C66.3356 37.4339 66.5859 37.081 66.7483 36.6435C66.9107 36.206 66.9919 35.732 66.9919 35.2216C66.9919 34.7112 66.9107 34.2356 66.7483 33.7947C66.5859 33.3539 66.3356 32.9976 65.9976 32.7259C65.6595 32.4541 65.2286 32.3182 64.7049 32.3182C64.1813 32.3182 63.7504 32.4541 63.4123 32.7259C63.0743 32.9976 62.824 33.3539 62.6616 33.7947C62.4992 34.2356 62.418 34.7112 62.418 35.2216C62.418 35.732 62.4992 36.206 62.6616 36.6435C62.824 37.081 63.0743 37.4339 63.4123 37.7024C63.7504 37.9709 64.1813 38.1051 64.7049 38.1051ZM69.9562 39V31.3636H71.0897V32.517H71.1693C71.3085 32.1392 71.5604 31.8326 71.9249 31.5973C72.2895 31.362 72.7005 31.2443 73.1579 31.2443C73.2441 31.2443 73.3518 31.246 73.481 31.2493C73.6103 31.2526 73.7081 31.2576 73.7744 31.2642V32.4574C73.7346 32.4474 73.6435 32.4325 73.5009 32.4126C73.3617 32.3894 73.2142 32.3778 73.0585 32.3778C72.6872 32.3778 72.3558 32.4557 72.0641 32.6115C71.7758 32.764 71.5471 32.9761 71.3781 33.2479C71.2123 33.5163 71.1295 33.8229 71.1295 34.1676V39H69.9562ZM81.3498 39.179C80.8659 39.179 80.4268 39.0878 80.0324 38.9055C79.6379 38.7199 79.3247 38.4531 79.0927 38.1051C78.8607 37.7538 78.7447 37.3295 78.7447 36.8324C78.7447 36.3949 78.8309 36.0402 79.0032 35.7685C79.1756 35.4934 79.4059 35.2779 79.6943 35.1222C79.9826 34.9664 80.3008 34.8504 80.6488 34.7741C81.0002 34.6946 81.3531 34.6316 81.7078 34.5852C82.1718 34.5256 82.548 34.4808 82.8363 34.451C83.128 34.4179 83.3401 34.3632 83.4727 34.2869C83.6086 34.2107 83.6765 34.0781 83.6765 33.8892V33.8494C83.6765 33.3589 83.5423 32.9777 83.2738 32.706C83.0087 32.4342 82.606 32.2983 82.0657 32.2983C81.5056 32.2983 81.0665 32.4209 80.7483 32.6662C80.4301 32.9115 80.2064 33.1733 80.0771 33.4517L78.9635 33.054C79.1623 32.59 79.4275 32.2287 79.7589 31.9702C80.0937 31.7083 80.4583 31.526 80.8527 31.4233C81.2504 31.3172 81.6415 31.2642 82.026 31.2642C82.2712 31.2642 82.553 31.294 82.8711 31.3537C83.1926 31.41 83.5025 31.5277 83.8008 31.7067C84.1024 31.8857 84.3527 32.1558 84.5515 32.517C84.7504 32.8783 84.8498 33.3622 84.8498 33.9688V39H83.6765V37.9659H83.6169C83.5373 38.1316 83.4048 38.3089 83.2191 38.4979C83.0335 38.6868 82.7866 38.8475 82.4784 38.9801C82.1701 39.1127 81.794 39.179 81.3498 39.179ZM81.5288 38.125C81.9928 38.125 82.3839 38.0339 82.7021 37.8516C83.0236 37.6693 83.2656 37.4339 83.428 37.1456C83.5937 36.8572 83.6765 36.554 83.6765 36.2358V35.1619C83.6268 35.2216 83.5174 35.2763 83.3484 35.326C83.1827 35.3724 82.9905 35.4138 82.7717 35.4503C82.5563 35.4834 82.3458 35.5133 82.1403 35.5398C81.9381 35.563 81.7741 35.5829 81.6481 35.5994C81.3432 35.6392 81.0582 35.7038 80.793 35.7933C80.5312 35.8795 80.3191 36.0104 80.1566 36.1861C79.9976 36.3584 79.918 36.5937 79.918 36.892C79.918 37.2997 80.0688 37.608 80.3704 37.8168C80.6754 38.0223 81.0615 38.125 81.5288 38.125ZM92.9374 39L90.1533 28.8182H91.4061L93.534 37.1108H93.6334L95.801 28.8182H97.193L99.3607 37.1108H99.4601L101.588 28.8182H102.841L100.057 39H98.784L96.5368 30.8864H96.4573L94.2101 39H92.9374ZM106.609 39.1591C105.92 39.1591 105.315 38.995 104.795 38.6669C104.278 38.3388 103.873 37.8797 103.582 37.2898C103.293 36.6998 103.149 36.0104 103.149 35.2216C103.149 34.4261 103.293 33.7318 103.582 33.1385C103.873 32.5452 104.278 32.0845 104.795 31.7564C105.315 31.4283 105.92 31.2642 106.609 31.2642C107.299 31.2642 107.902 31.4283 108.419 31.7564C108.939 32.0845 109.344 32.5452 109.632 33.1385C109.924 33.7318 110.069 34.4261 110.069 35.2216C110.069 36.0104 109.924 36.6998 109.632 37.2898C109.344 37.8797 108.939 38.3388 108.419 38.6669C107.902 38.995 107.299 39.1591 106.609 39.1591ZM106.609 38.1051C107.133 38.1051 107.564 37.9709 107.902 37.7024C108.24 37.4339 108.49 37.081 108.653 36.6435C108.815 36.206 108.896 35.732 108.896 35.2216C108.896 34.7112 108.815 34.2356 108.653 33.7947C108.49 33.3539 108.24 32.9976 107.902 32.7259C107.564 32.4541 107.133 32.3182 106.609 32.3182C106.086 32.3182 105.655 32.4541 105.317 32.7259C104.979 32.9976 104.728 33.3539 104.566 33.7947C104.404 34.2356 104.322 34.7112 104.322 35.2216C104.322 35.732 104.404 36.206 104.566 36.6435C104.728 37.081 104.979 37.4339 105.317 37.7024C105.655 37.9709 106.086 38.1051 106.609 38.1051ZM111.86 39V31.3636H112.994V32.517H113.074C113.213 32.1392 113.465 31.8326 113.829 31.5973C114.194 31.362 114.605 31.2443 115.062 31.2443C115.148 31.2443 115.256 31.246 115.385 31.2493C115.515 31.2526 115.612 31.2576 115.679 31.2642V32.4574C115.639 32.4474 115.548 32.4325 115.405 32.4126C115.266 32.3894 115.119 32.3778 114.963 32.3778C114.592 32.3778 114.26 32.4557 113.968 32.6115C113.68 32.764 113.451 32.9761 113.282 33.2479C113.117 33.5163 113.034 33.8229 113.034 34.1676V39H111.86ZM118.243 28.8182V39H117.069V28.8182H118.243ZM123.275 39.1591C122.639 39.1591 122.077 38.9983 121.59 38.6768C121.103 38.352 120.722 37.8946 120.446 37.3047C120.171 36.7114 120.034 36.0104 120.034 35.2017C120.034 34.3996 120.171 33.7036 120.446 33.1136C120.722 32.5237 121.104 32.0679 121.595 31.7464C122.085 31.425 122.652 31.2642 123.295 31.2642C123.792 31.2642 124.185 31.3471 124.473 31.5128C124.765 31.6752 124.987 31.8608 125.14 32.0696C125.295 32.2751 125.416 32.4441 125.503 32.5767H125.602V28.8182H126.775V39H125.642V37.8267H125.503C125.416 37.9659 125.294 38.1416 125.135 38.3537C124.976 38.5625 124.749 38.7498 124.454 38.9155C124.159 39.0779 123.766 39.1591 123.275 39.1591ZM123.434 38.1051C123.905 38.1051 124.303 37.9825 124.628 37.7372C124.952 37.4886 125.199 37.1456 125.368 36.7081C125.537 36.2673 125.622 35.7585 125.622 35.1818C125.622 34.6117 125.539 34.1129 125.373 33.6854C125.208 33.2545 124.962 32.9197 124.637 32.6811C124.313 32.4392 123.912 32.3182 123.434 32.3182C122.937 32.3182 122.523 32.4458 122.191 32.701C121.863 32.9529 121.616 33.2959 121.451 33.7301C121.288 34.161 121.207 34.6449 121.207 35.1818C121.207 35.7254 121.29 36.2192 121.456 36.6634C121.625 37.1042 121.873 37.4555 122.201 37.7173C122.533 37.9759 122.944 38.1051 123.434 38.1051ZM141.377 32H140.144C140.071 31.6454 139.943 31.3338 139.761 31.0653C139.582 30.7969 139.363 30.5715 139.105 30.3892C138.85 30.2036 138.566 30.0644 138.255 29.9716C137.943 29.8788 137.618 29.8324 137.28 29.8324C136.664 29.8324 136.105 29.9882 135.605 30.2997C135.108 30.6113 134.712 31.0703 134.417 31.6768C134.125 32.2834 133.979 33.0275 133.979 33.9091C133.979 34.7907 134.125 35.5348 134.417 36.1413C134.712 36.7479 135.108 37.2069 135.605 37.5185C136.105 37.83 136.664 37.9858 137.28 37.9858C137.618 37.9858 137.943 37.9394 138.255 37.8466C138.566 37.7538 138.85 37.6162 139.105 37.4339C139.363 37.2483 139.582 37.0213 139.761 36.7528C139.943 36.4811 140.071 36.1695 140.144 35.8182H141.377C141.284 36.3385 141.115 36.8042 140.87 37.2152C140.624 37.6262 140.32 37.9759 139.955 38.2642C139.59 38.5492 139.181 38.7663 138.727 38.9155C138.276 39.0646 137.794 39.1392 137.28 39.1392C136.412 39.1392 135.64 38.9271 134.963 38.5028C134.287 38.0786 133.755 37.4754 133.368 36.6932C132.98 35.911 132.786 34.983 132.786 33.9091C132.786 32.8352 132.98 31.9072 133.368 31.125C133.755 30.3428 134.287 29.7396 134.963 29.3153C135.64 28.8911 136.412 28.679 137.28 28.679C137.794 28.679 138.276 28.7536 138.727 28.9027C139.181 29.0518 139.59 29.2706 139.955 29.5589C140.32 29.844 140.624 30.192 140.87 30.603C141.115 31.0107 141.284 31.4763 141.377 32ZM144.383 28.8182V39H143.21V28.8182H144.383ZM148.78 39.179C148.296 39.179 147.856 39.0878 147.462 38.9055C147.068 38.7199 146.754 38.4531 146.522 38.1051C146.29 37.7538 146.174 37.3295 146.174 36.8324C146.174 36.3949 146.261 36.0402 146.433 35.7685C146.605 35.4934 146.836 35.2779 147.124 35.1222C147.412 34.9664 147.731 34.8504 148.079 34.7741C148.43 34.6946 148.783 34.6316 149.137 34.5852C149.601 34.5256 149.978 34.4808 150.266 34.451C150.558 34.4179 150.77 34.3632 150.902 34.2869C151.038 34.2107 151.106 34.0781 151.106 33.8892V33.8494C151.106 33.3589 150.972 32.9777 150.704 32.706C150.438 32.4342 150.036 32.2983 149.495 32.2983C148.935 32.2983 148.496 32.4209 148.178 32.6662C147.86 32.9115 147.636 33.1733 147.507 33.4517L146.393 33.054C146.592 32.59 146.857 32.2287 147.189 31.9702C147.523 31.7083 147.888 31.526 148.282 31.4233C148.68 31.3172 149.071 31.2642 149.456 31.2642C149.701 31.2642 149.983 31.294 150.301 31.3537C150.622 31.41 150.932 31.5277 151.231 31.7067C151.532 31.8857 151.782 32.1558 151.981 32.517C152.18 32.8783 152.28 33.3622 152.28 33.9688V39H151.106V37.9659H151.047C150.967 38.1316 150.834 38.3089 150.649 38.4979C150.463 38.6868 150.216 38.8475 149.908 38.9801C149.6 39.1127 149.224 39.179 148.78 39.179ZM148.958 38.125C149.423 38.125 149.814 38.0339 150.132 37.8516C150.453 37.6693 150.695 37.4339 150.858 37.1456C151.023 36.8572 151.106 36.554 151.106 36.2358V35.1619C151.057 35.2216 150.947 35.2763 150.778 35.326C150.612 35.3724 150.42 35.4138 150.201 35.4503C149.986 35.4834 149.775 35.5133 149.57 35.5398C149.368 35.563 149.204 35.5829 149.078 35.5994C148.773 35.6392 148.488 35.7038 148.223 35.7933C147.961 35.8795 147.749 36.0104 147.586 36.1861C147.427 36.3584 147.348 36.5937 147.348 36.892C147.348 37.2997 147.499 37.608 147.8 37.8168C148.105 38.0223 148.491 38.125 148.958 38.125ZM159.83 33.0739L158.776 33.3722C158.71 33.1965 158.612 33.0258 158.483 32.8601C158.357 32.6911 158.185 32.5518 157.966 32.4425C157.747 32.3331 157.467 32.2784 157.126 32.2784C156.658 32.2784 156.269 32.3861 155.957 32.6016C155.649 32.8137 155.495 33.0838 155.495 33.4119C155.495 33.7036 155.601 33.9339 155.813 34.103C156.025 34.272 156.357 34.4129 156.807 34.5256L157.941 34.804C158.624 34.9697 159.132 35.2232 159.467 35.5646C159.802 35.9027 159.969 36.3385 159.969 36.8722C159.969 37.3097 159.843 37.7008 159.591 38.0455C159.343 38.3902 158.995 38.6619 158.547 38.8608C158.1 39.0597 157.58 39.1591 156.986 39.1591C156.207 39.1591 155.563 38.9901 155.052 38.652C154.542 38.3139 154.219 37.8201 154.083 37.1705L155.197 36.892C155.303 37.303 155.503 37.6113 155.798 37.8168C156.096 38.0223 156.486 38.125 156.966 38.125C157.513 38.125 157.948 38.009 158.269 37.777C158.594 37.5417 158.756 37.2599 158.756 36.9318C158.756 36.6667 158.663 36.4446 158.478 36.2656C158.292 36.0833 158.007 35.9474 157.623 35.858L156.35 35.5597C155.651 35.3939 155.137 35.1371 154.809 34.7891C154.484 34.4377 154.322 33.9986 154.322 33.4716C154.322 33.0407 154.443 32.6596 154.685 32.3281C154.93 31.9967 155.263 31.7365 155.684 31.5476C156.108 31.3587 156.589 31.2642 157.126 31.2642C157.881 31.2642 158.475 31.4299 158.905 31.7614C159.34 32.0928 159.648 32.5303 159.83 33.0739ZM167.145 33.0739L166.091 33.3722C166.024 33.1965 165.927 33.0258 165.797 32.8601C165.671 32.6911 165.499 32.5518 165.28 32.4425C165.061 32.3331 164.781 32.2784 164.44 32.2784C163.973 32.2784 163.583 32.3861 163.272 32.6016C162.963 32.8137 162.809 33.0838 162.809 33.4119C162.809 33.7036 162.915 33.9339 163.128 34.103C163.34 34.272 163.671 34.4129 164.122 34.5256L165.255 34.804C165.938 34.9697 166.447 35.2232 166.782 35.5646C167.116 35.9027 167.284 36.3385 167.284 36.8722C167.284 37.3097 167.158 37.7008 166.906 38.0455C166.657 38.3902 166.309 38.6619 165.862 38.8608C165.414 39.0597 164.894 39.1591 164.301 39.1591C163.522 39.1591 162.877 38.9901 162.367 38.652C161.856 38.3139 161.533 37.8201 161.397 37.1705L162.511 36.892C162.617 37.303 162.818 37.6113 163.113 37.8168C163.411 38.0223 163.8 38.125 164.281 38.125C164.828 38.125 165.262 38.009 165.583 37.777C165.908 37.5417 166.071 37.2599 166.071 36.9318C166.071 36.6667 165.978 36.4446 165.792 36.2656C165.607 36.0833 165.322 35.9474 164.937 35.858L163.664 35.5597C162.965 35.3939 162.451 35.1371 162.123 34.7891C161.798 34.4377 161.636 33.9986 161.636 33.4716C161.636 33.0407 161.757 32.6596 161.999 32.3281C162.244 31.9967 162.577 31.7365 162.998 31.5476C163.423 31.3587 163.903 31.2642 164.44 31.2642C165.196 31.2642 165.789 31.4299 166.22 31.7614C166.654 32.0928 166.962 32.5303 167.145 33.0739Z" fill="white"/>
<path d="M30.8841 57.4347H27.6966C27.6057 56.9119 27.4381 56.4489 27.1938 56.0455C26.9494 55.6364 26.6455 55.2898 26.2818 55.0057C25.9182 54.7216 25.5034 54.5085 25.0375 54.3665C24.5773 54.2188 24.0801 54.1449 23.546 54.1449C22.5972 54.1449 21.7563 54.3835 21.0233 54.8608C20.2903 55.3324 19.7165 56.0256 19.3017 56.9403C18.8869 57.8494 18.6796 58.9602 18.6796 60.2727C18.6796 61.608 18.8869 62.733 19.3017 63.6477C19.7222 64.5568 20.296 65.2443 21.0233 65.7102C21.7563 66.1705 22.5943 66.4006 23.5375 66.4006C24.0602 66.4006 24.5489 66.3324 25.0034 66.196C25.4636 66.054 25.8756 65.8466 26.2392 65.5739C26.6085 65.3011 26.9182 64.9659 27.1682 64.5682C27.4239 64.1705 27.6 63.7159 27.6966 63.2045L30.8841 63.2216C30.7648 64.0511 30.5063 64.8295 30.1085 65.5568C29.7165 66.2841 29.2023 66.9261 28.5659 67.483C27.9296 68.0341 27.1852 68.4659 26.333 68.7784C25.4807 69.0852 24.5347 69.2386 23.4949 69.2386C21.9608 69.2386 20.5915 68.8835 19.3869 68.1733C18.1824 67.4631 17.2335 66.4375 16.5403 65.0966C15.8472 63.7557 15.5006 62.1477 15.5006 60.2727C15.5006 58.392 15.85 56.7841 16.5489 55.4489C17.2477 54.108 18.1994 53.0824 19.404 52.3722C20.6085 51.6619 21.9722 51.3068 23.4949 51.3068C24.4665 51.3068 25.3699 51.4432 26.2051 51.7159C27.0404 51.9886 27.7847 52.3892 28.4381 52.9176C29.0915 53.4403 29.6284 54.0824 30.0489 54.8438C30.475 55.5994 30.7534 56.4631 30.8841 57.4347ZM39.1136 69.2557C37.8352 69.2557 36.7272 68.9744 35.7897 68.4119C34.8522 67.8494 34.1249 67.0625 33.6079 66.0511C33.0965 65.0398 32.8408 63.858 32.8408 62.5057C32.8408 61.1534 33.0965 59.9687 33.6079 58.9517C34.1249 57.9347 34.8522 57.1449 35.7897 56.5824C36.7272 56.0199 37.8352 55.7386 39.1136 55.7386C40.392 55.7386 41.4999 56.0199 42.4374 56.5824C43.3749 57.1449 44.0994 57.9347 44.6107 58.9517C45.1278 59.9687 45.3863 61.1534 45.3863 62.5057C45.3863 63.858 45.1278 65.0398 44.6107 66.0511C44.0994 67.0625 43.3749 67.8494 42.4374 68.4119C41.4999 68.9744 40.392 69.2557 39.1136 69.2557ZM39.1306 66.7841C39.8238 66.7841 40.4033 66.5937 40.8692 66.2131C41.3352 65.8267 41.6817 65.3097 41.909 64.6619C42.142 64.0142 42.2584 63.2926 42.2584 62.4972C42.2584 61.696 42.142 60.9716 41.909 60.3239C41.6817 59.6705 41.3352 59.1506 40.8692 58.7642C40.4033 58.3778 39.8238 58.1847 39.1306 58.1847C38.4204 58.1847 37.8295 58.3778 37.3579 58.7642C36.892 59.1506 36.5425 59.6705 36.3096 60.3239C36.0823 60.9716 35.9687 61.696 35.9687 62.4972C35.9687 63.2926 36.0823 64.0142 36.3096 64.6619C36.5425 65.3097 36.892 65.8267 37.3579 66.2131C37.8295 66.5937 38.4204 66.7841 39.1306 66.7841ZM47.7649 69V55.9091H50.7564V58.0909H50.8927C51.1314 57.3352 51.5405 56.7528 52.12 56.3438C52.7052 55.929 53.3729 55.7216 54.1229 55.7216C54.2933 55.7216 54.4836 55.7301 54.6939 55.7472C54.9098 55.7585 55.0888 55.7784 55.2308 55.8068V58.6449C55.1001 58.5994 54.8927 58.5597 54.6086 58.5256C54.3302 58.4858 54.0604 58.4659 53.799 58.4659C53.2365 58.4659 52.7308 58.5881 52.2819 58.8324C51.8388 59.071 51.4893 59.4034 51.2336 59.8295C50.978 60.2557 50.8501 60.7472 50.8501 61.304V69H47.7649ZM57.0405 73.9091V55.9091H60.0746V58.0739H60.2536C60.4127 57.7557 60.6371 57.4176 60.9269 57.0597C61.2167 56.696 61.6087 56.3864 62.103 56.1307C62.5973 55.8693 63.228 55.7386 63.9951 55.7386C65.0064 55.7386 65.9184 55.9972 66.7309 56.5142C67.549 57.0256 68.1968 57.7841 68.674 58.7898C69.157 59.7898 69.3985 61.017 69.3985 62.4716C69.3985 63.9091 69.1627 65.1307 68.6911 66.1364C68.2195 67.142 67.5775 67.9091 66.765 68.4375C65.9525 68.9659 65.032 69.2301 64.0036 69.2301C63.2536 69.2301 62.6314 69.1051 62.1371 68.8551C61.6428 68.6051 61.2451 68.304 60.9439 67.9517C60.6485 67.5937 60.4184 67.2557 60.2536 66.9375H60.1257V73.9091H57.0405ZM60.0661 62.4545C60.0661 63.3011 60.1854 64.0426 60.424 64.679C60.6684 65.3153 61.0178 65.8125 61.4723 66.1705C61.9326 66.5227 62.4894 66.6989 63.1428 66.6989C63.8246 66.6989 64.3956 66.517 64.8559 66.1534C65.3161 65.7841 65.6627 65.2812 65.8956 64.6449C66.1343 64.0028 66.2536 63.2727 66.2536 62.4545C66.2536 61.642 66.1371 60.9205 65.9042 60.2898C65.6712 59.6591 65.3246 59.1648 64.8644 58.8068C64.4042 58.4489 63.8303 58.2699 63.1428 58.2699C62.4837 58.2699 61.924 58.4432 61.4638 58.7898C61.0036 59.1364 60.6542 59.6222 60.4155 60.2472C60.1826 60.8722 60.0661 61.608 60.0661 62.4545ZM77.5107 69.2557C76.2323 69.2557 75.1244 68.9744 74.1869 68.4119C73.2494 67.8494 72.5221 67.0625 72.0051 66.0511C71.4937 65.0398 71.238 63.858 71.238 62.5057C71.238 61.1534 71.4937 59.9687 72.0051 58.9517C72.5221 57.9347 73.2494 57.1449 74.1869 56.5824C75.1244 56.0199 76.2323 55.7386 77.5107 55.7386C78.7892 55.7386 79.8971 56.0199 80.8346 56.5824C81.7721 57.1449 82.4965 57.9347 83.0079 58.9517C83.525 59.9687 83.7835 61.1534 83.7835 62.5057C83.7835 63.858 83.525 65.0398 83.0079 66.0511C82.4965 67.0625 81.7721 67.8494 80.8346 68.4119C79.8971 68.9744 78.7892 69.2557 77.5107 69.2557ZM77.5278 66.7841C78.221 66.7841 78.8005 66.5937 79.2664 66.2131C79.7323 65.8267 80.0789 65.3097 80.3062 64.6619C80.5392 64.0142 80.6556 63.2926 80.6556 62.4972C80.6556 61.696 80.5392 60.9716 80.3062 60.3239C80.0789 59.6705 79.7323 59.1506 79.2664 58.7642C78.8005 58.3778 78.221 58.1847 77.5278 58.1847C76.8176 58.1847 76.2267 58.3778 75.7551 58.7642C75.2892 59.1506 74.9397 59.6705 74.7068 60.3239C74.4795 60.9716 74.3659 61.696 74.3659 62.4972C74.3659 63.2926 74.4795 64.0142 74.7068 64.6619C74.9397 65.3097 75.2892 65.8267 75.7551 66.2131C76.2267 66.5937 76.8176 66.7841 77.5278 66.7841ZM86.1621 69V55.9091H89.1536V58.0909H89.2899C89.5286 57.3352 89.9377 56.7528 90.5172 56.3438C91.1024 55.929 91.77 55.7216 92.52 55.7216C92.6905 55.7216 92.8808 55.7301 93.0911 55.7472C93.307 55.7585 93.4859 55.7784 93.628 55.8068V58.6449C93.4973 58.5994 93.2899 58.5597 93.0058 58.5256C92.7274 58.4858 92.4575 58.4659 92.1962 58.4659C91.6337 58.4659 91.128 58.5881 90.6791 58.8324C90.2359 59.071 89.8865 59.4034 89.6308 59.8295C89.3752 60.2557 89.2473 60.7472 89.2473 61.304V69H86.1621ZM98.9704 69.2642C98.1408 69.2642 97.3937 69.1165 96.7289 68.821C96.0698 68.5199 95.5471 68.0767 95.1607 67.4915C94.78 66.9062 94.5897 66.1847 94.5897 65.3267C94.5897 64.5881 94.7261 63.9773 94.9988 63.4943C95.2715 63.0114 95.6437 62.625 96.1153 62.3352C96.5869 62.0455 97.1181 61.8267 97.709 61.679C98.3056 61.5256 98.9221 61.4148 99.5584 61.3466C100.325 61.267 100.948 61.196 101.425 61.1335C101.902 61.0653 102.249 60.9631 102.465 60.8267C102.686 60.6847 102.797 60.4659 102.797 60.1705V60.1193C102.797 59.4773 102.607 58.9801 102.226 58.6278C101.845 58.2756 101.297 58.0994 100.581 58.0994C99.8255 58.0994 99.2261 58.2642 98.7829 58.5938C98.3454 58.9233 98.0499 59.3125 97.8965 59.7614L95.0158 59.3523C95.2431 58.5568 95.6181 57.892 96.1408 57.358C96.6636 56.8182 97.3028 56.4148 98.0584 56.1477C98.8141 55.875 99.6494 55.7386 100.564 55.7386C101.195 55.7386 101.823 55.8125 102.448 55.9602C103.073 56.108 103.644 56.3523 104.161 56.6932C104.678 57.0284 105.093 57.4858 105.405 58.0653C105.723 58.6449 105.882 59.3693 105.882 60.2386V69H102.916V67.2017H102.814C102.627 67.5653 102.362 67.9062 102.022 68.2244C101.686 68.5369 101.263 68.7898 100.752 68.983C100.246 69.1705 99.6522 69.2642 98.9704 69.2642ZM99.7715 66.9972C100.391 66.9972 100.928 66.875 101.382 66.6307C101.837 66.3807 102.186 66.0511 102.431 65.642C102.681 65.233 102.806 64.7869 102.806 64.304V62.7614C102.709 62.8409 102.544 62.9148 102.311 62.983C102.084 63.0511 101.828 63.1108 101.544 63.1619C101.26 63.2131 100.979 63.2585 100.7 63.2983C100.422 63.3381 100.181 63.3722 99.9761 63.4006C99.5158 63.4631 99.1039 63.5653 98.7403 63.7074C98.3766 63.8494 98.0897 64.0483 97.8795 64.304C97.6692 64.554 97.5641 64.8778 97.5641 65.2756C97.5641 65.8438 97.7715 66.2727 98.1863 66.5625C98.6011 66.8523 99.1295 66.9972 99.7715 66.9972ZM115.282 55.9091V58.2955H107.756V55.9091H115.282ZM109.614 52.7727H112.699V65.0625C112.699 65.4773 112.762 65.7955 112.887 66.017C113.017 66.233 113.188 66.3807 113.398 66.4602C113.608 66.5398 113.841 66.5795 114.097 66.5795C114.29 66.5795 114.466 66.5653 114.625 66.5369C114.79 66.5085 114.915 66.483 115 66.4602L115.52 68.8722C115.355 68.929 115.12 68.9915 114.813 69.0597C114.512 69.1278 114.142 69.1676 113.705 69.179C112.932 69.2017 112.236 69.0852 111.617 68.8295C110.997 68.5682 110.506 68.1648 110.142 67.6193C109.784 67.0739 109.608 66.392 109.614 65.5739V52.7727ZM123.277 69.2557C121.964 69.2557 120.831 68.983 119.876 68.4375C118.927 67.8864 118.197 67.108 117.686 66.1023C117.174 65.0909 116.919 63.9006 116.919 62.5312C116.919 61.1847 117.174 60.0028 117.686 58.9858C118.203 57.9631 118.924 57.1676 119.85 56.5994C120.777 56.0256 121.865 55.7386 123.115 55.7386C123.921 55.7386 124.683 55.8693 125.399 56.1307C126.12 56.3864 126.757 56.7841 127.308 57.3239C127.865 57.8636 128.302 58.5511 128.62 59.3864C128.939 60.2159 129.098 61.2045 129.098 62.3523V63.2983H118.368V61.2188H126.14C126.135 60.6278 126.007 60.1023 125.757 59.642C125.507 59.1761 125.157 58.8097 124.708 58.5426C124.265 58.2756 123.748 58.142 123.157 58.142C122.527 58.142 121.973 58.2955 121.495 58.6023C121.018 58.9034 120.646 59.3011 120.379 59.7955C120.118 60.2841 119.984 60.821 119.978 61.4062V63.2216C119.978 63.983 120.118 64.6364 120.396 65.1818C120.674 65.7216 121.064 66.1364 121.564 66.4261C122.064 66.7102 122.649 66.8523 123.319 66.8523C123.768 66.8523 124.174 66.7898 124.538 66.6648C124.902 66.5341 125.217 66.3438 125.484 66.0938C125.751 65.8438 125.953 65.5341 126.089 65.1648L128.97 65.4886C128.788 66.25 128.441 66.9148 127.93 67.483C127.424 68.0455 126.777 68.483 125.987 68.7955C125.197 69.1023 124.294 69.2557 123.277 69.2557ZM152.258 57.4347H149.07C148.979 56.9119 148.812 56.4489 148.567 56.0455C148.323 55.6364 148.019 55.2898 147.655 55.0057C147.292 54.7216 146.877 54.5085 146.411 54.3665C145.951 54.2188 145.454 54.1449 144.919 54.1449C143.971 54.1449 143.13 54.3835 142.397 54.8608C141.664 55.3324 141.09 56.0256 140.675 56.9403C140.26 57.8494 140.053 58.9602 140.053 60.2727C140.053 61.608 140.26 62.733 140.675 63.6477C141.096 64.5568 141.669 65.2443 142.397 65.7102C143.13 66.1705 143.968 66.4006 144.911 66.4006C145.434 66.4006 145.922 66.3324 146.377 66.196C146.837 66.054 147.249 65.8466 147.613 65.5739C147.982 65.3011 148.292 64.9659 148.542 64.5682C148.797 64.1705 148.973 63.7159 149.07 63.2045L152.258 63.2216C152.138 64.0511 151.88 64.8295 151.482 65.5568C151.09 66.2841 150.576 66.9261 149.939 67.483C149.303 68.0341 148.559 68.4659 147.706 68.7784C146.854 69.0852 145.908 69.2386 144.868 69.2386C143.334 69.2386 141.965 68.8835 140.76 68.1733C139.556 67.4631 138.607 66.4375 137.914 65.0966C137.221 63.7557 136.874 62.1477 136.874 60.2727C136.874 58.392 137.223 56.7841 137.922 55.4489C138.621 54.108 139.573 53.0824 140.777 52.3722C141.982 51.6619 143.346 51.3068 144.868 51.3068C145.84 51.3068 146.743 51.4432 147.579 51.7159C148.414 51.9886 149.158 52.3892 149.812 52.9176C150.465 53.4403 151.002 54.0824 151.422 54.8438C151.848 55.5994 152.127 56.4631 152.258 57.4347ZM154.777 69V55.9091H157.768V58.0909H157.905C158.143 57.3352 158.552 56.7528 159.132 56.3438C159.717 55.929 160.385 55.7216 161.135 55.7216C161.305 55.7216 161.496 55.7301 161.706 55.7472C161.922 55.7585 162.101 55.7784 162.243 55.8068V58.6449C162.112 58.5994 161.905 58.5597 161.621 58.5256C161.342 58.4858 161.072 58.4659 160.811 58.4659C160.248 58.4659 159.743 58.5881 159.294 58.8324C158.851 59.071 158.501 59.4034 158.246 59.8295C157.99 60.2557 157.862 60.7472 157.862 61.304V69H154.777ZM169.309 69.2557C167.996 69.2557 166.863 68.983 165.908 68.4375C164.959 67.8864 164.229 67.108 163.718 66.1023C163.207 65.0909 162.951 63.9006 162.951 62.5312C162.951 61.1847 163.207 60.0028 163.718 58.9858C164.235 57.9631 164.957 57.1676 165.883 56.5994C166.809 56.0256 167.897 55.7386 169.147 55.7386C169.954 55.7386 170.715 55.8693 171.431 56.1307C172.153 56.3864 172.789 56.7841 173.34 57.3239C173.897 57.8636 174.334 58.5511 174.653 59.3864C174.971 60.2159 175.13 61.2045 175.13 62.3523V63.2983H164.4V61.2188H172.172C172.167 60.6278 172.039 60.1023 171.789 59.642C171.539 59.1761 171.189 58.8097 170.741 58.5426C170.297 58.2756 169.78 58.142 169.189 58.142C168.559 58.142 168.005 58.2955 167.528 58.6023C167.05 58.9034 166.678 59.3011 166.411 59.7955C166.15 60.2841 166.016 60.821 166.01 61.4062V63.2216C166.01 63.983 166.15 64.6364 166.428 65.1818C166.707 65.7216 167.096 66.1364 167.596 66.4261C168.096 66.7102 168.681 66.8523 169.351 66.8523C169.8 66.8523 170.207 66.7898 170.57 66.6648C170.934 66.5341 171.249 66.3438 171.516 66.0938C171.783 65.8438 171.985 65.5341 172.121 65.1648L175.002 65.4886C174.82 66.25 174.474 66.9148 173.962 67.483C173.457 68.0455 172.809 68.483 172.019 68.7955C171.229 69.1023 170.326 69.2557 169.309 69.2557ZM182.358 69.2301C181.329 69.2301 180.409 68.9659 179.596 68.4375C178.784 67.9091 178.142 67.142 177.67 66.1364C177.199 65.1307 176.963 63.9091 176.963 62.4716C176.963 61.017 177.202 59.7898 177.679 58.7898C178.162 57.7841 178.812 57.0256 179.631 56.5142C180.449 55.9972 181.361 55.7386 182.366 55.7386C183.133 55.7386 183.764 55.8693 184.258 56.1307C184.753 56.3864 185.145 56.696 185.435 57.0597C185.724 57.4176 185.949 57.7557 186.108 58.0739H186.236V51.5455H189.329V69H186.295V66.9375H186.108C185.949 67.2557 185.719 67.5937 185.418 67.9517C185.116 68.304 184.719 68.6051 184.224 68.8551C183.73 69.1051 183.108 69.2301 182.358 69.2301ZM183.219 66.6989C183.872 66.6989 184.429 66.5227 184.889 66.1705C185.349 65.8125 185.699 65.3153 185.937 64.679C186.176 64.0426 186.295 63.3011 186.295 62.4545C186.295 61.608 186.176 60.8722 185.937 60.2472C185.704 59.6222 185.358 59.1364 184.898 58.7898C184.443 58.4432 183.883 58.2699 183.219 58.2699C182.531 58.2699 181.957 58.4489 181.497 58.8068C181.037 59.1648 180.69 59.6591 180.457 60.2898C180.224 60.9205 180.108 61.642 180.108 62.4545C180.108 63.2727 180.224 64.0028 180.457 64.6449C180.696 65.2812 181.045 65.7841 181.506 66.1534C181.971 66.517 182.543 66.6989 183.219 66.6989ZM192.377 69V55.9091H195.462V69H192.377ZM193.928 54.0511C193.44 54.0511 193.019 53.8892 192.667 53.5653C192.315 53.2358 192.138 52.8409 192.138 52.3807C192.138 51.9148 192.315 51.5199 192.667 51.196C193.019 50.8665 193.44 50.7017 193.928 50.7017C194.423 50.7017 194.843 50.8665 195.19 51.196C195.542 51.5199 195.718 51.9148 195.718 52.3807C195.718 52.8409 195.542 53.2358 195.19 53.5653C194.843 53.8892 194.423 54.0511 193.928 54.0511ZM204.932 55.9091V58.2955H197.406V55.9091H204.932ZM199.264 52.7727H202.349V65.0625C202.349 65.4773 202.412 65.7955 202.537 66.017C202.668 66.233 202.838 66.3807 203.048 66.4602C203.259 66.5398 203.491 66.5795 203.747 66.5795C203.94 66.5795 204.116 66.5653 204.276 66.5369C204.44 66.5085 204.565 66.483 204.651 66.4602L205.17 68.8722C205.006 68.929 204.77 68.9915 204.463 69.0597C204.162 69.1278 203.793 69.1676 203.355 69.179C202.582 69.2017 201.886 69.0852 201.267 68.8295C200.648 68.5682 200.156 68.1648 199.793 67.6193C199.435 67.0739 199.259 66.392 199.264 65.5739V52.7727ZM228.062 57.4347H224.874C224.784 56.9119 224.616 56.4489 224.372 56.0455C224.127 55.6364 223.823 55.2898 223.46 55.0057C223.096 54.7216 222.681 54.5085 222.215 54.3665C221.755 54.2188 221.258 54.1449 220.724 54.1449C219.775 54.1449 218.934 54.3835 218.201 54.8608C217.468 55.3324 216.894 56.0256 216.48 56.9403C216.065 57.8494 215.857 58.9602 215.857 60.2727C215.857 61.608 216.065 62.733 216.48 63.6477C216.9 64.5568 217.474 65.2443 218.201 65.7102C218.934 66.1705 219.772 66.4006 220.715 66.4006C221.238 66.4006 221.727 66.3324 222.181 66.196C222.641 66.054 223.053 65.8466 223.417 65.5739C223.786 65.3011 224.096 64.9659 224.346 64.5682C224.602 64.1705 224.778 63.7159 224.874 63.2045L228.062 63.2216C227.943 64.0511 227.684 64.8295 227.286 65.5568C226.894 66.2841 226.38 66.9261 225.744 67.483C225.107 68.0341 224.363 68.4659 223.511 68.7784C222.659 69.0852 221.712 69.2386 220.673 69.2386C219.139 69.2386 217.769 68.8835 216.565 68.1733C215.36 67.4631 214.411 66.4375 213.718 65.0966C213.025 63.7557 212.678 62.1477 212.678 60.2727C212.678 58.392 213.028 56.7841 213.727 55.4489C214.426 54.108 215.377 53.0824 216.582 52.3722C217.786 51.6619 219.15 51.3068 220.673 51.3068C221.644 51.3068 222.548 51.4432 223.383 51.7159C224.218 51.9886 224.962 52.3892 225.616 52.9176C226.269 53.4403 226.806 54.0824 227.227 54.8438C227.653 55.5994 227.931 56.4631 228.062 57.4347ZM234.348 69.2642C233.519 69.2642 232.771 69.1165 232.107 68.821C231.448 68.5199 230.925 68.0767 230.539 67.4915C230.158 66.9062 229.968 66.1847 229.968 65.3267C229.968 64.5881 230.104 63.9773 230.377 63.4943C230.649 63.0114 231.021 62.625 231.493 62.3352C231.965 62.0455 232.496 61.8267 233.087 61.679C233.683 61.5256 234.3 61.4148 234.936 61.3466C235.703 61.267 236.325 61.196 236.803 61.1335C237.28 61.0653 237.627 60.9631 237.843 60.8267C238.064 60.6847 238.175 60.4659 238.175 60.1705V60.1193C238.175 59.4773 237.985 58.9801 237.604 58.6278C237.223 58.2756 236.675 58.0994 235.959 58.0994C235.203 58.0994 234.604 58.2642 234.161 58.5938C233.723 58.9233 233.428 59.3125 233.274 59.7614L230.394 59.3523C230.621 58.5568 230.996 57.892 231.519 57.358C232.041 56.8182 232.681 56.4148 233.436 56.1477C234.192 55.875 235.027 55.7386 235.942 55.7386C236.573 55.7386 237.2 55.8125 237.825 55.9602C238.45 56.108 239.021 56.3523 239.539 56.6932C240.056 57.0284 240.47 57.4858 240.783 58.0653C241.101 58.6449 241.26 59.3693 241.26 60.2386V69H238.294V67.2017H238.192C238.004 67.5653 237.74 67.9062 237.399 68.2244C237.064 68.5369 236.641 68.7898 236.129 68.983C235.624 69.1705 235.03 69.2642 234.348 69.2642ZM235.149 66.9972C235.769 66.9972 236.306 66.875 236.76 66.6307C237.215 66.3807 237.564 66.0511 237.808 65.642C238.058 65.233 238.183 64.7869 238.183 64.304V62.7614C238.087 62.8409 237.922 62.9148 237.689 62.983C237.462 63.0511 237.206 63.1108 236.922 63.1619C236.638 63.2131 236.357 63.2585 236.078 63.2983C235.8 63.3381 235.558 63.3722 235.354 63.4006C234.894 63.4631 234.482 63.5653 234.118 63.7074C233.754 63.8494 233.468 64.0483 233.257 64.304C233.047 64.554 232.942 64.8778 232.942 65.2756C232.942 65.8438 233.149 66.2727 233.564 66.5625C233.979 66.8523 234.507 66.9972 235.149 66.9972ZM244.122 69V55.9091H247.114V58.0909H247.25C247.489 57.3352 247.898 56.7528 248.478 56.3438C249.063 55.929 249.73 55.7216 250.48 55.7216C250.651 55.7216 250.841 55.7301 251.051 55.7472C251.267 55.7585 251.446 55.7784 251.588 55.8068V58.6449C251.458 58.5994 251.25 58.5597 250.966 58.5256C250.688 58.4858 250.418 58.4659 250.156 58.4659C249.594 58.4659 249.088 58.5881 248.639 58.8324C248.196 59.071 247.847 59.4034 247.591 59.8295C247.335 60.2557 247.208 60.7472 247.208 61.304V69H244.122ZM257.717 69.2301C256.689 69.2301 255.768 68.9659 254.956 68.4375C254.143 67.9091 253.501 67.142 253.029 66.1364C252.558 65.1307 252.322 63.9091 252.322 62.4716C252.322 61.017 252.561 59.7898 253.038 58.7898C253.521 57.7841 254.171 57.0256 254.99 56.5142C255.808 55.9972 256.72 55.7386 257.725 55.7386C258.492 55.7386 259.123 55.8693 259.617 56.1307C260.112 56.3864 260.504 56.696 260.794 57.0597C261.083 57.4176 261.308 57.7557 261.467 58.0739H261.595V51.5455H264.689V69H261.654V66.9375H261.467C261.308 67.2557 261.078 67.5937 260.777 67.9517C260.475 68.304 260.078 68.6051 259.583 68.8551C259.089 69.1051 258.467 69.2301 257.717 69.2301ZM258.578 66.6989C259.231 66.6989 259.788 66.5227 260.248 66.1705C260.708 65.8125 261.058 65.3153 261.296 64.679C261.535 64.0426 261.654 63.3011 261.654 62.4545C261.654 61.608 261.535 60.8722 261.296 60.2472C261.064 59.6222 260.717 59.1364 260.257 58.7898C259.802 58.4432 259.242 58.2699 258.578 58.2699C257.89 58.2699 257.316 58.4489 256.856 58.8068C256.396 59.1648 256.049 59.6591 255.816 60.2898C255.583 60.9205 255.467 61.642 255.467 62.4545C255.467 63.2727 255.583 64.0028 255.816 64.6449C256.055 65.2812 256.404 65.7841 256.865 66.1534C257.331 66.517 257.902 66.6989 258.578 66.6989Z" fill="white"/>
<rect x="14.2222" y="84" width="222" height="18" rx="4" fill="#B7EFFE"/>
<path d="M20.6856 94.7855V93.8427L23.1881 89.4545H24.3354L21.8905 93.7596V93.8107H25.7769V94.7855H20.6856ZM23.8081 96V94.5075L23.8337 94.076V91.9091H24.9235V96H23.8081ZM26.798 96V95.1435L29.0704 92.9158C29.2877 92.6964 29.4688 92.5014 29.6137 92.331C29.7586 92.1605 29.8672 91.9954 29.9397 91.8356C30.0121 91.6758 30.0483 91.5053 30.0483 91.3242C30.0483 91.1175 30.0015 90.9407 29.9077 90.7937C29.814 90.6445 29.6851 90.5295 29.521 90.4485C29.3569 90.3675 29.1705 90.3271 28.9617 90.3271C28.7465 90.3271 28.5579 90.3718 28.396 90.4613C28.2341 90.5487 28.1084 90.6733 28.0189 90.8352C27.9315 90.9972 27.8878 91.19 27.8878 91.4137H26.7596C26.7596 90.9982 26.8544 90.6371 27.0441 90.3303C27.2337 90.0234 27.4947 89.7859 27.8271 89.6175C28.1616 89.4492 28.5451 89.3651 28.9777 89.3651C29.4166 89.3651 29.8022 89.4471 30.1346 89.6112C30.467 89.7752 30.7248 90 30.9081 90.2855C31.0934 90.571 31.1861 90.897 31.1861 91.2635C31.1861 91.5085 31.1392 91.7493 31.0455 91.9858C30.9517 92.2223 30.7866 92.4844 30.5501 92.772C30.3157 93.0597 29.9866 93.408 29.5625 93.8171L28.4343 94.9645V95.0092H31.2852V96H26.798ZM34.6842 96V89.4545H35.8699V95.006H38.7527V96H34.6842ZM41.1433 96.0991C40.8323 96.0991 40.5521 96.0437 40.3028 95.9329C40.0556 95.82 39.8596 95.6538 39.7147 95.4343C39.572 95.2148 39.5006 94.9442 39.5006 94.6225C39.5006 94.3455 39.5517 94.1165 39.654 93.9354C39.7563 93.7543 39.8958 93.6094 40.0727 93.5007C40.2495 93.392 40.4487 93.31 40.6703 93.2546C40.894 93.1971 41.1252 93.1555 41.3639 93.13C41.6515 93.1001 41.8848 93.0735 42.0638 93.0501C42.2428 93.0245 42.3727 92.9862 42.4537 92.935C42.5368 92.8817 42.5783 92.7997 42.5783 92.6889V92.6697C42.5783 92.429 42.507 92.2425 42.3642 92.1104C42.2215 91.9783 42.0158 91.9123 41.7474 91.9123C41.464 91.9123 41.2392 91.9741 41.073 92.0977C40.909 92.2212 40.7982 92.3672 40.7406 92.5355L39.6604 92.3821C39.7456 92.0838 39.8862 91.8345 40.0823 91.6342C40.2783 91.4318 40.518 91.2805 40.8014 91.1804C41.0847 91.0781 41.3979 91.027 41.741 91.027C41.9775 91.027 42.2129 91.0547 42.4473 91.1101C42.6817 91.1655 42.8958 91.2571 43.0897 91.3849C43.2836 91.5107 43.4391 91.6822 43.5563 91.8995C43.6756 92.1168 43.7353 92.3885 43.7353 92.7145V96H42.6231V95.3256H42.5847C42.5144 95.462 42.4153 95.5898 42.2875 95.7092C42.1618 95.8263 42.0031 95.9212 41.8113 95.9936C41.6217 96.0639 41.399 96.0991 41.1433 96.0991ZM41.4438 95.2489C41.676 95.2489 41.8774 95.2031 42.0478 95.1115C42.2183 95.0178 42.3493 94.8942 42.4409 94.7408C42.5347 94.5874 42.5815 94.4201 42.5815 94.239V93.6605C42.5453 93.6903 42.4835 93.718 42.3962 93.7436C42.3109 93.7692 42.2151 93.7915 42.1085 93.8107C42.002 93.8299 41.8965 93.8469 41.7921 93.8619C41.6877 93.8768 41.5972 93.8896 41.5205 93.9002C41.3479 93.9237 41.1934 93.962 41.057 94.0153C40.9207 94.0685 40.8131 94.1431 40.7342 94.239C40.6554 94.3327 40.616 94.4542 40.616 94.6033C40.616 94.8164 40.6938 94.9773 40.8493 95.0859C41.0048 95.1946 41.203 95.2489 41.4438 95.2489ZM45.9533 94.4595L45.9502 93.0629H46.1355L47.8997 91.0909H49.2516L47.0815 93.5071H46.8418L45.9533 94.4595ZM44.8987 96V89.4545H46.0556V96H44.8987ZM47.9796 96L46.3816 93.766L47.1614 92.951L49.3635 96H47.9796ZM51.1796 93.1236V96H50.0227V89.4545H51.1541V91.9251H51.2116C51.3267 91.6481 51.5046 91.4297 51.7453 91.2699C51.9882 91.108 52.2972 91.027 52.6722 91.027C53.0131 91.027 53.3103 91.0984 53.5639 91.2411C53.8174 91.3839 54.0135 91.5927 54.1519 91.8675C54.2926 92.1424 54.3629 92.478 54.3629 92.8743V96H53.2059V93.0533C53.2059 92.723 53.1207 92.4663 52.9502 92.283C52.7819 92.0977 52.5454 92.005 52.2407 92.005C52.0362 92.005 51.8529 92.0497 51.691 92.1392C51.5312 92.2266 51.4055 92.3533 51.3139 92.5195C51.2244 92.6857 51.1796 92.8871 51.1796 93.1236ZM57.4726 95.6133V91.19H58.4762V95.6133H57.4726ZM55.7627 93.9034V92.8999H60.186V93.9034H55.7627ZM65.9716 96.0959C65.4816 96.0959 65.0608 95.9883 64.7092 95.7731C64.3598 95.5579 64.0902 95.2607 63.9006 94.8814C63.7131 94.5 63.6194 94.0611 63.6194 93.5646C63.6194 93.0661 63.7152 92.6261 63.907 92.2447C64.0988 91.8612 64.3694 91.5629 64.7188 91.3498C65.0704 91.1346 65.4858 91.027 65.9652 91.027C66.3637 91.027 66.7163 91.1005 67.0231 91.2475C67.3321 91.3924 67.5782 91.598 67.7614 91.8643C67.9446 92.1286 68.0491 92.4375 68.0746 92.7912H66.9688C66.9241 92.5547 66.8175 92.3576 66.6492 92.1999C66.483 92.0401 66.2603 91.9602 65.9812 91.9602C65.7447 91.9602 65.537 92.0241 65.358 92.152C65.179 92.2777 65.0395 92.4588 64.9393 92.6953C64.8413 92.9318 64.7923 93.2152 64.7923 93.5455C64.7923 93.88 64.8413 94.1676 64.9393 94.4084C65.0373 94.647 65.1748 94.8313 65.3516 94.9613C65.5306 95.0891 65.7405 95.1531 65.9812 95.1531C66.1517 95.1531 66.304 95.1211 66.4383 95.0572C66.5746 94.9911 66.6886 94.8963 66.7802 94.7727C66.8718 94.6491 66.9347 94.4989 66.9688 94.3221H68.0746C68.0469 94.6694 67.9446 94.9773 67.7678 95.2457C67.591 95.5121 67.3502 95.7209 67.0455 95.8722C66.7408 96.0213 66.3829 96.0959 65.9716 96.0959ZM72.1535 93.9354V91.0909H73.3105V96H72.1887V95.1275H72.1376C72.0268 95.4023 71.8446 95.6271 71.591 95.8018C71.3396 95.9766 71.0296 96.0639 70.661 96.0639C70.3393 96.0639 70.0548 95.9925 69.8077 95.8498C69.5626 95.7049 69.3709 95.495 69.2324 95.2202C69.0939 94.9432 69.0246 94.6087 69.0246 94.2166V91.0909H70.1816V94.0376C70.1816 94.3487 70.2668 94.5959 70.4373 94.7791C70.6077 94.9624 70.8315 95.054 71.1084 95.054C71.2789 95.054 71.444 95.0124 71.6038 94.9293C71.7636 94.8462 71.8947 94.7227 71.9969 94.5586C72.1013 94.3924 72.1535 94.1847 72.1535 93.9354ZM78.3802 92.3885L77.3255 92.5036C77.2957 92.397 77.2435 92.2969 77.1689 92.2031C77.0965 92.1094 76.9984 92.0337 76.8749 91.9762C76.7513 91.9187 76.6 91.8899 76.421 91.8899C76.1803 91.8899 75.9778 91.9421 75.8138 92.0465C75.6519 92.1509 75.572 92.2862 75.5741 92.4524C75.572 92.5952 75.6242 92.7113 75.7307 92.8008C75.8394 92.8903 76.0183 92.9638 76.2676 93.0213L77.105 93.2003C77.5695 93.3004 77.9146 93.4592 78.1405 93.6765C78.3685 93.8938 78.4835 94.1783 78.4857 94.5298C78.4835 94.8388 78.393 95.1115 78.214 95.348C78.0372 95.5824 77.7911 95.7656 77.4757 95.8977C77.1604 96.0298 76.7982 96.0959 76.3891 96.0959C75.7882 96.0959 75.3046 95.9702 74.9381 95.7188C74.5716 95.4652 74.3532 95.1126 74.2829 94.6609L75.4111 94.5522C75.4622 94.7738 75.5709 94.9411 75.7371 95.054C75.9033 95.1669 76.1195 95.2234 76.3859 95.2234C76.6607 95.2234 76.8813 95.1669 77.0475 95.054C77.2158 94.9411 77.2999 94.8015 77.2999 94.6353C77.2999 94.4947 77.2456 94.3786 77.1369 94.2869C77.0304 94.1953 76.8642 94.125 76.6384 94.076L75.801 93.9002C75.3301 93.8022 74.9818 93.6371 74.7559 93.4048C74.5301 93.1705 74.4182 92.8743 74.4203 92.5163C74.4182 92.2138 74.5002 91.9517 74.6664 91.7301C74.8347 91.5064 75.068 91.3338 75.3663 91.2124C75.6668 91.0888 76.013 91.027 76.4051 91.027C76.9803 91.027 77.4331 91.1495 77.7634 91.3945C78.0957 91.6396 78.3014 91.9709 78.3802 92.3885ZM81.891 91.0909V91.9858H79.0689V91.0909H81.891ZM79.7657 89.9148H80.9226V94.5234C80.9226 94.679 80.9461 94.7983 80.9929 94.8814C81.0419 94.9624 81.1059 95.0178 81.1847 95.0476C81.2635 95.0774 81.3509 95.0923 81.4468 95.0923C81.5192 95.0923 81.5853 95.087 81.6449 95.0763C81.7067 95.0657 81.7536 95.0561 81.7856 95.0476L81.9805 95.9521C81.9187 95.9734 81.8303 95.9968 81.7152 96.0224C81.6023 96.0479 81.4638 96.0629 81.2998 96.0671C81.01 96.0756 80.749 96.032 80.5167 95.9361C80.2845 95.8381 80.1002 95.6868 79.9638 95.4822C79.8296 95.2777 79.7635 95.022 79.7657 94.7152V89.9148ZM84.9472 96.0959C84.4678 96.0959 84.0523 95.9904 83.7008 95.7795C83.3492 95.5685 83.0765 95.2734 82.8826 94.8942C82.6908 94.5149 82.5949 94.0717 82.5949 93.5646C82.5949 93.0575 82.6908 92.6133 82.8826 92.2319C83.0765 91.8505 83.3492 91.5543 83.7008 91.3434C84.0523 91.1325 84.4678 91.027 84.9472 91.027C85.4266 91.027 85.8421 91.1325 86.1937 91.3434C86.5452 91.5543 86.8169 91.8505 87.0087 92.2319C87.2025 92.6133 87.2995 93.0575 87.2995 93.5646C87.2995 94.0717 87.2025 94.5149 87.0087 94.8942C86.8169 95.2734 86.5452 95.5685 86.1937 95.7795C85.8421 95.9904 85.4266 96.0959 84.9472 96.0959ZM84.9536 95.169C85.2136 95.169 85.4309 95.0977 85.6056 94.9549C85.7803 94.81 85.9103 94.6161 85.9955 94.3732C86.0829 94.1303 86.1266 93.8597 86.1266 93.5614C86.1266 93.261 86.0829 92.9893 85.9955 92.7464C85.9103 92.5014 85.7803 92.3065 85.6056 92.1616C85.4309 92.0167 85.2136 91.9442 84.9536 91.9442C84.6873 91.9442 84.4657 92.0167 84.2888 92.1616C84.1141 92.3065 83.9831 92.5014 83.8957 92.7464C83.8105 92.9893 83.7679 93.261 83.7679 93.5614C83.7679 93.8597 83.8105 94.1303 83.8957 94.3732C83.9831 94.6161 84.1141 94.81 84.2888 94.9549C84.4657 95.0977 84.6873 95.169 84.9536 95.169ZM88.2815 96V91.0909H89.3873V91.9251H89.4448C89.5471 91.6438 89.7165 91.4244 89.953 91.2667C90.1895 91.1069 90.4718 91.027 90.7999 91.027C91.1323 91.027 91.4125 91.108 91.6405 91.2699C91.8706 91.4297 92.0325 91.6481 92.1263 91.9251H92.1774C92.2861 91.6523 92.4693 91.435 92.7271 91.2731C92.9871 91.109 93.295 91.027 93.6508 91.027C94.1025 91.027 94.4711 91.1697 94.7566 91.4553C95.0421 91.7408 95.1849 92.1573 95.1849 92.7049V96H94.0247V92.8839C94.0247 92.5792 93.9438 92.3565 93.7818 92.2159C93.6199 92.0732 93.4217 92.0018 93.1874 92.0018C92.9082 92.0018 92.6899 92.0891 92.5322 92.2638C92.3766 92.4364 92.2989 92.6612 92.2989 92.9382V96H91.1643V92.8359C91.1643 92.5824 91.0876 92.38 90.9342 92.2287C90.7829 92.0774 90.5847 92.0018 90.3397 92.0018C90.1735 92.0018 90.0222 92.0444 89.8859 92.1296C89.7495 92.2127 89.6408 92.331 89.5599 92.4844C89.4789 92.6357 89.4384 92.8125 89.4384 93.0149V96H88.2815ZM98.5319 96.0959C98.0397 96.0959 97.6147 95.9936 97.2567 95.7891C96.9009 95.5824 96.6271 95.2905 96.4353 94.9134C96.2436 94.5341 96.1477 94.0877 96.1477 93.5742C96.1477 93.0692 96.2436 92.6261 96.4353 92.2447C96.6292 91.8612 96.8998 91.5629 97.2471 91.3498C97.5944 91.1346 98.0024 91.027 98.4712 91.027C98.7737 91.027 99.0593 91.076 99.3277 91.174C99.5983 91.2699 99.837 91.419 100.044 91.6214C100.252 91.8239 100.417 92.0817 100.536 92.3949C100.655 92.706 100.715 93.0767 100.715 93.5071V93.8619H96.691V93.082H99.6058C99.6036 92.8604 99.5557 92.6634 99.462 92.4908C99.3682 92.3161 99.2372 92.1786 99.0688 92.0785C98.9027 91.9783 98.7088 91.9283 98.4872 91.9283C98.2507 91.9283 98.0429 91.9858 97.8639 92.1009C97.685 92.2138 97.5454 92.3629 97.4453 92.5483C97.3473 92.7315 97.2972 92.9329 97.2951 93.1523V93.8331C97.2951 94.1186 97.3473 94.3636 97.4517 94.5682C97.5561 94.7706 97.702 94.9261 97.8895 95.0348C98.077 95.1413 98.2965 95.1946 98.5479 95.1946C98.7162 95.1946 98.8686 95.1712 99.0049 95.1243C99.1413 95.0753 99.2595 95.0039 99.3597 94.9102C99.4598 94.8164 99.5355 94.7003 99.5866 94.5618L100.667 94.6832C100.599 94.9687 100.469 95.218 100.277 95.4311C100.087 95.642 99.8444 95.8061 99.5483 95.9233C99.2521 96.0384 98.9133 96.0959 98.5319 96.0959ZM101.694 96V91.0909H102.815V91.9091H102.867C102.956 91.6257 103.109 91.4073 103.327 91.2539C103.546 91.0984 103.797 91.0206 104.078 91.0206C104.142 91.0206 104.213 91.0238 104.292 91.0302C104.373 91.0344 104.44 91.0419 104.493 91.0526V92.1168C104.444 92.0998 104.367 92.0849 104.26 92.0721C104.156 92.0572 104.054 92.0497 103.956 92.0497C103.745 92.0497 103.556 92.0955 103.387 92.1871C103.221 92.2766 103.09 92.4013 102.994 92.5611C102.898 92.7209 102.851 92.9052 102.851 93.114V96H101.694ZM109.142 92.3885L108.087 92.5036C108.057 92.397 108.005 92.2969 107.931 92.2031C107.858 92.1094 107.76 92.0337 107.637 91.9762C107.513 91.9187 107.362 91.8899 107.183 91.8899C106.942 91.8899 106.74 91.9421 106.576 92.0465C106.414 92.1509 106.334 92.2862 106.336 92.4524C106.334 92.5952 106.386 92.7113 106.492 92.8008C106.601 92.8903 106.78 92.9638 107.029 93.0213L107.867 93.2003C108.331 93.3004 108.676 93.4592 108.902 93.6765C109.13 93.8938 109.245 94.1783 109.247 94.5298C109.245 94.8388 109.155 95.1115 108.976 95.348C108.799 95.5824 108.553 95.7656 108.237 95.8977C107.922 96.0298 107.56 96.0959 107.151 96.0959C106.55 96.0959 106.066 95.9702 105.7 95.7188C105.333 95.4652 105.115 95.1126 105.045 94.6609L106.173 94.5522C106.224 94.7738 106.333 94.9411 106.499 95.054C106.665 95.1669 106.881 95.2234 107.148 95.2234C107.422 95.2234 107.643 95.1669 107.809 95.054C107.977 94.9411 108.062 94.8015 108.062 94.6353C108.062 94.4947 108.007 94.3786 107.899 94.2869C107.792 94.1953 107.626 94.125 107.4 94.076L106.563 93.9002C106.092 93.8022 105.743 93.6371 105.518 93.4048C105.292 93.1705 105.18 92.8743 105.182 92.5163C105.18 92.2138 105.262 91.9517 105.428 91.7301C105.596 91.5064 105.83 91.3338 106.128 91.2124C106.428 91.0888 106.775 91.027 107.167 91.027C107.742 91.027 108.195 91.1495 108.525 91.3945C108.857 91.6396 109.063 91.9709 109.142 92.3885Z" fill="#004B8D"/>
<path d="M113.667 93.0469V96H112.913V89.4545H113.667V91.858H113.731C113.846 91.6044 114.018 91.4031 114.248 91.2539C114.481 91.1026 114.79 91.027 115.175 91.027C115.51 91.027 115.803 91.0941 116.054 91.2283C116.306 91.3604 116.501 91.5639 116.639 91.8388C116.78 92.1115 116.85 92.4588 116.85 92.8807V96H116.096V92.9318C116.096 92.5419 115.995 92.2404 115.792 92.0273C115.592 91.8121 115.314 91.7045 114.958 91.7045C114.711 91.7045 114.489 91.7567 114.293 91.8612C114.099 91.9656 113.946 92.1179 113.833 92.3182C113.722 92.5185 113.667 92.7614 113.667 93.0469ZM119.674 96.1151C119.363 96.1151 119.081 96.0565 118.828 95.9393C118.574 95.82 118.373 95.6484 118.223 95.4247C118.074 95.1989 118 94.9261 118 94.6065C118 94.3253 118.055 94.0973 118.166 93.9226C118.277 93.7457 118.425 93.6072 118.61 93.5071C118.796 93.407 119 93.3324 119.224 93.2834C119.45 93.2322 119.677 93.1918 119.905 93.1619C120.203 93.1236 120.445 93.0948 120.63 93.0756C120.818 93.0543 120.954 93.0192 121.039 92.9702C121.127 92.9212 121.17 92.8359 121.17 92.7145V92.6889C121.17 92.3736 121.084 92.1286 120.911 91.9538C120.741 91.7791 120.482 91.6918 120.135 91.6918C119.775 91.6918 119.492 91.7706 119.288 91.9283C119.083 92.0859 118.939 92.2543 118.856 92.4332L118.14 92.1776C118.268 91.8793 118.439 91.647 118.652 91.4808C118.867 91.3125 119.101 91.1953 119.355 91.1293C119.611 91.0611 119.862 91.027 120.109 91.027C120.267 91.027 120.448 91.0462 120.652 91.0845C120.859 91.1207 121.058 91.1964 121.25 91.3114C121.444 91.4265 121.605 91.6001 121.733 91.8324C121.861 92.0646 121.924 92.3757 121.924 92.7656V96H121.17V95.3352H121.132C121.081 95.4418 120.996 95.5558 120.876 95.6772C120.757 95.7987 120.598 95.902 120.4 95.9872C120.202 96.0724 119.96 96.1151 119.674 96.1151ZM119.79 95.4375C120.088 95.4375 120.339 95.3789 120.544 95.2617C120.75 95.1445 120.906 94.9933 121.01 94.8079C121.117 94.6225 121.17 94.4276 121.17 94.223V93.5327C121.138 93.571 121.068 93.6062 120.959 93.6381C120.853 93.668 120.729 93.6946 120.589 93.718C120.45 93.7393 120.315 93.7585 120.183 93.7756C120.053 93.7905 119.947 93.8033 119.866 93.8139C119.67 93.8395 119.487 93.881 119.317 93.9386C119.148 93.994 119.012 94.0781 118.907 94.1911C118.805 94.3018 118.754 94.4531 118.754 94.6449C118.754 94.907 118.851 95.1051 119.045 95.2393C119.241 95.3714 119.489 95.4375 119.79 95.4375ZM127.14 91.0909L125.324 96H124.557L122.742 91.0909H123.56L124.915 95.0028H124.966L126.321 91.0909H127.14ZM130.018 96.1023C129.545 96.1023 129.137 95.9979 128.794 95.7891C128.453 95.5781 128.189 95.2841 128.004 94.907C127.821 94.5277 127.729 94.0866 127.729 93.5838C127.729 93.081 127.821 92.6378 128.004 92.2543C128.189 91.8686 128.447 91.5682 128.778 91.353C129.11 91.1357 129.498 91.027 129.941 91.027C130.197 91.027 130.449 91.0696 130.698 91.1548C130.948 91.2401 131.175 91.3786 131.379 91.5703C131.584 91.7599 131.747 92.0114 131.868 92.3246C131.99 92.6378 132.05 93.0234 132.05 93.4815V93.8011H128.266V93.1491H131.283C131.283 92.8722 131.228 92.625 131.117 92.4077C131.008 92.1903 130.853 92.0188 130.65 91.8931C130.45 91.7674 130.214 91.7045 129.941 91.7045C129.64 91.7045 129.381 91.7791 129.161 91.9283C128.944 92.0753 128.777 92.267 128.659 92.5036C128.542 92.7401 128.484 92.9936 128.484 93.2642V93.6989C128.484 94.0696 128.547 94.3839 128.675 94.6417C128.805 94.8974 128.985 95.0923 129.215 95.2266C129.446 95.3587 129.713 95.4247 130.018 95.4247C130.216 95.4247 130.395 95.397 130.555 95.3416C130.716 95.2841 130.856 95.1989 130.973 95.0859C131.09 94.9709 131.181 94.8281 131.245 94.6577L131.974 94.8622C131.897 95.1094 131.768 95.3267 131.587 95.5142C131.406 95.6996 131.182 95.8445 130.916 95.9489C130.649 96.0511 130.35 96.1023 130.018 96.1023ZM137.174 96.1151C136.862 96.1151 136.58 96.0565 136.327 95.9393C136.073 95.82 135.872 95.6484 135.723 95.4247C135.573 95.1989 135.499 94.9261 135.499 94.6065C135.499 94.3253 135.554 94.0973 135.665 93.9226C135.776 93.7457 135.924 93.6072 136.109 93.5071C136.295 93.407 136.499 93.3324 136.723 93.2834C136.949 93.2322 137.176 93.1918 137.404 93.1619C137.702 93.1236 137.944 93.0948 138.129 93.0756C138.317 93.0543 138.453 93.0192 138.538 92.9702C138.626 92.9212 138.669 92.8359 138.669 92.7145V92.6889C138.669 92.3736 138.583 92.1286 138.41 91.9538C138.24 91.7791 137.981 91.6918 137.634 91.6918C137.274 91.6918 136.991 91.7706 136.787 91.9283C136.582 92.0859 136.438 92.2543 136.355 92.4332L135.639 92.1776C135.767 91.8793 135.938 91.647 136.151 91.4808C136.366 91.3125 136.6 91.1953 136.854 91.1293C137.11 91.0611 137.361 91.027 137.608 91.027C137.766 91.027 137.947 91.0462 138.152 91.0845C138.358 91.1207 138.557 91.1964 138.749 91.3114C138.943 91.4265 139.104 91.6001 139.232 91.8324C139.36 92.0646 139.424 92.3757 139.424 92.7656V96H138.669V95.3352H138.631C138.58 95.4418 138.495 95.5558 138.375 95.6772C138.256 95.7987 138.097 95.902 137.899 95.9872C137.701 96.0724 137.459 96.1151 137.174 96.1151ZM137.289 95.4375C137.587 95.4375 137.838 95.3789 138.043 95.2617C138.25 95.1445 138.405 94.9933 138.509 94.8079C138.616 94.6225 138.669 94.4276 138.669 94.223V93.5327C138.637 93.571 138.567 93.6062 138.458 93.6381C138.352 93.668 138.228 93.6946 138.088 93.718C137.949 93.7393 137.814 93.7585 137.682 93.7756C137.552 93.7905 137.446 93.8033 137.365 93.8139C137.169 93.8395 136.986 93.881 136.816 93.9386C136.647 93.994 136.511 94.0781 136.406 94.1911C136.304 94.3018 136.253 94.4531 136.253 94.6449C136.253 94.907 136.35 95.1051 136.544 95.2393C136.74 95.3714 136.988 95.4375 137.289 95.4375ZM141.554 89.4545V96H140.8V89.4545H141.554ZM142.936 96V91.0909H143.665V91.8324H143.716C143.805 91.5895 143.967 91.3924 144.202 91.2411C144.436 91.0898 144.7 91.0142 144.994 91.0142C145.05 91.0142 145.119 91.0153 145.202 91.0174C145.285 91.0195 145.348 91.0227 145.39 91.027V91.794C145.365 91.7876 145.306 91.7781 145.215 91.7653C145.125 91.7504 145.03 91.7429 144.93 91.7429C144.692 91.7429 144.479 91.793 144.291 91.8931C144.106 91.9911 143.959 92.1275 143.85 92.3022C143.743 92.4748 143.69 92.6719 143.69 92.8935V96H142.936ZM148.193 96.1023C147.72 96.1023 147.312 95.9979 146.969 95.7891C146.628 95.5781 146.365 95.2841 146.18 94.907C145.997 94.5277 145.905 94.0866 145.905 93.5838C145.905 93.081 145.997 92.6378 146.18 92.2543C146.365 91.8686 146.623 91.5682 146.953 91.353C147.286 91.1357 147.674 91.027 148.117 91.027C148.372 91.027 148.625 91.0696 148.874 91.1548C149.123 91.2401 149.35 91.3786 149.555 91.5703C149.759 91.7599 149.922 92.0114 150.044 92.3246C150.165 92.6378 150.226 93.0234 150.226 93.4815V93.8011H146.442V93.1491H149.459C149.459 92.8722 149.404 92.625 149.293 92.4077C149.184 92.1903 149.029 92.0188 148.826 91.8931C148.626 91.7674 148.389 91.7045 148.117 91.7045C147.816 91.7045 147.556 91.7791 147.337 91.9283C147.12 92.0753 146.952 92.267 146.835 92.5036C146.718 92.7401 146.659 92.9936 146.659 93.2642V93.6989C146.659 94.0696 146.723 94.3839 146.851 94.6417C146.981 94.8974 147.161 95.0923 147.391 95.2266C147.621 95.3587 147.889 95.4247 148.193 95.4247C148.392 95.4247 148.571 95.397 148.73 95.3416C148.892 95.2841 149.032 95.1989 149.149 95.0859C149.266 94.9709 149.357 94.8281 149.421 94.6577L150.149 94.8622C150.073 95.1094 149.944 95.3267 149.763 95.5142C149.582 95.6996 149.358 95.8445 149.091 95.9489C148.825 96.0511 148.526 96.1023 148.193 96.1023ZM152.818 96.1151C152.507 96.1151 152.225 96.0565 151.971 95.9393C151.718 95.82 151.516 95.6484 151.367 95.4247C151.218 95.1989 151.143 94.9261 151.143 94.6065C151.143 94.3253 151.199 94.0973 151.31 93.9226C151.42 93.7457 151.568 93.6072 151.754 93.5071C151.939 93.407 152.144 93.3324 152.367 93.2834C152.593 93.2322 152.82 93.1918 153.048 93.1619C153.346 93.1236 153.588 93.0948 153.774 93.0756C153.961 93.0543 154.098 93.0192 154.183 92.9702C154.27 92.9212 154.314 92.8359 154.314 92.7145V92.6889C154.314 92.3736 154.227 92.1286 154.055 91.9538C153.884 91.7791 153.626 91.6918 153.278 91.6918C152.918 91.6918 152.636 91.7706 152.431 91.9283C152.227 92.0859 152.083 92.2543 152 92.4332L151.284 92.1776C151.412 91.8793 151.582 91.647 151.795 91.4808C152.011 91.3125 152.245 91.1953 152.498 91.1293C152.754 91.0611 153.006 91.027 153.253 91.027C153.41 91.027 153.591 91.0462 153.796 91.0845C154.003 91.1207 154.202 91.1964 154.394 91.3114C154.588 91.4265 154.748 91.6001 154.876 91.8324C155.004 92.0646 155.068 92.3757 155.068 92.7656V96H154.314V95.3352H154.275C154.224 95.4418 154.139 95.5558 154.02 95.6772C153.9 95.7987 153.742 95.902 153.544 95.9872C153.345 96.0724 153.104 96.1151 152.818 96.1151ZM152.933 95.4375C153.231 95.4375 153.483 95.3789 153.687 95.2617C153.894 95.1445 154.05 94.9933 154.154 94.8079C154.261 94.6225 154.314 94.4276 154.314 94.223V93.5327C154.282 93.571 154.212 93.6062 154.103 93.6381C153.996 93.668 153.873 93.6946 153.732 93.718C153.594 93.7393 153.458 93.7585 153.326 93.7756C153.196 93.7905 153.091 93.8033 153.01 93.8139C152.814 93.8395 152.631 93.881 152.46 93.9386C152.292 93.994 152.155 94.0781 152.051 94.1911C151.949 94.3018 151.898 94.4531 151.898 94.6449C151.898 94.907 151.995 95.1051 152.188 95.2393C152.384 95.3714 152.633 95.4375 152.933 95.4375ZM158.298 96.1023C157.889 96.1023 157.528 95.9989 157.215 95.7923C156.902 95.5835 156.657 95.2894 156.48 94.9102C156.303 94.5288 156.215 94.0781 156.215 93.5582C156.215 93.0426 156.303 92.5952 156.48 92.2159C156.657 91.8366 156.903 91.5437 157.218 91.337C157.534 91.1303 157.898 91.027 158.311 91.027C158.631 91.027 158.883 91.0803 159.069 91.1868C159.256 91.2912 159.399 91.4105 159.497 91.5447C159.597 91.6768 159.675 91.7855 159.73 91.8707H159.794V89.4545H160.548V96H159.82V95.2457H159.73C159.675 95.3352 159.596 95.4482 159.494 95.5845C159.391 95.7187 159.246 95.8391 159.056 95.9457C158.866 96.0501 158.614 96.1023 158.298 96.1023ZM158.401 95.4247C158.703 95.4247 158.959 95.3459 159.168 95.1882C159.377 95.0284 159.535 94.8079 159.644 94.5266C159.753 94.2433 159.807 93.9162 159.807 93.5455C159.807 93.179 159.754 92.8583 159.647 92.5835C159.541 92.3065 159.383 92.0913 159.174 91.9379C158.965 91.7823 158.708 91.7045 158.401 91.7045C158.081 91.7045 157.815 91.7866 157.602 91.9506C157.391 92.1126 157.232 92.3331 157.125 92.6122C157.021 92.8892 156.969 93.2003 156.969 93.5455C156.969 93.8949 157.022 94.2124 157.129 94.4979C157.237 94.7812 157.397 95.0071 157.608 95.1754C157.821 95.3416 158.085 95.4247 158.401 95.4247ZM162.52 97.8409C162.393 97.8409 162.279 97.8303 162.178 97.8089C162.078 97.7898 162.009 97.7706 161.971 97.7514L162.162 97.0866C162.346 97.1335 162.508 97.1506 162.648 97.1378C162.789 97.125 162.913 97.0621 163.022 96.9492C163.133 96.8384 163.234 96.6584 163.326 96.4091L163.466 96.0256L161.651 91.0909H162.469L163.824 95.0028H163.875L165.231 91.0909H166.049L163.965 96.7159C163.871 96.9695 163.755 97.1793 163.617 97.3455C163.478 97.5138 163.317 97.6385 163.134 97.7195C162.953 97.8004 162.748 97.8409 162.52 97.8409ZM171.634 96.1023C171.161 96.1023 170.753 95.9979 170.41 95.7891C170.069 95.5781 169.806 95.2841 169.62 94.907C169.437 94.5277 169.345 94.0866 169.345 93.5838C169.345 93.081 169.437 92.6378 169.62 92.2543C169.806 91.8686 170.064 91.5682 170.394 91.353C170.726 91.1357 171.114 91.027 171.557 91.027C171.813 91.027 172.065 91.0696 172.315 91.1548C172.564 91.2401 172.791 91.3786 172.995 91.5703C173.2 91.7599 173.363 92.0114 173.484 92.3246C173.606 92.6378 173.667 93.0234 173.667 93.4815V93.8011H169.882V93.1491H172.899C172.899 92.8722 172.844 92.625 172.733 92.4077C172.625 92.1903 172.469 92.0188 172.267 91.8931C172.066 91.7674 171.83 91.7045 171.557 91.7045C171.257 91.7045 170.997 91.7791 170.777 91.9283C170.56 92.0753 170.393 92.267 170.276 92.5036C170.158 92.7401 170.1 92.9936 170.1 93.2642V93.6989C170.1 94.0696 170.164 94.3839 170.292 94.6417C170.421 94.8974 170.602 95.0923 170.832 95.2266C171.062 95.3587 171.329 95.4247 171.634 95.4247C171.832 95.4247 172.011 95.397 172.171 95.3416C172.333 95.2841 172.472 95.1989 172.589 95.0859C172.707 94.9709 172.797 94.8281 172.861 94.6577L173.59 94.8622C173.513 95.1094 173.384 95.3267 173.203 95.5142C173.022 95.6996 172.798 95.8445 172.532 95.9489C172.266 96.0511 171.966 96.1023 171.634 96.1023ZM175.245 91.0909L176.421 93.098L177.597 91.0909H178.466L176.881 93.5455L178.466 96H177.597L176.421 94.0952L175.245 96H174.375L175.935 93.5455L174.375 91.0909H175.245ZM179.542 97.8409V91.0909H180.271V91.8707H180.361C180.416 91.7855 180.493 91.6768 180.591 91.5447C180.691 91.4105 180.834 91.2912 181.019 91.1868C181.206 91.0803 181.46 91.027 181.78 91.027C182.193 91.027 182.557 91.1303 182.873 91.337C183.188 91.5437 183.434 91.8366 183.611 92.2159C183.788 92.5952 183.876 93.0426 183.876 93.5582C183.876 94.0781 183.788 94.5288 183.611 94.9102C183.434 95.2894 183.189 95.5835 182.876 95.7923C182.563 95.9989 182.201 96.1023 181.792 96.1023C181.477 96.1023 181.225 96.0501 181.035 95.9457C180.845 95.8391 180.699 95.7187 180.597 95.5845C180.495 95.4482 180.416 95.3352 180.361 95.2457H180.297V97.8409H179.542ZM180.284 93.5455C180.284 93.9162 180.338 94.2433 180.447 94.5266C180.556 94.8079 180.714 95.0284 180.923 95.1882C181.132 95.3459 181.388 95.4247 181.69 95.4247C182.005 95.4247 182.269 95.3416 182.48 95.1754C182.693 95.0071 182.852 94.7812 182.959 94.4979C183.068 94.2124 183.122 93.8949 183.122 93.5455C183.122 93.2003 183.069 92.8892 182.962 92.6122C182.858 92.3331 182.699 92.1126 182.486 91.9506C182.275 91.7866 182.01 91.7045 181.69 91.7045C181.383 91.7045 181.125 91.7823 180.917 91.9379C180.708 92.0913 180.55 92.3065 180.444 92.5835C180.337 92.8583 180.284 93.179 180.284 93.5455ZM187.085 96.1023C186.612 96.1023 186.204 95.9979 185.861 95.7891C185.52 95.5781 185.257 95.2841 185.072 94.907C184.888 94.5277 184.797 94.0866 184.797 93.5838C184.797 93.081 184.888 92.6378 185.072 92.2543C185.257 91.8686 185.515 91.5682 185.845 91.353C186.177 91.1357 186.565 91.027 187.008 91.027C187.264 91.027 187.516 91.0696 187.766 91.1548C188.015 91.2401 188.242 91.3786 188.447 91.5703C188.651 91.7599 188.814 92.0114 188.936 92.3246C189.057 92.6378 189.118 93.0234 189.118 93.4815V93.8011H185.334V93.1491H188.351C188.351 92.8722 188.295 92.625 188.184 92.4077C188.076 92.1903 187.92 92.0188 187.718 91.8931C187.518 91.7674 187.281 91.7045 187.008 91.7045C186.708 91.7045 186.448 91.7791 186.228 91.9283C186.011 92.0753 185.844 92.267 185.727 92.5036C185.61 92.7401 185.551 92.9936 185.551 93.2642V93.6989C185.551 94.0696 185.615 94.3839 185.743 94.6417C185.873 94.8974 186.053 95.0923 186.283 95.2266C186.513 95.3587 186.78 95.4247 187.085 95.4247C187.283 95.4247 187.462 95.397 187.622 95.3416C187.784 95.2841 187.923 95.1989 188.041 95.0859C188.158 94.9709 188.248 94.8281 188.312 94.6577L189.041 94.8622C188.964 95.1094 188.835 95.3267 188.654 95.5142C188.473 95.6996 188.249 95.8445 187.983 95.9489C187.717 96.0511 187.417 96.1023 187.085 96.1023ZM190.265 96V91.0909H190.994V91.8324H191.045C191.134 91.5895 191.296 91.3924 191.531 91.2411C191.765 91.0898 192.029 91.0142 192.323 91.0142C192.379 91.0142 192.448 91.0153 192.531 91.0174C192.614 91.0195 192.677 91.0227 192.72 91.027V91.794C192.694 91.7876 192.635 91.7781 192.544 91.7653C192.454 91.7504 192.36 91.7429 192.259 91.7429C192.021 91.7429 191.808 91.793 191.62 91.8931C191.435 91.9911 191.288 92.1275 191.179 92.3022C191.073 92.4748 191.019 92.6719 191.019 92.8935V96H190.265ZM193.614 96V91.0909H194.368V96H193.614ZM193.997 90.2727C193.85 90.2727 193.723 90.2227 193.617 90.1225C193.512 90.0224 193.46 89.902 193.46 89.7614C193.46 89.6207 193.512 89.5004 193.617 89.4002C193.723 89.3001 193.85 89.25 193.997 89.25C194.144 89.25 194.27 89.3001 194.374 89.4002C194.481 89.5004 194.534 89.6207 194.534 89.7614C194.534 89.902 194.481 90.0224 194.374 90.1225C194.27 90.2227 194.144 90.2727 193.997 90.2727ZM197.808 96.1023C197.335 96.1023 196.927 95.9979 196.584 95.7891C196.243 95.5781 195.98 95.2841 195.794 94.907C195.611 94.5277 195.519 94.0866 195.519 93.5838C195.519 93.081 195.611 92.6378 195.794 92.2543C195.98 91.8686 196.237 91.5682 196.568 91.353C196.9 91.1357 197.288 91.027 197.731 91.027C197.987 91.027 198.239 91.0696 198.488 91.1548C198.738 91.2401 198.965 91.3786 199.169 91.5703C199.374 91.7599 199.537 92.0114 199.658 92.3246C199.78 92.6378 199.84 93.0234 199.84 93.4815V93.8011H196.056V93.1491H199.073C199.073 92.8722 199.018 92.625 198.907 92.4077C198.798 92.1903 198.643 92.0188 198.44 91.8931C198.24 91.7674 198.004 91.7045 197.731 91.7045C197.431 91.7045 197.171 91.7791 196.951 91.9283C196.734 92.0753 196.567 92.267 196.449 92.5036C196.332 92.7401 196.274 92.9936 196.274 93.2642V93.6989C196.274 94.0696 196.337 94.3839 196.465 94.6417C196.595 94.8974 196.775 95.0923 197.005 95.2266C197.236 95.3587 197.503 95.4247 197.808 95.4247C198.006 95.4247 198.185 95.397 198.345 95.3416C198.507 95.2841 198.646 95.1989 198.763 95.0859C198.88 94.9709 198.971 94.8281 199.035 94.6577L199.764 94.8622C199.687 95.1094 199.558 95.3267 199.377 95.5142C199.196 95.6996 198.972 95.8445 198.706 95.9489C198.439 96.0511 198.14 96.1023 197.808 96.1023ZM201.742 93.0469V96H200.988V91.0909H201.716V91.858H201.78C201.895 91.6087 202.07 91.4084 202.304 91.2571C202.539 91.1037 202.841 91.027 203.212 91.027C203.545 91.027 203.835 91.0952 204.085 91.2315C204.334 91.3658 204.528 91.5703 204.666 91.8452C204.805 92.1179 204.874 92.4631 204.874 92.8807V96H204.12V92.9318C204.12 92.5462 204.02 92.2457 203.819 92.0305C203.619 91.8132 203.344 91.7045 202.995 91.7045C202.754 91.7045 202.539 91.7567 202.349 91.8612C202.162 91.9656 202.014 92.1179 201.905 92.3182C201.796 92.5185 201.742 92.7614 201.742 93.0469ZM208.247 96.1023C207.786 96.1023 207.39 95.9936 207.058 95.7763C206.725 95.5589 206.47 95.2596 206.291 94.8782C206.112 94.4968 206.022 94.0611 206.022 93.571C206.022 93.0724 206.114 92.6325 206.297 92.2511C206.482 91.8675 206.74 91.5682 207.071 91.353C207.403 91.1357 207.791 91.027 208.234 91.027C208.579 91.027 208.89 91.0909 209.167 91.2188C209.444 91.3466 209.671 91.5256 209.848 91.7557C210.025 91.9858 210.134 92.2543 210.177 92.5611H209.423C209.365 92.3374 209.237 92.1392 209.039 91.9666C208.843 91.7919 208.579 91.7045 208.247 91.7045C207.953 91.7045 207.695 91.7812 207.473 91.9347C207.254 92.0859 207.082 92.3001 206.959 92.5771C206.837 92.8519 206.777 93.1747 206.777 93.5455C206.777 93.9247 206.836 94.255 206.955 94.5362C207.077 94.8175 207.247 95.0359 207.467 95.1914C207.688 95.3469 207.948 95.4247 208.247 95.4247C208.443 95.4247 208.621 95.3906 208.78 95.3224C208.94 95.2543 209.076 95.1562 209.186 95.0284C209.297 94.9006 209.376 94.7472 209.423 94.5682H210.177C210.134 94.858 210.029 95.119 209.861 95.3512C209.694 95.5813 209.474 95.7646 209.199 95.9009C208.926 96.0352 208.609 96.1023 208.247 96.1023ZM213.338 96.1023C212.865 96.1023 212.457 95.9979 212.114 95.7891C211.773 95.5781 211.51 95.2841 211.324 94.907C211.141 94.5277 211.05 94.0866 211.05 93.5838C211.05 93.081 211.141 92.6378 211.324 92.2543C211.51 91.8686 211.768 91.5682 212.098 91.353C212.43 91.1357 212.818 91.027 213.261 91.027C213.517 91.027 213.769 91.0696 214.019 91.1548C214.268 91.2401 214.495 91.3786 214.699 91.5703C214.904 91.7599 215.067 92.0114 215.188 92.3246C215.31 92.6378 215.371 93.0234 215.371 93.4815V93.8011H211.587V93.1491H214.604C214.604 92.8722 214.548 92.625 214.437 92.4077C214.329 92.1903 214.173 92.0188 213.971 91.8931C213.77 91.7674 213.534 91.7045 213.261 91.7045C212.961 91.7045 212.701 91.7791 212.481 91.9283C212.264 92.0753 212.097 92.267 211.98 92.5036C211.862 92.7401 211.804 92.9936 211.804 93.2642V93.6989C211.804 94.0696 211.868 94.3839 211.996 94.6417C212.126 94.8974 212.306 95.0923 212.536 95.2266C212.766 95.3587 213.033 95.4247 213.338 95.4247C213.536 95.4247 213.715 95.397 213.875 95.3416C214.037 95.2841 214.176 95.1989 214.294 95.0859C214.411 94.9709 214.501 94.8281 214.565 94.6577L215.294 94.8622C215.217 95.1094 215.088 95.3267 214.907 95.5142C214.726 95.6996 214.502 95.8445 214.236 95.9489C213.97 96.0511 213.67 96.1023 213.338 96.1023ZM218.372 96.1023C217.963 96.1023 217.601 95.9989 217.288 95.7923C216.975 95.5835 216.73 95.2894 216.553 94.9102C216.376 94.5288 216.288 94.0781 216.288 93.5582C216.288 93.0426 216.376 92.5952 216.553 92.2159C216.73 91.8366 216.976 91.5437 217.291 91.337C217.607 91.1303 217.971 91.027 218.384 91.027C218.704 91.027 218.957 91.0803 219.142 91.1868C219.329 91.2912 219.472 91.4105 219.57 91.5447C219.67 91.6768 219.748 91.7855 219.803 91.8707H219.867V89.4545H220.622V96H219.893V95.2457H219.803C219.748 95.3352 219.669 95.4482 219.567 95.5845C219.465 95.7187 219.319 95.8391 219.129 95.9457C218.939 96.0501 218.687 96.1023 218.372 96.1023ZM218.474 95.4247C218.777 95.4247 219.032 95.3459 219.241 95.1882C219.45 95.0284 219.609 94.8079 219.717 94.5266C219.826 94.2433 219.88 93.9162 219.88 93.5455C219.88 93.179 219.827 92.8583 219.72 92.5835C219.614 92.3065 219.456 92.0913 219.247 91.9379C219.039 91.7823 218.781 91.7045 218.474 91.7045C218.154 91.7045 217.888 91.7866 217.675 91.9506C217.464 92.1126 217.305 92.3331 217.199 92.6122C217.094 92.8892 217.042 93.2003 217.042 93.5455C217.042 93.8949 217.095 94.2124 217.202 94.4979C217.311 94.7812 217.47 95.0071 217.681 95.1754C217.894 95.3416 218.159 95.4247 218.474 95.4247ZM224.639 96V91.0909H225.393V96H224.639ZM225.023 90.2727C224.876 90.2727 224.749 90.2227 224.642 90.1225C224.538 90.0224 224.486 89.902 224.486 89.7614C224.486 89.6207 224.538 89.5004 224.642 89.4002C224.749 89.3001 224.876 89.25 225.023 89.25C225.17 89.25 225.295 89.3001 225.4 89.4002C225.506 89.5004 225.56 89.6207 225.56 89.7614C225.56 89.902 225.506 90.0224 225.4 90.1225C225.295 90.2227 225.17 90.2727 225.023 90.2727ZM228.91 91.0909V91.7301H226.366V91.0909H228.91ZM227.107 89.9148H227.861V94.5938C227.861 94.8068 227.892 94.9666 227.954 95.0732C228.018 95.1776 228.099 95.2479 228.197 95.2841C228.297 95.3182 228.403 95.3352 228.513 95.3352C228.597 95.3352 228.665 95.331 228.718 95.3224C228.771 95.3118 228.814 95.3033 228.846 95.2969L228.999 95.9744C228.948 95.9936 228.877 96.0128 228.785 96.032C228.693 96.0533 228.577 96.0639 228.437 96.0639C228.224 96.0639 228.015 96.0181 227.81 95.9265C227.608 95.8349 227.44 95.6953 227.305 95.5078C227.173 95.3203 227.107 95.0838 227.107 94.7983V89.9148Z" fill="#004B8D"/>
</svg>
