<svg xmlns="http://www.w3.org/2000/svg" width="24" height="24" viewBox="0 0 24 24">
  <g id="Help" transform="translate(-1080 -12)">
    <path id="Path_3318" data-name="Path 3318" d="M12,0A12,12,0,1,1,0,12,12,12,0,0,1,12,0Z" transform="translate(1080 12)" fill="#083863"/>
    <path id="question" d="M26.054,0a6.612,6.612,0,0,0-5.764,2.916,1.436,1.436,0,0,0,.362,2.033l1.407,1a1.685,1.685,0,0,0,2.232-.266c.719-.849.95-1,1.545-1,.342,0,.847.219.847.57,0,.8-3.659.648-3.659,3.82V9.5a1.471,1.471,0,0,0,.668,1.216A2.918,2.918,0,0,0,22.561,13a3.222,3.222,0,0,0,6.428,0,2.918,2.918,0,0,0-1.132-2.284A1.471,1.471,0,0,0,28.525,9.5V9.353c.85-.593,3.492-1.391,3.492-4.357C32.017,2.15,29,0,26.054,0Zm-.279,15a2.077,2.077,0,0,1-2.143-2,2.148,2.148,0,0,1,4.286,0A2.077,2.077,0,0,1,25.775,15Zm1.679-5.825V9.5a.519.519,0,0,1-.536.5H24.632a.519.519,0,0,1-.536-.5V9.07c0-2.712,3.659-1.791,3.659-3.82,0-1-1.061-1.57-1.918-1.57a2.834,2.834,0,0,0-2.385,1.379.562.562,0,0,1-.744.089l-1.407-1a.478.478,0,0,1-.121-.677A5.529,5.529,0,0,1,26.054,1c2.366,0,4.891,1.724,4.891,4C30.945,8.013,27.454,8.06,27.454,9.175Z" transform="translate(1065.982 16)" fill="#fff"/>
  </g>
</svg>
