<svg width="151" height="136" viewBox="0 0 151 136" fill="none" xmlns="http://www.w3.org/2000/svg">
<path d="M139.102 38.3868C119.174 30.0578 111.862 49.6441 111.862 49.6441C111.862 49.6441 104.541 30.0578 84.622 38.3868C63.2735 47.312 71.3394 87.2473 111.862 105.036C152.394 87.2473 160.46 47.3208 139.102 38.3868Z" fill="#EA7FE0"/>
<path d="M115.51 81.0771C115.51 81.0771 115.457 81.0771 115.431 81.0771C114.633 81.042 113.923 80.5598 113.598 79.8233L105.085 60.4211L101.087 69.9337C100.763 70.714 100 71.2138 99.1586 71.2138L88.3309 71.2138C87.6295 71.2138 87.0684 70.6439 87.0684 69.9513L87.0684 68.2942C87.0684 67.5928 87.6383 67.0317 88.3309 67.0317L97.7646 67.0317L103.113 54.3015C103.437 53.53 104.191 53.0215 105.024 53.0215C105.883 53.0653 106.62 53.5037 106.953 54.2752L115.703 74.2034L118.964 68.1364C119.332 67.4613 120.034 67.0317 120.805 67.0317L136.455 67.0317C137.156 67.0317 137.717 67.6016 137.717 68.2942L137.717 69.9513C137.717 70.6527 137.148 71.2138 136.455 71.2138L122.05 71.2138L117.351 79.9636C116.983 80.6387 116.273 81.0683 115.51 81.0683L115.51 81.0771Z" fill="white"/>
<path d="M40.4392 25.4237L48.5678 26.8268C49.9292 27.0647 51.3295 26.5909 52.2782 25.5663C60.3708 16.891 71.3626 14.2663 79.2195 12.1463C84.4714 10.734 90.4437 9.51094 92.9353 9.31819C95.2927 9.13648 96.0982 11.8156 93.1803 13.9925C89.2752 16.901 80.5456 19.7259 80.5456 19.7259C80.5456 19.7259 80.5482 17.1931 82.5467 16.694C84.5451 16.1949 93.6506 14.8207 96.8425 14.6387C99.7807 14.4729 100.637 17.9625 96.025 19.6073C96.025 19.6073 97.8438 22.3281 92.775 24.0656C87.7055 25.8102 84.1777 25.7331 84.1777 25.7331C84.1777 25.7331 90.0608 25.1542 89.6326 27.2443C88.8685 30.9929 72.6249 31.1101 71.6755 31.8092C70.7192 32.5077 38.5068 48.4848 38.5068 48.4848L40.4461 25.4243L40.4392 25.4237Z" fill="#E99E93"/>
<path d="M38.2649 51.3867C48.7161 52.1809 62.7216 49.6257 73.1009 35.8657C78.9848 28.0629 83.6825 22.1989 83.9738 18.7358C84.2143 15.8769 81.3548 13.4681 74.799 20.0109C69.0459 25.7594 68.181 26.2946 68.181 26.2946L59.4104 27.346L52.6332 36.0211L47.0713 40.4127L40.0936 29.7308" fill="#E99E93"/>
<path d="M68.1691 26.2559L59.3778 27.3098L52.5974 36.0073L47.02 40.4094L40.0307 29.7018" fill="#E99E93"/>
<path d="M65.0112 28.0545C65.0177 27.9772 65.0515 27.9091 65.1125 27.8501C65.1427 27.8241 68.4006 24.8338 74.214 19.2876C79.3411 14.4032 82.0222 15.1867 82.9347 15.7509C84.1007 16.4687 84.5492 18.051 84.0616 19.6824C83.2899 22.2749 81.167 25.7686 76.9541 31.3657C76.8517 31.4993 76.6602 31.5272 76.5286 31.4253C76.397 31.3234 76.3712 31.1306 76.4735 30.9969C80.6394 25.4598 82.7297 22.0202 83.4804 19.511C83.8829 18.1418 83.5366 16.8429 82.6101 16.2776C80.9513 15.2537 77.9694 16.5471 74.6248 19.7359C68.7974 25.281 65.5465 28.2719 65.5157 28.3049C65.3873 28.4153 65.1987 28.4081 65.0828 28.2862C65.0255 28.2182 64.9972 28.1383 65.0043 28.054L65.0112 28.0545Z" fill="#D67570"/>
<path d="M84.8427 18.1772C84.8521 18.0646 84.9238 17.9638 85.0331 17.9154C90.1571 15.8047 92.3196 14.3683 92.3417 14.3558C92.4831 14.2603 92.6695 14.2958 92.7629 14.4374C92.8562 14.5791 92.8193 14.7675 92.678 14.863C92.589 14.92 90.4486 16.3438 85.2588 18.485C85.1059 18.5513 84.923 18.4737 84.8663 18.3136C84.8489 18.2697 84.8391 18.2194 84.8427 18.1772Z" fill="#D67570"/>
<path d="M83.3475 23.0841C83.3593 22.9429 83.4607 22.8226 83.6027 22.805C91.7289 21.4755 95.8793 19.4741 95.923 19.4561C96.0766 19.3825 96.254 19.4458 96.3253 19.6004C96.3967 19.7551 96.3324 19.935 96.1788 20.0086C96.1351 20.0266 91.9183 22.0656 83.6926 23.4088C83.5285 23.439 83.3699 23.3203 83.3416 23.1547C83.3434 23.1335 83.3388 23.1048 83.3405 23.0836L83.3475 23.0841Z" fill="#D67570"/>
<path d="M80.4376 26.1133C80.4506 25.957 80.573 25.8377 80.7285 25.8281C82.7616 25.7256 86.4192 25.4466 86.4547 25.4422C86.6247 25.4265 86.7683 25.559 86.7821 25.7317C86.7895 25.8967 86.6642 26.0515 86.4941 26.0672C86.4592 26.0645 82.7871 26.3495 80.747 26.4515C80.5776 26.46 80.4339 26.3275 80.4271 26.1554C80.4283 26.1412 80.4295 26.127 80.4301 26.1199L80.4376 26.1133Z" fill="#D67570"/>
<path d="M77.6916 19.4339C77.7022 19.3075 77.7401 19.1903 77.8122 19.0827C79.5353 16.331 81.0469 16.5095 81.6173 16.7224C82.4867 17.0429 83.013 18.0296 82.8635 19.0568C82.7147 20.0771 82.266 21.0816 81.6834 21.6802C81.0625 22.3184 79.7288 21.8567 78.7307 21.0672C78.0154 20.4971 77.6509 19.9183 77.691 19.4409L77.6916 19.4339ZM82.2775 18.8639C82.3371 18.1549 81.9855 17.5064 81.4082 17.293C80.5115 16.9634 79.3592 17.759 78.3244 19.4043C78.2186 19.5799 78.4782 20.073 79.1154 20.5736C79.9559 21.2381 80.9587 21.5545 81.2578 21.2452C81.7562 20.732 82.1374 19.8636 82.2686 18.9692C82.2716 18.9341 82.2745 18.899 82.2781 18.8569L82.2775 18.8639Z" fill="#D67570"/>
<path d="M-21.5545 51.7503L-18.3451 14.8506L35.7807 18.2498C38.5356 18.8774 40.9083 20.6312 42.3231 23.0917L42.7766 23.8774L47.6744 25.0648C48.4519 25.2515 48.9571 26.0057 48.8403 26.8119L45.2417 51.4567C45.1225 52.291 44.3631 52.8924 43.528 52.8076L39.1011 52.3647L38.0981 53.0255C35.7796 54.5572 32.948 55.0932 30.2605 54.4991L-21.5545 51.7503Z" fill="#3395FF"/>
<path d="M39.0621 52.3578L39.0627 52.3508L42.4318 26.3315C42.4398 26.2336 42.5345 26.1634 42.6298 26.1706C42.7251 26.1779 42.7858 26.274 42.7846 26.3725L39.4155 52.3917C39.4075 52.4896 39.3128 52.5598 39.2175 52.5526C39.1222 52.5453 39.0541 52.4557 39.0621 52.3578Z" fill="#0967D8"/>
<path d="M67.3389 108.501C72.8441 116.887 81.4384 124.045 83.0834 119.107C84.2711 115.536 78.1623 107.509 75.234 103.264C65.561 89.2549 54.9205 84.5111 38.4371 85.6342L40.3674 111.158L48.549 109.152C49.9941 108.799 51.5223 109.267 52.5514 110.363C60.4792 118.81 70.8897 122.461 75.3643 124.078C81.6187 126.336 87.2132 127.1 91.4097 127.633C94.2756 127.996 95.2994 125.687 92.3431 123.295C90.6037 121.887 87.4396 120.549 85.2914 119.204C81.1419 116.604 77.343 115.118 77.6389 115.324C81.0087 117.715 89.0952 121.496 95.9933 123.463C98.7152 124.239 99.7977 121.593 97.3032 119.191C96.3883 118.307 95.7765 118.002 95.7765 118.002C96.9201 117.924 97.859 114.956 94.2192 112.979C91.8291 111.679 87.5526 109.625 87.5526 109.625C90.4252 110.446 91.064 108.05 87.8332 106.292C84.7997 104.64 80.2753 102.921 72.5895 101.473C70.8332 101.14 67.3523 108.493 67.3523 108.493L67.3389 108.501Z" fill="#E99E93"/>
<path d="M65.784 107.42C65.7776 107.336 65.8055 107.242 65.8779 107.181C65.9953 107.067 66.1913 107.068 66.3054 107.187C66.3814 107.267 68.2657 109.227 69.3581 110.712C73.8758 116.855 78.6301 120.758 81.1872 120.415C81.9843 120.311 82.5407 119.8 82.897 118.866C83.8582 116.302 79.4467 109.898 76.5225 105.665C75.9558 104.836 75.4222 104.075 74.9785 103.392C74.8838 103.25 74.9252 103.057 75.0586 102.97C75.1985 102.876 75.3908 102.919 75.478 103.054C75.9211 103.73 76.4477 104.492 77.0209 105.314C80.1972 109.917 84.5385 116.227 83.4663 119.081C83.0349 120.225 82.3006 120.882 81.2746 121.016C78.4609 121.391 73.5946 117.488 68.8736 111.063C67.8048 109.611 65.8969 107.617 65.8744 107.598C65.8214 107.545 65.7952 107.476 65.7899 107.406L65.784 107.42Z" fill="#D67570"/>
<path d="M83.4472 112.297C83.444 112.255 83.4478 112.212 83.4656 112.168C83.5237 112.009 83.7003 111.933 83.8592 111.993C83.9241 112.017 90.5948 114.605 95.9509 117.623C96.0974 117.705 96.1536 117.893 96.0735 118.04C95.9934 118.187 95.8082 118.242 95.6617 118.16C90.3421 115.161 83.7149 112.59 83.65 112.566C83.5346 112.525 83.4632 112.416 83.4547 112.304L83.4472 112.297Z" fill="#D67570"/>
<path d="M80.7319 107.606C80.7319 107.606 80.7276 107.55 80.7395 107.52C80.7761 107.355 80.9368 107.252 81.1006 107.283C83.4849 107.808 88.189 109.402 88.2325 109.421C88.391 109.474 88.4816 109.652 88.4305 109.811C88.3793 109.971 88.2036 110.061 88.0451 110.008C87.9946 109.99 83.3335 108.407 80.9777 107.887C80.8423 107.861 80.749 107.74 80.7389 107.605L80.7319 107.606Z" fill="#D67570"/>
<path d="M77.2171 117.115C77.1555 116.3 78.0675 115.306 78.8105 114.762C79.7524 114.069 80.547 113.93 80.9325 114.398C82.9444 116.838 82.3826 118.203 82.0404 118.678C81.5406 119.382 80.5369 119.627 79.5989 119.261C78.661 118.894 77.7993 118.24 77.3545 117.543C77.2673 117.408 77.2213 117.263 77.2101 117.115L77.2171 117.115ZM81.775 117.39C81.7203 116.667 81.2735 115.758 80.472 114.79C80.3719 114.669 79.8934 114.73 79.1772 115.259C78.2686 115.928 77.6389 116.86 77.8691 117.219C78.2497 117.807 78.993 118.377 79.8222 118.695C80.5003 118.959 81.2098 118.805 81.5515 118.323C81.7284 118.071 81.8026 117.755 81.775 117.39Z" fill="#D67570"/>
<path d="M83.0798 118.422C83.0761 118.373 83.0858 118.316 83.11 118.265C83.1825 118.111 83.3673 118.049 83.5132 118.124C85.1091 118.914 88.8688 120.582 88.9048 120.594C89.0572 120.661 89.1343 120.847 89.0618 121.001C88.9962 121.154 88.812 121.223 88.6596 121.155C88.6231 121.137 84.8494 119.469 83.246 118.673C83.1441 118.623 83.0803 118.521 83.0723 118.416L83.0798 118.422Z" fill="#D67570"/>
<path d="M-17.1242 96.6828L-14.2262 133.526L36.1295 118.021C38.8878 117.416 41.2735 115.684 42.708 113.24L43.1678 112.459L48.0722 111.312C48.8508 111.132 49.362 110.384 49.252 109.578L45.8623 84.9597C45.7502 84.1263 44.9964 83.5204 44.1611 83.5985L39.7335 84.0062L38.7367 83.3391C36.4326 81.7928 33.6075 81.2362 30.9168 81.8082L-17.1242 96.6828Z" fill="#3395FF"/>
<path d="M39.7296 84.0295C39.7225 83.9315 39.7918 83.8494 39.8866 83.8359C39.982 83.8294 40.0757 83.8934 40.0834 83.9984L43.2407 110.043C43.2478 110.141 43.1864 110.236 43.0842 110.243C42.982 110.25 42.8951 110.186 42.8874 110.081L39.7301 84.0365L39.7296 84.0295Z" fill="#0967D8"/>
</svg>
