<svg width="132" height="155" viewBox="0 0 132 155" fill="none" xmlns="http://www.w3.org/2000/svg">
<path d="M123.196 89.708C123.196 89.708 124.577 91.7981 122.612 94.1508C120.139 97.1344 107.427 100.707 98.2533 101.209C89.0694 101.71 84.4291 101.459 74.8487 101.085C68.8492 100.845 62.7517 100.764 57.6217 101.292L29.189 103.48C29.189 103.48 38.4346 72.8299 40.9129 70.7739C43.4324 68.6816 79.2266 76.808 78.4843 76.5942L78.3267 76.4864L78.6009 76.592C82.757 76.4012 90.8009 75.8268 99.7323 73.4744C104.683 72.1636 107.282 75.3182 107.031 77.1567C107.031 77.1567 114.882 74.9885 116.972 80.0723L117.175 80.9346C117.175 80.9346 124.966 79.9436 126.028 84.5902C126.977 88.7512 123.196 89.708 123.196 89.708Z" fill="#E99E93"/>
<path d="M86.8473 81.1107C86.6444 81.0976 86.4714 80.9299 86.4473 80.7132C86.4245 80.477 86.604 80.2636 86.8379 80.2493C91.7878 79.8158 100.914 78.3316 107.303 77.14C107.539 77.0966 107.762 77.2479 107.804 77.4854C107.846 77.7228 107.695 77.9478 107.459 77.9913C101.05 79.1913 91.8849 80.6731 86.915 81.1151C86.8957 81.1138 86.8763 81.1126 86.8473 81.1107Z" fill="#D67570"/>
<path d="M88.6918 85.8496C88.4888 85.8365 88.3158 85.6687 88.2917 85.4519C88.2689 85.2156 88.4484 85.0021 88.6823 84.9878C88.7996 84.9758 100.291 83.9762 109.752 81.994C112.696 81.372 115.313 81.0028 117.513 80.9002C117.757 80.8866 117.948 81.0751 117.961 81.3108C117.974 81.5465 117.785 81.7497 117.552 81.7639C115.39 81.8689 112.822 82.2315 109.918 82.8463C100.406 84.8449 88.867 85.8414 88.7498 85.8534C88.7304 85.8521 88.7111 85.8509 88.6821 85.849L88.6918 85.8496Z" fill="#D67570"/>
<path d="M92.5303 89.258C89.7949 89.0805 88.161 88.8365 88.1327 88.8248C87.902 88.7901 87.7426 88.563 87.7777 88.3288C87.8129 88.0945 88.0181 87.9305 88.2681 87.9664C88.3357 87.9708 95.5048 89.0569 105.187 88.2861C106.914 88.1518 108.587 87.9648 110.2 87.7936C116.723 87.0838 121.877 86.5216 123.812 89.6526C123.934 89.8576 123.877 90.12 123.674 90.2546C123.472 90.3794 123.213 90.3232 123.082 90.1176C121.426 87.4481 116.517 87.9868 110.288 88.6566C108.674 88.8376 106.992 89.0142 105.254 89.1576C100.081 89.5707 95.6137 89.4581 92.54 89.2586L92.5303 89.258Z" fill="#D67570"/>
<path d="M58.2175 27.0842L57.9493 26.6386C58.7533 25.3746 59.0443 23.5717 58.6006 21.4983C57.7109 17.2442 54.1578 13.484 50.6677 13.088C50.3894 13.0607 50.1193 13.0533 49.8575 13.066L49.6408 12.7114L48.1039 13.5395C46.2365 14.5318 45.3273 17.0163 45.9627 20.0758C46.8524 24.3299 50.4055 28.0901 53.8956 28.4861C54.8351 28.5942 55.6769 28.4429 56.3887 28.0788L58.2065 27.1029L58.2175 27.0842Z" fill="#FF9D00"/>
<path d="M58.4179 26.9593C61.0729 25.281 61.2266 20.7484 58.7611 16.8355C56.2956 12.9225 52.1445 11.111 49.4895 12.7893C46.8345 14.4676 46.6808 19.0002 49.1463 22.9132C51.6118 26.8261 55.7628 28.6377 58.4179 26.9593Z" fill="#FFCC4D"/>
<path d="M55.905 26.3535C55.7607 26.3443 55.6164 26.3352 55.4645 26.2964C52.7918 25.8255 49.9169 22.5953 49.0415 19.1021C48.5277 17.0633 48.7871 15.2975 49.739 14.2669C50.4085 13.5399 51.3361 13.2674 52.4432 13.464C55.1063 13.9343 57.9908 17.1651 58.8662 20.6583C59.3793 22.7068 59.1206 24.4629 58.1687 25.4935C57.5933 26.1194 56.8093 26.4107 55.905 26.3535ZM51.9816 13.8439C51.2024 13.7946 50.5373 14.0447 50.0463 14.5688C49.2098 15.4703 48.9868 17.1313 49.4544 19.0016C50.2919 22.3464 53.0122 25.4401 55.5323 25.8819C56.4869 26.0494 57.2859 25.8175 57.8504 25.2104C58.6869 24.3089 58.9099 22.6479 58.4423 20.7776C57.6048 17.4328 54.8749 14.3385 52.3644 13.8973C52.2311 13.8694 52.106 13.8615 51.9713 13.853L51.9816 13.8439Z" fill="#FF9D00"/>
<path d="M106.377 64.2146L106.706 63.7971C106.077 62.4424 106.052 60.6 106.773 58.5906C108.261 54.4674 112.321 51.1594 115.855 51.2075C116.134 51.2155 116.413 51.2428 116.67 51.2883L116.936 50.9545L118.353 51.9693C120.073 53.1982 120.636 55.7856 119.567 58.7568C118.078 62.8799 114.019 66.1879 110.485 66.1398C109.529 66.128 108.716 65.8721 108.061 65.4216L106.387 64.2152L106.377 64.2146Z" fill="#FF9D00"/>
<path d="M115.97 61.2175C118.973 57.6332 119.463 53.1013 117.066 51.0953C114.669 49.0893 110.292 50.3689 107.29 53.9533C104.288 57.5376 103.797 62.0695 106.194 64.0755C108.591 66.0815 112.968 64.8019 115.97 61.2175Z" fill="#FFCC4D"/>
<path d="M108.774 63.7763C107.86 63.7186 107.124 63.3311 106.632 62.628C105.833 61.4867 105.823 59.6942 106.619 57.7285C107.977 54.357 111.299 51.4993 114.023 51.3696C115.149 51.3045 116.038 51.7113 116.61 52.5168C117.409 53.6581 117.418 55.4507 116.623 57.4164C115.265 60.7879 111.943 63.6456 109.218 63.7752C109.063 63.7849 108.918 63.7855 108.774 63.7763ZM114.437 51.8048C114.312 51.7969 114.178 51.7884 114.042 51.7993C111.472 51.929 108.313 54.6607 107.013 57.8898C106.287 59.6943 106.276 61.3687 106.978 62.3772C107.452 63.0597 108.221 63.3908 109.191 63.345C111.761 63.2153 114.919 60.4836 116.219 57.2545C116.945 55.45 116.956 53.7756 116.254 52.767C115.841 52.1858 115.217 51.8541 114.428 51.8042L114.437 51.8048Z" fill="#FF9D00"/>
<path d="M49.5221 75.7209L52.2237 60.573C54.0105 50.5343 59.0859 41.3574 66.6228 34.4916L76.6273 25.3986L70.8481 14.4969C69.7108 12.3422 71.5621 9.8113 73.9585 10.2601L76.1348 10.6745C77.083 10.8574 78.0689 10.6366 78.8647 10.0888L80.3945 9.00947C82.1467 7.78205 84.4794 7.83077 86.1708 9.1277L87.8622 10.4246C88.5828 10.9787 89.4853 11.2399 90.3917 11.146L95.279 10.6587C97.6719 10.4168 99.2824 13.0488 97.9999 15.0985L90.7607 26.644C92.2282 28.1093 95.4178 31.7569 98.7438 35.6265C105.479 43.4827 109.362 53.4194 109.736 63.8003L110.286 78.7211C110.33 79.8611 110.833 80.9393 111.691 81.7053L113.807 83.5881C115.876 85.4272 114.438 88.8681 111.68 88.6904L48.0274 84.5903C45.2586 84.412 44.3004 80.8168 46.6111 79.2598L47.7557 78.4908C48.6993 77.8509 49.3436 76.8568 49.5416 75.7323L49.5221 75.7209Z" fill="#997EF7"/>
<path d="M56.4124 85.0376L48.011 84.4961C45.2474 84.318 44.2908 80.7261 46.5972 79.1704L47.7397 78.4021C48.6815 77.7628 49.3245 76.7695 49.5221 75.6461L52.2183 60.5117C54.0116 50.4828 59.0672 41.3134 66.5898 34.4536L74.854 26.9314L75.1155 27.2425L71.9996 30.014C65.5838 39.1465 63.1149 47.387 61.9103 60.6292L60.6107 77.1926L59.1523 78.1536C57.6094 79.1701 56.6355 80.8724 56.5398 82.7227L56.4111 85.0578L56.4124 85.0376Z" fill="#7454F2"/>
<path d="M106.893 80.6729L55.3227 77.2791C55.0704 77.2625 54.8924 77.0413 54.9089 76.791C54.9254 76.5406 55.1409 76.3453 55.3831 76.3612L106.954 79.755C107.206 79.7716 107.384 79.9928 107.368 80.2432C107.351 80.4935 107.136 80.6888 106.893 80.6729Z" fill="#7454F2"/>
<path d="M81.4241 24.6221C81.2432 24.6105 81.0799 24.4883 81.0219 24.302L79.0581 17.7133C78.9835 17.4751 79.1213 17.2304 79.3586 17.1544C79.5953 17.0885 79.839 17.2158 79.9136 17.4539L81.8774 24.0427C81.9521 24.2808 81.8143 24.5255 81.5769 24.6015C81.5253 24.6185 81.4744 24.6254 81.414 24.6215L81.4241 24.6221Z" fill="#7454F2"/>
<path d="M84.9229 25.5257C84.9229 25.5257 84.8527 25.5211 84.8233 25.5091C84.5859 25.4431 84.4519 25.1911 84.5285 24.9526L87.5415 14.8739C87.6081 14.6348 87.8592 14.4988 88.0959 14.575C88.3333 14.641 88.4673 14.893 88.3906 15.1314L85.3777 25.2102C85.3131 25.419 85.1236 25.5386 84.9229 25.5257Z" fill="#7454F2"/>
<path d="M73.4961 23.3506C73.5549 22.7848 74.0489 22.3691 74.6133 22.4054L74.6536 22.408L92.1778 24.1884C92.751 24.2457 93.1714 24.761 93.1112 25.3471C93.0818 25.63 92.9436 25.8754 92.7498 26.046C92.9188 26.24 93.0232 26.4908 93.0139 26.7751C92.9948 27.3536 92.5074 27.8206 91.9315 27.8039L90.8905 27.7775L90.8402 28.5168C90.7153 30.3499 91.6087 32.096 93.1634 33.0506C93.6588 33.3572 93.8069 34.0075 93.5096 34.5072C93.2939 34.8493 92.9166 35.0386 92.5437 35.0145C92.3824 35.0041 92.2138 34.9526 92.0681 34.8618C89.8435 33.4877 88.575 31.0053 88.753 28.3925L88.7986 27.724L88.0507 27.7064L87.3649 32.4226C87.2866 32.977 86.7947 33.3624 86.2504 33.3273C86.2201 33.3254 86.2 33.3241 86.1697 33.3221C85.598 33.2446 85.1991 32.7103 85.2794 32.1255L85.9285 27.651L75.1677 27.344L75.1274 27.3414C74.563 27.3051 74.1297 26.8296 74.1481 26.2611C74.1673 25.6826 74.6547 25.2156 75.2306 25.2323L83.5157 25.4713L74.4368 24.5505C73.8637 24.4932 73.4432 23.9779 73.5034 23.3918L73.4961 23.3506Z" fill="#EA7FE0"/>
<path d="M87.4709 88.9202C84.9922 90.971 61.9836 87.3765 61.9836 87.3765L57.559 101.144C54.5149 101.449 51.8044 101.971 49.6735 102.794C43.9756 105.022 22.2985 119.73 22.2985 119.73L-12.6069 91.2843C-12.6069 91.2843 16.4329 70.9176 31.2081 67.0363C42.7949 63.9986 51.6453 64.8905 61.7649 69.3695C71.8846 73.8485 73.3614 74.6159 76.2251 75.5003L78.3007 76.2958L78.4578 76.4035C79.1979 76.6261 80.033 76.8743 80.9921 77.1499C88.9223 79.4195 90.0013 86.8237 87.4709 88.9202Z" fill="#E99E93"/>
<g opacity="0.3">
<path d="M78.8754 90.0042C78.654 89.9904 78.4831 89.8136 78.48 89.5887C78.4707 89.0507 78.4556 86.3236 79.3599 85.4519C79.818 85.0017 80.5396 84.7831 81.4568 84.8013C83.0018 84.8295 84.7078 85.5713 85.602 86.575C86.8633 87.9828 86.4155 89.225 86.0049 89.6879C85.8471 89.8637 85.5748 89.8857 85.4032 89.7187C85.2309 89.5613 85.2218 89.2872 85.3699 89.1108C85.4436 89.0274 85.9895 88.2994 84.9697 87.1609C84.2272 86.3327 82.7356 85.7021 81.423 85.6688C80.7567 85.6565 80.2346 85.79 79.9433 86.0746C79.4756 86.5242 79.3018 88.3893 79.3327 89.5638C79.335 89.7985 79.1463 90.0016 78.9139 90.0066C78.9042 90.006 78.885 90.0048 78.8754 90.0042Z" fill="white"/>
</g>
<path d="M79.2449 90.0375C72.2699 89.5963 63.4401 88.2461 61.9454 88.005C61.7152 87.9709 61.5566 87.7458 61.5922 87.5135C61.6279 87.2812 61.8621 87.1201 62.0826 87.1536C71.255 88.5938 85.5216 90.2097 87.2302 88.7833C88.1358 88.0293 88.5006 86.4202 88.1563 84.6978C87.9122 83.4802 86.6581 79.3936 80.9012 77.7491C79.9419 77.4734 79.1059 77.2348 78.3657 77.012C78.1376 76.9487 78.0092 76.706 78.0835 76.4762C78.1481 76.2457 78.3899 76.1144 78.6173 76.1874C79.3575 76.4102 80.1839 76.6481 81.1432 76.9238C85.3418 78.1277 88.2825 80.9624 89.0016 84.5265C89.4192 86.5858 88.9471 88.4814 87.784 89.4536C86.8371 90.244 83.3642 90.2981 79.2545 90.0381L79.2449 90.0375Z" fill="#D67570"/>
<path d="M0.243308 146.308L-32.0512 97.3956L-4.65465 78.294C-0.424249 75.3458 4.93593 74.6225 9.75629 76.35L15.5774 72.2355C16.7068 71.4397 18.2391 71.6535 19.0918 72.7306L43.8323 104.054C44.7111 105.172 44.5291 106.798 43.4307 107.703L37.3955 112.661L37.3133 113.143C36.6431 117.31 34.3586 121.054 30.9718 123.559L0.244673 146.289L0.243308 146.308Z" fill="#4F6FDF"/>
<path d="M37.2877 113.688C37.1723 113.681 37.0506 113.625 36.9804 113.523L11.1396 78.9981C10.9979 78.8139 11.0362 78.5436 11.2203 78.3994C11.4044 78.2552 11.6724 78.2916 11.8141 78.4759L37.655 113C37.7967 113.185 37.7584 113.455 37.5743 113.599C37.4925 113.662 37.3839 113.694 37.2877 113.688Z" fill="#1B1074"/>
<path d="M89.7134 43.8535C89.5722 43.5704 89.313 43.3915 89.0124 43.3724L88.0002 43.3084C87.4892 43.2761 86.9969 43.5496 86.7316 44.0304L75.5875 63.8403C75.4273 64.1145 75.4233 64.4595 75.5644 64.7427C75.7056 65.0258 75.9648 65.2047 76.2655 65.2237L77.3077 65.2897C77.8188 65.322 78.311 65.0485 78.5763 64.5676L89.6903 44.7559C89.8505 44.4817 89.8546 44.1366 89.7134 43.8535Z" fill="#E6DDFE"/>
<path d="M81.1569 48.6247C81.4044 45.1035 79.8113 42.8075 76.9904 42.6291C74.1695 42.4507 72.0901 44.7787 71.844 48.2797C71.5946 52.2581 73.7683 54.1843 76.037 54.3278C78.3058 54.4713 80.8453 53.0565 81.1569 48.6247ZM74.8319 48.3772C74.9364 46.8898 75.5701 45.3342 76.7145 45.4066C78.14 45.4967 78.2171 47.4123 78.1374 48.5456C78.0578 49.6788 77.7083 51.6386 76.2828 51.5484C75.9515 51.5275 75.6883 51.399 75.4537 51.1504C74.9665 50.6216 74.7265 49.5901 74.8312 48.3873L74.8319 48.3772Z" fill="#E6DDFE"/>
<path d="M93.4253 60.2966C93.6728 56.7754 92.0797 54.4794 89.2588 54.301C86.438 54.1226 84.3585 56.4506 84.1124 59.9515C83.8631 63.93 86.0367 65.8562 88.3055 65.9997C90.5742 66.1431 93.1138 64.7284 93.4253 60.2966ZM87.1003 60.049C87.2049 58.5616 87.8385 57.0061 88.9829 57.0784C90.4084 57.1686 90.4855 59.0842 90.4059 60.2174C90.3262 61.3507 89.9767 63.3104 88.5512 63.2203C88.2199 63.1993 87.9567 63.0709 87.7221 62.8223C87.235 62.2935 86.9949 61.262 87.0996 60.0591L87.1003 60.049Z" fill="#E6DDFE"/>
</svg>
