<svg width="48" height="49" viewBox="0 0 48 49" fill="none" xmlns="http://www.w3.org/2000/svg">
<circle cx="24" cy="24.1992" r="24" fill="#F4F0FF"/>
<path d="M38 14.1992C38 11.9901 36.2091 10.1992 34 10.1992H18V17.1992C18 19.4084 19.7909 21.1992 22 21.1992H34C36.2091 21.1992 38 19.4084 38 17.1992V14.1992Z" fill="#2A1A8C"/>
<path d="M12 15.1992C12 12.4378 14.2386 10.1992 17 10.1992H34C32.3431 10.1992 31 11.5424 31 13.1992V31.1992C31 33.9606 28.7614 36.1992 26 36.1992H17C14.2386 36.1992 12 33.9606 12 31.1992V15.1992Z" fill="#7454F2"/>
<path d="M28.5 40.9492C32.4968 40.9492 35.75 37.696 35.75 33.6992C35.75 29.7024 32.4968 26.4492 28.5 26.4492C24.5032 26.4492 21.25 29.7024 21.25 33.6992C21.25 37.696 24.5032 40.9492 28.5 40.9492Z" fill="#D072D6" stroke="#F4F0FF" stroke-width="1.5" stroke-miterlimit="10"/>
<path d="M17 16.1992H25" stroke="#F4F0FF" stroke-width="2.5" stroke-miterlimit="10" stroke-linecap="round" stroke-linejoin="round"/>
<path d="M17 22.1992H23" stroke="#F4F0FF" stroke-width="2.5" stroke-miterlimit="10" stroke-linecap="round" stroke-linejoin="round"/>
<path d="M30.9375 33.943V35.3305C30.9375 36.5005 29.8462 37.4492 28.5 37.4492C27.1538 37.4492 26.0625 36.5005 26.0625 35.3305V33.943C26.0625 35.113 27.1538 35.9492 28.5 35.9492C29.8462 35.9492 30.9375 35.113 30.9375 33.943Z" stroke="#F9FAFF" stroke-width="0.75" stroke-linecap="round" stroke-linejoin="round"/>
<path d="M30.9375 32.068C30.9375 32.4092 30.8437 32.7242 30.6787 32.9942C30.2775 33.6542 29.4525 34.0742 28.5 34.0742C27.5475 34.0742 26.7225 33.6542 26.3213 32.9942C26.1563 32.7242 26.0625 32.4092 26.0625 32.068C26.0625 31.483 26.3362 30.9542 26.775 30.5717C27.2175 30.1855 27.825 29.9492 28.5 29.9492C29.175 29.9492 29.7825 30.1855 30.225 30.568C30.6638 30.9542 30.9375 31.483 30.9375 32.068Z" stroke="#F9FAFF" stroke-width="0.75" stroke-linecap="round" stroke-linejoin="round"/>
<path d="M30.9375 32.068V33.943C30.9375 35.113 29.8462 35.9492 28.5 35.9492C27.1538 35.9492 26.0625 35.113 26.0625 33.943V32.068C26.0625 30.898 27.1538 29.9492 28.5 29.9492C29.175 29.9492 29.7825 30.1855 30.225 30.568C30.6638 30.9542 30.9375 31.483 30.9375 32.068Z" stroke="#F9FAFF" stroke-width="0.75" stroke-linecap="round" stroke-linejoin="round"/>
</svg>
