<svg width="142" height="42" viewBox="0 0 142 42" fill="none" xmlns="http://www.w3.org/2000/svg">
<rect y="5" width="140" height="32" rx="16" fill="#2DB780"/>
<path d="M20.1429 14.6661V28.5059H17.2168V17.4435H17.1357L13.9664 19.4303V16.8353L17.3925 14.6661H20.1429ZM28.0975 28.81C26.9351 28.8055 25.935 28.5194 25.097 27.9517C24.2636 27.3841 23.6216 26.5619 23.1711 25.4852C22.7251 24.4084 22.5043 23.1132 22.5088 21.5995C22.5088 20.0903 22.7318 18.804 23.1778 17.7408C23.6284 16.6776 24.2703 15.869 25.1038 15.3148C25.9417 14.7562 26.9396 14.4769 28.0975 14.4769C29.2553 14.4769 30.2509 14.7562 31.0844 15.3148C31.9223 15.8735 32.5665 16.6844 33.0171 17.7476C33.4676 18.8063 33.6906 20.0903 33.6861 21.5995C33.6861 23.1177 33.4608 24.4152 33.0103 25.4919C32.5643 26.5687 31.9246 27.3908 31.0911 27.9585C30.2577 28.5261 29.2598 28.81 28.0975 28.81ZM28.0975 26.3839C28.8904 26.3839 29.5233 25.9852 29.9964 25.1878C30.4694 24.3904 30.7037 23.1943 30.6992 21.5995C30.6992 20.5498 30.591 19.6758 30.3748 18.9775C30.1631 18.2792 29.8612 17.7544 29.4693 17.403C29.0818 17.0516 28.6246 16.8759 28.0975 16.8759C27.3091 16.8759 26.6783 17.2701 26.2053 18.0585C25.7323 18.8468 25.4935 20.0272 25.489 21.5995C25.489 22.6627 25.5948 23.5502 25.8066 24.262C26.0228 24.9693 26.3269 25.5009 26.7189 25.8568C27.1108 26.2082 27.5704 26.3839 28.0975 26.3839ZM40.4378 28.81C39.2754 28.8055 38.2753 28.5194 37.4373 27.9517C36.6039 27.3841 35.9619 26.5619 35.5114 25.4852C35.0654 24.4084 34.8446 23.1132 34.8491 21.5995C34.8491 20.0903 35.0721 18.804 35.5182 17.7408C35.9687 16.6776 36.6106 15.869 37.4441 15.3148C38.2821 14.7562 39.2799 14.4769 40.4378 14.4769C41.5956 14.4769 42.5912 14.7562 43.4247 15.3148C44.2626 15.8735 44.9069 16.6844 45.3574 17.7476C45.8079 18.8063 46.0309 20.0903 46.0264 21.5995C46.0264 23.1177 45.8011 24.4152 45.3506 25.4919C44.9046 26.5687 44.2649 27.3908 43.4314 27.9585C42.598 28.5261 41.6001 28.81 40.4378 28.81ZM40.4378 26.3839C41.2307 26.3839 41.8636 25.9852 42.3367 25.1878C42.8097 24.3904 43.044 23.1943 43.0395 21.5995C43.0395 20.5498 42.9314 19.6758 42.7151 18.9775C42.5034 18.2792 42.2015 17.7544 41.8096 17.403C41.4221 17.0516 40.9649 16.8759 40.4378 16.8759C39.6494 16.8759 39.0186 17.2701 38.5456 18.0585C38.0726 18.8468 37.8338 20.0272 37.8293 21.5995C37.8293 22.6627 37.9352 23.5502 38.1469 24.262C38.3631 24.9693 38.6672 25.5009 39.0592 25.8568C39.4511 26.2082 39.9107 26.3839 40.4378 26.3839ZM54.927 25.9109V25.1811C54.927 24.6269 55.0442 24.1179 55.2784 23.6538C55.5172 23.1853 55.8618 22.8114 56.3123 22.532C56.7674 22.2482 57.3215 22.1063 57.9747 22.1063C58.637 22.1063 59.1934 22.246 59.6439 22.5253C60.0989 22.8046 60.4413 23.1785 60.6711 23.6471C60.9053 24.1111 61.0225 24.6224 61.0225 25.1811V25.9109C61.0225 26.465 60.9053 26.9764 60.6711 27.4449C60.4368 27.9089 60.0922 28.2806 59.6371 28.5599C59.1821 28.8437 58.628 28.9857 57.9747 28.9857C57.3125 28.9857 56.7561 28.8437 56.3056 28.5599C55.8551 28.2806 55.5127 27.9089 55.2784 27.4449C55.0442 26.9764 54.927 26.465 54.927 25.9109ZM56.8935 25.1811V25.9109C56.8935 26.2308 56.9701 26.5326 57.1233 26.8164C57.281 27.1003 57.5648 27.2422 57.9747 27.2422C58.3847 27.2422 58.664 27.1025 58.8127 26.8232C58.9659 26.5439 59.0425 26.2398 59.0425 25.9109V25.1811C59.0425 24.8522 58.9704 24.5458 58.8262 24.262C58.682 23.9782 58.3982 23.8363 57.9747 23.8363C57.5693 23.8363 57.2877 23.9782 57.13 24.262C56.9723 24.5458 56.8935 24.8522 56.8935 25.1811ZM47.8247 17.9909V17.261C47.8247 16.7024 47.9441 16.1911 48.1828 15.727C48.4216 15.2585 48.7662 14.8846 49.2168 14.6053C49.6718 14.3259 50.2214 14.1863 50.8656 14.1863C51.5324 14.1863 52.091 14.3259 52.5415 14.6053C52.9921 14.8846 53.3345 15.2585 53.5687 15.727C53.803 16.1911 53.9201 16.7024 53.9201 17.261V17.9909C53.9201 18.5495 53.8007 19.0608 53.562 19.5249C53.3277 19.9889 52.9831 20.3606 52.528 20.6399C52.0775 20.9147 51.5234 21.0521 50.8656 21.0521C50.2079 21.0521 49.6515 20.9125 49.1965 20.6331C48.746 20.3493 48.4036 19.9776 48.1693 19.5181C47.9396 19.0541 47.8247 18.545 47.8247 17.9909ZM49.8047 17.261V17.9909C49.8047 18.3197 49.8813 18.6238 50.0344 18.9032C50.1921 19.1825 50.4692 19.3221 50.8656 19.3221C51.2801 19.3221 51.5617 19.1825 51.7104 18.9032C51.8635 18.6238 51.9401 18.3197 51.9401 17.9909V17.261C51.9401 16.9322 51.868 16.6258 51.7239 16.342C51.5797 16.0582 51.2936 15.9163 50.8656 15.9163C50.4647 15.9163 50.1876 16.0604 50.0344 16.3488C49.8813 16.6371 49.8047 16.9412 49.8047 17.261ZM48.7167 28.5059L58.2315 14.6661H60.0021L50.4872 28.5059H48.7167Z" fill="white"/>
<path d="M69.1872 15.9139C69.1648 15.688 69.0686 15.5124 68.8987 15.3873C68.7288 15.2623 68.4982 15.1997 68.2069 15.1997C68.009 15.1997 67.8419 15.2277 67.7056 15.2837C67.5693 15.3379 67.4648 15.4135 67.392 15.5106C67.321 15.6077 67.2855 15.7178 67.2855 15.8411C67.2818 15.9437 67.3033 16.0334 67.35 16.1099C67.3985 16.1865 67.4648 16.2527 67.5488 16.3088C67.6328 16.3629 67.7299 16.4105 67.8401 16.4516C67.9502 16.4908 68.0678 16.5244 68.1929 16.5524L68.7083 16.6756C68.9585 16.7317 69.1881 16.8063 69.3972 16.8997C69.6063 16.993 69.7874 17.1079 69.9405 17.2442C70.0936 17.3805 70.2122 17.541 70.2962 17.7259C70.3821 17.9107 70.426 18.1226 70.4279 18.3616C70.426 18.7126 70.3364 19.017 70.159 19.2746C69.9835 19.5304 69.7296 19.7293 69.3972 19.8712C69.0667 20.0112 68.6681 20.0812 68.2013 20.0812C67.7383 20.0812 67.335 20.0103 66.9915 19.8684C66.6498 19.7265 66.3828 19.5164 66.1905 19.2382C66 18.9582 65.9002 18.6118 65.8908 18.1992H67.0643C67.0774 18.3915 67.1324 18.5521 67.2295 18.6809C67.3285 18.8079 67.4601 18.904 67.6244 18.9694C67.7906 19.0328 67.9782 19.0646 68.1873 19.0646C68.3927 19.0646 68.571 19.0347 68.7223 18.975C68.8754 18.9152 68.9939 18.8321 69.0779 18.7257C69.162 18.6193 69.204 18.497 69.204 18.3588C69.204 18.23 69.1657 18.1217 69.0891 18.034C69.0145 17.9462 68.9043 17.8715 68.7587 17.8099C68.6149 17.7483 68.4385 17.6923 68.2294 17.6419L67.6048 17.485C67.1212 17.3674 66.7394 17.1835 66.4593 16.9333C66.1793 16.6831 66.0402 16.3461 66.0421 15.9223C66.0402 15.575 66.1326 15.2716 66.3193 15.0121C66.5079 14.7525 66.7665 14.55 67.0951 14.4043C67.4237 14.2587 67.7971 14.1859 68.2153 14.1859C68.641 14.1859 69.0126 14.2587 69.33 14.4043C69.6493 14.55 69.8976 14.7525 70.075 15.0121C70.2523 15.2716 70.3438 15.5722 70.3494 15.9139H69.1872ZM72.1012 20H70.8017L72.7818 14.2643H74.3445L76.3218 20H75.0223L73.5856 15.575H73.5408L72.1012 20ZM72.02 17.7455H75.0895V18.6921H72.02V17.7455ZM77.0122 20V14.2643H80.8098V15.2641H78.2248V16.6308H80.5578V17.6307H78.2248V20H77.0122ZM81.6255 20V14.2643H85.4904V15.2641H82.8382V16.6308H85.2915V17.6307H82.8382V19.0002H85.5016V20H81.6255ZM90.0162 20.084C89.6204 20.084 89.2787 20.0131 88.9912 19.8712C88.7037 19.7293 88.4824 19.537 88.3274 19.2942C88.1743 19.0496 88.0978 18.7771 88.0978 18.4765C88.0978 18.2524 88.1426 18.0536 88.2322 17.8799C88.3218 17.7063 88.4469 17.5466 88.6075 17.401C88.7681 17.2535 88.9548 17.1069 89.1676 16.9613L90.2795 16.2303C90.4232 16.1389 90.5287 16.0427 90.596 15.9419C90.6632 15.8392 90.6968 15.7281 90.6968 15.6086C90.6968 15.4947 90.651 15.3892 90.5595 15.2921C90.4681 15.195 90.3383 15.1474 90.1703 15.1493C90.0582 15.1493 89.9611 15.1745 89.879 15.2249C89.7968 15.2735 89.7324 15.3379 89.6857 15.4182C89.6409 15.4966 89.6185 15.5843 89.6185 15.6814C89.6185 15.8009 89.6521 15.9223 89.7194 16.0455C89.7866 16.1687 89.8762 16.2994 89.9882 16.4376C90.1002 16.5739 90.2225 16.7214 90.3551 16.8801L93.0745 20H91.831L89.5625 17.4738C89.4131 17.3039 89.2638 17.1265 89.1144 16.9417C88.9669 16.755 88.8437 16.5571 88.7447 16.348C88.6458 16.137 88.5963 15.9083 88.5963 15.6618C88.5963 15.3836 88.6607 15.1334 88.7895 14.9112C88.9202 14.6891 89.1032 14.5135 89.3385 14.3847C89.5737 14.254 89.8482 14.1887 90.1619 14.1887C90.4681 14.1887 90.7322 14.2512 90.9544 14.3763C91.1785 14.4995 91.3503 14.6639 91.4698 14.8692C91.5911 15.0727 91.6518 15.2968 91.6518 15.5414C91.6518 15.8121 91.5846 16.0576 91.4501 16.278C91.3176 16.4964 91.1309 16.6924 90.89 16.8661L89.7194 17.7091C89.5606 17.8248 89.443 17.9434 89.3665 18.0648C89.2918 18.1843 89.2544 18.2991 89.2544 18.4092C89.2544 18.5455 89.2881 18.6678 89.3553 18.7761C89.4225 18.8844 89.5177 18.9703 89.6409 19.0338C89.7642 19.0954 89.9089 19.1262 90.075 19.1262C90.2767 19.1262 90.4755 19.0805 90.6716 18.989C90.8695 18.8956 91.0487 18.764 91.2093 18.5941C91.3717 18.4223 91.5015 18.2188 91.5986 17.9835C91.6957 17.7483 91.7442 17.4878 91.7442 17.2022H92.7328C92.7328 17.5532 92.6946 17.8696 92.618 18.1516C92.5415 18.4316 92.435 18.6762 92.2987 18.8853C92.1624 19.0926 92.0065 19.2625 91.831 19.3951C91.775 19.4305 91.7209 19.4641 91.6686 19.4959C91.6163 19.5276 91.5622 19.5612 91.5062 19.5967C91.2933 19.7685 91.0553 19.8926 90.792 19.9692C90.5306 20.0457 90.272 20.084 90.0162 20.084Z" fill="white"/>
<path d="M69.1872 24.6775C69.1648 24.4516 69.0686 24.2761 68.8987 24.151C68.7288 24.0259 68.4982 23.9634 68.2069 23.9634C68.009 23.9634 67.8419 23.9914 67.7056 24.0474C67.5693 24.1015 67.4648 24.1772 67.392 24.2742C67.321 24.3713 67.2855 24.4815 67.2855 24.6047C67.2818 24.7074 67.3033 24.797 67.35 24.8736C67.3985 24.9501 67.4648 25.0164 67.5488 25.0724C67.6328 25.1266 67.7299 25.1742 67.8401 25.2153C67.9502 25.2545 68.0678 25.2881 68.1929 25.3161L68.7083 25.4393C68.9585 25.4953 69.1881 25.57 69.3972 25.6634C69.6063 25.7567 69.7874 25.8715 69.9405 26.0078C70.0936 26.1441 70.2122 26.3047 70.2962 26.4896C70.3821 26.6744 70.426 26.8863 70.4279 27.1253C70.426 27.4763 70.3364 27.7806 70.159 28.0383C69.9835 28.2941 69.7296 28.4929 69.3972 28.6348C69.0667 28.7749 68.6681 28.8449 68.2013 28.8449C67.7383 28.8449 67.335 28.7739 66.9915 28.632C66.6498 28.4901 66.3828 28.2801 66.1905 28.0019C66 27.7218 65.9002 27.3755 65.8908 26.9629H67.0643C67.0774 27.1552 67.1324 27.3157 67.2295 27.4446C67.3285 27.5715 67.4601 27.6677 67.6244 27.733C67.7906 27.7965 67.9782 27.8283 68.1873 27.8283C68.3927 27.8283 68.571 27.7984 68.7223 27.7386C68.8754 27.6789 68.9939 27.5958 69.0779 27.4894C69.162 27.383 69.204 27.2607 69.204 27.1225C69.204 26.9937 69.1657 26.8854 69.0891 26.7976C69.0145 26.7099 68.9043 26.6352 68.7587 26.5736C68.6149 26.512 68.4385 26.4559 68.2294 26.4055L67.6048 26.2487C67.1212 26.1311 66.7394 25.9472 66.4593 25.697C66.1793 25.4468 66.0402 25.1098 66.0421 24.6859C66.0402 24.3387 66.1326 24.0353 66.3193 23.7757C66.5079 23.5162 66.7665 23.3136 67.0951 23.168C67.4237 23.0224 67.7971 22.9495 68.2153 22.9495C68.641 22.9495 69.0126 23.0224 69.33 23.168C69.6493 23.3136 69.8976 23.5162 70.075 23.7757C70.2523 24.0353 70.3438 24.3359 70.3494 24.6775H69.1872ZM71.2435 28.7637V23.028H75.1084V24.0278H72.4562V25.3945H74.9096V26.3943H72.4562V27.7638H75.1196V28.7637H71.2435ZM81.1333 25.036H79.9066C79.8842 24.8773 79.8385 24.7364 79.7694 24.6131C79.7003 24.488 79.6116 24.3816 79.5033 24.2939C79.395 24.2061 79.2699 24.1389 79.128 24.0922C78.988 24.0455 78.8358 24.0222 78.6715 24.0222C78.3747 24.0222 78.1161 24.0959 77.8958 24.2434C77.6754 24.3891 77.5046 24.6019 77.3832 24.882C77.2619 25.1602 77.2012 25.4981 77.2012 25.8958C77.2012 26.3047 77.2619 26.6483 77.3832 26.9265C77.5065 27.2046 77.6782 27.4147 77.8986 27.5566C78.1189 27.6985 78.3737 27.7694 78.6631 27.7694C78.8256 27.7694 78.9759 27.748 79.114 27.705C79.2541 27.6621 79.3782 27.5995 79.4865 27.5174C79.5948 27.4334 79.6844 27.3316 79.7554 27.2121C79.8282 27.0926 79.8786 26.9563 79.9066 26.8032L81.1333 26.8088C81.1016 27.0721 81.0222 27.326 80.8952 27.5706C80.7701 27.8133 80.6012 28.0308 80.3883 28.2231C80.1773 28.4136 79.9253 28.5648 79.6322 28.6769C79.3409 28.787 79.0113 28.8421 78.6435 28.8421C78.1319 28.8421 77.6745 28.7263 77.2712 28.4948C76.8698 28.2633 76.5524 27.9281 76.319 27.4894C76.0875 27.0506 75.9717 26.5194 75.9717 25.8958C75.9717 25.2703 76.0893 24.7382 76.3246 24.2995C76.5599 23.8607 76.8791 23.5265 77.2824 23.2968C77.6857 23.0653 78.1394 22.9495 78.6435 22.9495C78.9759 22.9495 79.2839 22.9962 79.5677 23.0896C79.8534 23.1829 80.1064 23.3192 80.3267 23.4985C80.547 23.6758 80.7263 23.8934 80.8644 24.151C81.0045 24.4087 81.0941 24.7037 81.1333 25.036ZM85.5457 23.028H86.7584V26.7528C86.7584 27.171 86.6585 27.537 86.4587 27.8507C86.2608 28.1643 85.9835 28.4089 85.6269 28.5844C85.2703 28.7581 84.8549 28.8449 84.3806 28.8449C83.9045 28.8449 83.4882 28.7581 83.1316 28.5844C82.7749 28.4089 82.4977 28.1643 82.2998 27.8507C82.1018 27.537 82.0029 27.171 82.0029 26.7528V23.028H83.2156V26.6492C83.2156 26.8676 83.2632 27.0618 83.3584 27.2317C83.4555 27.4016 83.5918 27.5351 83.7673 27.6322C83.9428 27.7293 84.1472 27.7778 84.3806 27.7778C84.6159 27.7778 84.8203 27.7293 84.994 27.6322C85.1695 27.5351 85.3048 27.4016 85.4001 27.2317C85.4972 27.0618 85.5457 26.8676 85.5457 26.6492V23.028ZM87.7561 28.7637V23.028H90.019C90.4522 23.028 90.8219 23.1054 91.1281 23.2604C91.4361 23.4135 91.6705 23.631 91.831 23.913C91.9935 24.193 92.0747 24.5226 92.0747 24.9016C92.0747 25.2825 91.9925 25.6102 91.8282 25.8846C91.6639 26.1572 91.4259 26.3663 91.1141 26.512C90.8041 26.6576 90.4288 26.7304 89.9882 26.7304H88.4731V25.7558H89.7922C90.0237 25.7558 90.216 25.724 90.3691 25.6606C90.5222 25.5971 90.6361 25.5019 90.7108 25.3749C90.7873 25.2479 90.8256 25.0902 90.8256 24.9016C90.8256 24.7111 90.7873 24.5506 90.7108 24.4199C90.6361 24.2892 90.5213 24.1902 90.3663 24.123C90.2132 24.0539 90.02 24.0194 89.7866 24.0194H88.9688V28.7637H87.7561ZM90.8536 26.1535L92.2791 28.7637H90.9404L89.5457 26.1535H90.8536ZM92.9317 28.7637V23.028H96.7966V24.0278H94.1444V25.3945H96.5977V26.3943H94.1444V27.7638H96.8078V28.7637H92.9317Z" fill="white"/>
<path d="M135.622 19.7531C135.622 26.6806 130.593 33.1689 123.722 35.0673C123.254 35.1948 122.744 35.1948 122.277 35.0673C115.406 33.1689 110.377 26.6806 110.377 19.7531V13.5339C110.377 12.3722 111.255 11.0547 112.346 10.6156L120.237 7.38563C122.008 6.66312 124.005 6.66312 125.776 7.38563L133.667 10.6156C134.744 11.0547 135.636 12.3722 135.636 13.5339L135.622 19.7531Z" fill="#08173A" stroke="#08173A" stroke-width="12" stroke-linecap="round" stroke-linejoin="round"/>
<path d="M135.622 19.7531C135.622 26.6806 130.593 33.1689 123.722 35.0673C123.254 35.1948 122.744 35.1948 122.277 35.0673C115.406 33.1689 110.377 26.6806 110.377 19.7531V13.5339C110.377 12.3722 111.255 11.0547 112.346 10.6156L120.237 7.38563C122.008 6.66312 124.005 6.66312 125.776 7.38563L133.667 10.6156C134.744 11.0547 135.636 12.3722 135.636 13.5339L135.622 19.7531Z" fill="#08173A" stroke="#57DB9A" stroke-width="3" stroke-linecap="round" stroke-linejoin="round"/>
<path d="M118.82 20.8147L121.101 23.0956L127.193 17.0039" stroke="#57DB9A" stroke-width="3" stroke-linecap="round" stroke-linejoin="round"/>
</svg>
