<svg width="16" height="16" viewBox="0 0 16 16" fill="none" xmlns="http://www.w3.org/2000/svg">
<path d="M12.4158 4.0918H3.61582C2.29034 4.0918 1.21582 5.16631 1.21582 6.4918V12.0918C1.21582 13.4173 2.29034 14.4918 3.61582 14.4918H12.4158C13.7413 14.4918 14.8158 13.4173 14.8158 12.0918V6.4918C14.8158 5.16631 13.7413 4.0918 12.4158 4.0918Z" stroke="#111827" stroke-width="1.5" stroke-linecap="round" stroke-linejoin="round"/>
<path d="M7.21585 1.69189H8.81584C9.69585 1.69189 10.4158 2.41189 10.4158 3.29189V4.09189H5.61584V3.29189C5.61584 2.41189 6.33585 1.69189 7.21585 1.69189V1.69189Z" stroke="#111827" stroke-width="1.5" stroke-linecap="round" stroke-linejoin="round"/>
<path d="M1.21582 6.4917C2.76915 7.78503 4.72249 8.4917 6.73582 8.4917H9.28915C11.3092 8.4917 13.2625 7.78503 14.8158 6.4917" stroke="#111827" stroke-width="1.5" stroke-linecap="round" stroke-linejoin="round"/>
<path d="M8.01587 9.57837V8.4917" stroke="#111827" stroke-width="1.5" stroke-linecap="round" stroke-linejoin="round"/>
</svg>
